<mxfile host="app.diagrams.net" modified="2023-12-28T16:19:03.978Z" agent="Mozilla/5.0 (Windows NT 10.0; Win64; x64) AppleWebKit/537.36 (KHTML, like Gecko) Chrome/120.0.0.0 Safari/537.36" etag="5hn3H9iVKX5qoOj3UlS4" version="22.1.15" type="github">
  <diagram name="Page-1" id="Kt7ShHHJp-MPmAyPqmn9">
    <mxGraphModel dx="1173" dy="482" grid="1" gridSize="10" guides="1" tooltips="1" connect="1" arrows="1" fold="1" page="1" pageScale="1" pageWidth="827" pageHeight="1169" math="0" shadow="0">
      <root>
        <mxCell id="0" />
        <mxCell id="1" parent="0" />
        <mxCell id="eDpDhIR4D00s_7X7voQF-185" value="" style="group" vertex="1" connectable="0" parent="1">
          <mxGeometry x="370" y="500" width="225" height="210" as="geometry" />
        </mxCell>
        <mxCell id="eDpDhIR4D00s_7X7voQF-186" value="" style="shape=cube;whiteSpace=wrap;html=1;boundedLbl=1;backgroundOutline=1;darkOpacity=0.05;darkOpacity2=0.1;fillStyle=auto;strokeWidth=1;fontSize=16;fillColor=#B9D3E9;size=10;flipH=1;" vertex="1" parent="eDpDhIR4D00s_7X7voQF-185">
          <mxGeometry width="181" height="210" as="geometry" />
        </mxCell>
        <mxCell id="eDpDhIR4D00s_7X7voQF-187" value="" style="shape=image;verticalLabelPosition=bottom;labelBackgroundColor=default;verticalAlign=top;aspect=fixed;imageAspect=0;image=data:image/png,iVBORw0KGgoAAAANSUhEUgAAAjgAAAJOCAYAAAC6Dn0qAAAMPmlDQ1BJQ0MgUHJvZmlsZQAASImVVwdYU8kWnluSkEBooUsJvQkiNYCUEFoA6UWwEZIAocQYCCp2ZFHBtaBiARu6KqLYAbEjioVFsfcFERVlXSzYlTcpoOu+8r2Tb+7988+Z/5w5d24ZANROcUSiHFQdgFxhvjg2JIA+LjmFTnoKEIABHfgjcbh5ImZ0dASANnT+u727Cb2hXXOQav2z/7+aBo+fxwUAiYY4jZfHzYX4EAB4FVckzgeAKOXNp+WLpBg2oCWGCUK8SIoz5LhKitPkeJ/MJz6WBXELAEoqHI44AwDVK5CnF3AzoIZqP8ROQp5ACIAaHWLf3NwpPIhTIbaBPiKIpfqMtB90Mv6mmTasyeFkDGP5XGSmFCjIE+VwZvyf5fjflpsjGYphBZtKpjg0VjpnWLfb2VPCpVgF4j5hWmQUxJoQfxDwZP4Qo5RMSWiC3B815OaxYM3gVQaoE48TGA6xIcTBwpzICAWfli4IZkMMVwg6XZDPjodYD+JF/LygOIXPZvGUWEUstD5dzGIq+PMcsSyuNNZDSXYCU6H/OpPPVuhjqoWZ8UkQUyC2KBAkRkKsCrFjXnZcuMJnTGEmK3LIRyyJleZvAXEsXxgSINfHCtLFwbEK/9LcvKH5YpszBexIBT6QnxkfKq8P1sLlyPKHc8Gu8IXMhCEdft64iKG58PiBQfK5Y8/4woQ4hc4HUX5ArHwsThHlRCv8cTN+ToiUN4PYNa8gTjEWT8yHC1Kuj6eL8qPj5XnihVmcsGh5PvhyEAFYIBDQgQS2NDAFZAFBe19DH/wn7wkGHCAGGYAPHBTM0IgkWY8QHuNAIfgTIj7IGx4XIOvlgwLIfx1m5UcHkC7rLZCNyAZPIM4F4SAH/pfIRgmHoyWCx5AR/CM6BzYuzDcHNmn/v+eH2O8MEzIRCkYyFJGuNuRJDCIGEkOJwURb3AD3xb3xCHj0h80ZZ+CeQ/P47k94QuggPCLcIHQS7kwWFIl/ynIs6IT6wYpapP1YC9wKarrhAbgPVIfKuA5uABxwVxiHifvByG6QZSnyllaF/pP232bww9VQ+JGdyChZl+xPtvl5pKqdqtuwirTWP9ZHnmvacL1Zwz0/x2f9UH0ePIf/7Iktwg5irdhp7AJ2DGsAdOwk1oi1YceleHh1PZatrqFosbJ8sqGO4B/xhq6stJJ5TrVOvU5f5H35/OnSZzRgTRHNEAsyMvPpTPhG4NPZQq7jSLqzk7MLANL3i/zx9SZG9t5AdNq+cwv+AMDn5ODg4NHvXNhJAPZ7wNv/yHfOhgFfHcoAnD/ClYgL5BwuPRDgU0IN3mn6wBiYAxs4H2fgDryBPwgCYSAKxINkMAlmnwnXuRhMA7PAfFACysBysBqsB5vAVrAT7AEHQAM4Bk6Dc+ASuAJugHtw9fSAF6AfvAOfEQQhIVSEhugjJoglYo84IwzEFwlCIpBYJBlJRTIQISJBZiELkDKkHFmPbEFqkP3IEeQ0cgHpQO4gXUgv8hr5hGKoCqqFGqFW6CiUgTLRcDQenYhmoFPRQrQYXYquRavR3Wg9ehq9hN5AO9EX6AAGMGVMBzPFHDAGxsKisBQsHRNjc7BSrAKrxuqwJnidr2GdWB/2ESfiNJyOO8AVHIon4Fx8Kj4HX4Kvx3fi9XgLfg3vwvvxbwQqwZBgT/AisAnjCBmEaYQSQgVhO+Ew4Sy8l3oI74hEog7RmugB78VkYhZxJnEJcQNxL/EUsYPYTRwgkUj6JHuSDymKxCHlk0pI60i7SSdJV0k9pA9KykomSs5KwUopSkKlIqUKpV1KJ5SuKj1V+kxWJ1uSvchRZB55BnkZeRu5iXyZ3EP+TNGgWFN8KPGULMp8ylpKHeUs5T7ljbKyspmyp3KMskB5nvJa5X3K55W7lD+qaKrYqbBUJqhIVJaq7FA5pXJH5Q2VSrWi+lNTqPnUpdQa6hnqQ+oHVZqqoypblac6V7VStV71qupLNbKapRpTbZJaoVqF2kG1y2p96mR1K3WWOkd9jnql+hH1W+oDGjSN0RpRGrkaSzR2aVzQeKZJ0rTSDNLkaRZrbtU8o9lNw2jmNBaNS1tA20Y7S+vRImpZa7G1srTKtPZotWv1a2tqu2onak/XrtQ+rt2pg+lY6bB1cnSW6RzQuanzSddIl6nL112sW6d7Vfe93gg9fz2+XqneXr0bep/06fpB+tn6K/Qb9B8Y4AZ2BjEG0ww2Gpw16BuhNcJ7BHdE6YgDI+4aooZ2hrGGMw23GrYZDhgZG4UYiYzWGZ0x6jPWMfY3zjJeZXzCuNeEZuJrIjBZZXLS5Dldm86k59DX0lvo/aaGpqGmEtMtpu2mn82szRLMisz2mj0wp5gzzNPNV5k3m/dbmFiMtZhlUWtx15JsybDMtFxj2Wr53sraKslqoVWD1TNrPWu2daF1rfV9G6qNn81Um2qb67ZEW4Zttu0G2yt2qJ2bXaZdpd1le9Te3V5gv8G+YyRhpOdI4cjqkbccVByYDgUOtQ5djjqOEY5Fjg2OL0dZjEoZtWJU66hvTm5OOU7bnO6N1hwdNrpodNPo1852zlznSufrLlSXYJe5Lo0ur1ztXfmuG11vu9HcxrotdGt2++ru4S52r3Pv9bDwSPWo8rjF0GJEM5YwznsSPAM853oe8/zo5e6V73XA6y9vB+9s713ez8ZYj+GP2Tam28fMh+OzxafTl+6b6rvZt9PP1I/jV+33yN/cn+e/3f8p05aZxdzNfBngFCAOOBzwnuXFms06FYgFhgSWBrYHaQYlBK0PehhsFpwRXBvcH+IWMjPkVCghNDx0RegtthGby65h94d5hM0OawlXCY8LXx/+KMIuQhzRNBYdGzZ25dj7kZaRwsiGKBDFjloZ9SDaOnpq9NEYYkx0TGXMk9jRsbNiW+NocZPjdsW9iw+IXxZ/L8EmQZLQnKiWOCGxJvF9UmBSeVLnuFHjZo+7lGyQLEhuTCGlJKZsTxkYHzR+9fieCW4TSibcnGg9cfrEC5MMJuVMOj5ZbTJn8sFUQmpS6q7UL5woTjVnII2dVpXWz2Vx13Bf8Px5q3i9fB9+Of9puk96efqzDJ+MlRm9mX6ZFZl9ApZgveBVVmjWpqz32VHZO7IHc5Jy9uYq5abmHhFqCrOFLVOMp0yf0iGyF5WIOqd6TV09tV8cLt6eh+RNzGvM14If8m0SG8kvkq4C34LKgg/TEqcdnK4xXTi9bYbdjMUznhYGF/42E5/Jndk8y3TW/Flds5mzt8xB5qTNaZ5rPrd4bs+8kHk751PmZ8//vcipqLzo7YKkBU3FRsXzirt/CfmltkS1RFxya6H3wk2L8EWCRe2LXRavW/ytlFd6scyprKLsyxLukou/jv517a+DS9OXti9zX7ZxOXG5cPnNFX4rdpZrlBeWd68cu7J+FX1V6aq3qyevvlDhWrFpDWWNZE3n2oi1jess1i1f92V95voblQGVe6sMqxZXvd/A23B1o//Guk1Gm8o2fdos2Hx7S8iW+mqr6oqtxK0FW59sS9zW+hvjt5rtBtvLtn/dIdzRuTN2Z0uNR03NLsNdy2rRWklt7+4Ju6/sCdzTWOdQt2Wvzt6yfWCfZN/z/an7bx4IP9B8kHGw7pDloarDtMOl9Uj9jPr+hsyGzsbkxo4jYUeam7ybDh91PLrjmOmxyuPax5edoJwoPjF4svDkwCnRqb7TGae7myc33zsz7sz1lpiW9rPhZ8+fCz53ppXZevK8z/ljF7wuHLnIuNhwyf1SfZtb2+Hf3X4/3O7eXn/Z43LjFc8rTR1jOk5c9bt6+lrgtXPX2dcv3Yi80XEz4ebtWxNudd7m3X52J+fOq7sFdz/fm3efcL/0gfqDioeGD6v/sP1jb6d75/GuwK62R3GP7nVzu188znv8paf4CfVJxVOTpzXPnJ8d6w3uvfJ8/POeF6IXn/tK/tT4s+qlzctDf/n/1dY/rr/nlfjV4Oslb/Tf7Hjr+rZ5IHrg4bvcd5/fl37Q/7DzI+Nj66ekT08/T/tC+rL2q+3Xpm/h3+4P5g4OijhijuxTAIMNTU8H4PUOAKjJANDg/owyXr7/kxki37PKEPhPWL5HlJk7AHXw+z2mD37d3AJg3za4/YL6ahMAiKYCEO8JUBeX4Ta0V5PtK6VGhPuAzZFf03LTwL8x+Z7zh7x/PgOpqiv4+fwvzpJ8P5CR8cwAAABsZVhJZk1NACoAAAAIAAQBGgAFAAAAAQAAAD4BGwAFAAAAAQAAAEYBKAADAAAAAQACAACHaQAEAAAAAQAAAE4AAAAAAAAAkAAAAAEAAACQAAAAAQACoAIABAAAAAEAAAI4oAMABAAAAAEAAAJOAAAAAFnzXrIAAAAJcEhZcwAAFiUAABYlAUlSJPAAAEAASURBVHgB7N3Xl13Jch74De+992h/HclLctbMkvRH60EvmrX0pCVp5CiJvOQ17eC9KXhv5vtFVhaq0UCj0AaoKmR2b+xT5+ydJjIy4suIyMwV/+8fLj2fRhoUGBQYFBgUGBQYFBgUWEYUWLmM2jKaMigwKDAoMCgwKDAoMChQFBgAZzDCoMCgwKDAoMCgwKDAsqPAADjLrktHgwYFBgUGBQYFBgUGBQbAGTwwKDAoMCgwKDAoMCiw7CgwAM6y69LRoEGBQYFBgUGBQYFBgQFwBg8MCgwKDAoMCgwKDAosOwoMgLPsunQ0aFBgUGBQYFBgUGBQYPUgwfKjwPPnv+zWRitWrFh+RBst+sUoMJ8ffX727GmuZ1NnU+y0YsXKaeXKlbmvqEtlPmQ+m0+zhXbMm+j1Nnm+Ka+F1ultnnv+/Nn09Omz4o1pej7HHytX4okXvDGfR94m//Hsh0eBAXCWdZ83IfE2gg05Gn55AWLeh7Bb1t3yATYOD1JgD+7fn27fnMl1o/5GipUrV00bN23OtWVau379tHrNmmnNmrUfIJW+3+Q+dvu9P9HH6I8Zm60vvjsJ6vn0ey/nXd4fPXo03b4xM90Kfzx98iT88bxk0foNG6d1rvUbprXr1k/rcr3Per5LmoyyfhoFBsD5afRbtG83gUipmDF/V5i9qdJdeHquC5J+f9O74/dBgVdRoFlsnk33792brl26MF04dzqz9af16OrVa6Zde/ZNO3Ntfr5tWjdtHAAnlOlApN/n09UYZdWQ3mZsNnnAevZdmSCPnk+/zy/vXXx+HIBz4/qV6cLZU9PDBw/KkqMu23bszLVr2rJtR1Vj7dp176I6o4xlQIEBcJZBJ77chCeZ/Tx8cD/XvelhZswP7uf+8OHLj33v7y7kVq3iLlg1rci1du2azKjXTmsiVOauNatLuPbnv5fR+GJQYB4FuoIGaB7cuzNdvnhuOvHlH6cnTx7XU2vXrp8eP3o4rVq9elqda1UAj3fel6KdV/X39vHp0yc1bh8EELaxnPGcMcxdw5VnLG7esm3atGVrgcEV+W7VqlU/WF+uwTu3btbFkqaMZ+mTNWvXlmVkfSwk6zZumjZsfD8AEw9cv3J5Ov3NV9O9e7djxXkaGbRi2rv/yPT4MV5ZUW19vnnrXDs7YOsAuv/deKeBNnRBM9dIHxYFBsBZhv39qATFpenqpfPTlcyWr148P81cu/zGlpYgWLU6Am9NgM36EnoEKEG6dfuOadvO3dP2XBviTqCIzLxHGhRYCAW4pyjTe3cDcM6fnb7+4z9FaTXQvW7DpmlFQPXm8BpX1br1GxeS5bJ+hjXj2uWL05UL56aruftsDHPfmXBs37F7Ovbp59PxT38VkLOtvn8TwDHxuXj29HTiqz9FNlyYHmQCZPKzNZaRnbv3lhVt36Gj075DR96LBe1RAJy2fvvVH6c7s24qQOXRwwcF7LimNm3eEvD7bK7vARpAGb3cubZcgJFJGppwa7kGwJkj2wfzYQCcZdjVbSZ0aTr19ZcRZn+cvv3yX6YzJ75+Q0tXNGtNQAt/N0WzIcJk15690+69B6Y9+w5PB489zDPrSpgSPAPgvIGk4+c5CvSZ9b27t6eLF05PX/3pD2WZ8AClBdzs3Xdo2r5rdynsuRc/0A8U9vUrl6aTX/15OvH1n6ZT3/ylxnBZWTI+Dx45Nj1PoPauPfvLmsOC86ZE8V+M++cP//D/Jd8/JdblRqw5N6a9Bw5PRz7+dDr60RcBmqvSB3vTJ2/K7ef/HZAB5E5++ecCc09itdEu4NekyiRr+64933Ovee7hw/vTo7i1Hj96MInl6eCmx3IBhSN9eBQYAGeZ9jlz9NPMaFhz+LMf3Ls711IzGe6AVbHWlB+/4olXlM/bLC+BEjULEi/xOELn3u3b060bN/L1nenenTsRiIcqXmJnhOsw/86RdXxYAAVWzs6oAehucdiwkdVm/bQq1onmGn0R4L6ALJftI8Ywq8T8MQwoSsCA3+ZbMxZCCG4pEyAy4WHG+f3IBS6wlt+jsrJZwfQ+ErnEXbZ+44Zp44PNUwc4LHpr16wrefWyFQaN7t6+OV2/emm6ef3adCefb9+8WVYuPLUpfLb/8NECgWuT90gfFgUGwPmw+rviGrqSsSqhFMpsgCHhaVZIaBJ4Jfzu351uzVyfrsU3fjezvVs3rkWg3KpZVAX9ZWa0IjE5WQvzgVFyNPdtKMDiZza+JiBm48YtcXfuCnh+VFmsT8wHN8v62RVUq+JaGOnDowC5tD4xQIKKpR6Ds2XrjsQFbS43k4mZWJyeLCu3Ko/rzXXl8vlyv5FtLIPbd+6d5Ltj9776u7837h8GBQbA+TD6uVpZSiaKhtl2UwL1Nm/b3oI6IwBYcroPG7i5d+d2fPQtUFnsxMpVa8oKdDsgR0Dflm3bpgPx108bIm7i72YNGmlQ4FUU6HznLhYCuNl/6Fhm6LMxOFFGO3bumTZGIfl91eoBcF5Fx+X+nfiiLVu3TXv2HwrQ2RJrUmJpwjO79u4v99SGgB+yy3c9lQUnskrszrnT3+Q6MZ0/fbIA0dbt22NtvlkWZ1arkT48Cgyt9AH1uRn06gCRzREih459NB0+/um0PgGeBAuAAuA8efyoTL7XrghsvFQrLm5n5UWz6NzJMs5V5Sf3G6FCWW1duaNicz4gUo6mviUFuBbEbG3dvnP66LNfVxD7M+7QJPy3e/+BKLIDUXDbsxdOUPNIHxwF7Hdz6NjH1W4uNNZkxhrgd1tis7aFd4Dgl91UnhNfRH6JXSKrLILw2eorE7T35HX74PpwsTV4AJzF1iO/YH0q8C5Khjvg4NGPp1//zf8VhbIjQcUbamZkVQuhMHPtynTu1De1muXyhbP1HXfVvbt3I0Qe5f2tcVldSBDkxZptb4hgmqYtv2DNR9ZLnQLNFbqyAI4Veiw4PX6kYi9qpUsC2MOfLTbsxSx9qbd91H9hFDDZOnTsk7LYPIvrqaMSVpvVs4sb8MfLAKfFGya2KGCmAZyHxUesNiZstifosUsLq8l4arlQYACc5dKTC2gH0y7hsHbdumlLViQwBVv2LQaC0iEMzIIAGM9RNATDnVu3ppnrV2eFxeME8t2abiYuZ+bqldp9Vh6EiNULhArTctuX4nnNpMzQVyYveXKFVfBkhJGy1KnVa1XFZ1jt0AXYd03RtnBP4HTKcSmDj/7Z8wgvM70keVOkfO4t+Dn3uDu0o+e5ADLNltO2jK9yqjzHC7TLtHKu3imrAce2h8v8lWXz69/LRU+BntWOzDpbWwjgF1vUFxgo+re6izuoduW717Wj4qfEUOUSKN72OLHPSaNbbfY4u7wWfVjzikahjZiXFzR7EUslr56qnp3+s/mje+/n1oetf+fySjlm0urek+f0iVic1La+1m8si9XufO5062U+ST/jzce5lOl3blEr+uwHo3/7s9XuPO9e9VfEbJme68H16tVTL6//7e7d6qfZvNrnlqe+mk+b+e+96rNyBc+urkDZWR4N/Rdz6u1zb0HO96sPOu+/aNOLwF106ZaU4ov0le/meDd0IAv0vT6vfkzf9ORvPLl69drp+cqMidkfBJ+38dxoJm8ByCZk4gHt7WN1nqBp8qfXocBO3OyCkE3aVqcPepn6A+8Yr/0795GWFwVejPLl1a7RmtdRIIPYQF6dmBpAx2V/CW4Bg54SzwMlwJmM7ZVxOXtx2GCMxCFcHme/CoJlJruOWtZLkFAwlpzemrk23bcKaxbAMCmL97F5GPBCoDAhW+1w986tElyEpdiL2rgs7jMCsAvS3gzl2ifDu/bu6FdXfJ5bE8FIiMlLmwQaWvKuHa8DBj3/+fdSqGlTCXZlhQbKrfIjQFeiIYAQJUnJKk98wIYcNbBxk3imRuP5efbPpTDSDpsw2mytNmGMECawSzmnnWashK9VIPIVeLkmylH/vK4d8kUjwp21zYo3q2MIfOb+AgBR+jpxjT2O1s/2+7rQKHQqmqW8lStfKCx1lq9LPo0e6ix/yiT9HpCq3h046Du8VPQP3dVf3spNNlW3mauXA44vV32VQXkJWHdVnMUsTwLAaG6zu9u32vEOT58+zvNWAK6q3W23Zofb9Vll0/rnBW+gQQGR7OJNwQLxLJXVTwlYXbVqk6Krr+rDS//M9dMsrxVN0+6njwMenzXg+NIrr/0T/1nivGXbztCigbLX9eNrM3nHP2i/5G5cW7LueI3aXybgBE9uTQzf5tndhT1bvJd9jux19CjLtZ+gVXhjLX5Ou9GBLNiYCRQ+QYMVK16AX4DlxrUrKetygZdeBxOujbMyZC1+TV5iBG/eMMm6PF25eCETrmv1HX4BnLmlAOJ74QPu9rMnvy4QBHzjh9rXK8HM8vU3fhoARy8urzQAzvLqzwW1hmAxg7VskvJx2V9DIlSasts47ch+GITNt1v+JYN/ZSmMBjQeFDghjO5kDw2ChHAjCC/FpUUQ2pOCQtwRAGQTMbEXXZHejXDi3iKczOhcziEiYAhOdXtZ2PRyLVPvyk55BRACFIjjtkeI1RNbcwVsxBXHh0+pBP5o3oISoUxhcsnduT2TTccCxu7emu7nb1e3UAAcGzZtqlVBWyMsCUoKVHq5/vMLBhbQ4E7oJL5JO5T3+FHbqIwydm3enA0Wd2R7eo2LF5AQjmaYn9XcZ/2GRkABBWO1G8vb/ewIi2bACBAlM3uKbNi8KUtoQ6coDy5L77fZ9VyWcx/85v37yRewvRXFcitnBqE9hSLfNiPOHkrho07/zVHq6tz2IGlAyXYF1y5drD1dAAUJMN1z8GB9RjfgEUDSFrNyge1XslmlC+3KZZGVeyxVeNWMX13M4vs5V+pHybmALxZLsWe2/F+1cnUp2x/qI23WJ/rptvZmpY48tbf4vcBiVfmN/4grevL4cNUT/QG01/XjGzN7hw90nmIhuXguK5RC/wIDAEL4Eridv78MC+7NWHpvzlytsdP2pXmUMRGgm3GyOXSQp/PGXgUo8BhLCzAC/D+L9SfcMO3YsyeroPa2GJxNz9J/K6tf8NEl9cqGpsq9U3zegomNhc6zBXDicieX7JJNvuw9eKT4vTaVXN0sR++QtKOod0SBAXDeEaEXQzGlPGatCyXc533uwt6d8KFgfC5hFKVK6XRXUBMeD8tSw5rDOkAZmUVdyAqGa1cvNjAQZWYFBHeW2Z485Hk3++oQZAThxs2bo2iznDNginLclh1aKcs8VsKQlcdsjXKZyV4X3rPPRX0fhWafHkBKKpcFsBZf/oZcm7dsiXDcG4C1rxTbpq1tV+Y2c2SOdrX0EKBJOZQ4d9zNa1dLkVNwymK16Fvme5+gBwgISJe9gQ4nQBL4KatY2sJaRaBLLADyoSyuJzj7ambErF130wZlUtzNGvK0lDYryMZYGmyAB4DsTDts6rYjG52VhSS/qwcrhf5Ae0L+RvYCKdoS+AEj/bgO/VN7HEXBojPLFrpbSUcBH8jGcQePfFT9rr7qDTQANEDYjYDR69cu15YB8tUWAKC5NZ9EX3P/2AE7M/WAvPXrNyXPo9ORjz6r78sCmE4FvoDgr//8T8UzyiowE8sMN2m5DdL/ygec0B2dLAE+9e1fAnjuVhliMgA44IPlDLABGJtlsPVZd6EBFDattCeKvZv27D9YF7oCPcpXXm8zoKSfrkVxXo0SRVNHB/ieZfLprKvyeaxDaO+9V6XGJysreBqvsFCtCp1YIRZ70iZtY9E1fs+d/LboTzagJ8uZ7SOMy2bde1SWNmD99m0Tj1glw9P4Dn2NEfTeve9ALnwcwLIzgcPJp49H4NFGfye+/nP47mbJFb8duHO8gGqNWDIpExZg5dL5M6nTl7Ewn42V5lJtY2Ecq3tNUlK+MQ2YaYuxxE24dl34Kx2wKfJha6xqEUwFehZ7n4z6vT0FBsB5e5ot+zdYaxzXQFkzB8/NtmbxAGFB+VCezMpmySw4FNH5MyejjE6WorkdBbQXIIkSokifZIYGjFCQbVZ8Y9oZC4/dSc3+tu/cVQJR/pFrEUpTnpvJ2UVnM4M8U4fwVd7J18zeMnb1AAykPjtrFqj1tRtzbT1/8GiCWo9kw69jNXMHPLpQ9R6BCLwAUIThhdpT41SE7YUCcZRszdxTR+XFR5X/WwxLs1ysyy6wnxV42xSFaalrq0sDOPK/F0BwOQKZUD5/+tR04dzJlHclli7tiAsp9AMUKWXKsMATsJaZL7BmxduxTz4vwb1te6wQiWNhueCy4QoAmk5982Xof6LcCdcDSO5HIbe4KG4keSeGJO1tLrC1BS65TaxOUUexVC6fXYAXeqjzhTOn0gcns6Ha5QI+wE93QVCC3cw/57YLALl7528KbFppV26lzJy5zi5lJ+Ov//SHoin619lH4TPKDuCw54kEPAGGrFHKPvGXf06etxsAzPMOZhTsDrA1cMdykO0Nolwf3o+imwI+AkLszmuPHXyx9+Dh6fDRT+q5/dnmAKACyrRXOwA3bdZX5059O53NzF8/4XM84DnJnRIVB/Y8781+Xb/5p86MChBgLeBi25pg/j2xdqrr043tkNG5hxfph0aTZwX00eHLf/nHas+quLe3xSLGgmsygGYAiYlLc19mvGSs4GmyofMza+HexP3tzo7Vh49/PB39+POAjK2NN9JHJkusLXZZBti9TxbhceOsA2AWwjtxWV66EICTHZ5t8Hcj9bgX3sIzOqP4PfmVFS9jihxBexM2d1ZMkxLjWXxg79dF2hWjWj+SAgPg/EjCLefXuvKPzIkibQG6LC91peFNuPNxN5dKE4SUw51yPV3KWUMEFFdGs3rcK0FG0IvP4fqhfN0JNYCG0KI0SyBFKHbQNBOrwblTJ6bTmb1TOC4KrAKMKezoG9YeqX1u9dQGMSxmembjlJP4HK4ksQCU/KpVbfdmioql4nIU2+mv/1JK7ezJb3KG14UCXFaOtRPZKTf5K22WHhHAyrLTqi3vCXquP7FHBQQBl7JuXS+QcPKbP1V77NdBMJeVIVaYqrxsk5qwbQHhpRwCyMQBKZfCnJ7HlRfgow6PZreod7bQ6cxmvw0IuHEtVpwofxYWKTUtYJMX6y/Kl+LgTmMFMes+kFVN+qr3rXoBombHlAi3wZnQ5EaUvXZVrFbl3mnS6dHOABKrYZZ/9BMz/AQHx7OGf8QDUYzn037lSeIgnH9EQaqz/pDwQHMTha8CrC6cOR1X0fUCKqwCnr89M5O/1yUegwup8RulVcAXAMmFL3qwOXdXWcsCSgAbloTnmcmLu9JPgDe3hzaf/var6UwusR76uF0tIDvkK96dA755l0LuCaBjybLC0MZ1wLi6NLqh2VJIDeiygjjX7lz6v2KtwoO3ZnaU9dG4YTUrd2jGdK1kCsioPghNBOn3sYIeLD5kA15kPdl38EgQtziptg+X301mTDbkweq7ZTsL5v6aCG15uL1o2N1P+pNV0PgoPku/Sl0mPXmSyUVAsonV2sgXlst1G2J9zjsmXHi5jbd6bfyzzCgwAM4y69CftzmvF8QEkpUvBDnF9brE0sLE30HJk1I4z8psDWTYMJDVw4zKDLsEXQQk5We2fj6WAzO6MyejaK5fL0XBAsOfX779CCyCU+oASpwHAUY5Xo8yrb0wIshq6/YAj+0795S7ANCp4NE87wBIyuyrP/1TWUDUuYRilCc3mjI25S5WKGK/CVAK+EELvrVPR49j6rSg0FhugJ6L505Np098lVO0MztNO9SPZWxjLFvihShsgZgUyL1SGmbDbVUI2tl3aN26r6IwrBhbEaEfQZ/yuWYoBaDy4nlxEhfmgE25YDJD5h5cFVoDSzUjDmDjrmJ1UaaytU9f+r6UdmgnRoqyB5y4Du4GKFIGrCyb4+4T3CtY2cxavARQ5H2uiW6Re5kmnTY/9l5lRPEBLfr5buqvTiyN3KF+aG6756F7A28NXDQ3qjY4fFZbuS6PAFQBN8UzsQCw3pw58U0dSKn9+BDfcA0KqC8rQOil7wo8B0CjP3AFZFXFMhzw8u59B2M5PBxLxWdlQXSoZdEZSF2iCf2LXgGqdwOOG+gDltv5dSUK0n48ZGw9yCSmNgwNnQushv6C9NH+Zixzxsf6WOxWLoAm5Ix+E/fDvXX4+GfFb1dyOr1+0wfAThtbbeUagLndQaK5uCnxCasd1ynLIssQ8DvS8qTA0h1py7M/FlGrmhIvgf1SrQgagq1Zd3549QEhZ2ZbgiRKYWUCPFc7rTxKg6DZEuVr9ZTt+/0tX4DErPB6rAUXzpwsgMNyU8ozs8L1OyK0IpxsDLcjYIXykbgsWC4EH5r9MZ1zL7CUCAwtn3tM6wBCL59i41pjqTgTAOKUayuECGPtBGoESFOee6KwHDxqFm7m9zBCnKncoYXqYXY4fzao3ZSs+AAxJPI/GYBT1oKY3cUKcQ/tixLkKmLFokyvpC4VV5C6i3MAdK4H4Ij/eJj6iuU4cPSjKgsQM7tmrr+Uma+ASwAQeGT+56ITX7NhQ0Ba6keYV7D0feb8zLAhhVyCQAGeZjW5X+ePUfAXAswAP7N4gdZWcwE48tweJWMfJbENbcb+pGbSLEKsZuKpAAJ0fD0Erq5b8D814069gUe8RdkBGz2eRv1Wp43KRAsWgGeJ9XoQl9XTx231Xn4sHjt87NOyKMmr+CAK8nIAIjBd/ZRynqSf0HtP3BnHPv6i+BXg5aYB+q7maADg2FSAxQu40lpWpT3ZvPCTX/1uOnL80+oHK3fWZyVXWeEW3OLF9SD6rwi/ONzyzu0V4eXHZRVlpdq0JZs0Jr6FZQzPVlxY+HdF6Gr8CTpmcQF+d1mVFUCIZvjOCrc3pZI76WtAHe8d+eiTorPJEbnBasglqS/JpnWJddJ3YuOOffKrnMAeV2ne9dveAwcLsDa59MOTtDfVa/y+eCkwAM7i7Zv3VjMCn/WC+4iy59c2c+vKm0Kx1JiLgyAXq1NKLIrjZU3WY1UoOmCGwCmLSJS7WZ/VLUzVVlpRnBTSgwg9y1JtuX45ivvalStlzaGggSGBimJSBMUSrISddHNmz7QzAtVBjoRdV4IUOpBjlrd9x6mqM+VPEIvvACZYQK4m5mYmFh9WDkqI62TvwUNR5h8F3IgdyG67e/aVEuPjZxJvq6BuVpm79u4rCw+hKQFJ8hfDcilxRNpkNY6AS23ZuXtP8j4e4ftFaLCjAMmaKAhWorJo5RmJEtAfgj3R+fq1HCwYUObk5BY3lHoHjJQrjsVh+4aipWBOO8MeT/76Sh/oq2bpinsw9dcOoAb9KV8K7FHyADBZh5QpvgFYozzUGx0++vTXtbJFvJH6AgJicsrylvoCdp4TV9OBK2Dxc6Ra/h1PBGuINtrPCQitlXqz1hUKT/BxAZ4oNa61cueFp1nU1KRiNqKgAWdg2IpBq/u40LilWLYAYWB638FmicGvaAng4CH8KBYK2AJ4AD31o7QBWLzNLepZtMMbflvKiRwgA9AXbXYL2s74APJZBMkEQHwmwNK4s2now1ghjUOWHTxXlpY8o0+ePNlcfPcmmhTACe1YcYxNExxgBZi6E16tWKBbt2uMqB9XsdWI3FuHj2cDwYxd/L9yVdxesQBzI4uV86y8R1p+FBgAZ/n16U9u0eMoKgqKCd4lboLii+SuvAkVJ/4KHCZAWAxel6z4MXPdGeVPyAjwpCRYKijUMvnnGYG0BA6AQ6EDHCe/+XNZJx7E2kAwEUpWEx2Jwv74s9+U6Z+So3CknRFgfPGUCQVEaFkFU6s8AjYq9uPMtwVGmLgpMNYV8SCX4t7haqDsACRgjNXmeMr55Fd/VZ8pM9YKAp4SI6jRBpChxFl7ABPWE2VT9ixI8r9y4XzadbvouDH1ZTY/dPR4AYVPfv27st5QpoSv1VOAGyEOfLDiyEsskH7xN0Bz/+6Gah8rwu2c9k55oJP2O/oAAGSKP56jEdQPaEPfWvlUVhDBsW0VVm2DH4WlbVaiAAH6ofbTyd8N1MalmL47GFD22W/+utwEXDEUCf5wmdGXiyvgC/ABaCn2Xs7r+OTHfA9Qfv67v52Of/qr0M8eRFvKolMrtpKhvihQEYWrbrdibatA9xzyeX9VgPtsDIY6A3TimFgBWauAY20D0Lia9h04UmAUbQHjFawO6S88CS3pj3MbEh8WWw4e6pOBMEIBGmOmWZtaTNuPae9iescYEbh/NGNRHM2+xJ9ZLIBP5oOOW1nxiBYz16zwu1r87G+8jO4tUD1oNd8tJAGueJzsMIlZlfECWOoXsmR1Hfz7wsJsjOujPQHbgBj+Nzb1refVt6w/+W6k5UeBAXCWX5/+5BYJtqRIy+IQpUCBU1A9EWDcMRQ+BeLv1yWrVyhFwvCz3/x++k2Oh2AtoMwJmSZXWFtajATlyy9fS0CzXFTsidmxWS9Atf/w0enYR59Pn/z6r6aPv/htCScCSmpKJVaGCC7A4HFcEsANwUppE7IKFPy67/CRUooAzrmAHi4kJnNtBwaAMnUGcH7zt/931dnM0XLoN8ligls+Vpkp81wsUeIExNaoY1keAp4O5biMY59+MX36G6uN2maE6Lxt++4I40NFY3EFLFnoog1Pn9qHJkHEUahmysBNxR9kBqutRacIe0uhDx4+ntVdnxbAaUK89dKr6t/7wcxaf1fg6J2bZe73d1nr0CV9wD31aQAOi4nk3Vfl2X5rgdxcFCxGP2cyg//it7+ffvv3/09okRUyqR+FJQE06wKa+5Js1qgLZ05Oj54FrIdOlJw6tZgSezjdrJOoWfBYGvAPa0QBnPSFIOiDAaSsMq2MxEElfuxRwJJAWi5UljkWHLz8IrWA7sY7r9+o8cXzS+MTHjYWPw/9WSGtUNw56yrWAnE35dYMz+PVb7/8YzWsgqzj4uWGLoCTcaKv2th9c9v1G17W18ZMA6FnAm4bwGGRkTxHLvmddbRA6sEjby5gPLGsKPB6zbSsmjkagwJ9Fs0HfqfiU7KbbIJWu6Awa+WKYJ4XXCqmg/WBG4YAYgFYGwEiwFfcC6Fhhk7Rvi4VGMrvFINZF4sPcMOP3pWRdykFZVOmTM73szTbqizWAMqmZmJRrrv3HY5rJCdPZwb58uyrC0nC1waDu/ceKreDXVPl6+r72tQKnLTL3ilAhO+5gToAsS+P5ayWw5qpazvwwH1Fob8ueb8sGRHgrC7VluTN0kOgE7xcc+gn0NLMU97a4jdAgRtDn2gjYOESOGk5OQWhHfpv/ZMNpVALvGQ2q2LK9xxXmKDXCoSNdUIgcFuR1Ya8slyvSv23uXtMFPoH3wCb8rSqKQU2oJr6oktfnfVynnP5vKa8l59f6N/yRTfgAQ361d/3W6Pti5WA/bf59wZyYnlK/wOSbaVT21iR1aV2yC5Xxgse8D4r4dp1K2aDw209kD5MPdSrjTXuv7ZySr90Oswve6l+bm1BexaQZgVB/558NvbbOP95Ylw6/fpdWf3zQu+9fuP+YVBgAJwPo5+rlYQswWvH3HtRetwnZpwsHpZQd3eL4N6zp7+ZzmdWeuXCuQIBoijNjiheM9cdcfGIsTCLN0uSz6sS5eN3QYTK8bnFIbwQht5Tt+8AnMyiKXVbvlM4feWUvSuYwoEEQpRg66l/VkcuKFYM+8KodwMGlofm0NAADhaKTbeyQVw2JaOw7Z/CAiIBYnZOFVRcAG7OMvCirF7mq+5lPQoYQM+2L0g7NgGAVEeuEwCKu00cA5N7rzvQUKAwtNIOe8Js3JTl3LezcufOqgANcS7tqIxm9cpqqFIyjRbAlc3wWKNspChWx2fuP0CJQpJelPf9FvitAbmWp7+1SV9YcnszS7W5BeQF7K5cySWoDa7v5/dLfSOYV4Gtvt8v2Pdcfq1u3+W3+XXCe9xK+h8IRUOJ4u4B2wWi5tHZ7/LFg7XlQJR5Bzd+kyeew9P6zLhbXqnT/btjsLexaA/kzIJPf480KPCuKTAAzrum+Hssr4RuFJUVENw2NrQTd8ICQxBZjsziMHP9cgGDC9mQDhjgGjETE+ewJYBGsN6OWB8oaBYIgIWCeFWifL3LpOw516tidgrgRBGw2DRgkA3wEuDMrUHhUPrKZ/ngPhLbM3/GOL9sIEoMDStOWXryrjwoMH77CnCMdYjV5l7iYmqDsiwR5rKQADFlKAswUH/KbmGpKTaAT1vKVF/BlNxLT0sZV/1qqfX2WKYsc+ZSaW4NnwvkFN3amVRrgMLZ1UKsDSwN2qAtUgHHWRBGkQro1K9cjJaNb991uoBaDwjWHoC2Kx+KuqcGCgSRp2xlzlou5EtZA50zCcY9f+Zk/n5csUTqw60nFqcre3nLqym22RV5tdaol/TT7y3/WG7KqtbLepFvbbYXJTsfAL74df6nVr8KpE8gNV5sVe0ASo+gtTJevNfaBmNFyc/91p578dTy/NT7tk8yOi16a/3ttw4CX/69PzfugwK/JAUGwPklqbvI8i5TfECEWBD7y1DAlCczfgs+FfTHDeEsoxt1J+wF41Fc9vSw7NgOpCwplua2QL2fg40CDAIAAAPBn8BIHdgXpaoO6kcpl4srdZ6vlF8ms9+ACM9S1BRQA1Bt5RPQRClrP3dPWa7yHQAieX9dXDrijLT7bYUzMGXWjpbVjpRTQG02/yb8G6jwnFVLT580Gqpnu9pu0WjycgI0uL9YsVh5gDErSNbGqiIBpCtilXIkgmXh9xKkvS3LuYE+z4qJ2prdkAFG73PpdYWEzpbXtj102gopdOzuG0twL549VcpLnJQVbLUDcYCuVXACOpXDstOB4XxQ8HJbFsPf+APoLuti+hsgkgA4fQOkar+/nz6ddUUFx1QMSfi1B4DrK30nFb8mL+NDvgDfSIMCgwLvlgJj1L1ber/X0iheApgypNjtn9JcEW3267f+jBm7z2JfKHpKSyDhR5/+Zjr00ccFcNoSWTP115v/F9pgZQMY9noBBgADirqURupRrgAAJ3V5k8Kw9XoBnMT9ADjetcS5uQraydgPC+AE3NROwLMKbBZMsBaxECmrA6SFtsNzHeDU3h/KKQXZAJRVH+hVSjSan+WLxWVl32ys9GNATvLxfgddvXx0AgK94zd1ZGmyQkydJX1rib9AzgcBq06D78uoBXg7osD1JJ/lB+T2mThLlXxqxZgl4FkZpoxerhgcxzbcyg7CNhsEluwvYinurj0H4tbbn3odLvoDTc+DFexLs5hTAyM5VyzATn8DuHoAgOlxVO107ACctQAn60T6LvTVt/oCz+oPkwgJHYFjrlmBzgPgFFnGP4MC75QCA+C8U3K/78Ka+ZwyM7sGXijaDnKqdlFKBDyXg+Bcs3w7DZulH8nGaIey1HtPNskSm0KAy+vnSmVhErcQq0bFLsxabyjXbvWYC8j9gXLVSRs8S9F4l89B/ja263m7AxiuZ7NlaUt/H9Dxub2/sFYm+wIDBdZmARtF2MAV0LiigprPnf62vgMezPJfRUfn/Fw4eyJg4loF9wIs2gFAUb5cM4CITcusErp+LedEBdDUPjcBIpTzzZlncSs5NDMHlmZ5eQuovlX724ih2p3VXDuzGqkd6ukwQpaMLHl3UGlcfE5dPhTwNHPVniZZQh0XVYvVivvN/iOxBorxsdlhOw8qmxPms7gm1p2yFGXXY0BVvRdjwivikyyVZ7kCjo0JoEWs1kzoytV3IZYr48Hvxo2VV5bT+97ycsASMDJu5OdZE4P2TpaWY8ORBgUGBd4ZBQbAeWekfv8FFUiIYKZUreARQwPIVCyG3V/9l5kp4GJfmrLcxNVgozKriQT3bt+5J+6HLMlMHm+j+BfSekDGRRG6AJJm8F/I229+Rt7SXN6zZdTfDZm8OZMFPDHXBgCnLpvkNfeFWBvLut3PnPiyXCPiXF5FSwBCrBTgwHLCqiU1OrW4JAp074GjFT9l5VkQXJY7X8xuzhea6ySgqIG4x+VytJOsPAVf25V538FjZc2x9PtALHT6ulu9WGXswos+NmujoJVtNZW6tI3ynCJ9t5S9fWS2xm1lc8bzp22u9mm5M52grX2LVb8DsvYcMh62Xdpdrj8ARhuBN0v8ud7EkQmwt9+Odywpt4Hg+bMnc/zDuQJ8XIIAq+dYzRwHIPYJKBppUGBQ4N1SYACcd0vv91pat0wALzZJO5I9UsRfrF7drDUFgGKxIIwFD7MOENCAjdiNWjIb8GPG+0ulprwb0PH5504v8ueumwVR7vPKevFMq8db1yF5yQMwqJU0ATnddeH7dnbOubfO1gssLKw48vGZJc1Ga05cBjw6KBQ8LcaoNlQLyAFCeuKSwQu77PD60eXaPh+w7fE55VqJW8U+M+rP0gecPIj1hnXo6dPsjxOLFwAwP1/5450Wl5MDJgPQWDLwj7qyqC3GBGCyYNnYcfuOs7XKDY+Luyk3aWgN3OAXeyg5GdzE4PLFdjq8s63sp1SbTMZqwy1lzyYABy18bmNmsUK8xdgro06DAj+dAotT4vz0do0cXkGBBmDauS+WQR869kmZ5Ckwm5oRv0zzlJFZqKv2YrHnTK2m6e6eV2T+M31VM32z/dmLIv/ZUlkR2uoOSr655poLSnnfKUuxP0PZvR29Df5mLaBQu2tqRZTpQu0bLAQsDVaxASiAKOUJ6LDCcI9wCwE9N+Laaod93sr9Tq2Is8wbGOqByjYitJ9LLfuPgudOWZ+l6QKYKXGr5tAFWHNWFhclV5cjHMRyyfc+4CMWJZdnrcZbsWImmxBerJOhBRyXNWOHc8AWX0K/OlYhdLMbNtrZQqG2/o8L7nFcT878AgpZbVhAWT3vZIsBbipnktlnSH84OsKp8naRtjmgZ72n30caFBgUeLcUGADn3dL7vZZWM/cIc+4lgtwhdFt35BTs/G0zO8GT5DDFX/EnedbqEoCn3FiZ5f+igjqFK5tCKKWQezTrd4HHT6Bg5Z0yxOV892oK6LsAZ9Z68yPxVaNjo1cDUg1A+Uzh78sZV0BJo2+L9VlI09S7VkHFiiB+BujQV5VXrGsCfsXN3M7mhZSyXWRnEh9iP6PLcaOsiOK+nx2WARwWh5sBOFatlWI+eLhireKnLH4Qi1MnYGeHXuVQ2GJ4LBO30d+1nNvkQEt74lh1x9pTS+NjuWH98P3Fc6cLJLN+bNzcjtRYSDvf5TMFcFgyw+csm3v3Hw7trsTVdr6sUGKOuAkBOK4rsU/5p1nLwp/eZ7nilnL217GPf1UHQe49cKQsWC/iwN5lq0ZZgwKDAgPgfEA8AJwADvYr2bw5m/XZzyYbznEjADnvO/X6lRLJDNldWGq5XVgRnrbjHATssii8LvnNM7VpW94BXHrelBFXCWABGLBMrY4FQ1lltMm7L963SVt7/3Vlvfz9HLCZBWnyVSa6y1c9WEkcECnI18od+9gAnwtJlOX6bPy3Kde2uH4EAyuj9yE3k3OuHgZk9L1w7IcjbqRtCbCmjo8o91VcV3ZE5oZhyWGZYZGwLFxda++iKP0KmOXCeXqgYoFuXL1UlozL53eXBYn1Y+3as+mfJ9OtZzeK7gJulQ8EAWSU/5MnBxfSxHf+DNAJ3NgU0Dhomys2KxbrJv7DK54TS/U47Qz8rVg1K6Q2BbgBmGh/JMeIHPv08zqGg6WOFUzf/5iEV7ql0eSjUngZP7san7bg7e+A85cKm/+8d/rfc+/MljOA2EuEG38ueQoMgLPku3B5NIAwBwQoEsqGq4WCrfOCoohZB8R81InEmVH3M4Ze1frmfnnQns073qUoABsBtI6KoLhYrVz+9n3MDtOTKIBm3bDpYQJ7s1S7x8+8qqxXfUehsXj1mCXuP58BrqisgI1N5WY6cPh4uarsHwOkLCRRstWG0GZD8gFcShGGfhIaiqFRDqUIyImlAqqc9myZ+Ldf/ku5ruzeXKBxStBwAImYGZedrueUn1xm+0YR3GpW1FHczl6yVNzy8JPJv1KesTnkvViIrB6zqutuApvrmImAxcWYKP3asyh9zS11M2d93QjgA243xdomhgjdWD0tD39mM8A0BJ3RYUNAUVuFtq0sQLv2HqyVh/hXf/yY1Gie7QqShwmJfHwnsYapG37Cn+gMeL0uaV+1Mc+3oPfvgqLOM8YEfunlvC6/8f2gwFKhwAA4S6WnPoB6mkEDIasCbmzqR3kQzACHu71drCYS77GhK9RX0IX1hjuhrzwCUEphJG87Bxe4KYDDejILcpSVc7koiyfef2gn5bZyab6yf0Vx3/sKmKI0yv2UfAEclqKnlFA0o7gmq9gO5LBCsVAVhJvfF5q0RRkdSHWFVN+viLtkreMD+nLvbaHd01ryvSexIY6wuB9gc+7kiTqegmJ8EoVZrqUHoW0ADmX/cpuVJf/16+W/thQ/9yZL1J0AGMnO0Pfzvv6ynPxpTox2t3LLwaPA1GJMAAOwoI7AWR1mGpcUAAO46KOjOZX96MefpV8dttqshx3gcPmycgGuDvjsLl9g9Mdab+BTYN8YUI79k3qaAziJpXoSAG8DQuPjdUlfGhNto0LghlXyxfPaVEAqYwKfdn56XX7j+0GBpUKBAXCWSk8t83pSBgS6WAYuG7NiSgM4qX1kojQp0OuJ/xAPsimWC0L9ZWFMmNt8rblnLtc7hDtFQ4hbNeYsqB483T5HMaXMx48dN2HjtrhX4q4RZyI4tm+4p6zXKawGCLgNntczq1fHUjTblo0p837y70pGfsAToOY9Zaub/F9uz8vd3soxi2/BQf35fvd8+0y5subM5qBeccUBMHX8RGjNysMW0bJq957vi3xm35/Lt1uJ3J2uHldfloHX8mmbAgYwditAq+FsXfsfL7JbNJ/wkTibu/b0iYsOIOOq6y4mAIMbro4lyWdNQeNmpWuWRpZAYETbWePw8/w+edvG4rM1a2IdCu8AUKya8tQ/rDBinIAxcVYbcpK2zRlf13f2T+KyBETv38vquvAdEAtwsgmZVABl+ALP4puRBgWWAwUGwFkOvbgM2kAZFCiIorCCB/BwlZvDrr0BOAS0oFYuHcvXKSaKoCsSAt53LDcVJJqgWu/Ig9AugBNFBdwQ5uVWAJYySwd8KDnJfjI2zduaspy7xXL0dOPT2Vn0i5n0fLI35QIkBHRRTrFyAC6W5NsN+M7NDbEKNcVi5ZEVRlY7cR9RNpTMQmMglNVm4M1l0ds/vz4vfwZCLF9WH+4ydQzh8hiYk//yd48XWkh+8ueuMeMHAFh1XC2WhYJMngUCYslK2aU0qzxvLq5E0bP4ATdOl28b+N2utrH2se6U9SP3cjnNghe8hrc639WGkQUkm4sSb87nz7dpdfFQLH/4FMhBW/RUlnIeZUzY3FEgd63Ky95UjQcb+JpfFv7iegOGtM34YLEDlCS8aqzZr8dBswt1l84vY3weFFiMFBgAZzH2ygdYJ4qAclz33BEJLbYEAHkU0LFqVZbqRpGYWdtDZntcI87CKuCS2bJ3JQqHshJbYpnvlUsAzs1SUAVwoqzEolAIQE0pBvEpW7aXErl3+04pfdYVRx9cyXP7Dx0rhUABPC9zSAMVL7qoWz568GazKpnJF8DJe5sS0L1+YzuxnBLitgFwBKZa8g1YsQYAC6VAkzkskEfnpV6OL8VUtMDpBkYamHiBH16uo/y4/wJGosyU5b32bgM6aLhqZeoQeipcPZsCbOW2vF/k62/PyIP7xPEY6r86994flWdoBgA1q8aL9+c17L1/xDf4zBltgq5Zcix9Z5V5HHCBz+wxBBSUZQZwQafZtOLRiumRduc7eRVYRE/0yCU1Ws++8Iq/X/zSPuFX4Kr4NMv2WVb0DZpzpQJkrJSOW9kcPnJch0mAZE+jXh4eYr2xYaEVdUBRAzg5BoXLNHzB8rRxY3ZdTrwRnp3ftlabpfcvOvVLn/TYo94S9Pk+Ty9O/ux1Hve3p8AAOG9Ps/HGL0CBpigjwKMMWWh27zuUnXA/KSFVCidWFUuRHfTIEkN5crewvLDISAQ3xXTmxDfTyW/+XM9SAgS5WfCu7FFyJLEU+w8erR17K/A2AOPgkeNl8qfAZq5fTpDtoyprTVYGnfzqj6VYLB+mbLjHpBKeyRc4sWKIUqiA5ayqURaQ5r5z957p4NGPykojaBlIszcNxURhaTdlZTk2EKU9lBvQAMR0t5aVTmbtZu8bs3KqBxcrWx26wPYuEMNK43NqmrrOBv4G+FkufvHcqbxzr9rRArrXFtizCkhsk/ZfS/2UhZ7OWhJHRMl6Xr3R33PcbFwlp77+Sy0Jn4mVwGaAkiDk7dkZeXeCblkHurKvHxfRP9pCyaP/xoAJ7lE81qyGN6fLK84UD92+ea3oWrQu2rZGUJQrE/sEWHi/rINpr40D7Y2Dn7mQNsQ6EkSxoJbrO/XZEeW8Y3bfI7FaFVsWPtLn1y5fqiXrXKtAuaM0VsU1Wn2/KsHQAUJ4v06Vz5J3GxOePflNWTXxb7U5/CZovGLBEmuk7gDwUkp19lz6S3s6OMO7aGWCc/Xy+ciEryIf7rRxkv42No0hVs023l4EcS+lto+6/jAFlhYn/3Bbxq9LmAIN4LSluM4D2rP/QIT2nTrriFK2qdrtm9cDJsStJOA4Zvfbt2YinHdn9rqrWj5zPRvQJTiUAnfW0+Wcpm1mbvZmxZGdeY9+/MW07/CREuqEuWBfykFw7I24pQh38Q3PMtPllqD8CMbd+w6Wu8pqmjYzbIdh3o0ABVps9OaYAyBhz/6DBXY2bMpBmHn+UDZ9u3/3VikaFRVL1AQwcJK9aGau1HJ9x2Cw6ohrASTKdRLQBcQ420l7gbA9AX97Dhwo5VbnPmVvGopTXcUxdbcGt1efxbJoXb92JcAqACcg0WZ8prDKEvME7Dn2AVjU/quXbgXkiUO6Upv6saZR1FwYFXcTywRASYEAkaejQC6dPd2OlQgtoSrKg7VtT5bDe5dFYzEmvGfPH8vDAUyBwgAdcKl9+PBW+OH86ROlDGGUUPtFU+rv+qdAzLq4WJ1r9cnnv5uOf/Gbad+zw7VhovgkZS0kAZEADqUNJLXNHfdUX+gf7k7uKeASP93K2KDI162Lezf1F7CPx7inrl65MF0+fybWzwtlweGKwxfaTMkDOIC4MoCjxX446sv0s/llAfDQCs9LxjwQaHLErX32xNcF7AAg48S4B0B9tqDBfaTlR4EBcJZfny7JFtWsOMKfoKFoCCDC+VrM6lcCVFg/CGyHRl69dDEz02flirL0+frO3dXmm9m5dyZKnCn+evZqIfy5R8S5iKXZezA7zB49XgqDQjer3hZQ4jiDu+JiIgi37zydsnIa9+MIx1haKAWCkrK/OXO19ouho1hFnjx+WEITyFDG3keHS4HZ94UCYcGgPB4fyplGUZDqbTYNnNURAMnPKib1nNl5Jaupdgdk7IyQbvEshDRlBtSJJQIknma2XnnXzHNl8rsYxXYhYKytjkFHAAdQsUMxOnleTBKaADraAiQCNkCNS9nbstMw2qubQySvpb7nAxYvnz9bAKViNAIAgEDWGLFK6nU7ljVKxO7G3vU7axfrTe24HEXi/LKufBYbg1a8C6AXmgIV6g7QAXDciQ/vO8frbiw0UY5zAOUFUImNLP3IUvYsgIQbsG2QWNa00NidlUGe9Gjn9R+ig3HQV/uJNwNqWQLxM76wkSMLGiuF/YfwCR4TLMx6CCBx6+Jt7lZgyNJ3vACebUpcmP2SAHYr4ayu69ZJ9cM3SyGpq8lFWVdDX30IpOkLsVMmJ9cyPk6nH8TVmQAUbUI720Pob2Dw+SIF30uhDxZzHQfAWcy984HWjeBhDZEOX8txA5mFsRrcjCK1uollg0VDXASLDaEucZewTDSh/6yUNcW9PcLbsRS2z7e5HoVu07sCU5nBcgPcO3gnCvrTcskAScAS9wwrjrIoE/dL585EQSWwOe4ISu1xQI7fEo2SGfCTsrysikLzDGHKciGJC3I4JQUjbwGfgpeBONYBIMr3LdYi8Rx5d0WepWi4GQhrsSCUJx1r9r0qSpDylKf8AbJyJ5mFJ7BXfEXbw+d5BH3b4wZ9tInydEaSWKa9UXAHDh8PwMmu1rE+rLnT3FsNUMbyFGBUAa3id9RLBZK3OrGQsTABACweYji6K49CduyBQzvlu5gtOGb2wEMp/vDM7lgQ9RHaP3ooPizbFoQHgaGWOsDRRzlUlbUkl75gZXPKungx9EAu9C4LScArBbuQVHTOg4ARYA7YANIsDlczRh7klHgg82lcUSwV+EP/AJ8CwPX9s9QHTzx68LDo392orJ76x5g4+vGn5SLt5S2kbovlGfwPmO3OBEackd268R8ZoP32X+LKM0bJCSAbHwLhtb9R3lv9FCAC/EZabhQYAGe59egyaA9lsCoAh0BiSagYlyiW1XGtUKjcOsAGBVSCaVY4teBKwKLtQcPdANAAN0eOf1a7y3JTVSxJBF0DOHEDrLMJX+JNAkAo7fNnTla+T7Lh3RPxDXG5AFYVz5J/vUdAUortntl26urdUi75jVajEDfPBjAXQEkZ3uHqUG8zarNs4OPmM8q0WVuAI2UUSMrskkIUV7OGGywb60liRHyv/GRWYOz65csFkihCSlcZc/SBSVKnsipEWbNe7QjwO5j4o6PZfdeePKxNaE7RU+TqxrrkxOyKBZrNV2yQ/OXnP21VX0p1Y5QLdwerwMEjH5fVbGfil+rZPLcYk7oVMEi7K+5lx57iG/3xMMANe3EvrUl8lTZq7/wEMAI1gdjFA5QpfnLUA+DD3bgrlpInjz/Pq61v57//ps8U+KGjH0dxb6u+KdoHUt+IS/bZcxtgxgKZccLC96K/0yepZwt4Vl+rFJv7koXxYE6O//jz304f/+q36a/9tdv0m+qxGH/Hd+Vqzri+ExpsP80StaXADZDD+mk3bVs+GCvGJLBq+wcxfkDhs3WLc3+mxUjvpVanAXCWWo8toL6UGEVFkO3OwDe7lwxuFoB9hxJkmwFu6SmFS8D/1KRMM809iVV5GqHBSnLn9p4E9B5pJvCyDgig7TPg15fomVKyiXOweywrh3qzOGjT/ShdMQisHhRJXz1CkRDi2u7iFtl/6Hi1d18sFTuieM1ggZCucIGElSuTdywtznCSNmZfEfW/npkfq5BVKFwAhKHyKMOiZQRl9/3vj8Kw4kp90aHqH2XmWYBLTAa6o3dfsXKjzjdqlpVHD7ObcNpJWbKOOO+oYgtmBXItnY/7iGXr0NFPqhx0qvokzzogM4J96/UdpfDs+mxm30DOs1KyaNNiTRIEnbzExpjBAznqDRAS/hSG2Jm9iSW6d+9WgRkg01XKO0AHzbVldS5tlK/LOVu7A272JLDY4Z9W93DVcRmweOkX7kcn2bPASdqGb/QBi4f8JHd/o2cB1eMff0cR+06wKCX+Kh7GD9qEZwCuwynTTtiS/hPzZDZPEdaZXVGCF8+cLpcfAA1UOn8LvwAX6ve98RL0wy0nVqcvxQZcubbE7sxcWxkg4u+4WMM/2lQgpGrx+n/mt0c9AEdl3z92vF7SppuxbhYPzfInHi1wm36XBKorDy+iBWAPxDoRfW/ofTB5obu26bv5ZVYG4GtkA/pz7x795Iv2df7dH7roR7wiX+P/u6mBXuWr6/7wfsV9zT60P4Aaj7U9fhqgVkf1Y63anEB6bld9ywrIFQ24kAPAWk/qp3x9UzF2WURgQsLiCJyLrWtW0HZmmI0+7YKOd1h60Bbw+X7bewnjvpQpMADOUu6919TdgCV4xJ1QgASHQxgJc0quBdjtK+Xhb0Lkpyb58OMfjrXELLgCdzP75efflfOuCBTmdbEIb0pN2DThLE8C2lJYQYG1bDuCy6nYD2OepyS5iSRWDa4nK1mc0URw74i7gZLdnMMp1asLsy7Q3M2qKUrCXtAl0/W+CPSbiXO4fyencEdRsRoBDWbqhKwLWFrsk79LAABAAElEQVQf5U1pA09OkaZICW2CU2rlrEjZ7fwpQprLjIIQ7MkNBoBSsi5toSz0SdsXKAJ5TVveTiCLg3GGmNiJVu/NLb7o+qHEGFwtM/2DgL+24mp2h9uAi9XqW8LdsQJos7VAl7Zy42k/RQHw+c1dHdZv2lggGTC4n52OWdAATsqawtU32grEiH9oNJfnnnJ7AIoAwvNYGlh+8OX+uMO++Ku/q3zQiDWJlQ0NxQ512gFbYoLwACCGl4HbnnxXoAO90ocvJxYvbTEOHhz/tNpjkzuJ4uWeWxvrHTDC9Xj6my8rOP38mROZ9V9KXx6c9h87VrxrzKC59+bGC9NOLCl9A8rr1y5ltc7XpZi57IDW58+z7PzWrVK6QCG3yUIATlVy9h9jBtDDFwdCO9sOAAhinihyfePgVPzDUihOS72M+w5sxKngU2DDij3B8C6nxeNlfTQ/mfPgXSB6685dZeUra93sQ4LngT9B8QCq8T8/1bvhD+VzzR3/9NfFY/2ZGisHAq7CD+vWWxXZDiy1uOCTX/2uwInYIvnsy8RBXwH32tDGVMvJZ/XXJ+SD9utz1ixB+cYW0AcsqQvAu2H9pvDbR+GLnAUXvu0Tnl63cV8+FPguVy6fdn3QLSFsDHIClUCm0ChvwopSAjTERbTZMn/995XD2xJQOW329VEJIkDAbB/QMAPcnODZTVHOAMabEqHlUi+WD9fOCK89+7MRW0ABoUXRVQAoq0K5ByhKZ0xlxh/LDcWnPIobaKGIX5W6sPScq5b2pix5W84tlkIMkCBn/nwKntVGgC7hWOdBRQkrU3n2Epmfev4Ut+sZwBermqXUXGKCpu/dsflai6fQlhWZeRP4FH0rpwEH4AZAAOKAFTNZNCfUreQSg8BM3/J+cY4WpYo23CwCUFlZ7DysvVYMUVAttZkxlwhgwcqzfVdm1LHwUOJmxGbHQKUTyIEgtFAXea1P+ygsYBKw0dfl0kk9nz1rh43qi/1Zxfac0sklUTxORgdEN2Q/Fu1GNwCHQtoeBevYBwAM/Xs6GAsRmuNpvNJp7XefWSUALsultQz9ATPJ8yxUytDPAqm/+cs/l3vy6qULZY05EKsc19DHWQnFuudi+enjpVnHnhfIuHj29HTp/OnKXyD51UuxrgUIAsVox/rFzdfdkFWJBf5jPLsAeG2wok9+APLdUuJtewR9wwpo3EnoyEprnK8NMLC6Sr/b9wkYbdbLV1tw0a/RdKrJEYubvutp09asQAxAAJKADuN/fvKu/n8e3AQYOoAUsO9pawLaAUiWqQ6s9ZdzvD7+vG19gG/VQ5B1AeaU1YDeC3mlHG10oZG6AE8F/m5czXhoKxbJQvTQBmOIBdvY6fn1Pu31G/flQYHvcuXyaNMH3woC30DPVLEN6gxoszuz3JqVR+ARTGY+NVN/xez3bYkoH0DmWYSWWZ3Z9tOclcMcvH5DU6y1fDUC6cckCp8wkghCgn5LwEDNWLl1klg8KEvPWaLsTqi9rfCqmV7ep5xtl6+scs1EyTY3Q9u8znOUjvpUWa8BUVW5ef9UHZO/vqiyAjAowu6iav3UjgLo7oVqk/akLIK8KfMoodB9dbQ3gOE7z5WSC20AiHINhQ8EHaOPPqfc0KfieF6auatmV25oB+goA5gDjIGbUtTp36p/6sIyiAZFCyAzdUDzVsfW8J6nsnfFGiIQm7KX2gqj5gJSr25N0E559VRxTrMAxXeCorX75bL682UBilIHbijgDQFurAI9yRsIuRlgeKNWyF0uAA08qG/F48T6wH1HKb6qnGpX6KP9wCNlrf7Fc6E7G097D983ANnL/7F3ZaK5/XqEBOkbExo82lxUrY0ARsWjhS/nLG2hbx8T8vmh1H5fWXkDDWjQE9oBj2hUfBQazE9FF/wdupMH+wIygYqe9BugrQ36CY3UEZgFHK3+SoBRkcz4YwEFdtH5dfWuPPJ7pzPL0OZtWWUWPnORUeL79JHy3Vvf/DAdep3HfelRYACcpddnb6yxgQzgEBh26zV7oZSaYKA4oxSjvPzeBvgbs3zjA4QpgcfdQIkQUl2oUGDKJJTdf0zyHqFaSisCz0oqS6y5PShxicIVu1IzeuXlAoxe5b74oTp0BQUMUPBNQCqvCcqi2WxZK6oMs9VW3g/lW3WMUmn5NwsN64mg0SojSqDakmeI3A5IlVdtSluUox97m1obm4uNwH62ZTav5FmukPRDK5dVKO/N5tHzk3dXCPWgv2YVH/6Qf/WpfNVvNt/K27NFh5av5bbo3Sw337UMtPq2GJyVAQyU21we6TNAz9XebSDY53Xr/eYsqHaKOTr1RNnpo8bD31dSzdrSrEyU845aYt/eR+dyu8WVZMk1gCMQ1bJ3sSwUM8XK+gDgAOqd9r38TiffF3CM0qRAC4AWXRtlG631WfVqf/1H3Vvft4DhFbMKv/FnW22HpmKdpBZ0P2uJ0U+973N/Hc1eVEp98cJU45q7j1uqJ21elX7By7WTdfKcn9Szjz0ABzglh3oCOPWrPsIb6gN4saoATcZaT57tsgNPdLr33/tdeVxx6oQ3WHFLTqAJrBT+94z+UH/99GY69NzHfSlSYACcpdhrb6izQbtyZQMwb3j0Z/tZmWJSXL9Eam0yy/turMAvUVYJb0rrFyiKcO75x4nwk6vfhb08f87UFBSg8fOJiJbnLF/Oc3e8rt6dTq3P346vGp0Ba7l/3z3ZQGVbXg/QCFjn4nlYlq+4dvMiQGdiUPFG4e+mIBsgpPgBC4Ci75fD1SUonVVR+RSturMWAAgN6LBsva7FP/y9PHvqtHlV2/ozP+X+oqxYBQPaXG+TvN/zWBVwUxblN2YAqMfSFnr9mNRlRPFsgO9IgwI/n/QatBwUGBQYFFhCFKAQWQbWsEKYzcc64Dt2F64eVp2zJ78N2FndYjbiYnFo6Yocy8DEZrUgMGMl04UzJ3Odrl20byeoGPjhbmO9EMTtwFVgB8jp1rclRKpR1UGBJUmBAXCWZLeNSg8KDAr8VAr0GKJyjwE5cwAn4CXulJvZZ+ncqa+DZVbUKh7lcaN0NwmrTx2ZkKDkc6dOTKdy/pnjQe7GzcXFIjZmRwJrLUcX3Molw/LSLRs/tf7j/UGBQYEfpsAAOD9Mn/HroMCgwLKkQNuIsa8q25mtDPYdPFQWHDtKWzFmLxzABZCxBBx4EbvWAY4VXQKSb+R5K6ic92S/G1YhwbK2Gjj68ee1EstKoLISJQZkAJxlyVCjUYuQAgPgLMJOGVUaFBgU+OUpUKvEEtAqsHV3Vv/Zi8eyJyurbBMg4NjnmWtXsvy9reSxGq0BnJUBN1n5FoBjTyaASAzOqrihuKa2Zpn8oWOWmP+2ltlbAt8DcoeL6pfv21HCoAAKDIAz+GBQYFDgg6MAK0pbJbamtkywwZxNHcXV2DQPYLHVQR2ymlVWLajXap6swFkZsZlYHXsBWZJvpY4kBtimhLZgsPuuHaePZfdf++3Ujr2J8xnWmw+O1UaD3yMFBsB5j8QfRQ8KDAq8Twq0pdC2H3CkiS0GBAPb7PHox1+UFef+3du1v4xVV3NLlyGZ/O95gIXrCVjivrI3j7gbS8ttFOi0esvsua1GGhQYFHi3FFjx//7hUts04d2WO0obFBgUGBR4bxToe/CogKXglodzN9kpW+yNrf5v3rhWgcbOmBJr45iHp7N7FnnPlgjAy0a7QcfV1Y6VaDvk2tTO3/bS4Qrre70MCw7KjTQo8G4oMCw474bOo5RBgUGBRUSB+UBDbIwrgTYFVBxGudsJ7wBOznu6m6M67AQO4DwJGKr9bxKs084h25B32nEgwIzNLm0wVztAz24sN7+sRUSCUZVBgWVPgQFwln0XjwYOCgwKLJQCAojtgms/HGeC2XSuNv/Lfjf2vKndrGd3zm4b+WXjwlho6sqxHnaTnnufK2ukQYFBgfdGgQFw3hvpR8GDAoMCi40CfYdg5ysBN+0sL8e68eR/35vfrDNt194Kzck//bvF1rZRn0GBD40CA+B8aD0+2jsoMCjwWgp0d1K/55jO1z47fhgUGBRY3BRop9ot7jqO2g0KDAoMCgwKDAoMCgwKvBUFBsB5K3KNhwcFBgUGBQYFBgUGBZYCBQbAWQq9NOo4KDAoMCgwKDAoMCjwVhQYAOetyDUeHhQYFBgUGBQYFBgUWAoUGABnKfTSqOOgwKDAoMCgwKDAoMBbUWAAnLci13h4UGBQYFBgUGBQYFBgKVBgAJyl0EujjoMCgwKDAoMCgwKDAm9FgSW/D04/U8b9xfVsepqTgJ0G3O6Pc7cLaZ6xWVdt2vVWdBoPDwosagqssPNuDn9cmd13V+fgx3ZS9ur6e+XKVbX5nL1dXuzv4vTr5bvT7vflwrMcsfC8zp0iE+bkQk4Pd5DmSIMCy5EC5ILxv3LVqsiFHEmSy27d9V3JjL5J5QtZsJzkwpIHOJhyDtg8C7BxGN7Tp3V2jPNjHty/X58f3L9Xwm0qkPNsOfLyaNMHTAECy6nWwI0zkZyF5NgAfxNqjh6wS+9yEl5v6u4uFwCYp5EJDtV89OBhDs5scoFMeHj/bh3B8Ka8xu+DAkuRAitXkglrcpRI25l7fXbndkhsgZ2cv0Yu9AnQUmzfm+q8ZAFOHXgXSwzB9Yy1JsLryaNH0+PHBNjD6f69O9PdO3eme7l8dj15/KTOksk/b6LL+H1QYElRYGWBmybIHPa4efPWqQmzDSXQCDhWndU5N6kfR0CwSUsd9HRrjbb4TDYANSy4T2Khefz40fQkMuFRZMP9u/ciC25P9+/cne7lfu/O7ZIb3h1pUGC5UWBlQMzajPm1ATUbIxM2bdlSE6B16zbUd2RCXXmmW3VYe3pa6rJhyQKcxwTXo4ex0Nybbt+cme7cvDHduXVjupX77Rsz0/3MzO7du1sztMcBPg8fPijBxz01XyD2jhz3QYGlTIGaiTFDB+isW79xWr9hQ652yvWGWHS2btsxbd2+Y9qSqwDQlu2x8BBqXFsvBNpSpoG611h/cK/kwq3IgVslGyIfbt2qU8HJhAcPyIV7NRF6FLlgkjTSoMBypEBZbk1+AB0yYf2GaUPkwqYtwM62yIVt05ZtO0s2bNy0ZdqwefME/KxcyXW19EN0lyzAMTN7cO9eBNj16fL5M9Ol8+emK5dyXcx14VwJOOCHAON7f54ZXR2VN+JvluM4Hm0SX+O/3LmqXA6L3LJtewGafQeOTHsPHJ72Hsx14FBmdevzTAM23ZKzlInYJy2sNXdjlQFuLp07HblwZrocmXD9yuVp5uql6d7du+WianLhWVl0+7tLuf2j7oMCr6TAbNzdnFxYtSaW3Y3Tjp27pm0790x7IgvIhv2HDk87du2dVkYmsOhME5f2ADivpOnP+WUTPqwumZ1FeBFMjx48mG5cv1rX9auXC9Bcvnh2unrpwnTtyqXp+uWLNTtjtRFcrHP7pW4+jzQosJwowC0j1XiZ5fd1icG5dWNrTNJb4pq5O925fWu6fetmXT5v275zdia3NTO8FqvDfdXTYh8nzRX1rGJoHmay8yCWm5vXr03XA2SuXb4UYHN2upzJzrXIhRsz1/Lb1Txzv6w8r5IL2r3Y29z7ZtwHBV5HgfmA3ed+lQ6MxVZs3t3IgZuZBNy9c2u6F1lw99bMtHPvgWlPvCDbd+4uucClBew0l/Z8sLN09OeSsOA0Qfa8hPTMtTYTu3T+7HQxs7OrF8+nowiv662zMnu7H8uNuJy+OqLMdBHczRzfwM7rmGN8PyiwFClQsWgVexKrBKGWz92awW3D4sldc/XyhVg1Tk/n9uyb9u4/lJnb0WnfoSPTpgizjTFbr1q1Ps1fGgJMm59kAnP/7p2a3Fy/om3nAmpYdM+W65rLmgBnzSUXAJv5coFLr8uFpdjvo86DAq+jADlAd7Zx8qQeIxeexFBggmPsWIhz+8b1snTu3rt/2gXkkAuHj5Zs4MoCiFatWve6Yhb190sC4LSOelqBwqw0505+PZ369i/TqW++nC6eOxN/elZKEV4JNO4z2flUJ8AIMkjUZ9dIgwLLiQJi0gTV9tmaO1DjAgAoenzPNbVl+/byuR8+/mlZQ9ckwNDzAhHjpF8yZKlA4ghr7eOaPvX1n6czkQ3nTn1b1+NH2v+oVlamgd9rV5cLZEO33PT79x4eXwwKLBEKGMtSyYBZmdCrPl8u3Iv1hieEXrTactceAGffdPDIx7US2WpMrm5Bx+vWDYDTafiz3AGV51ntRHDfioVG4DAwc/bE19PpE18m3uZ8fOoxOSdosAv2NZbD5RI1vjnBUq6N8Tdu2pRgy9z9NgDOz9I9I5NFRoEKus9YeZjVQvfirrkbl1S/38lKwqdPM3Mri0cDBBT+5bVnakxw5R44cqysHLti2bH6SoAyxb/YUrPmWiX1LHE1l8oidTnWmrMnv53Onvo6Ft1z5aaykpL8AFjWRR6sD3BzkQVdHpAJGxJ4SV50YNPvi63doz6DAgulwHyAQy6QCV0udJlAPrjIhAZ6ErsWq07jf3F8qyocZF8sOfsSu7dn/8FagcllJWB5qaTFJ8FmKUc4Ma09igmNIDt/+lSEWAM3Z775qrmjMnNjYpOE1XRgsyVL4fbv3z/t27dv2rNnz7Q9M1YXFArgzI8zmC1u3AYFljQFHsUN5bofa+a1a9emqwH/rkuXLtX1IHFr93PZKoG7hvsKSABuZq5dKetoE4zPK9iQpSeSbNHRRB1Zam3UJ97u5Jd/rgnPxXMJKM4EyIrKNul5PK2aHevr16+r8b9jx46SB10ukBMuwIdg79eia/So0KDAW1BgPsDpMoFc6DLh8uXLk8v49z0967p393bkQsBQ5MTjRy3O9XZicp7nt/UbNmaZ+eboTys1B8B5i+549aNM6whNYFkVdfrbL0uQMT+fP3OiOsQslFDqszMgZteuXdPu3bunw4cPT0eOJDo8QGfnzp11dYAD5Iw0KLCcKGCmRpiZoXUBdv78+Wnr1uyHEwV+82aCCnOx5niOS9cYA3ZuBhBVIGEEl7FheajAZKbpxWDx7AJbfwFm9y31zmX15Om4qk98+ceAncsFeB4HsJnsADfderstS2H37t1bE56DBw9Ohw4dmtzRptOnzVxHkPFyGhMfalvmjxeWGyDGBOfixYt1nTt3roA9j8aNG4lRi8xwATncvTbHtRnmjcS1JpqvwI1YnB2790ZOZDfkyIk+GejjZrHSevFN0WYpdS+EnskKqcsXzkaIxXITQXbx7OlyVekIgnd1BDAhduDAgQIyBJcLuAF2ABsCrAu67mtf7J2yWJll1GvxUqDPwoAXfG8MHD9+fLpy5UpdwM7Zs2enCxcuzH3HPG0vKQLRaiOxxQSbbRUAnG35XlyO1VjvO7HoqhczuqXfVyIXTiTm5vzpk3FTXawN+wQQA2osNkCdCc7Ro0dLJrDa9MkO2QD09IkRQS8NufC+e3mU/3NSwLgmF/rkh1wwJj755JOSAwAPuQDwkAsmQLeyX9Sjcms9KLlgEc+p7IouOPnIx5+VBcemosZMGzcRGos4LVqA0wIHI5RPfFOWm9Nffzldy/JPAlmnrQmRWWQIKoL8V7/61fTZZ59Nn376aV2Iz2U1P7i4o85F3B+jaoMCP4oChFm/OtgxKyOwWG3+8pe/zF0KIMwexwdvhRWrCCupjTLv3b6d/XO2ZK+cgxk/6yZn2SwGgMOcLo7o7u2b08UzJ6ev//LPFY93Pp+vBeBo87O4rtRVXA25QBb8/ve/n7744ouaBAE5JjtdNpAHi8FC9aM6fLw0KLAACrwsE8SrdncVV/bXX389/fM//3Oz4GZy0ON1hIaIY7uSRT3ysOs3i+7WbC1h+ThY0wwGC6jEe3xkUQGchjbbklZ7WbDYnDn5VQnfm1nKxqxOIAkaFFtDYJmpAjeujz76qBAq83MXXmNW9h65axT9XikgmFaMCfM0IUWxs1q4+5srC/hxiWUDdKymsIz8TCYWDqfdE6CzLrufNiAgTuXdu3etlurLvIGZC5ELp7OC0opKLmyTHm3asH5Tuai7Ffev/uqvpt/85jfTxx9/XN+bwXquy4b32jmj8EGBd0gB470nVl6TAJZMIMXYJhdMChgNWHZ6ELKjTGbyO928MxsBbt+1J+dara04PfcuDxarnl1UAOdJTMwCnRCVyfzc6W8qsPj61SsVDFngJh2gM44dO1bCy+zMZ5fYG53kuZEGBT50CnDXEFjuQH8XYu6+//bbb6czZ87MAqApQiyzu7iGuYDsdurQ2lVrVmfWtquWizZr6LsfW0+ePC3XlGBoKykvnT81XThzqhYaAGbaB8xxRwMzv/3tb+vinnKZDLHctBnn2AfrQx8XH3r7jQPjwbhhGSULjBHxq32FIbeViZFtFu7Gqus5Qfz2yqJfARvHvjiZfLGCG/28uABOfH+FGCPImMzPnvomM8mvi9A1S5t1S1n+DdD83d/9XV06RxAhwY3Yi5ngH/rgGu1/dxQgwFwEmBmbGJQOdLr7tgcfMl0/BSQyubBJHsFGeG2P0Dt45KNpzfO+AvHd1b/POgEvsTdXszXExViXLpw9VQsN/C42QPsIZgKaFZdc+Nf/+l/XZMeER9tHGhT4kCkwXyeSCQCOiy4lF7hzffabRC6w8HJn1WKE7BJucrEqFtDVCTTekrPtDh79aHoei680P//6YpH8s6gAzqOYms3S7GnhXKk72U6aOc05Unx+zO1mZMdnY24ETHXU2TtmkdB1VGNQYNFRgBACbEwGxKsZW+J0bmeGZjXFzMxMCzC0siqfb2Qszly7WmPSAZ188O2cmnfTNK4ppvEHOTiXXGC1qVih1Be4MeYJXCDGhOfzzz8vqy63NWsOYDPkwrvpq1HK0qQAmcCiY5JALhhDxhxgQx5cz0oqYEfgMeuuhT9XY7kxHrmHjcO1eVe83mJMiwvgZInnjRDwXDbs4qK6nd1XWW5CxUKIAA5wY4Ym5gbYAXD41QmyxYoiF2PHjzp9WBQwNlzdHM3aSZB1cMNV1ZeTWobNolMAJ+ORUGOWdgrx9A6NIeonLsihugVwzp4MwDlb5+iw3KwKWFsf4SqWgFz4m7/5mxLQAA7Q01xqL87W+rB6fLR2UODNFGjupiYbAJzuxgVurLDimvK5bRR4Z1qR7Rg2bt4SPX2lDrS1ZFweA+C8htZlZmZqzsWfPpPI7loZkU28uKts6AXAuAQJmqnxsQM3OgTokboAf7kY+fbUVmK0WSHh6W9Xr0PPQ4fV7NAMMZe/OyP0vMZ9UGApUQBvS8YR5c8czXpjJQXrDWuOz1ZXcU8xS99k1bmWw2wTzGu5uFic+eOp5/lL0cHYd7CuLeUdlOk4BvF4tpCQLDbQFosNyAXxeICOWDzm9x9K89vR5cL8+3zZIJ8uA4Zc+CGqjt+WGgXwteRuosDqSTeKwTHpMdEhG0yEHHT9LCsZb0ROzMy0w65Zb+qol42Z/MymX1ou9HIWcn/vFhyCpnYmDVGdeHwzp/5ae39rJqumItwQvgcQ2u+GW4qfneVGZyyEmB3AMLVZMSJCvM9WIVP7BOhIwosJ3yyXAugBV2a7Pb5nIUQdzwwKLFYKGC/43N3kgLXDuCDA7IXBJE3ACey1mZ7dgm2suSnjYc/eg3MAZyHj7qfSgPXGooNbWUHpoFAW3bbb6qPKmhvKiin7epALYgnsVmysLiSRC4CM8d9XjXS5gCZ9/xBtJRPIBjKBbHD5zmXWO9KgwFKnQOdj44pcsALRGDERsguyRFdb0XgrevpK9LRtGZxZ5TnpXciFKmiB/yyKkSm40RbR9+/lUMCcO4VwIrcJuL4jKUAzH+C8jWDpAAeYMVvtM1WfCTbCzGV2S4C5BC6bCRKYXcAtkKbjsUGBRU0BkwY83QUZxQ3cfPXVV6WwjROAn6tqJts1mKUBN451MJbelRDjnmbFvZVz6AAc191Yc1iXpF5/K6c6wDELBeAWkrQFwNFe+wV1a5bPLmDHpb0d2JBDZIP3AERKoSuGhZQ5nhkUWKwU6NZJVlEAp2RA+J+rym9Pw/Osqg8TE8cAwaK6JWBox+49i7VJ738VFUFh91SrNxyo6Rj3+0GMwE2iiwM61pdrigBzETDMzz8kVAgus1AX4ALIuOzqao2/6PA+Y3vZgtOtNYSYy6xQZ3fLDuXgGmlQ4H1QoIP1+TyOzztfEkT986uASP/O3SSBMPOZm4fL1/gyVlgvjEHjklXVJoAAj82/nDBs/PW8fik6WHRgoQFhaoO/hxG2wI22K7sDHBZddScXTFJ+qF5o1a02rFVAjdkp2eAO2JixuhoNHld+5AJ6oY+JD3pxk7t8P9KgwPumQNd5+NvVx8l8EG5svGp8zP8ePwsHkR9XlUm+sUWXPnrWNga9k/Fo8nNz7/4KLbEgIPabkj2vyv990ea9W3BswS6I8Ob1+P8jyJjFmcHSO9URgAWBYpZGmJihLYSA0CfwQoiZmX799dflUzRTdQBhZwKE7wrBZ3n7Wwe7lCn5THlgFr+PNCjwPihAaOFd/E0B4/FufaTcjRc86v6mceI5gstzxhgLqQmA/LlyjUNuYlaUe7Gu3o+76GGWi4rHMRZ+6fQ4bQOsbgRg3Ut9CtykbqlwjUGywOQDwAE83gRu1JfQRjcA5ptvvpn+9Kc/TSdOnJg7iBA9u3LocgF9urJgtSHwARx5oRugNdKgwPumAJkgXsaFN/1tjAPnPZwDTy9ELuBpz5rkG2csmMaAPB3YW0cpZSXVnVhVnV2lPAdxLrb03gEOYXK/lqUCONfKTcUMFoRTBOuzpuMJHmTB6TPOVxFSB0juOpmVxqzMNvX/7b/9t9rYjLkNwOmWGvn32VkXfjpROTpZHjrZslpMMsDNqyg/vntXFMDbnU+5T/pOxPgYfwIs+HkhQLw/AxgACKyVQI54HADmccaBwH9WHLEvXMj875aL12njv3CjBTXejkWFXACyjGntXzkLcLopXYCxmJjXAZwuF1QX7QBCbQRw/ut//a/Tv/zLv5QlhzWH8EdLABE9u2LwDvDjbyAHwHH97ne/+4WpMLIfFFgYBeit7lbFq8YLPjZO3BcCbpRELtB9PVQDwDG+TAzk3zfktbLxViYgZIRx1S04C6vtu3nqvQOc4JhaCt4FaLmm0nadQWAR1ghNqLj77k2JQLO0TRQ4y0233jA/62hCnDCfH5SoHJ2ESXRkF3KeIcj8vVAGeVP9xu+DAj+WAnib9YGCBtRPn86xBbkAFG4avMqq4CKo3pQodHxNcRNk3Rztu+n5k9rNmOVEPAxrDtCxNkc3mID80oksYDW6PStEa2l4wJWx6iJ01dvYfJNFCd1MpqwS6ytEWHYdQOo776Of9rujn7y7havM81EYXS5RAAKc1WOkQYHFQAGuZbxNLvSwDJ6Hfj4j3Ydf3zRWtKXLBc+TCyb5dGMd65Jx4Aw7oSTOrHLIbZtE/PIy4W3p/GYJ+LY5vuXzCINYTNBmiD4TnjqhdwghA+C4vwngyM/FNWWGZnbWAQ4AQzARYJaU2kunCykdSQB2gOOzS7lATheibzLvvWXzx+ODAm9FATwJ4ODvU6dOTf/n//yf6R//8R/LukmQmbUZO2ZtFPQPJbzc+flVAMc4KtAfgPPo4aMCOGZrG+atmvih/H/qb2TB3cgFcTjAFT+/tqmrcQzgkAnkBDDX2/JyudqBbtpC8J88ebLkwnyA013SXOGstcdjMZa3S759RiwPl/K67Hi5vPH3oMD7oACgTibga54KF68HXjWpl+jPN+nQLhfcu1wAcIAbHpH7GYsmPA/Kous4hwCcjC/jbLGlRQFw7LvhIE3m7x5E2GdKgAUis96465zXCbIuxIAU5madDdxAtSw6wIqZLiFmCZz9dDCAMlw6yLsuisKlPLM6QlSdXlf2YuvYUZ/lSQE8ii8JG4GxJ6OsnQbMwgCk41XCiBJ+U+q8jK/xv/EBOMjHd5kqzAGDJ0/M2rKlQsqW97uQZbUPzqOscExcHhlhfK9Z3Sw4HdyotzEK+PT2vNzu+eOaEmC1+fOf/1xyAeDxu1mqWB6Tnl//+tc160UHMke+aM6y2+/qgs7kwkiDAouBAsIpyAR6j1xw4VcTHwAdr+LbN6U+jty9Qy6YAFicAyzJw1hYEX39OBZdLqsOcIylxZTeO8BhrSEwEQy46R1AwCIm4UWIETQEju9el+RD0PMTQpqADRTLnC8BNyw3f//3f1/Bw31VljxdOkf5LnkBOn3G6PcBcF5H+fH9u6RA509jpsfhsOoQYr5rAOTtBI1xZox1Kylel4wJwutpNviSr7L9/S5Sjccqs5WrTONRXcmC+cCmC+VX1UudO61MdCw04NbjstZO1i7g5ve//33tqWNhAReV/F2Sts+/1A3I6r+/qtzx3aDAu6RA53M6kDwwCXIHcmrc/gjwQe+RC0DO3MQn+XBLPcrd9i5z8uZH5P9L0+f1aOGXLnle/s+yWgMKLIATQSJ1gANBAjiI647gr0sAic4FaACcbqbTwRIU6qyNf/Wv/lUJNbO2PkObnyfhJbkTnB3Y/JAQnf/++Dwo8EtSgLDqVkYAB78TZHi/A5y3Ld+4MsaMB2NujtczBko4xj3kdHFXHx9vW8bbPq8cZc8J0GRgLAIV6qqeP2S56eXJhwxAIxabDnB8Lz9yAcD527/921qV5W+yQZqjQz73dve7d10jDQosBgoYJ/j8lwQ4xlsGQskfFlZxcu6svYsxvR4tvOPaEhpdcCiaYHF1IYKwPs8XOC9XkdBnpjNLMzuDYHU2gcj0zoLDrCwGhyAnJN9mBtbrh5Hk3S9lurpyIZQpjC6IzfS42FxmyIBabx/lxPTn8p6knf1531FiXXkpw3fyVob8urneDL5f/Z2en2fRoMcuaLvLgPAs4Y9uLu2bXz66Ktezvfxe/15+f77Pavvv3nWpvz6Zr4zVtSf92+skLzMGl3a6amDNPszN0Ddl63Xye6+DOiqvWzT8LaGB5+SLDn1Woj983/sXLXqf6mN1Vg66aEuvk/fk0fsXT7k86/Ju31+l1w+99J+yukBST597/3um07X3mfy0Sdu5Xb/88staHYhv1Mn3gurVSf197+Rwlgh8j7Z+U/dXJTynjq43jbNXvf+uvsNXva69np3X3F+V0LXzH4DT+bDzC0DTZQNgg/avo9Pr8td/rs4v7vrBpX86bwFlLv3R+7b3je/l4XnvWbIvYFTCV+qlzS754Rvt8nznnz6G5t891+uCj/p40EZlajPXpvp02spXnBd54LM80FEd0G1++fLrbexyr/Ov8dFlrbJ6mj8G5tOsj7veHs/38SafPm59xs/y7P2uX7vVHh/7vfN8p622kHfyd0l+c6lrp0UfC/JWV5f3yILet/7uY1denXZo0GVC5zF3ZXfe6/0h//6MPLrs6P2k3N7n8nSpJ/q6PNf7idvVlgcm9vjcb/rPKuL/9J/+09y7+ppsEJeDT34oqR9aaJN6dFqHAQrSdL7+oTze52+LBuD8HEQwyAwQHY4RMZQO6AODEGOOxiRd2b1tufJTTneB9QHljmmV6ffOgMoUjOjqK7II1M606ipI9B/+4R/qPQxtUHoWExIeyqLQDSzt6/kbGMBazxtTuzC1570nGbxocDyBk2aq8lUv36szJUyYGiAGgzIxv8vnPhj74FR+H8y9nuogX3f07b8bZN7XzpOzfmHlqZ969qTN6mTw2duEm4ALURvlZ5D1pF1//OMfq6762eV95bvQqAMgn9FN6orEsmJ0kL++6P2B9voXDc3yCQrxGoCDtutbVxdI3pOHCx30hTIIPs97V98KBO7180wXrvLynIugRGvly8uFDuqqn7RRm9RJfi5B9Oqp3mjpb3QGfghqRxj89V//dV3o6ru3Udyd3kv9jt76RL8CgvgB7buy1I9dLug/suFtEvrjc32of/CLvgdOjCv8r19dHdTgdeNR/5p0KV/f9Hy899//+3+vS13wjec6KDEG9bk2yV978E8HtNqkDJfn8AnQi4/6eOjKUoyG2CNjAq9RYngSP9knCE8pR93IBLzZec5vXT7Ml0ue6WNDnVzy7sn7XaFra6dZH3fa43c06+MNDTrN5IenOz+rs/GBZv/xP/7HGof4HV0BApf6d1kqf/3V+8RzZA4Lv7HqUl9yR7vQVv5dHuhbcgxd5OPCN/iHrCUHu0xEM795X3wM96g2u8jJ/pw6dXnQ+0nZ3nV5rstF9NV2/CyoWD+RiRbVnIyc1cfe1d7//b//d93VjV4iI//Nv/k3RRvf/VBC1/nXDz27GH97u5G8GFswr0461GAzoLsQM5B0osHgImAMmIUmA6CnPigxImFhJg0UYDAXZlO+wUB4KAtTGjQYV/3UxW+YE+OoK8b8D//hP9QA9AwmJHS8Z1AaVAAUYeJ5g8mAlP/xCElxRdqrTi4Dpw9E9TdYDXCnLctPucpHD4LfIDAo/uf//J/Tf/7P/7m+s5JE+coy2LTNAHX5rgMYStSz2qcs9SIY5O8ZtCIECH60+qd/+qca5P5Wz576wDNwCVs0VG+CrAub/iw6yOu//Jf/MiewCBX1RQt1lT8hhF4udVOG5yh9beizNHRUXwIV/eVPEAF7yiE80AhY0r+e1051Fazue+/Km2LpbSbICNx//+//fZWtfvrLsy7vybfnrS/wmCD4HgivXgQ7+mqPflInAIdSUF9t02b95Dt0d9mjRRu7gH0bvu+0Xg53tEZbNEJHdDcO0Ma4oAj1qXFpfFImb0po3pM+kL8xaNxRMnhGX7mUqV8l/IGnKRn91ZO66B98Ly/Kk2L6d//u39Uj+AYYUj987LkOoHrf4zvyBjB27589B6yoSx/D6q8uZIB6azsApQ7a7zvWgP/xP/5HyR7AQ72MdbJJe4xf3xvf2oim6ImW5IKxgfaSfF1kj+R7Y1BfdNmAZmSquvoeXZVjrLm0X1t95zI25NllkXGLZv/23/7bak/fqwjI0zb1J0ddaK8M+fhdnxgvZBe6oY981Ve7ep+on/4lH1zkrd9c6qNv0MBYdylDHuqP9t9++20tCpCPSxlklots6fJAW1zK7gCHXLQwBl18p//0k379X//rf83RTp+ov0vfaCv9pH7ap2/QRizqm5K6q2OnRe+/N723WH5/80heLDVdQD0wq0GDUQx2QkAnYwaMt1Dh9bqiMBNlSfgAJX/4wx8KjWMg+bs6M2BCg1g9CL1epz44CRaCVVJH3/eB5I7ROxBSf0oOg1L26iF/AwDDKUe93F3qYJBRbAaYsj2rHpQwYaquBGFPvQ7yNVj788r0PKHVhbD8er7KJZA6YFBndVC+i/ACFAwwAoFw8ay2+11Sdh9IhID85EGYGdTaY2C6q0N/B830sfq46xcCT36eJ9TQy3fqq1wDXh3UU16eQ1t5d0GtrlYmEUDa1/MiFNQTjVzKBWL0sbzRVl4+q5vkri2eVT9l4kMX2hJS3lO2tlMULvmquzboJ+3zPL5RD9+pg/q55KGd2tV5kdCkSH2nvE67qtgH9A9+MKb0gb5CN6n3Pzp3PscHC03ydRn/J6Nk8DfecRlr+l5f6UNJ3p6XjC/PqZP+Awb0n3riF8mz8sBPeIMc6MpefT2PD/S3tsjH2DXm5IuPvKe98sFrPU/PoQWQAhSrP97qloFevufxnmeNIXyKj9HMuNA+5ZMPylSW54wx7fWd99XVpZ7aoW7dWtOtD2jmWfRydZmAHl0ekA3yVA+06rJdHXqdtVX7PNP7013ZxgIrSB83ZKkytUn5xp0xYxy7tLHXkzxQVxMMZRtTHQwpW7naj2bap3/RTTI+9YV6+d1z+tVd2X5XP4ls7O1SP/R0Aar63ftoCfDpB/2KDzxDZva+VbZ8ATjPeFadtV/b5LXc07ICOAYBptHROhcTYjqMo6N1cGeit+lYDCVhNsIDCgdwWCMAEXn3QU4AYSLM3GfmXYBgZgNGPSSDTZK/S33VXcL0nsXs8saQnUEJRzMHd3XC1OqlbM97DnhQD/nI07PqgUYY28D0uSfl+1sdCRD1lwwMl7wNKvRUnsGGxoSIS/5+N5j6wEEX9eKmQasuVNTLjMmzypWnvNCr11cZBIv+0nZ1kG8XWP09NDOg1dm7BEOfjaNB7xftIczVtQtf7ZO3mZZ8tUF9CSbg1QwWLV2Ev/xcaK/9FBulRjCqD5oCFeqElr5z+ax93vNbb3uvH2GOJgStvpKvftV2Zn508Tt+mA9w5Km/tMnvaCQvd2Ucz6yfsFaONvwY3kejpZ7wVx9baNb5Hj3wFLq64x18QLEuJMlX/+ovvGIW7W6c4XX8jb/woLJcXS6441u8o8+NHX0tT5fU+cdzeFO98YhknHtHP6u/7z3nMnaMhc7zHRThC3n39nsO76gvYIO35KXekvI9j8e6XNUu49qzylcP/GX8UerKlW9/3jjxnLGBN/Eh+nrG2CFHu6VUXeSLZsrA0/pEnj1f7fOefvS757VLvpL6qrfnJG1VHtp3udDz913vP/SVn0kh0CaRz94nE1htej0BHWW6urz3rjK1wYUWxjt6qRs6+R2d5tPU356TPNNlOJ7xd5dJ+hItPa/tQIq7vNEAwEFTz+FHn/G8fPQt96PP6NoBXJfTVfgy/WdZAZzOODrWgMecGBgj60yXz2+T+iB3x7SYHYND+hRmV1iEkwFM4GAkzxnYlLTnMCdGJDwMNL9hvJ7kr77qbUB2RS1P72F25WNc+RksBJN7bzdBY4CogzxcBJZBRuAYeL7zu0Hgvfmp18H3PntWPQ14l78pgC7k0JLyNagMPMCBwPaO5ww+dTXrQrP+vvaYfRyPAlaOS7u8o43ahG7K8Zz80Qpd0aWnXt/5NFO29rnQghBwqRtF4llloYtnfe4CXFsoKALU88rVr4QeoajvCLWTme2qh2cIIJfy9LE6K0+eUm8fmna6aod+dXWhoy7e0fbez4S6/PQV3iWc0BQtfK89vU8JWHWjSPpF6Kn7sOC0GfN8udB5UT+68DL+cy0k6Ve85NIX+N7MnrLCU37XH1w6+L2Xg7eUra/1K57BAxQQfutyqtdBPp13yAd8Kz88QI64jHvPybPzoHc6z/TxgIc9ix/kY8wC0uqP19Qdv3Te7XXocsn32oFXjQX5uuN38sU48Du+dGkP/kQDYwtdtFVdfU9+AQ3unvU9Oed5Yxe/awNZq769berrd3xOWSsTHXrqNFNfde8AgwxDO5fn5e9dz/Wxph7o4Blt8JtyTWqNe8/5fv4Y0yY0RUvvuvSz99AFTdVTvdBcUi956yc8p33a5Fk09btLHujr7l3yAf+gn/e1w/PdKqVs/YDX1Ufd5MkSrt9cXfag7XJPL7TFMmlpZ253V0+YwvW2SR6dGTEVQYbZfcaYBrkBKb4F4xigBhSG/v/Zu6/tPpblTPAFwhuC3m9yc5tjdKRzIS21ulevfpV5gbmf+3m9XmtaI6mlkT0629N7EJYgJ35RCLKIA0sCJEBm7l2sP8qk+TLiy8hIUxoYz3qO0BFODT6hpGzIcXOQR4pnnNREMIpESF2jWISW8iBHRoO8uY9MkeRf/dVfZaNcZfUeckEiAoWTD2kP8RnmQ/6VRR6MtyufshSGyoJgHeWuhQcCUz5KVHH7GynId70jXp4OnhPPOZCWvErDO+JzTd4prXcFDfkw1PsIRrz/7b/9t8RWPbhWjRqvjDhNwPWO6wjDGcnARDowdYaT/DBw7I+i/OJEQs71G0HDQ/nklWGrvjcb0uKCqfhsJOdAPIgNyYrPO/KmrsSnjuTPIU7lKQPHfXiTx5KZMnCq3siYeDVq0tmcpyGOn/rvkhPngwglM4xR8kJm1b3r9Bvu5kvgBRwBe/WkMSJDDsa0OiTn4lCX3nMMQzV+6lND9fvf/z4bNDJFHqRbv6UhTrxA3uivg0zgJLrokEcyhEs0lOR9qA/D9P2GGzkVB324GZ0TRgCZI6cOekBGBR0U+oanYOQe/SCL0mNIeIasSxeHKTe9+Ou//uv8rdzkXjkYZ/DCN/JfXAMzfAObYZDX4kVcY77JkEs9L171IO/qD2aFgzzhW3+XXiuHPNFbnAgHc+XUAV7yjrqUP+krs2twkE/vko8KMFVvjBNyUh2SMnA8+10YVfIBK1jiKXEWb0mbfDFWKp/K4lnYwQB3wgD2JZv1TuXlUz1/0gbOQVQaIaSQBIpS6bUzWvyNtCiJhlrDSjApOGGjwA5/E3QNIcEkqISSglCsrQKhREj/43/8j/RgSIewep+AIxZeEQojDgruGmVj4MhPBfmUtmcFClsGTj2z+Sx/yiUPSNrkO8ZTBeWhNEhC/DAZkg5lR7QOyuYeJZVPeRSfQ9wVPKOM4kM0SKFI0T1Yilc5Nwd1VJgxCuUL7p4XF6JAJIwcZRPgIE/S875eUhk40nPfO0gHkSk/ckAS8uAQl3zBV1x+a2w84xgGcSEVDYNyI3HGTuEkv/IpHxoehKhu64AN/DQClW/pSUcc4i8DR4MmDfJYslPpDPP0uf1Wz46DCOKhj2Wc6GGre3IBd/VsXs1/+S//5bVxLl331Rl9JONleJM9eiRedTkMnlXvGlYN1d/8zd8kf5AJ9UquyKK61ggzWsiN62RBPhhGGlKyLS3Pek4c+I3cKY/3tsMIr5WBIx9l7JNbB30Vn3jonbNDnsiqtMXvXukK7wzdJdsMEHn9r//1vyZO4hLoM76BS8UBO5gzkBg/4h0GeRWnusCH//2///fXXAqzMnDEiaM8L1/4QJ7pmMOzZTgwGuRVnPgb18KBMeN9GFZZYcEY87d2gz7jD5xU5ZJf6asXcfFWq2PxF6beIVfm/ohfHuSveEt85INcaVu+C4OIrMBXOvIrTvVfhjVc1L98f+rh0y/hRg2+K8FTdoJPgQg8xSI8CIVwERoNC6EkWK4RHgLqXL0EguwagaekGjHEMgyVR4Ip/moo67qzODWG7nvONWfC6hqBdr+CdCmfZwTl2Y7A6h3PekdZvF8EVPeVAx6e4xGpsjGcED4FonTyBC/XBeWhbMiKQnquAoMChggUASPfIhtxOErx653hGS6FmfKLW/6LKCpP8uxa4VBYKI+6QZpIRH5g4Lr8u6a+/JYXJOMe2RCf56tu5Uvaw1CYyiO85GdzPbnuPemq12Eeq+6LTOHrOeUeyoDrlcbmPAzz036/QQB+w+PNne1/qZuqc/JAPsgGo6KMEfKqgRrKObmnA95xj1yIRyNI7skEzhgGz6jn0smSHXkWSkfpqfr3fMkbGaj73sNhnhvKmTiGsubvrYL0xF98ID6/6136ofwMFRzJcCidqYa+8gavOsSDRxkq8IELHKQnbvzqLE4cIg6YwRCXiocuDoN3PUdflFV83i3MhmUozLxfZSm997f41Q8DQ1zqQrlcL6POtXoHN8gfbqjnGEl4QvnURwV5lD4MhkdxlHzSZ+XwrFB59Nu1Kqd4ihNcKwxKbkoWnD+X8NkYOO9aoYSpDJxq6Ag7RSZ8pYyEkyASdMLlt3sUl3J5FrkwbCiF34R4u0A4S0DrGfFW/KWo7tWzdfZchRL0+nuv563iqncpEhJ3Rj4URlngAxsK7J68IjaGit8IBokhfngMQ93XsxIn/IZxFsGoj+1C5dm5gt/iduyEBXJSN4hIftW5o4we6SIZh/pjyJWhU/KB8JCw8sNnc5AXedgqH3VPPof53xxH+/toIEA2y8AhI9Wr1phoxMgx/Vefw0DuyT89oA/uD2VvK29EvU8uhsfwOpkq2Sn5qWfdq+BayWBd2895+P7mdJRdmXVgeB3wggaeYUC36LA8OvyNA+FGp+gLTsWVw3JIA7c6u++3/NNRuNM38dDBnYL3K7+eK7ych9crDvlWv87F29JUZ7hAWXjcyEHF7Xc9jxs8r269L5/KKf9DA0d69f4wH/IlncpfnSt/7bw3BD5JA2coKGAgKITP4fd+guerAStF1ZAhMQpM4EtoNeqVtgaawg/vl1JTYMbATkopnqFQy0dd837dc22ro8o4vFfX9nKutLZ6Xzkpq7IhJmUVEAJs/F3l9zcll2c4ISnvbO5FiA+5uc8o9D58yi0rHr/V4XZhqzy7JmzGa3McRUwMF1jLr3wjMq5f9SW4h5QdDB15EuTLM0h3q7od4jj8nS/HP5V3+ay81r12PhwE1OVWh9RKbrZL2XvknU6TTXVOXug8+a3GmlwPA7nf3JhrCDWC1fEpfan3hvIy/D28T2a24oWSpSrP8P36XfHsdq7nh2fv+FsoTuCBKn6kF8pHX2CFOxylQ/RHHhlGOjY4QjyuVWAQ4AP3GYilm3Cnr+Kiv1uFYV4rn57zezNmw/dxj/qtvJcR5Zr6kW7NlRu+57f7DBxn5VdG6eFL14ah8jesp8pn5XGre8M42u/tEXhb+7Z/7ljcIQgIBolUIyzj1VAS1p2Mip0KWUTofYe/hRLQrd6teyWwnvEuZXzXfGyVzse4Vso3LFvlAzbKR5k3Y1XKWs8Oz1vFiSDE4fD7MIN8D9NDyNzsCBbxViBHZcz57R6CZqB5luwpZwtHAwFypdEso7vqRl2TUUfppGue30quN5dmKCt+DzlhP3K+nb5sTu84/F06XBhvznPpGLz2itkwzqqXwqzqbXM6B/W3dOoondfGCAwXOr854CoeG8F9RhlecGw2eDe/2/4+WAQ+eQOHQlACwkhACd+7hKFiVmNbiudcR8VdfxfR+XuolEPlrneOy7nKpjxVvmHetyun9zy/1Tve3+o+nNSfw+/DCsP6lZa/Hebk+Ls8TpufI1PNwDmsWjmYeMmVhoXhqXEif0LJVhk4JWN1f7fUvY8Lig/IhlBy7Lw51L2hDnhPHNJ3rng2v3sc/t6qfMN8D/UHfqXT9Z6zYxjq2naYieMwMBNnHdLQmeGh9ZvHjheH0bI5eIdXSb7LwGHkOJqBsxmtw/37kzNwkBih01sjTIQMgXExEjpCSkBLiep8uDB/erGX4jtXQEB1bIfr8Pl676ic5Xl4cIUzbLiWydR2ZZJ/8ypqzxxDFOSwhaOBAJlk2Ghg1CdeIIcMCgZqdX7K0Kke+mHlvnTnsOL/WPFWuepc+SidKgOl9KjO9Zz3tgub49zuuYO+Xnl3ln+yU7JU0w+2StMwpOB53EHutEl4YadybhVXu/buCHxyBg4hqqECgkgwEZi5FKxvv/WSNivbbhCWgGv0CK33CSpjyVEK6Dmh/h7ed8+7DvHUs7ulfdTuK1P1WqvXK49DAoC9o8o5xKrw2lyuwmp4v+IszDe/c1B/V93IszTl27CTJab2HTH+77pjq8CLY94BYhPXds9t9W67drgIqIsyVBk56lhg0Oj0GIrUI9f5Ic/qfi9BvJ4t2Sx9HurH5ng264H7Q9mruDa/d1z+VvYyFP0uXVCuOmAGuzqUzbN1wGgYXB/i5t4QM/EV9sP33ud35bvyKA2yY26VSdSWdFve7W9hu/S9X1xIznh9rPxq4cMg8EkZOISwDByEVr1ovbTNBg54Pb/XUALvHYe/S+mc6yhBr3ulnP4WvFsN/17TPmrPKQsDB5ENXeqlzHB3VDkLq3qvMNlcruH9uifOIka/DyvIo7qRb/mTdwaLfS7sR2T5uvvyslWod71XsrbVc+3ah0eA3OCF6nEXL5Bfho2Gp7w4DBx1uJcgXvXu8Huo+9UB2BwPGSdfQ70Zyp64Kp7N7x6Hv4sX4KisygKb0uHCqzBzTyhcnDcH18S7GTNxFsdsfucg/h7Wr/xKywRqxo0P9ur4DDdA3a7eSjZsfVEbFR5E/locuyOwNVvv/t6RfIIA8t4YLtCTrqEFClJjppb22STPfUMJrPISzDp73lFEpLCEFDF6Xm/ds3p/vEII0hBYPeNeEWbdl7778jdcDXAkgdwiU/CoUGPRyma1gLIqG1csTJWPmBscsgAAQABJREFUceCAlXqpnrLei16P68OAEK2KsBeIXg6jFKmIkydFvH5L5zCCPMqTvKsr+XEgVXIgL+6rv+1CyQ/iPax8bpd2u749AupCh0fdkSO671Cn9NaEUJPJbcYm4I8ygtRp1at7xQlkw/vFB+InQ3SDTpBjS749Nwxky2qp2guLfBVv1corf7t+XEJxA4ORDiubMpYOF/Y1ER9mw2EbGMGslnz7G86Fe3FH3YeN9/G7uqKX23U83hVDdUsGnKUlz8qnfnVgnN2rtNXZVjpfbYkzHLzTwodD4JMzcAg9QdO4UijCiVQ0wpTOzpmsaO5FSkHoKNJm4aREFM2ZcJbAE3RpeIfiVW8dUVII8YhXegwAjTWl96x78lQN/HEV9iJxy6eRjrLCA9YMBOXbbODAEh7ecR8xDcPwfsUJR3iLS4Mk/iK94bsH8XvYyJAT9Yqgi1z91kDKw1ahGr4hMW/1XLv24RGgd+XBIUfkiZxW/WqQ7duih03mPEtPixOGMocPNHQO9zVw1ZEiQ3SD/JJzHEOuh4E82WvJffrgPrmSHoPI+TgaODgSJvRG2ZQRL8CTzigX7Mu4qTOsvUfnGIW40t/0CL7ixa3qyH2dSXWAaxmrPCrwl85BhpID6curei4elw91p64Fz25nvBQvqGd8XzJ1kHltcW2PwMFKxfbp7PsOwdru2C4ygkYYCT8CK08OIaMYegn2LvAFW9cIpXcIngORSdM9AkmAKw/ueb4UlRIynBgwCI0CepaySZ/CllJK17PVezSGKx5pH8Wg/MqHoOQbKSMZQRmVWY/3u9gWXBmLyBA1zBF1GSXKicS8hxQ0JJ5BTOrEdQExiouHDZ6w9544q0FSt4dFEBoVebVBm7qXNw0gUkPW5En9I+lq8OS9DpgNf2ehDvEfeRgem+tMfWlYhrJdzx9ito5k1GSGTpIl9Uf27CZcu1aT5/LskgP1TNaKG6qhVb/k0kE2YO45cqMB9B7ZofvknDyT6zKK4U+23eMtck+c7pPx2hxQXunUUQvKq+xl9FeD7bqjdFj5hjoMG9ynjHTaUYahOmGwqAP14T3xwBz+8IEjvMRLH12DO52EGc5VbwcZpC2fyih++VfndahjvI7T5Kfyqo4F1xzKVgfZgNNhBunDrvIhbXnGB/JIttzzu+pvp/xUOYbnnZ4/aveOZgv7jihVxXmdl8C3lDRUPtKGMBwMHIJWjTQFQTDISSW6Vz0IwuieBptRQtARo+8p6aVo5CmfbxFRBsSJQMVV96Xtt7gQoZU28uXZg1bKd4TtT16Dk16K7+TAFKlp5JUBRn7r7X4XBg483YeNMimfAw5IAW7qAt7qwne8BBgXWYkXYTA8ffoByVFAdeP9iuMwDRz1LB1zbuQHccmT8v2v//W/sszG25WtyMNzJVcIG+EicUah8h1WQEzwIT91VJ0ZfkVw6sS8oTIOEZvjqMrcYWElXvVV5WZcfxXfFdOI0tmqPzoKV42WhtRHV8mbBhie1bDhB4c41beD3BdHaFDIDr2nA+qJ/FejQ/7VkfvyIA3v4xUeH+nJ11EMZJoh+Hd/93eJU3XYyJp7eOEf/uEfUsfpuzIrWx1wKHlVD/SNTjGYHIyYf/zHf8zyww4O4sA19PC74Bvx0lXv+ySE+TB+V/0eFG7qTd1IS92QGXWO7+VBPbrv79J7+lX1DBMHvizdKw/VQeVxczwwkF/5kqb84lj4/e3f/m3KY/EBeXXsRdaOq3EDn2Nj4BTImyt1+HcJl4otAwcxFfmzYikKw8Sh4j1HUTXQwwZLvOKhnCaTEQbkQ9gRUykkoTXkJW7Pio+QSQcZuO95cUuDQjNwPEcIj2KAmd4UzBGXssELeSsHAwTZGO5zjyIz3pSJAYB0/O1AYggIeTFwHN5xiKfihJE4EYd0KSniKCOn8FLHhxHUmbxaNSUv8gsDZ3+rSw0QHASyARuNmUM+fYDPxw1hpAyHFWCAzIo4nYd1pj4QGyK+efNmPssA04AfdENwWGU8yHjVlQYLbmRKY8VIwQvqk0w6l+eFDNJ3z5JduMHTc+RV3ZIXH2HFB/Re/Ts0eIwkcUlTGhpraYsHL+AdskVOxEO2xVPGs/wexUCu6MHf//3fJ68pVxn0jHplhp0DTviyjJviRhjAAq7KjA9hAjf46hySZdyBA2AIL1yDL+BZmJWBo54OmkvLWKhOGj3C+eW1UUYchrPKWJAvZXMUx6nHMgTlHVccVoCVPNB1eMgHTOHnetUX3MmeutvNwCHrnt2e046mrBbGR8LAodAlGKXcBSxFcSAkZ0BvF7xbB6FCGNVAE06kosIJH/IXH4GliJRJqHRUfAmLa/JH6SiVv8VDoUvpNISEl6J6V2/GQVkprbxQEo0/pSZc1dhU+Sl/HYXDTmWtZzdjt/kd9z1b6fh7p/jhIt9IHWYCnJTb4TrDDYbKVuSubLwGZQzC1N8MOpiLwzveh5c6qTqVnvvqvQwjODEqEJi45LnyPSxL4VD3Npe//nbfs4LzEAd1hnTlR9kcCEm+5L0MPPVeeHvWM8hdfPI7DJXHyl+lt10+XR++U+kMn/cbeSExMi7P8KYX8iLfgnwLZJvh5p2ddEdZ6IrDb/VQIZJk0b2Ff9077HNhUukog/yRQ2d/y2sdQ6zqHdcKS7JFJgXy5lA/NRTLmC0Zp78ahbrvGTpLVuivtMm/a+reF5v9LT1yLi4NoWuVfumAd8UhfkYxXvF31YH8iUfaylbvb1U+zwpVzr3I21bPSmOn+OWZLpAxGOE+elk6QDeU23M6c3BWLtxHTsmiNARlhRmMBFzgNw6FGe6Fs0a7uFSaZF6cvOjiJfvS8pwg/iq/825lGuLg2XpefKVn+A2HMfCUFX+JW1n9Lc/yKL+VpmcdrpWcyL+wOc2dMB8+PyzbVu+QM7jKL84k63REPnkNS97ImGcqP5mpbf6Rd8/jE8/7O/ME2xFYx15zWadH09A5AgZOkE+ANDYeM9bjGAngBEqtcoBbwuKsEvcSKJNKJAjioogaVQ0VBXVNoJSUy3MEGllJg3AQEj0Pv0vZvEP55Etli1McpdyUlCDKuyAO+aCICJBianDESRmk61xp17nuZSSb/vEOBZRX5XD291bvlFJ4xnv+9tuz24XKk+eUE5FR4qoLgu7QyFYv7GYYb4Z3lBVpw8v7yEhP17N6YQ54ayxgB0NlkC/vID3E+FX0sh3wgpX78iUMywSvwgwGnqnnhuVzrTBTdnnzXmHmb+Tpbw0OWZNnssJo9Xc1WuKpQ57F41kyJ68lr/LpucqfNPy9VR7rmvueG+ZPPFV+55JPMoXk5ZexTfbIoTKoH8TvvvwMyWmIS/0mr0gMYZdsu9fnK9IPMjsR8Y6cILOH40WrvNT5ddrSjHILZEX+Kp/yXbpc7211FpdAd3lM4EsOYQVHdVz1TCbFDzNy75mqA++TbzqswVAX7pNTabhGBsi2fKoTclPBs7hIHnQIGPBl4BS3SV96JQu76bh0K3+b35Fej2Nf/nrW9ZKxkrd6tvK605n+MnbgD6eSGXHgBAejwKF8MJOOIA907WZwhvwqNx0xNFgGA9wr38rvPiMJXiXzzrCuOoCB9D071LntyrUZC+/LozzVO/SbfAiFLRlQr4xVOBQvVPrO3nN4FjfIO/1SFjpamMuneL0jP5uDa/Li+WG5vLP5efoOd3KNtwy7yqO60VGVvkOequ42p7f57+IFz+MRskn/x0a12cFTE9qSjbxskf/N8X3ov4+AgaPBijkFwIpDRQsEYag8KqaUaC8gaWxUpEpHKAwV497G1gkeAXWoOEpFUAkiRSRQntls4MifeJGTivacd8RLkFj2hIvCUzxKLA4KzrhBaJSSETBUoqEAS5cgu7ZdKKH3nCBf2ymJZ93zrN/wrWd3ir/eIdQwgr068Lf04FoNqCE85WOYIH6YSMfBwFEmmHleHrikKZwGpQJcYcPAMUz0Z3/2Z3lWH7AsufB8lV8e5aUUH2bubRXqHc+qO2fvFs7+Vl/yUWX0t3lIArJAZI5KUznJlTMZUz7vwGvYSFX+5Fd6w7JUXuXPdfcLe+n47XqVy5lcO0sbZnqPZBBxSpv8OcOuDNPdDAHvlB6oa/qXIeAcORFGY9bn7j3iKs9BnAsT/FDlh6u87pcPKj+w0yAyROBKtugj/BwMxWqwyIF01EHJu9/eJefwFZe6Z+BoxDynvj1HztUNXpBvmKoz6ZFzMv4Xf/EX+du74lJP8FdesiAu720lC1Um58JKut4R/C55K/xc3/xs5dfzW8mmdzYHfEm28F7JCj1XNtgYrlW2P//zP0+8YCb+CvREmfCC99xTfsMpeAGPlhzi0MIcz9iDRkMuLfHIc+mIeJSnDmnAYKuwGQdxeL8w87e8qTN1Tc+rTdGO8DTROTg4w8E73lcudepcBi2dpGPuVz4rf/IyrKNhfut5z1a5XNsccBdcyBBjUWcShuRPJ5UsO5SjOGpzHJv/Fpc8qw/vkmP5HA2cJidjkQ7HxBZ52RzPx/r7jcR9pBwgzvEQopnZMEjiUIFR1VlJCIYiDYVI5RCk7YShilECPyQzQoWANMQqWKWJXzoOz4qfoBDqIiOCSrhK+KVNiVW+Z8WnpyIuQuA6oRYXAdcIaej9lr64Kn8UB9F5T34Ik/cosjiGgSB5l7IzKjyP7MUhjwwp8Q+D3sdf/dVfZd5dl3f5vRm9J3FtFdSBNJAwApEP2FAW6cGBoruuR8VwUz75QAjyKR2H58SlzgovWFUjUul7Dj4OSiptxOa69MRVQXyMINcorkbJNZhVA7NZ6eStMJMXcbqGiOEtLu+oF2VWHjiIT36kQQ6RhXcdMPGsQ37hChNxwFa9//Vf/3XGoxzirGNz3ZIj9+RNfsQlfbIhHlhIr/IJZ9c0rNKTPg8ao13epO+a8sFGeq4Pg7QcSIssaayU0291paemd6bzMTERhnekOYHUIp5hfQzjPMjfyHN6ZrabPTnfPXv6OD1I5E/+lLk6FHRHOVzbKmzOq7+VQb0pJ6wYOnRanOpZGuTdQS7UX8koncINztU4V72rK/lQN+ScgYMXYCxIs/S19Eb9iNt78uK3+Hk+lVegF9L7KryaZGUY6nll8XyVi2zIg3KVjJMhZaW3f/M3f/NahkvnyJ1nYLA5yJu4GC30Ajawr0BelU15xCMNvAQb7w7rAf7y7Rq5F7wHE3osXmVRr9JywMR9ci0d8Q65xvsww+3iLx6HgfIPQ+mutPGjvFdeXJOG912Td3UjfvXrWb+VD//gbIc69pxDfuEsz+KChzK5VjynfuQDL8HVPfI0DK7hOjJEP9WL/FQdDJ+VL3lm+P3ud79LbMgfWXbAAGbSkvfNaVVcxQvOla4OKd1Q58qHD+jm1FTw8wY++GJYxxXfxzy/zXgfIScAUTGzc+FpmY3GP4ALlJJ4hgZOeUgI9l5CAS1uCk+QCB1BU9mUR2UhhToohcM7lK+OUlAVq9LFTXDdr/gqTnERdEJYSkzoHPLgqMZXPIiwBFyevO/dIqVhWaUvTspFKaUtLYIqXmSirMMgHkRGmQoTgo4slXOrID5xIZObYQhRakojrVLiwqrIR/m8J07pVFr+9oyzdMVVhqD6rTBsRDxXh3QKr3pW3iiw8he5KL88Vlqb34HzX/7lX+Y76hCW8qse5b3y64xU1AEsEb+6lQ55cXjG+9KoMovD82TCu2RGnlxHUMqhTP4Wv/vD4BrSUbc3A3P1Kw35dk284pO2dJ3pAvJWBnksXL3nkFa9D3/5GgY4qE8yp1Fg3CBsv12rtMbGokccWE0GmU1GHvTe3DvsMB55npmZCwPnVKarTKurfUeAriBceVU37injXoP8w0e9kJmqZzKpjsVf8u7Zknd1oC7Un/pU/+rDdc9U43sz6lB9yJu4YC2UvIhDuvLgXXUjHWUQH/1kHJMJ73reQRbIyjDIC9kXF1mgG/JOHh2lS+KXlvgd0mdMyJM4vF8yPIy/fsujxp8RoZybZUqc4nJIs8pX2FU8zp4V1Bs9LvmHGVkuHvVMpVOYebZwVCaHQNZhJo+FpfIyKORnGFwvmRGvzqF3PAcHaTi7Jq/OrimLdNRL8YK8quMKlbZ8i1s8Ds8xcsgE3Bkr4sNnDnnyzjCoD/VJHrxLPuWHvMJ3GLwr7cIbDvCUN4frxU0wkd5WoXiBDHkfL5jaofOU/Leha9OhmzhhbCxkN65J+6iFI2HgIM3ZEB49NUQKqJchDMAEMBcg4tXrp8AqoAhjK1DrmjMhVrEEl2AeRCBgGpe9Gls7pUlIHQyQnYKyVHkomkPvfLegzPstNyUQP+NIGnoLu+Vvu3xQOsdB4l/l3y7Nra4XzjthVnKD7B3vGpCvUBjuJZ5KE5HtFsifQz0plwbiXQIdQnz0DNnSMT0+v5EbPEaDvHhYJyYZNzNpaOixFVbvku5e3xkfj4Y3Oj7zp2IoaLrvrVcjgezxgoOhQ88R9k68MExX/jU+DkbD+wb1Qc7VI45611CNExmSL1653YJyOzzP8NgpiNehwdVI7ieQNw1jDbmTb/L3LrKgvhzilHcN/PuG4oW9YFa8BIfddE75hu3I++ZzP++XcaSzuVso2SHT+22bSm+kQfdxAmOKbml3ixfwhbl4+IBuToWRoyMCHzi9iyzsVq73ub+1T/d9YtznuwCZnI65L2diufaZsGIDMD1EAehARrzGZk3cY0WqgBYaAg2B90MAWelA0CkEppdWrmiGRI2zz214V2eiMZgMQ8PQ0YcIOjsnw7g5fTbmMczxqtkXpe/54wbGjWXL3333XXIErhgS9YfIY0ujIfCpIYAX6FbNk8QPvFX062XoHUNqOrjg9DlTLnhX+w1Fj5pxo14+uoHD8puOXs+pMHBOn7EcuN+vI0zB15YkF5kJU8jMUBUDpxHZp6ZWrTwfGgFEhrgQmE5EGTjlwTH/Bnnpqc3OxlYKMYTMk6LX/SHIbCJ69idPx1LqMHAMYY+HYXVitKcs+i/fOEHnB0ckATdu+NBi1NL7xBAoA6dWHGtzXxs4oV+8uvjgTOjlXHRAcISOh7b8qIUjMUQ1Fj2zqZkT2UubnY9N9wI0BLqy3I8fIjKrWJCZ5W/IzJAHVytXY4UPQbqVVjs3BI4jAgyD6hzw3vDcWHFBv/zWczP845neg3KqO38xxvtzmGhjvP0DuaLNxzNsfSo6PnPz8S2yMHImFnwDKCZ0Rm+yPDjc8YZnDNXV0MOQF45jPbU8NwQ+NAIcBw68oJ21SsyoiSEqnPDyZT//FC9op8+cv9TNRwekN3B64+aotcFHwsAxfg2Y9OScio81XrycfwN0Zanf9dbSQUQMcMsvjXObW6I3KRw1YD+0cLb0GgJ7QYDhUh7QMhDsxE2n9NRMgDQ8JUzFnJsz5+MzJde+THe0FVT07EPpGiNlNrxG82HgzJ+KybVhZC2GgdMtxNyhMHDMD8AH5nCYZFsrQ8wLaQbOXqShPdMQeIMAvee9oVfa2n/+53/OrRMYOK6P8NJEW82goY/a6fnTsYt06N+H4oQ3ud3br49u4MhmTZqciuGpkwHY2QuX0928ZGXI837ZJquSQcOLg4wBakIfMmuhIdAQ2DsCjBxkhsjok2+A0anqqZURM2kC7vn4TtL1L7tT4Y4uA2fvKb3fk+b65CTj4AQ9xZNBqk8fP+pWV/oPUTLQGGtc4yZh8kCZaMqz20JDoCGwPwToksnFxQtl4BgxwRdjYeBoqxk4dPFcGDjmzfr7qIaPbuAMLT8bB527cLG78XX/wcOlxfDePPO11jdfq+U2M7Pc8lDvJuBBaGaOm/zUwv4QgBlDkYvfEm7LFwm6BoOXrPWG94fnUX/aPBWEZc6Nj8TayNAGdzyk/XLrILDQJd6bsxcudefOXwkiu9LNxWRCBsdQXw+7rHT7VXhxdHzOhqF19cZXQcCxP8paDE89fpi9Sh0f5cELltSaK2CVDw8O726tLDnsvH5q8cOvOIFBzGjEC4YB8S9sj+Kci0+tHg67POrUwYAxLGXeDU7waQdeHJ0evCDY92YudOzCpSuhj7Fj/bnY5NTcuBhK/pC8sB9MjpRFMBGWIFK98XXsLLwY3zW5f6d7cPd2EFnsVxOWpbk4yLjmCFA0DbAxeArZDJz9VH3/LKKCo2WatbcDgbehGLe/RqO5+/eP61F9Qw8NkSEwPbQycPTa0sAJo8Kmm/OnY2+O6KE5uKJ5Umo4+EOVjYFj8zDEaqjs2vWb3XIMWT959DAJ9cULe071W+UzcMgtA05jbDlzLb1vvLD/GoNhcYLfeIChoxOEc8mC+mnheCNQ3lx6Y9WU4ep/+qd/yh3/zcvT5roXCpd6eDb08MLla9FOX8xh65mYI/eheWE/iB8pA4claMUEUnv84H5355cfuvth4Cw9X+iWwsJcjN5agU7JKKDJxvZzYEFqqIc9NteOqmW5n0o6zGcJZ+1Rw2ujV0boGTcOLv9m4BxmDRxs3Oqugt8ODb8xdMYNz40ViYwbHpzvYok1nape3ER4bqxcunjlWnfx8hfhUe3d0GPRgajtGyr+wz73KzNio7fw7HKFX/7iRrfw7El379bPuZ3EWhDv+ot+Lo7eJm8O/dfhwQ0Ow9ow0Bj3BlO/GVnjhZ1rrwwcnMC4sVcMHO2z0zw4O2N3FO+quwrFCXRep4bX08pJzgO84MARuIJx0+97EztgBy8wbi5diZ3Vw9CxAed0rKo8ymH0//g//6//+6hk0KTi+EpDkNR4Ti62a+n6er8L6MpyzOKO36Fl6U5DVsBXMYgNeSNxlVYNcjNwdq9Zws6o0TAgNQaNoSnGjcbB34b/jrKVvnspP88n6ANvJwJjxDBmkNc//MM/dP/7f//vJDTeHN4bunIiZMBqqetffdt989vfhyf11zHB+Hp3Kva7oG/k5GMMS+AFw9SIdi04YXkpdpYOT85ozAlI7254eOWfm53+4wU9T7xQ8u26vBcnOLewPQKFV3GC4SpGjs0//TaxG2cUptvH1O4cNQToCU6ouTa8uPjAgR9su8C40bb6ALZhKB0MfPDVr34X519158PQsbrRVhJHORyp3FGY3P45dkkE4LXorSG0l+svu2dP4quosTwUeSFtFqZ5OIhbZagwhMaFWj2MJO0gtRa2R6CG9hAWY6Z2xdWgFYH53cLxQkDDzsChE4jMJGIfCERmPDdc0eauuO85e8w4ZmNDvUtXr3ff/ObPc86Lzbz6DsPH84aSP3vw+GTEYnhzH4V39/Gj8PCO/RBcEB8BDIOH/uMF5K28+MHnLqqhNmTFSC8Drc7Hq1Y/XG4ZNtXBgSFcBbIAR3XSjMQPVx8HlRJeUJfaTqsmGTOGpGqhAb0xWV8767mZ8NDYqsHUkcsxRHzjm193125+k6uojkO7cKQMnNe9gTB0TsXKiUtXv4gJhfFBt9gPZzFWU52IXtdiTDw2ZMW6rB4qoHlwrKowKcrZsAtDxzj8UCml0chta3WB42ahRW4O+LZwtBBAVhWQkYNOcDs7NPRIrCbhmqfCDc3YyS82h3HTRRQ27rIq4mT0yKyYsiz8YuielVMm+NbuwZXWhz5rSHM7+JDP04aqwquEE+gxo2ZtNby3MfF4LQ5lhgECp/uMdFwxHHKtuTlDXpBGHR+6fEc5veKEoQe3ZO0o5/tzzlvxQhkz9AF/l3OAPvDcOnDCv/3bv+XBsClnAZ03JxYH0Ler17/qrn5xM4aorqY35ygvDR/W/ZEycGSsegW2gr5wyUfT4gN7QWaWhiKr+3duJ7lRMiSOwLneEZtJUixQlabHZqjFOLwxZN4JvRJxDJV1CEb73RA4TgggsCIzDX2Np9cqKYRVRMbTWTuT6gB4XhiN3jjPjcnEV7/8qrt+89vuShAZl7TJve597IAT+k5JfAwxepOXr93IlRuvwvA2XMXLa7XlwtMnaeTBAT8w5vxm0JWBgxNwA14wjw8v8F5WQ17887HL3NJvCLwrAsULOqb0nLFfHhvtJV4wZw0fFC/4XV5QbS7jxq7lF8Og+fLb33ZffftnwQsxHyt4wSpL7ehx0JUjZeAMATPuZ3399OxctxbGzWpUFNJaCcJ69OBuTC7sv5CKwBg3SKwmwxkrNlRlVZBJcUVutfsxQ6eFhsBxR6CIzBmB6ZkhMLrgsMeNw2Z45qQwbJCY4B3LvhkwU/EtuPOx9PPmN7/tbv7qtzGZNwwc3pvQv6MQ8MLIiDlAXU5stBiBy3x1eTHK9DCMmydZHttK6AzpsRp6cyg/T25xgC8sFy/gCQYPI6c6PkMOOgplb3loCOwXAbpdnnecYFRDp4cxw7ChE/gBL+ALnKAdrUC/6L7PMFy88kXywm9+/5fdydhN3A7GR4UXKr87nY+UgTPMKKLRq7KCwj4cjBu/WZW+Pv7EUFTshWHoiptdpbJWVZjK5Y4rskdgjJ9ySSOzFhoCnwIC5L5kn/wjK2TmQGyOmnCr4adX4xNToUsTsVrqXCwBj71uQr9ufPXr7vrX3+YqCXvebB6qPCpYJS9s6O+5S1djrtDvgw9muts/fR8EfKp7/DAmR4Ynp98/q3tt7MADhxQ+PL08OA6T6HmIGi8clVpu+XhfBLSBxQubPThl8HAM4Ax6IfiQLuPF7sSXYljq0hfhJLj56/yNE3h1jiovbIfXkW3pEQ4yY8yci96lyY/c09xjPDu//PBHdk0YMlFBQdzrsZKiXNMqFKGxUHlrDEkxblSOOHt393aQtOsNgeOFACJDaIiKEYO0hgdj3/U0cEKv6M9sGP3muH357W+6L2NjTa7oC7E03OZdE2EAHVUio7v9JNexGMKOb0+FfnObn5y3sme6uxWGjmCeHlzMPYCNsuvNmnuk91q8IK5yt+OGFhoCnwICZF8oTqg5ODUPp/iBXniW7Fvybf+rS9fCa/Pr33XfxIETbOrHc2PF1FHlhe3q7MgaOMYB8c34eBDaqehthnuM6yw+iBGEFKQUrnVViPBq2agJySpsZTWWwAWZGaOvit4OgHa9IfApIoCwRrKT0E+qN5F4OlYnTkUHwfCTnYGvxXwbY+tfBZGZ1D8fy3+tVjrKoe+cnAii7fKzLoawZ+dOJQ9YNo4XLCdP4yYNveXghJhguRaTr+PvVxtLzhsvHOVabnk7DATSgMcLcdTXv8djVISRb6j6bG7qeSXm4n0dw1K/6b76zZ+FwRND1WH4HPX9brbD68gaOJszrFJ4b87F2PtYWJK5u+nZC939m7/kpoCPHtxL1/TiwrP4IN+zHKIy+ZB3xx4ajdA2I9r+/lQR0MDraWns01MRHhnj6SfDazMf3g6T962GsOU67+gZ821yxVH/4drjgkvfmwzDLYwcG5CNBVHPxyZ/Nig0WfrR/bsxX+9e9zS2mMhOUMzRsTngi9gcUGco+7gbPd3jUuaWz4bAuyCg/UwPTAzvJi/EyEh6cmNU5FRs4IcXDFWfv3AldCl2Lw99mguvqBGU4zx0e2wMHJWqQrjL9DZt3X71xs0Yc78fbukf0jV9/058O+NefN4hvDyjsREYoybHItdRWdLZu8hGe6chcKwQSAMnPDZ6Xj674DMLXM2X4rhw+XosBb+RK6Vs6uf7b/RKj47H5zgF3pyRkTBwZsKrG4R8JobX7LL69Mmj7lnMz/vxj//R/fj9f3R3f/kp5+s9DaNvKYavXy33ewQFQRyn4ra8NgTeCwEdAkO65qzNxZDTXMw/Ox8dHasSbQ3Rf5blShg7Z4MXYipI8Id30vPzXil/vJePvIEzBBfY6aKOShqJ3zw6PDks0t6jc757ePFudy56bojMOPxyrLSooavekxNgN2I7MIljRMKVp0wv2UoWePeT3F5mr1r9TMTwokniegQfe1+VAyv8EYqohqNGR2OJp3lngfd07AVlNaL5a+eiZ3buUnxbKj69kEQWnhtE5/njWh+4oQ68kL3N8OLghbnombpH5k7FvIJnYfT0ixKex0rM5yGr/Wqr9OTEUHYLB4tA8YIhQQtBnodXnUe9Am/bhEZ0Q1ZxRO+Rqyfa+SAQwAtwdST/hm5YNWlCPiOHw8AKSh5d82/sTswjihO8M2x/DyI/HzqOI2/gbAakADdu6DdiM7/AzO+FWNK28PRx7nq8HKtJNLYMHHvoOHz2oW94W89tM67v+jfD5uXL2JMojJv7d27lgcw0HOsv4rMZ0cD4Zok5VKfPnssPtOVcqndNsL23JQLcz1zJ2XCER2bKfJsw/hk5M3GeC/x5bKyGmAoCUy+fAoEVGG94of/iuXl6rin35VgN8jxWjFhZxbBZXemXkK/EeSU8vebttXCwCLyMCe/49kXMfbr98/exyu2Htwwcxs3pGBo9HZ+DMYfKpHeexBYOFgG8YJPMvoMZDoEwcCbDwJmJrROy8xN8MBfY05P02kQd9LxwvLy526F2rAycIjGFMSkq9/CICpmPXVgFM8N9o2aZYRMNrmMlCM218iyYVc7IaeFgEOi9Y/FNsFiay9jkNdNTM8HbyjZDIHoK58N7YKvvq7HHiqGTFg4WgTRs0ksWe1iEQQPj4cGgSc9O6M2nFvBCccMJnxKIQ9mtujQ0Z4djHZ7khdjvwydfcMViGDzPF57mHlufGiYfuzw6PnaXtn8Zvn0Sy/d50CrYXJFxc8nQSMyr5EkwlNrCwSKAF0wQNtzEs2mlId0w4oEnxsdj89txnaPjNf9urygdKwNnt0KxPHkHLPZUsSpzddaEwlC0aHR9rLM+3LdbXO3+3hAwaZNB8+TRw5jsfbe7nT2AN7tcqgcehPwSbQyTXA0jR++hhYNF4AQPjiPIig74+jfy0tjrCPByWpn4OYXe8OGiH0uPlfJbNcLwZpjPxoqx+ZWz+ffnhMuHKCt88YKNWe/c+jFwf3tzVTtoM2jOnDsfezFdzaXJPIwtHCwCeCGdARs8gA8MB9bZfL3qHBxsykcjtk/OwDGmyxqdjGETPYf+2PDa5HyRmDPSJhwfmPStBYHpDesh3Prpu5wHMRpDJTlXKlKhTFbo8LKZA2JiuD0VWjhYBDTevtVmzB32IzGG7twf/e9Pmci2QlN5E4uYiGxOAVLHBzkXL+aG5JA1j27MIWvhYBF4ER0f0wKWFpe6U//+L7m30jAFvDAzOx/fFotP6ly+krtnnz53bvhI+30ACCQvvOaBP+WFXkc+3f2fjr2BMyTtIrSNjU4PQDxaFLsh4KOHemn2GpmZmeu9BXoFoVRC9p7Do8AdamKbPVhqSHG3uNv9hsC7IlC8UGfe3RjYftfo2nv7RIDHHDdMTi2Gp2wuPYvDKPCCSeG8OLYwMD/v7LmLw0fa74bAeyPwefms3xuuFkFDoCHQEGgINAQaAscBgWbgHIdaanlsCDQEGgINgYZAQ2BfCDQDZ19wtYcbAg2BhkBDoCHQEDgOCDQD5zjUUstjQ6Ah0BBoCDQEGgL7QqAZOPuCqz3cEGgINAQaAg2BhsBxQKAZOMehlloeGwINgYZAQ6Ah0BDYFwLNwNkXXO3hhkBDoCHQEGgINASOAwLNwDkOtdTy2BBoCDQEGgINgYbAvhBoBs6+4GoPNwQaAg2BhkBDoCFwHBBoBs5xqKWWx4ZAQ6Ah0BBoCDQE9oVAM3D2BVd7uCHQEGgINAQaAg2B44BAM3COQy21PDYEGgINgYZAQ6AhsC8EmoGzL7jaww2BhkBDoCHQEGgIHAcEmoFzHGqp5bEh0BBoCDQEGgINgX0h0AycfcHVHm4INAQaAg2BhkBD4Dgg0Ayc41BLLY8NgYZAQ6Ah0BBoCOwLgWbg7Auu9nBDoCHQEGgINAQaAscBgWbgHIdaanlsCDQEGgINgYZAQ2BfCDQDZ19wtYcbAg2BhkBDoCHQEDgOCDQD5zjUUstjQ6Ah0BBoCDQEGgL7QqAZOPuCqz3cEGgINAQaAg2BhsBxQKAZOMehlloeGwINgYZAQ6Ah0BDYFwLNwNkXXO3hhkBDoCHQEGgINASOAwJjxyGTLY+Hh8DLly+7V69exfGye/HiRbf+Yq17uR7X4j//7xZWV5a6leWV7vmzJ93S0mLE4f31jM+76/F7bW01nlnqFp8vdAtPHu8p3kp35MSJ7sSJke7E6Fg3GsfY2Fg3MjKSt+tcz7ZzQ6AhcDAI9LzwsnPueeFF6vVeY19bW+lWl5eTE/DCenDLMOCI1dWVbnlxsVtceNYtPH0cuj0+fGTH38kLo6PdaPDDaHACbjgRv1toCAwRaAbOEI3P8DfjZn19rXux9iKJZvH5s24tiAexvXy5u4Wztrrcra2sdo8f3k+SWglSY9TUuwymlaWluPeke3T/Xnfnlx+7Z/F7r2F8YrwbG5/oJienuunZuW56Zi7IbPS1kbPXeNpzDYGGwN4R0OFZXV0Lw2S1W4qOyfMwQuj2XsOL6NTgkeXQ/WdPH8XvtbdefbG2lvE+efKgm743101MTHZLYezsNeCFycnpbiJ4YWp6ppuamQkDZ2Kvr7fnPhMEmoHzmVT0dsWsHtrqynIQ0eMwVO51y0Fo6+HFYajsFnoiW+2ehWfm6ZNHnXj0+BCkwKOjB7cQHp6HD+5uGCmzu0X7+v7UdJBYHHNz8103cqKbnJrOnlrz3ryGqP1oCBw4AskL6Xld7J4+ftQ9Cl54/vTpntOh9y9WV4MPVuL9h2nsDF/W8VlafN49ffQwjJup9NIyovYapmemu+nghNnZk/nK+ORkN753B9Bek2nPHXMEmoFzzCvwILJfxoIhpAd373SP79/tFoN8lhYXcvhqpzS4nhlCenl3f/kpvUBrQWxlHDF4eG94XQx9GcrS69otyBM39Lnzl7uzFy6GK3q0mwlCC4dTCw2BhsAHQMCQz4nQW7xw9+efuru3f8qhJsYLz+9OIb24wQ1r4anBC4yZYVgJXnj88EF2Vhg2j+7f6SbDE7NTSE6ITs6J0Z4XLl37Ir04L18aEt85PzvF2+59ugg0A+fTrds9lcx0lpEgDYGR8vDu7e6Xn77rHj241z2OQ09up9APZcU4fRCZsfTnz54GqfVDXN5bDrf2q1e9Z4ehc+fWTzmPZqc43UNm5tvc+Oa3aejMnpyPNFbztTLIdouj3W8INATeDYHqYNBBvHD71o/dH//1n2JeTcy5C+OkOjDbxY4XXhnmjk6N+TU6S8NgTh5+WQnv7oPgHJ2esV1cMMUJ5tzc+OY36Q0+e+FyM26GwLbfbyHQDJy34Pj8/kAaJ8LAcTYXx3DSk0cPujvRY7sVhs7LdcNN2/eO6pZnktCiNzUML2IcnmGiFyjeJE5W1Q6hn1g8mvNu5k6d6S5duR5xv8mDOFpoCDQEDg+B5IWcwDuew8zPo3PCEGGsGMrmpd0p7MYL5udYfPB84elrTthNr3mTzLuZjCHr+TPncjj8RHh2q4O2U37avc8TgWbgfJ71/rrUSWRBHCbyzp8+212+diN7Wwjt3u2xbnXDwGG8bBVemx3xYydDKG6mAfQqjJPdzJOxJLKpGJI62Z0+e747f/lKd/7SlW42hqgMdbXQEGgIHDYCI68n88/Nn+4uXv4iOyi3f/4hh5tWY2FBzrMrS2ZTdvbKC8kZuGEvvBAcxZN7+uy57lx4bpxPnjqdBk/jhU0V0P5MBJqB85kLgt7PiROvYoJeb+Bcuna9n09z6+dcmh2DRbkiatuhqiGTbYclAot7rw2gXTww45Gn8VhVMRMTCE+dOd9duHytO3fxcrix+wnG2yXTrjcEGgIHg0DvwRkNbhhNI+LClWvdQnhblmMuzYO7t1KXcxhqGwPnzRYTrwniTzOGFza4IW/uwgujMfdGp+dscAED51R0fhg4Omfy2UJDYDMCzcDZjMhn9jciKy+OZdhnzl/snsWqh7MXLnWnz13ongVxPI+l46vLb+9j8V4wbUOKlZfpmdnIx4Xu0tUb3fkgM56l6TB29NJMfPRcCw2BhsDhIVC6KIXZMCp4UM2XeRKrqW7HpOHlpeVYRh4rJncZqtpXDnfhBR2cM8FJ1258010MgwsvmLvDuGl74OwL6c/m4WbgfDZVvXNBEZol2HpUp8PIuRhek6s3vuzuxgZaVimYXHi4IeYCIaowYk7GvJsrX9zsvvrVnwWRfREE2+9900jscGugxd4Q2AqBqdh7igfVxOJ7d25F5+P73LgzHDoHa+BslXhc61dzjaX3hjf35re/6S7FUPrcyVMbw2it07MNdJ/95WbgfPYi0AOQBk70hgxVnY1e0oXLV7urD7/qXsRYu6XdJggfdjC5eDR2M50Pt/OV6ze7b3775zk8ZaiqjbEfNvot/obA1gjwqE5MTIQOjnW3f/o+vCgXY7JxrJaMPW4WWTmHHAyjWzk1Ex7mC5eudjd/9dvwLl/sZsLwakNThwz+MY++GTjHvAIPKvsMnN5DMhK7gkaPLVzSN2KJdy7nDOPmUWzSt/5ivVu3SmobV/L75AWBzcUEwtn5U5n2+YtXstfomuWj8tdCQ6Ah8GEQGOpb8kLoJw/v2fDuXr/5q9wPx+cWrKiqT7O8nmN3UFnc4KRTsWLKfJtrX36TnGA/rKmpqQ3vTeOFg4L7U4ynGTifYq2+Y5l6IycMnNhwi4ExNjYR83Eedbd//D4n+K6NxP42q/23q94xiW1fY+BYJcUVfiGMq3OXLoUr/FKQahDZPr5Rs20C7UZDoCHwTgjgBR7UidgtOA2cr77JnYmfh3Hj0ysvfNIhtpg4aAMn0+XRDQPn6pdfhWH1bW/ghEfXIoTmvXmn6vysXmoGzmdV3dsXtu+xmXDc5cQ9vaap6dnYhfSHnHhstcLzZ8+6F7FsfH2bJePbx77zHWlzgZ88bc+ba2HgXEsilWaOv7cVEjsD2O42BA4Rgd6z24VRMRGrGs+l/i8uxO7GsWmnTyUsjSyGp/dVzNXbeW+c/WQxh6vDqJoMo+rMuTBwrn8VcwJvBi9cSE+SofQWGgK7IdAMnN0Q+gzvI7R+V9GRJLRLV7/snjx+0N375efY9Cs+vpffmtph+ec+MDOp2Ni+eTa8N9zflqqbQKiH1hte+4iwPdoQaAgcCgJ4wecUTp05k50eK6ssH/eh3ccPfXX84AwcnOA7dPbgsbLz0tXrmdZs8kL7avihVPAnGGkzcD7BSn3fIiEyPSTbtOuxXf7ienyb6mmumHgc83HshZHmzQHMxeH6lpYl6gjz+lffJpmZi9MmFr9vTbb3GwIHh4AOh+HrsfGx9LCev3g1dPWLXGXJo7MU20kcVDBkPTU1EwbOqRyqvhzfnWJMzQZPNF44KJQ//XiagfPp1/G+S8hr0ntOTuTOoebELMceGPbHsUzUfhg+olffhtp3AoMXDIPNnTyd+93YvMv+O/a3sCV7894MgGo/GwIfGQH6yPDwsUvDxxdih/GFZ7/Kzzb44vizJ49iHs7BzNGbDkPqdAxH2VndfEA7ms/FHD2b+r3hp48MSEv+yCPQDJwjX0UfN4NTsUSU0eELwnYwPf3zD93y8+ex+d/Cexs4iMrOpBeuXM1l4Yao7IEjzd0+vPdxUWmpNwQ+TwR4d1+9GkmPK4+K4AO75uM8iNWO6+boxRD2u4bs1CQvzOdmfl/GRzVtWeETDTWxOJ951wTae58VAs3A+ayqe/+F5ZJm4HAL3/7phxyyevroUX4ob+n5/uN7+40NAycIzMZ+5yKdNHAizUZibyPV/moIHAUE6KXDkDLDwzYOd+OzLoaSrHa0kmq9e3cDRxnFPxObe9rk88bXv850LA1vE4uPggQcrzw0A+d41dcHz23NkeFVyUnAQTj2vRAWYgPAfg+M/U04NrF4LMjQNus+xXDtxtfdtZtfx+Zd59MFrZfYQkOgIXC0EBh2OvAC/RXOXrgYe9R8HV8GX4hPOdzvHsaeWTYB3G8w/GWxgQ39LoVx4wOfNvYz0ZhxM0x/v3G35z9PBJqB83nW+55LbWLh2Li9cQxVXe5ufPWrmGy8EjuZPul8WViP7dW6L43v3chBjva3yZVT4bW5FntcIMiT0Qtsm/rtuWragw2Bj4YAXsgho1jtZL+qq9e/jq+ML4UR0nd8fKNqv/vi8ADxBNlrx7emeIgsPJiabUPWH62ij3nCzcA55hV42NnnTXHY5OvU2dgDI+biLC48iw2+fs6e1tLSUm769TLG3vcaxscnY0z9VEwcPBdeoSvd+SAy3iEbC1q51Xpqe0WyPdcQ+DgI4ISRkfH0xNLjy1/ciIUIS/nphvu3YyFCfLuOd9cXx/ca7IU1by+smFh88cr14IRYcHDmbExqHsutJPYaT3uuIVAINAOnkGjnHRHQY7OywbLxc+GS5jo2yfDJw4fd01g9sby4sOP7btq868TG+LqVWTbuOh/x2MGYC1oazbjZFcb2QEPgSCBQusoTS49X4tMuD+/d6uZihdXKylK3uhJfHN/DUJV4cEN+CiI8urzEl+2FNX8m5/X0xlT7JMORqPRjlolm4ByzCvtY2UUyUzMz2ZMyVGUPDJMAuaEtId+TgRNEZv5NEmJ4bb78OlZIhKEze/Jk9gSLMD9WGVu6DYGGwP4RsBISP7yM79Td+vG7HGr2gV5fHw9LZ/cIN3jBJoI8uTe+ttnnjfzobvPo7g5fe2J7BJqBsz027c4AAcaHicG+7Jt7YFyJj3E+M+H4Rbfw5EnsgfEwjB0vbD0XRw/NpEQfyePSvnD5Wi4NPx1fLtdzQ5AtNAQaAscDgWFnxN40U7NddyqGlxgohqvskyXsZVNQKzUZSedjSCr3woo47IU10XjheAjDEc5lM3COcOUctaz1Rogloidfe2/sXnonlomOxPBSdOG2nVhYQ1yWgZ8JN7TvTSHCXCEx0a/GOGrlbflpCDQEdkfAooGRkTByZmI38jBSrt/8deyb9aJbXV3uHt2/2720EKHv/fxJZAwle9xYTWlTPwbSqTBurNocj311WmgIvA8CzcB5H/Q+o3cR0cjIaHhauteb803H6ob7sbPx3Mn/L3c4tcHXq3UenD/14iBBBHgqJg3qpVkhcfHqjVw11YjsMxKkVtRPDgG67ZjOTUHje3LLK93y8mL3KJaLn4hFAzFWta2Ro9M0O3cq+eDytS/7vbDCE2Sp+IkTbd7NJycsH7hAzcD5wIB/CskhM8NK7Bh7YNik7+njx/kpBxOO12IZeYU0jILEuKH17m7EzqS+DGxFliXh4hq6u+u9dm4INASOFwLm1/HG8MI8iW/W3bsTCxFi8rFVl8/jGPJC7YXlg5p44dqX3+RWET7JYLl444TjVfdHNbfNwDmqNXOE81UGjrH3s7EHBgPHpMJb8Y2apdje2DeqyiVt7k3/fOyIHMRnYrF9b07Haiyem94z1ObfHOHqbllrCOwJAXpux2HD0c+ePuou3LaXzS/dg3t3Y7hq9S0Dp+eE2AsrnmcQfREGzhex2eepMHD6uX7Ne7Mn0NtDOyLQDJwd4Wk3t0IAgTkMkc+HoXIplnQuLj7LvS8eP7iXu5haQWFVBS+NrwKfPN1/UPPy9fh4XvTqZqKnNxr7W7TQEGgIfBoI4ASeXR2XM+diK4lYSHD5eszBCS5YjO9Vma8n6PzYJHAu9sI6Ex/UtBeWZ8/GeTK4gvHTPDifhkx87FK0FuZj18AxT382vhljPs1qbOzVf238l+itreSeGKsr691MzLs5HWTXTyDsvwo8GysmEFwLDYGGwKeDAKOkN066HKrCCyux+d9qzMl59OB+fm38pa+Nx2KEfr5O7IB846vcrdjKTMZNeXU/HVRaST4mAs3A+ZjofwJp59fAY0WUXtm9mHA8f+oPMVz1LHY8Xs+NvnyU79zFMHBixdT5S5dziTi3dPta+CdQ+a0IDYFNCJg0bHKwzTsvxLekRk+MdY/i+1S/fP+fMfQ01q2HcbP+6kUuODA0de3Gt7kXls0Bp8L70w9Zt+GpTbC2P98RgWbgvCNw7bUegbH47AIjJ3c4DsKyMsp4u2ADQD0z3hsf1PTNGt+0Yty0fW96/Nq/DYFPBYE3w0oj6aH1bbno+eTKKMbMwtPHMQ9nNT28b/bCuhHzbuyF1Q9NfSpYtHIcDQSagXM06uHY5iJ3Go3N++asnvBV4XA5r62thPdmtXscPTcbdpmEfP2rb/MjeuOx2R/j5g0ZHtuit4w3BBoC2yDgy+D2sqHnZ2OezcWrX0SH53l8kDOO54u5OMHXwi9/8WUsOIhN/eI7VC00BA4agW0NnFoFUwn2f9uwqa60c0Mgvi8VBJYTieMzDqfPnU9vzWJ8l+rJo4fdxC9TaeD4pAMiM+4+tjGxmDzlVu4NxIZAQ+CTQwAvTMQ8u7GYMGxl1PmYQGxX44VYbfn86bOchOxjmubp+JCvBQeNDz45MXjvAlVHuM4iHP7eLYFtDRwvaoQc+eG0+JDamuW/L+PaPr4Qu1sG2v1PA4GV+LDe0vPnWZjp6Zh3E5v5LX+1GHNyzuQXhRfyg5yL2VOz2qKFhkBD4NNFwGRivWErKU00tqXEXHCBJeATsXO5TULtdmy/HNccJii30BAYIjAenj1ef5PP7Y+03xV22xo4DBufunc2l2LhyeN0L+byXx9Ri+stNAQKAWRVBo6PaRpzNxTl0wyvguRsBNhPQGzDU4VZOzcEPlUEsnWINiI7yLHCcjwMnJMnT6dXx0c1Z8Kbux7fsXsant4T4e2xX9Z+euafKm6tXG8jYH6nCesMYh/u2O/czW0NHMJXE8Ie3r0TW/L/0j0NI8d2/I5m4LxdEZ/7X743s/5iLTb5e5HbtL+Ij+0Zh7dl+4O7t2M304XPHaJW/obAZ4cAQ2c1vP94wPYRL2J+no1An8eeOCN3bnfLG17fzw6YVuA9ITB/5kwsYDkfUx3OZGd5JDrMDOH4P47dN4jd1sCxEsawwtPHj7rv//Cv3Q9//Pfu4d1bOU6aY6XNgbOnCvpcHtJT46nh9UNgyMzW7Db+yv0t2r43n4sotHI2BAYIvMqhqPXo8LxYX8tN/7QfOVQVQw8TcbTQENgOgTPnLuR8LVuMXP3y6xzq5MUZjV3zHbuFbQ2cF9E4PQsD597tn7sf/vBv3b/8w//T3frphxRQjVi4cHaLu93/DBFg6Ag1vEkYe4u77W3xGYpDK3JDYMPZ3w9XaTdQRHFCG5ZqArITAj7vc+HSle7Kk69j64GJ2GrkYjcRq3ZHRszH2enN/t62Bo4Jxc9je+2H9+/lct8n4cnhzXllJ0oTyDK0RmsDiHZqCDQEGgINgYZAQ+C9EXjjPBmPCem2EJibP90txnBmfudwY27wXpLZ1sAxh8JXYH1baOHZ45wJz+hhfvuvD/1Y2F4Sas80BBoCDYGGQEOgIdAQ2IzAhuN/43LZF11Oc1iKVXj2T1pdWcn5v1bm9aNIm2P507+3NXBMJBapr8IuPV/IbfdNIu2DWe+O+Ohi+YnSmdM8On8KcbvSEGgINAQaAg2BhsB2COTIUHhm0nCxFU1aPK9ya5rV2IJkJVbi8d74cGtNg9guruH1bQ2c4UNvfo90J2JljE2ZJmfnu5n5M910HPV16ba/yRuk2q+GQEOgIdAQaAg0BHZH4MWL1W5pIbaiidGi1diW5sXKUrcWx/uG/Rk4sTbLZjtjPnV/+nx35srN7uyVG91ofI9odGwilwW/b4ba+w2BhkBDoCHQEGgIfD4IMGYe3f6he3Tnx27h0d1uOeb5fnADx4x3XprR2LRpcu5UN3/+Snf2WsxunpyOGc5Tcd1WPC00BBoCDYGGQEOgIdAQ2BsCq0sLMTxl1+uYa7P8vFuLfZMOIuzbg2PHSUYOg2YqdhjkyRmPL8FOxH4nvDstNAQaAg2BhkBDoCHQENgrAiuLM93TB3fSjhiPEaGDmu6yPwNHbmP3QBOLDVMxcGZPnwsDZ7abnI4PKUbGWmgINAQaAg2BhkBDoCGwVwTGJp5003OnY1PY2Rwh4kg5iLAvA2e4OVP/XSGrqDOqJnEAAEAASURBVPpJx86OFhoCDYGGQEOgIdAQaAjsFQELlzhO6ptkB7UB5MGYSXstRXuuIdAQaAg0BBoCDYGGwAdAoBk4HwDklkRDoCHQEGgINAQaAh8WgWbgfFi8W2oNgYZAQ6Ah0BBoCHwABJqB8wFAbkk0BBoCDYGGQEOgIfBhEWizgj8s3i21hkBDoCHQEGgIvDMCPlUw/LTBq9g/5lV85qBC7lcXW7aYuHtQq5Eq7uN2bgbOcauxlt+GQEOgIdAQ+GwRYOD4VuTL+Dbki9WV+EbTchwrr/Gwmnly+mQ3OTPXjR7QcuvXkR+zH83AOWYV1rLbEGgINAQaAp8zAq/io5Mv4lMGy/ER7OfdymJ8DDuOPsTnlGKPupHYr27c5rvd57357mdl4KRbz1dK08X35oulsXthyka/z8+Jt9x6B7Ue/7DV8a0vrG64MF/GV1mjsBvH5hzE1+Dj0xtvyjz8Evzw9+b3wPey/6Lrn+D4p8+OjPR7G9g3qYWGwGEg8Eb2Q6fzS8Tk843Lfvc03+i/Z3udj2upH/V3xbKzbtRT7XwwCLyp24hvg29wWl2vc89z0tyhLvP22/ddOqjga9e9R2WlWw+PCq+Kr2OTJ/w3NjGTXhWb4r5PMCS1Gp808GFK3216+uBW9+z+7T7KMGymZk92F2/+NtI6mV8ceJ+0jvu7n5mBgwB9kr0fs+zHLRkAfRiJT1CcGI2xyxDIDHXeuH9cTpReGV++8Gl5RP+mjFWGJPHcldqnN2KsNmz9vQbxv43j+ravjiSexKwZONuC1G68PwIhk+Rcg/JyfS3kc3uZ3CoxPV4GjQZy5ATDv+/oxK+N61u91a59MAQ2jBv1++oVXov6zmvBb1n3w5yoQ3xTdamTtVG3HjskXmfUrCw+6ZYXnnZLz5+EAfI0hpJWcwO70bGx2PX/Yndq5Eru+j/M7X5/w2B1eaF7/uRe9+jW9929H/6tu/vjv2c05NbnkybCiDobH8P+3MNnZeBo9NdXV7u11eVo/MPaDoubq4/A+29sciq+hTHbjcS3tXrlCJI7JGU4DMGr3sx6ELxPzvto2auXMVYbCvEWCUSZ7BqZ3xTzodTJmW78xNTrLG1V5orbQzB7ERhykVJgf79c37pB0YuYiMOEtxYaAoeBQBncIZndC277IP/VvX6sj+7nsWHQMPqjo6Oz46PCGiZHf02j2RvqW+nIYZRtuzhfN/A6L9nQe7I6MsqE1nqj7WPndbsy7HS9vMTVkcIvL2PeCW5zfsnIyY5qb+z0ndUo84Zhk7viVl3qZI1Ffcb5hMm3cRwGJtqT5efPumcP73bPwrOy8PBecORiytFYfIh6PTqcvCsnu0s7FX33e1HfPEXLC0+6Zw9udw9++WN35w//lO8p/9KFK+nBYeh/7uGzanV8ofT5kwfh1rvXPX98L84PurX4iumIbaKD0OZDMM5e+ao7c+l6KgKhLEI7FoIS3hrGjB7Ew1vfdQ9+/mO6MtdfhKs0SKHCiSDsNGpijPbUhavdmcs3uvlzV5IcdlT8JNJXocQLoVi3uqf3f+kWw026Ekr9J19/xbARuEovcZem0Vg5aOeGwAEiEHLJ0HY8vXeru//zf3QPf/5u1wRS1hk3Yexr/DR8o2Nh1ITej218THh67lQ2Sgx1R3o7N7wBuyZwiA8wANZjkmk29tHBWI/jlU6G8kQjp0MxGt8GHI/5GGntHGJeDiNqk2jV59rKSnBYeEQWnuU8k5Xga8Mzhn/Ww6DIelf2MB4Edcm4GR2bjG8jTkQ9TuTHoH0QeubkmW7uzIU4Lh5GlrM+cOHC4/vdk7s/d49v/9ithLE9Nj4VfBt1ER3JM5e+OJS0W6RbI/BZGTiry0u9xRsN/4Of/hBE+J/dYhg8PalNdJe++rMgB67EcPEFXi9TWbYG7iheZdwguuXFp939H/+j+/4f/2cYdPfD+FgKQlh+nWUfRZ06ebqbnj3dXfn2L9JrNXfmUvZN9VzDmbVlQKov18M9uvSse3T7++529Bqextjvs4e3g4Aeb3qnj0Sv5uTZi93pi02xNwHU/jwgBLKxXwuvZfSWH9/9qfvpn/+2+/6f/ueusecwVBgEevUMGsbA+IZHk4t//tzl7uT5y3meO/sqn+nG4nnzyrbRkV0TPaAH0rOhzKtLG/M9orEPXTPn7cSo+R6TnU8fa+Q/clbfqcR4DF/jmmfxlemn929Fp/RBdlAXnzxMD93a6uIGtyl7v4qo97qN9x24qEsfb0yuC747HcYFI3bu9IV3ytNuLzE4lxefdc8f9QbOg1/+EMNUT3Ky78T0TDd76nyUZ3G3aNr9A0TgszJwDNesrSyFB+JJKMv96O39kpO0NPh6OyfDsl+NHkK6PqMxP5YherOWD6b7MgwP7tK16PEodwUkMBmKN33yUfRmzqdSpocnPDtJ+vXg8CzeMKC4ihHP4pNH0Uv5pXsSXhyT3JbDk/NW2GgBlp4+THfqW/faHw2BA0Ygje/Qb8OydFvveRgY7jwb5PsED0yceXDyvxi+MPdubMODU71+vfGlGAbgEV2OVSp0aHpuPuY3hDcnDKDUlYzzw5sQ66GHK9H486DS9eXnT5O7qrM2NXsqPdI8FzwaxyHgFkYCr8zis0dZj7ztDJxnGwbOYnSkluOo4fGaZlAeat7prMv03jBYp7rJeH7yycmory6N1eFw+4HjEjxpqDCHTaMNqaHEGFN7e5rAgSfcItwKgc/KwNkKgM/xmrlI5tAsL4zkEsMXQdyIxUS8Vzw424TsNca4rvFfcxyWg2DXoge53fybbaJplxsCHxQBhghPBsM+FxEw5BkmkYt+1ko1SK9yfp45euZSGAoxkdM8BwcvgiGGU4awDQExiEZ0CrbXmcMqqE4M4+bR7R/Si7oQnZnnjx+Gt8A8wpnu5Lmrkb+x8FbEcMwxWSlc3ueVMNYe3fmpe/jLd1k+naSlZw+Tq9bs+xJHGqdhsajXcL0lzP2QY2+4uoDneEx4thhFk+FFWQnvdtV6vnSA/5jmMMZrFEOZM+ExMhQ2Hp7BMXMcXY/hTjLYwodDoBk4Hw7rI5MSQ4VRY6I1jxVjp195sjNR51BAuI65gxk4K+GONalzvytWjgwQLSOfBwLREBqG0sgYiuKh8Xc/OTc8k2G0m+uhIeQZoA+8CAsxT280vB8myfNSnrx3OfVGIzY7fzYbWfc/RpDnxaePusd3fozh6D+EIfDHGJ77JecLmch67uqzGBq+0F38cuvJ/x8jz7ul+Sq4Bafw2jyMaQS3//CP3Z3v/iW9coxN83L6FW6xu0suCIl9XsJgYGiqTwaObQLin36OThiBa7GohHdHfU6F943heliBl5BBY4O9mfkzme/xWBqew58xB2cqDByjBS18OASagfPhsP54KYXi67G+CUEE8R8391rMzbFRlDk0r16det3DffNs/4urtXch96vQTCpO4ygaBT2inLsj1nTRbn67/d0Q+HgIaAA1OCfPXoohpjPR0PQr+zSEKdcawjBs0nNjiW8MjywtPOqvmb8W9+w54lmNZDZU0ZDNnT6X8yomPsIKQXnRsbCCMYd1Qg8ZZi+iAX0xbvJtTECO+4flrTio2qxy4CLDbIa978eS5wc//Wf3NLxSuIkxx3iZnJmNYfXTWZcT01EPs3O5HHo7A8fwVe5Lo26jQ3fmypfx7tnI+uEMKTK6Zk6Jv8t8zcaEZukzvnjTTl24Fvmfz/vtnw+DQDNwPgzOHy2V3pUbbtvh0JNOTiypRZAUEIkYx7d6ZPtNqHpC7cl0JQgjPDjcv9EzErjseXiCVZk5G7zaDwB8tMK3hBsCgYBevoZNA3fq/NVu7tyFMEwupLy+ZeBEI/jsQWycdv/nmFt2Kz0JL2Mi71o0lHr+hkcmp+dy4qq5LprJqZlosD7SCsEyDuix4Z1ceRTGAKPHNfePQ2Dc8AqboGuS+O3//Ofuyb2fY8jtXnqKR2PSNH5hXJ6+9GV39tqX4UE7F8aCFW7zGwZE78HJzU03PDi9gRPbBgS/4TiLR2bDKM2hrEMAhodw9tS5ftFGLKyw0svKtn7u10heN3zVwodDoBk4u2Cd805i8iIlDMboG/HgjRTa15MWjfueyHsm4npHY98TDJIJD8qGFyX309iY4BgXD03Zqlhv0rUnRp/PyFiUZzXzlwZOkDd3t5UjL09u7dJWFntQ6CWm94YrPxoE13NZZkzS5GJGsgFAJL8/cn1DxgwpE5oRNCw3MH8d3waWgZ3y2CE0d0mO3xWKwMTZ1589MzbqJOLtcRAP4rQfUNSdHMczmW6kGX/ktYwr68nS235/lErHOY26SCfrPfPb7zkUKedj0lDPfT7ffr/yOYxv+DsxUYY8+i0A5DHzFtc2Euj7oymLG2XyO45I+HV0W6WlrLWHUaXlFcaw/Mp7/97IBi4bdZJJw+h19G9+KGtiWpN6+zy9eeDNr9KRxD30Kz0OKTt9vjVq/fFmGGircryJcetf4pgMQ+Tk2cth5NyIOTRf5LYIAWxAyTPJiCHPK9FA3cohBsMK8MsJ+tFQ8QCsxQTmZw/vxPDITBhNkznheD4MpqlBnoc5eC1zKRfqsdeLHuuMPh8vnPuGsK+7lJthZH5Hfvs6C89rdDDkif7qZBiGoX+8rH5r3K2e1LCnHKhX/wUWKccbcplJDOVr43diE7+dM2SV9HVZGyGmjAzkbD91kxhExM6GBuXT6ijL/B/e+s9+C4/AW9nGJubChpzt5sIDd+7ql93Fr37bzZ26mN4cw3HqlxeHnr0eoor3vNt34J6lgWqrCh6gYT6ln5jhmw2OoF+J/4YOvC6nvAa+jMcK4urlnawaOjNsNhnlwl09F9Ap6Lu/eT+wwiHji/j97d1qR+QlayCuK5/00lMXMqmek6/ymfCi9wlV1to5EGgGzi5i8CKUhHdjKdyn60kmvevXRD7H2ERslBdLMm0SmJuMbRBPbigYQpjKEkvPcyw/JrmNT87Ge9PZ67BqIxhnlxy8/+0k0A0SMAZMebpYNZ5j03qnMfGOgcONr8HbKlA8isWNrDebc3hC2Xl94MANy83fdSYsB9nGRlz7DdnQRd5exMRlK7WQeM6LCNytgKPgiCJXu8DcHhcxxp31EL30JKV8pk8ZUVhVY75QNggRp9/y2u+REUtpNz5Kp3zG+T0vzVydEUQmLc+rs3w2CFUeJCO/nuvzyA0uHfOZNDQ9jrWqRR71/ifiQFK9AbIzQvIPSxNKNWaWQZOxTDOuBcj9vh8mN8LD/i2550bIZKSXZDrAY3Nq8mrypZVCmc7GUIA8yi+iHstVKWPZANmDRIORpBpl78m5zhF7cHDf8NszZj7zpPw5EXRz4vG3NDVC5r/YAXYphoeUNRugyHcOR8TeJXq91fhvEc2eLqWByfBKPZAncyE0JupRHZOlPm3GzVQMJcgHo2Y95CBxJ5fhtVx4fCfLNH/xasqqBjJ1LBt72Yl4A580irK+eiPkhfkgIRc6CtlIbhiQY/beifrLCanBJ2QNZq/lOTJZjV6u6opVoDXp2YqxnAsXnqZMOeInHybT2qfqbuxyq+PSl388vSDTscLKd4r6zQtH43kGXMiVIS5GQbzPc8UrxPgTepnt55jQO7w3YU5THGkADA2mfGOP/0TZ5NVqT94b21owdmrZNxys9DS8wwN3/vo3sW/Xl+k5Y0zAjEE+El4eDXwvk9HpCp199XKqW486NXRkVRkjiA4Og7qTPu+ROjZMKW3ly41f412fWFAn6WWKhRWrz59vRBHphM7x4vEk0Yu1ZfrZ8xeuyeG17DCMxjMmH59NuR7moX6nFy65p/eQk7Wsi4gX/6Wxf2I80zFPycq+1McoQwtbI9AMnK1xeX11PRTdaoWn4TK1wV2uGopr06di06hwR9pj4dUGAdtBlaHwPA7zU1bi+egfRCMRkxopaozPTodrFQHqBSKY0TgON/SNafgfssHRcKUhodeqB4gMI5/mHawEmVP4rQKC7VeX9AaO355FlGlgBBEwP14xboLc1+P5bD22imyra0F01Tul2OYEwRJ511yfavikNxET+UzmM9mT8dj3ohDxGzzlA8lYhfE8DvEtxZHEFcYmUrL/D+KTtnkWNoKUnrp8EfWMRCeibFlvZ8PNHI1FJBIl6L0aGgeGESNR3Ja3vgxMDWsI6lnPcWbDNY44Ndb5OZAdjA/vJo4anDAA4LH0NDCJPK7FB/YYgHqro+Nj0Rj2xM0wUSaGAXnLBkxE26Sj/m1KpmFhvK8GwWuszC2ZCXd+GjpRdpumLT59ELuzBqkyQrKR7uuZXAR4UsnqNk9i/vyV2D+m6yZfWZobnqTIy1ZBPBpWDcyT6Lk/iW0bGM7ZYEU+7FuC1FNXIoKR0R73reLa7RrMs4GIujYfgkEYargRGBD9QbZmQq9PnruUHhANCcNuKcrZG968OKyiV935x99m/jVMNgDsv9zc39PTV0fkQoOdMrUY2zUwIjSi+U7IatSNNNWbIRgbC1rGDoMQ67g9mnkTH7zIge0tnkSdOT8Pr4cOByNboJM4K+ezxP3xqehQMUKizDpiDAVycSKWxr8aDcMq6se7lpxbFk+WV9LQj8Y1ZEJe5ZHupYEQXKehls9Xc+ENYUi8klfmxT5D6vzLxMfGoTbHS/0LnPCSNBlTNudj2Jy//qs0bs5cuhHXp1JW07CM5yKT+f9WdVrDdeIjA8pTAV7qaCGGJukWvlmJ9KdjntZUlG8qhsGsiFInOj/PHsYGseHF60PweNTdfKxYY2i9CON86bll7LjAnj2P0ihibJE53j6GNf3cKhj+Xw35Xwvu8a492oqH3MtOWXRg6KgOt/oqWdoqvnateXB2lQE9TL1ck98Wo5FM70X05GZPX+iWzzzNnl42uCHoBNszGlLKQFGiFUpi0OAshIfEXADjwNzlFFcj0vekajhg1yzt+wGNkMYwG4vIZ9/wR0MSiq7HbLdNjXO/UqHvZVbv0TNCGjhB2Ayhfh8Kw1Phyg2yRDYT0ZBrrPBM34t6c94uw9mohGHBo6T3hBx8v0VjalOvfkOvfudSJJzfkwlCTqMjDA3zhTTEvr0yHT39bCSyp9bvTC1+jRKD0xLfvtd7O3tjvAImi+YeJ0FsGpzn0Zhp8PXaGUZJKlE25GVs3V4/Gqv0JgTJJDny7sV1eys562EzcBC0kL3MwMaKFobk/PnF9ATJq55l3yr0DYjn1U2/FDYa/mhYYb0Yhg0jDQFLgxGQBg7ZCuNGw+MTI47JIGYbmZEtDWZeD5w0wNnTjnxXQI6L0WN+dOuHjYZtITaxOxFpXurmopzkWtyGNZA6fMh0ykQ81xukhgI2jJ2oS7gqO9th7sx6pgmDCiVP/taAwo0RYd8aW87zgvFCadgs6zUxOFCp19/pLM3+qCFNQ3BvDOFhpIxlRqhyw/BkbPbnu0J64pYv05cXIRspN+nNtP/M86xnRja+YCyqO5tgWn1lszd8sJY9cl6C8IKFvGXjHPUBn6nAbVIPP+Qs5Tm4gqdlMuRE3jXSPK68yYZxHsdGm+LXCKbHI9IV1Ik8uMZooAPk1zyk9OREXU5Go032RkaikxP1mB9sjA7c0/Ci9IsHBsNfNgiFX2wDykjSqeDJnJ4/FTpxPg33frfn03Ev9gYi0Bt4D3Hd/LvX/X5fLVgxbMy5YZj1uhPGewx7M255PU5fvJ4HbHhh1M9BBLiuhkwbeuRFwjmWpE/ztARXz8yf7hYZn3Ewfp7akycmP/OO4lMd3PGQl9novNIncpF42gA1OEe9pyeUQR1Ymwek7BVwjPfIRHaQ0jB6sPH7YdYHw6kMHJ0Ncpad0+DMheBJ8heRJu4Vbzv3CDQPzi6SgNA0Kia9UYD0dIRCzrKwQxjz21VBUsiKAiTxRW9Ig4zAkXPvXYjlptHQTEzNJYFd+vp3r69zT4+dOJzlg4wQDXG6/pFpkJ2wPPYk/o3x3Cif3qXGk6LkFuhxLXu7ocAVsuGNxqf3UkQjq2cXZdMg9AqsZzGaxgqSle5eQq/gNvZ6mPtePPzl+yCIO2kkyhO3cE7WCxdtkSdyk6ayGFbTKPAanL36VX5gLhvmuF9G2XIYZYybh9GQP7r9XTYoNTSlQWZkahTKiOjTjEY6ygEH6SG8+Whs7Wyb2ATZa9gXwyBiFGlQeFbMe3gZeYW5kENUG43l6WjInz++1p2+fKM7c+J6lKGfGMlIrMDY49HQcD2NPOeW79Fb17AxLjQG2YhGHSG13JqekRkNGEzs3Dp37mIaBjA5dfFaTKy9lj3HjjE0NHACWx6Ax3d+6OU2GnI8yUhz6HWm7PAcRF2QfYbghGHWMD7c6z0ShiXJ+1o20jk8mY0i5014v6InnCGuDQPjU4PCG/Hw1h+7+z/9e+qM4QQNqQnB4v2gQb6jt56NVxjAMGSEmYuzcOJeb2iEXPDu0Zc0+OM+I4TRkIZ6rMDS0/cRRIcyGvrBCen9YhAawk2MwpsX8jFmK//xaCjPnO/r7sLl/GzM2Q1Zz/fCyEoDJ4ae7BND7tRfeWLhRGal1YU8MoDI5WjUwXjIx+RM742Yj13F18J4VZdk+MHPf+ju/PFfQ//+2MtW5JNeui9dIQ3ElDNDw1Gn0eDLqwab3p279tWG0cRT9vb8r4xg8z8haDiF4ZgeW97POBi4qXeRFl7EmTqFczFp11BV8m1w7UEFXAWjhdh92JJ7HI9/GDcmMuskJN+EF159GxLE+/a2wTM8fTo/yfeBG93tdzIm09+lUcyANZTHiF29+nWfdeWPX9oInWIdusd3f0xD3+apjC7emzSGI48wsct+Glahw+oNz8gTT04LWyPwpgXb+v5nf5UQIXseAAJIEZDM4mmemnPZsOhxENS+9xOCGT1sjSsFFpCDkPMRgrBmQlH1huajsUTkGqlgh3zmoP/pe0r9Kgv50DtGrNymgl4hJUHizspRvcu3PjAeCqnxRkK8Cr2BE1GFsvWu08n83Zd762GurcomLQQt3vvx+Yyf/uX/DWPEN67sIBtG2Gsc3/R6IqFMi7JPRw8LGZ2Lb4jJix7eG+Ms8hxxa5wZOHq9937492x004MSBFXPZu9LjzzSVG9poGnt1V2kp5d6Mnr0Jjr282r6j+f13+S6ldjkhwCzQeiHO5S3d6GfSA+OXqohLA2oHh8PUnrvBsBI13wA8mZ/k7vf/2vMo/iXNG6qp/cGk0zAP+kpUX6NrEbZt8XOX/82MdEDVveGJYYhyTUNnB+zEUa0yk4WuO2lk8MVIRdkI7/bFg1Pes0Ci/T+hcGVZBwNE/nI+TIBmQ31DM1ZKrtdYBxpLAy1PLz1fX5exPAKz4lDh0FD+2FDGDiZ/+idRyNOR8kEL5O6Mh8nG+bUmzD4Q7Z0aqrj0JfJLt8/dXf/+M/dj//6t+n5ynlvGjXyTK4GoTw54tdgqr9zT2/G0PZkGtVkVANnErG8JBeFUer7TL28vtG3lN2ow9XATcfl2YN+XhS54OU8felq1JOhsmhs1Wt4o3yz7pd//7v89Eqvv30e+3y+yasORu+9NJ+kN3DyswdRHvJsU8EoQoS9GCA9FvSfl4NeOHCoPPA44hWdD/k+eeZyGFMRf8h4VtAAv/f5ydDUaeB10Yll5OhUTIfRsnTqYQ6FJ/aBKV1YxkuhHzw3hq7gbW5QLcDg5WMEietBfApIhzA7ttEh8OkPZX0dAjdtByPVp2/uha7b94cnk8HEuNeJeCMvZLM/Mg6CSqYiDy1sjUAzcLbGZcerFFDjgIBfhmXOwkfsjp7A+g/h9V4cXzfuJycSVL0iDQHBR1TGcMPEySGeg1TctwoQ6QrG4LnBKUmOy4dhRXnLOJOvHAOOyZBIV7leIuRQIMSNDHOcPpQ0G56IR2+ON8TeIuNPY37JhtLtVJZU2MiTuJ9HA/f4zs/9rqXRyPVLQ5eSyLjn7XVhEp8hC/nQ45IPSz/higD6BigmKUav1gf15uMDonYRNTFQWm8IokeljCp/IZ/RIP+xif6jiq/i3cQh0ng98ZIXKcrP0BWX3phemR6VuRwno0GKjHWvgm/igeyFisP7RVTmt6hzY/CLsROuXqt7EUE2nL0buh9aeBwEe++H/0iCfBa9SeXk5TF2PxvPK1effgwTRUOrN6cxQ8BIUcPF5W5YVF7VoyFR3wRjnO0Ucu5I5I0HiQzAKssc5eTRMdSh1z5z8lykvZppGEoIlHNoJhusSF9Zc2l1GJjK1g+PxWTQQeLkzsTihUgL8avLnNAdRv9M9J7VP7w0qjvJ0yDK9/6Z8huxOJvblHNYopE1DAG7woOeJ9YxqZQRrYFT96U39Ho2ZNDHe3ujm9fRfJWNhl2dkePASv2uh3yVjsGed4BRxSj2Ts7jCOzJ9YUbvw5DYjS9Deo5vYcRFxntV0nFfJvw5M3GPEHeDzpaxsKZ8LaQI/pEbk5E3ZhrYm4Or9RYzOlinMJcukIN2RpiK53g5dSYKzPjwCGtHCaN+hsd29nIEXcOp0Wd0wP6YuhVntwjs3RTxyJ1VL5CB/oVXEMpyiwe+D+GGXNuU8g/WejlwpybkIOoR50TRo45OoxHeYuH9pQP5VNX5B/fPY7dqHW8eOVyDl/USXrJwntEfx1wFaSQHLih72tL/WIMMtjCnyLQDJw/xWT3KwQ0FHx5EQl0QfZhOBjqCLelrdKRUc7ID6U1r4QrmRIjcAqMJAy/GM9lcCCzrtu+p7t7hvb2hCEMEwSRMAWilIyGdLcjWySZjXJ4caIMgvvpro7yup/f5ImzcmQ8Eaexd8MKerGu7RoCtDQEwzvGNevDp3e//7feQxYKL02Gw3QQXD/2fi17jL3bfC2J3QqRl4Ffj+fTLAuizm8EBTkbQjE5eKvgHcvI1J0Jx72BOh/vxjvRmJkzYchMI53DZNGQZ2P80lyKxSTcrO94Vt1pjDWGetoaGEMSVoMYGoOXhhChiQsJilc8vBU1PKVshqAQnB7kvfhYquE0xptebU5AjeE4bnNDAxpNaaUxFg1Pfd09jYX4W6OZDYU8RZrKylv4ZoLj1mScxl80uuqAQVNDYOoWscNHefXYyXTuJBtp6ImuxhwjBpf8Kqv5FIi3X4lTw2Nv0k1MYR2fGNDQM7bJ5VTk0zw1utE3HkFTe2w8tqrvd7tmUi1jMobjQr5TX0InRtZ4UzTCoRdh1Lzgucoy9l4U9cmwZGCYP5S98KjbXl5ms068a+XY8zAKTNw2D0ovnkzA7nlUFlzdwx34hMdkYvJkeng0cORucua7rJOcHxXvkLF+3opNCMOr+cW33fk4PNtPMp4I4z82mws9Ef/LiRjmeDGRMnE6jG7X+pV+YfSn/vcGDo/Es/BcL4ZuJpdFedT3qxgawWW82o7Z8GqrpjQCdvk+BNkkY7AUFzwSx4ibsDKyYO/bX2VUHLT3Zie5kCfDfIb7ciUh45486BAFTurDwYuT+DK+kvveyPe28W/UFU9tzj8LrxEDZ+GxKRCP04jGZXTAPKc8n472AbghO/Qmv89lXlzITi9PzcDZCu9m4GyFyl6uhZASNj0pjfup6MXnrPu0uqeSqPR49LAI4Er0VF+8Cqt9o8eS816id7b07Hy3ds58lsMN2SMNBa3lwz1p8IowusKdvUHU2ZMKYwahI6E0yhBQKFU/uZV7u/9yr14hTwKlL8Xfi4HTNw7S7ee9cM9yy+q5robSZ685Gjnu77O5NPTbaFTPZD4Rj4baALZer6EsWCIGY+eT0zHWHXXA1f8ydq1NElVXwxB/24BL/cFBg827MW0+T/RCGV3qbSzmRGhMjKv3BirjNHjG8MuMORfhfWNspLeoJz5GwdP7d7JhfhaNRNZ9lCkJ81U/Vq7HrTFKbwCSj/wgLa5v6eYk0hgONQenzz9P01wMV1yJ+TvX+yGojblADAOG0UTM4cjJ2oGPycw1Lj8e1xkpvCE8W9LMOtrOEIWrZyIeZdHImDugfskOj5rdgBlKOd9k6kkad/JwYvTBhhdiYzJ6GTghX9K02iaQz/L2ZY6J1PHMYu4aHAQdOFiWzyPIS6QB0aikB2dYfx/gN30xTMLAcvQGrMnJJlf3y5EN0WngHQw7ZTJsylMq76/OvUgDRFz+ngy5jEdS7higT++dzXp5HGUmH4brnNXRUsSRc8LCGM53A3+GDg8lQ5pni2wyCtSDFZ4hmclHaagEJ50Jo+XyN79L2ZFv7+ng5OaE0Vam929yPRrRWNkZGVOnmVY8Q7crMJ6n5mI+WOiKMqb8hiK8irQZZHZ9prvmI/EuTp/cfchEPHSDzKZRHPqQ800CU/fwKtzpuk6IuviQclC8aD7RqO97qb/QwZy7F3WRBiuOiqHUHGqOuun1ancDR/nof89ZNpbspz/AtZ8rGW1KeIhOx1wpx5xhyxhy5r7xLswZVdlxCRlIPWzTcEpc3zo3A+ctOPb2B0FG9mbYz8cETi7jC1/+KhVATxcRaRB5eabuREMQZ70gIcfiufODxLik+70x3oyh7y0H7/YU0rBkHXmZjIrsDEnxaFASimM8GvkyXEKdkmwtjS9XOsXU6Pb7rpi4GASkzEGeuUR7d/2OslNKK4Fi0l4QuEl5erF6cXrAlNtS0HMxIe9MNOhnLt+Ia9E4IMPATcNrPCgng0bvp+9B+45NjKWHccKDooFfmzc8YkPDtwk3cdjwZp2JnVGv/ur3OT7OsHIwchwM1/X1lexlwacC17+e8dlrN8MIiyXV0csy5MeQIBs5tBb5RUK8Fwwm5K3OGTIMSoaj8X95c5hQyKP36Jfv08gx/MkIQ+4aM56sizd/k/NqctVKYKQc4tMomuzNo+PZJ/d+TONROobVRsZudacvfJHeIF4CRoPntgri5AXjPTEXRM/e8AV51+BowNJlHkM28shj9DzKvhir3/5/9u6DPa5cRxd1yQrOOXa7d4edZ/bE8///w33uPXPOzI6dg3O2ZUmW7veCRakkS1awJFv2Yne5SlVrcREgCXwEQPDJ7M/ZkdfcGJ5bfZCxpH36lVUgI6r4QKlpiz6rWJtYs8K8Ciw1pliIKBFtfVeFQsWPZplr4EYbFWMRQC+AkTmhb5XpuH5OrCS7bhQyi2BL3d8CkGtrejiQDg9PYtUhQ0KnvrDAeBKrJAXWgGoDT/hT1r7Uz+Ja8zJt0O/HHVWQOjxT/yva3HaCcUcnDUIWCcApZei3ZokLT0OGfmbZASpZzYzRAnMBV+juRbuPn06sW6wK+k3KBS4qcmOFFSv3kRvA6lLAEt5sX8ZAd7zAqvpST+NjAA46IqfIFlapAg/bV7pvV5CRAolPZbfYxRtfVoJI4HLW3MhLnwmCBnpOx1qmX45NP95RO81384ROeHo/FjyLNBbX8K1Z0WK5Bk5//ac62JUVi0wsQFMAh8xOEDgdE56Za9Wh+0b9h1PRAHD20pcRFgQ9xSZXB8Vz8/f/UUouUqQNxExcSowAorxF1BuUwE5Gcilq+U2aZeBwAE5XMj0PDAEoDoarhKA2yazEAZ3lxNQoaABqABw7HArg5B5KTlyCFQ0BSCDudIVFcQN38ywv2QLtUEMnIVstAUlWkkCN1WePHaFwKQYvLgCTPXua09b5BggiXFly+LRrO3+Ur+y03AiUxmTRVkoB/ZfynJu///cCqo2G6QABVpmHFWAotmB65q+Tt6ffLxfQ+OS3f2pgKEG8Yhq6AJJC/nTAL4UObN2d/vu4zwNsI5SAHivEAl7hpfaJyREIfe+nb8p1wbXlGu20g+t8VnLXvvz96MZXfyql33ZgsYo0gFTJD+NCYkEwxrgMKEYxLmJguBZexkLEQjc6Ib5kc+CAB9x7VvWXPvlydOO3/zK6/tU/l1VC0Gs9N8pHPz1PBKt8RBSqVWjVmfYAg8bNmjuTNSjWwnE/AKk1pgAcijG04otS28MDbMyt/dwOvK4Dd/pHxliNlRrb62Ms8B1f7QSjZNCklOJLHwDKFFbtlsr3FPTk/MAfIPpcAeeV8O/HPCsLo9TjHrLCnAT+LAZc7/5S+Ok7/GJZY4HUL7VRQQMKyLRddYCisQoomi6UoHaUqyd/lbUp9y9nHpiT+qfFuKyPeToZcHP20ny119yq3UEZV9pUfABw0of6u8sHT9u25HnGuPlgzDbrVZOFJavCD7JFO8cEbFvlfl1gkToXazBL4tXPfze6+cf/bGAx/GK57f1ZlrFcC4QVXxuj39iMNt/bjixW59q0kT4GYM0TngDWNzttyUHfefWqjQvgGijkBpaKYCibc2AAOJvz5Y3fUmRWdQYdAEOAUMpWR6ulFM9KKVFggNXBBGhKMFeZ3HWN1c56Bbxaxz5+8FwCstqd1Ue5HrIqMEkWEqjG3WMVKeaDq4R1ykQEEJjgCVrApwmwuBJCK8UrPqFNvkab52xXCDTWm/mAG/VSxEyzx6YF+1oVxUURwWzXgR0UFRcQHvYiP8hCVqbuE6CHt8z1tZKMkC0wVm2N4skqE68nSxNOzaJQbpfwgS+9SRA5R5jOl8bWqXGQ60QFrGB18F/uY9JnXeqAQZ/2Vb1rrMg8r8pqn2vPeAXruzyvAF94X7lA4hJbTr8Q8nhxNi4wpnCuNOMMuNgYbOn7sws3qq/s4NAefKAIm0CNAopVC6BQb7PQTRA1/qj/tLnzpfohsSQEfiWsjLLvpRRTlJt+4H5xT1lpQhOFZds818l8dvtoM2CtfmNIYrnWTxl7wE3uYYEq0BwwyyVZbs88dydjqrdp394zjD23vdbG9rq2jPuuzeM2xkrJZZ6tcWnzFtVqPUpRP7DIkRHm51TcX1Uyjoxp47eBHscHpD3F/4zd9JE+ofy7XGGV6W1uyjL1Zz55bVYixerr7dpadaUOSnXVFT2WZSqodgaYmcM+76iEXcal1+r9Be6a9afo8IyM1eJLaJ8srFx9ngKA5SbMnH1TKXAXnhuj+Nfn7Gb34LPfZZ6vXVxSRETm9IzTm92Thhb/N/1t4ks0azMXVc+RpI/JVAu5CuKP/DMHyv1V4Dh8mOCBceMFUDfr+Xr+TDzuo/44AJy37f4SgptU4vtaMTUhmdGZi971IGwrUvEEVulcMHZIHIt7YTECQ8AkP7qJt5gJXcInQosCExDncM2FKCffc8msuhEiCPLlJkzY/CurU8rNDipWl1r9hj+sA+UGqbbZmSUZXnP9TNZE8PiNIAB+THBtqoDj7ABjavfi/isz+pvaVv2XftnQP11RTAqVyTbU9xvuWf296hwL5226XLsJ6gY0bfsN78tcHetN4mdqe3qAHl4DECXwaxytrxifCER8ZZlqoHMM1sJvdZY7KCCHIPXMTUvazpLQku21nCeC0ym5jbxwnecSwhWTkL6gqAFNoMUz5xNkr5/1LeFNyQCAVp4NgLUDCVlK9KP6+oKh+jbK6IMsxWdWoRgiQyP+tjE4SW0DAMDwuywARiBxs1Kkj/xdba3xP26ZcWye7aqpLm73GY+A4k7lSI+RAZYrGDuW1rJOvoFRrIPykLVNERYmm2cUVkUDQ20R675y7WXedFfgGx6z/U/hE/nUkkU+qvmCbos7c9iChluKnKvF0SSft699uGKCAwPAmWDGrj5m0E0qwf55rQ5KM//XSgey72bf9Ypp7Xpze1I6dOE2ecXrn4Eo/5dsyT/r65i8PoorbSmTu5VJTOiUJ2uNXQLzuReQsYvHqoISUhcLTgGcWv3bZfWyhLFsr0zslJGVfbne6nFb09dbA+BQti+SLLFtbbabKEK0LGItaFm9giGdEaTdk3RRCJSf5wNqlH6BhNQbRtdqTjvLdSBOYFNljm9j8JmVbPXPuIGtL5sp//V+dVvuW+3XXkenzu/uFbMxXn3qoC1KBVlm1UvgFU8CcCouKub/46HzRJKzyaZbtEb5lyLcpC7A4mTaxczPqtQsR46TsNJVfwAOa0r6cS5Aw/ebFbQBGoQ6IPQmC0DtzIm5vgJT018CoQFUgHXlpQDYZhEUgKo/T+d7lhz0VYxOxgDLFVeHVTU3WwM4LfdJrU7D56NUJsfp6+0ez+/xG15TmH2cZOS0W0zm1TL5efXLff2weZvz3N7OtKvi3cbgxvjW9o1l83o2XrXJ3+jtr01+3uwrcXxANEuwwPx7P/yjrM+bXdu/Y20/Zet8rCMeR4a1pIT9irX3JivFtGVcmgeZX1tZwtbu2tknQA4wA/Jrp2Hmvu/MHXE+khrWHJa1GPAdyp45MACcPbPugG7MzGNuffIgqb5zPsqSVOlvKKwwdvKcOicFeMzDZu6bSikwWzDbybp86pShAqRwGZl03RVFYdZ3ser4TrEaZ6q22mCy5VpIo+u3nfxTMQapi0KXb+I1ABIaegzCVEDLq0VAYW2i48/SQnOXVVDimGZCgttkeVkQr5d4hs0V+U7aeXjXtGBu/BUH1d1KBTYCPu2EqtgXIHmLQhACiFZ9kyZrSqfxRb4ccQ7NYrKqvbaobydfU3QFTKIAjAfn9wAyAmhHI2d55ZiTACpxSKxt+nRqKgHV6Xff9XGmLTL5cgVI3GhsNgD5uhLdSbsO95ot2hi+N9dL2y2IF6/EhIUHSwHddZxHPnu/nS3Ctv1y8QCj287hfSawrCEBDOaLsee1lLGireLzKt4j7il99uDnpC7IoqjG6E7dUfvc3qou87rJiPmKWZOFWdzZm4pNFefmb2TRljP0AljajrSJsII33bzPv1XbM9cr3jF8VmphBOhnPtmpmS/2+akfX3UDwHmf+ryEYjsg0m6an/72v8cR8ls3UhDa9a/+WKbXNh+2VoK1QqSUMnkoEbigdkHFBaE4Ab1icBILAkSUVSTCjpLiuuoAhxK1k0AwbTRR6gko27qJr/1CwFi5V1xPhP5Ga0J/boG7pVglQpjJ3wtrBwFbfndKAYgZK5RS5gRzAZyxwuhL0V7Be/XerG6Ui11krGWUHh40q5Y4CjloYq6eAHkbSSgrwGwsAlZ96V/3VglfKDCArysvz9oPgNNBVQs2t/PK2UlnW5xP+qwHQUpWdy6gprbABuBUvp9Y79rqtbk8CXUAp3aqZGwWPZ2GjcS+N39HAdWke10RGYcNIGSBECtD32UkmFwfcw33gH4Z0p1v5HqgaM+WkD3yxTNrPgHYcRlrl3c7+2SptuPH3/I33f/520p5UWMp8/hdlZIR4RdeAjaO+nBe4JsK642xb26IuQPiYiN90y0H9hvgKObRgsa8IKLMb7LVXLBwYEUayttxYAA4b8e/fb27rbZZL5LIKWbXW9/8OTuC7rzxGSYHC44dLybIm+YEi8CqVcAqOZOIq8dOHXLarhBxEV7AjEy1JqHtn9xWviPKTcKK4YmQEARZ7qktBP1mje8Apu8G8LcZThFrA8uOM2Hu5+yo1TKhQ9BMQFAa4oUohircMfnA5dFfHfys1vO+fYAy02rtLYUY8EbhhBmtr+LCAG4Ek66Clk1o8FucS00w5p7uQghXCyw1fowtW1X/JpXs8ivPZC0So8M9xfoiHsehpJ7/atHW/YBjiQ3TV8YJoOo71oCy4AXM5cuKL2IRlIvIziDCvdOwy2bt2+V9Pq57rxHWHtHoFztk3jVlVHwuwNB2uHS3YwsojUt2DB58XyAigMduNDyifBu4MSYOtphzZWHKuzxPwKZgcKeVt+MIxEg5WTuAB9iJTHBNyzSeJJXaWvN2H9pJdvRXzYcd1NlZZGGTttTc6XIgt5eMsNOIi3piAcTtbQMFWVbWsh08at8v6W3OfLAIKCt0xlV3i9WGlJrD734O7Dvth1zhAHAOmeHbP45pmxVHnIIEWvffeEs385ewISTGOyPedBMgJGA16/zsgpLUK24mlpixYBY7YWXkJZdJCefx+VOEeim0xPDYplpWlG12L2xsS1lZPCtWhZVXggvH4GYc9/Pw1relDO0GWi0TAKe2tIZHzP5Wv1bFk6WURAnKSMF6n/z1/fzceNCUzkG0Wf3LOVG+C/v94EKBZeMhwpglUHbl5/IQZUu6cVI78DKGbFW3m6r101QpShZBVgyAgLXGrr6+S4z7IBpvP5r41nVUv4wV5GS/UEZAp7lTbsHQoABxwIATyB8lR5NjSJ49ulM8kOyzrI/l/km6gKUA8cwd17No1ridAFBv3fg3VECpVi6qzPVHOQvMbsRHOaWc+0nwq7nPgtrydDV3L9oAtLXA/Y4y3vCgN/xk/JRbJryrnU1ZcBkPOwEeUxLwidmLJfn81U9G1774Y2X57o8TS2gcWpgZh6uLoH7BO37vMrBi5I6IjHrHLNvT4weAsye2HexNJjjfrJWwJHFvKgQS14a4lqmVnZk0rTgriDTujO6iImzqueX6aTlxFhPnUivwtAPI6ZYaJlQuLj5tKy8BrLsttdLNiqusFWMrA7C0GCGKdnlVuFo2LxR1fsk/La6k5VDZ/Nqj8u0YfOzXqngzssOvpkQ3+3Fv3xXgTZwQRVNp5c/fqwB2iot1r1IPPG/pAFgCABcK1FEOAkQpWjFcTii3JZ2bSrDle1NWebZBmWfcV5K8xKDVAiE0KEDB/PNkpE5Oo9s5SfyXv//fWCOTADELBdYQCxHKTW3GNwtYLSxiuTvMwuqB/4K9H/zc3OF3v/9rAI52JvdOj40L/bZMA6HyTr3KifEATpuAb9viZrkpK2DGEMtFAcrIv+1Kd+cAxudy6ry4r5fOhBuXB6y/aTvgOFogJ968hbzfd5jvNRbQmnYO5WA4MACcg+HrnmsFNAjMM5cdqveHBGcmjfobyqUcnicb6rFpwaUBOLl/u2L1WXETWXWLpakYj6yeKJ+ehI9bCriSiM9noKNZb+SGiPUn91FqBEcJv+0euvF37ay29vbmPe1SF5dM7VrYo6I7m7TmDsLrvuyd8GRj897F3/o+TB4LvP0Ueo3XQIfXfvGj2htGeQdQ7E45lfEqS3Yp7ihyirLiODKGgGSlUhHEOukA0navlPyxCMa9ZfdIJa6rsVGXv5t/onSAAO3nzugxJ80t0w/VbOPU9l6j2DVodCL1/Z++TVbqb+pUafNHqTEd9xulXEelZIFhrnMFOZbj8d0czSG7dayaB1G6NQoNdi8+jhv8UQ54dJr4w5x+zi0OeRkj0jBYxDQXtmR7NiK0gzVty17M/c0Cuz0Y2ZSW9K/ndEsYq7D4sZVYGQFjvAdOmnWL23Y9T9y3EpmFp06sN47szuvFAsp5crIFq6+P1f778P5xcGAAOO9TP5v0cTEBEJdv/qZWMyb4m4othY4zsOotlbiD1UC5qHI9F1NZcCIkCBhChfCrs02ysiPwBIjKgcO0XqdYx3oDFLXXmaakxub5N7Vz428EDsDUBY/3ysab+vnIz1y8Xiv6jfft5G/nV8klgTYKx3Pe99L4Md4tVqv8PSqODYRWveEthdByzYjP2Wd+pH7K0BEWrDCSPwI4FV8gmDKWAq5UfWF8PU+8CReCoPZyTxlPGYvSFuizvqtvAymH+icwIDBbnJj8KpVygEt1bF3AwzrYMnTbSahQyLJy3w9gED/nQFhgLpChxrQAalv+HYFxKu48247NOyDjhz//P+WOrmDw7AI8mIKmFusl7uZhnnvrH/83h7p+lyMDbhWdAKYTss9cuFaun3ZMR0soZzfVT3/5/wI2/vfoSWQFy4iz9fZS+riUNoAlDLgBFMmgDNCAp7EVO9Y+2aI73/uzuuVwaioAR7qIyDCAqxfWb2fc1e7DhbWYtP77+/DeeVDo+H1o0AfYhgHgvEedasCb3FZ3lHSd2GzCv6EQklZZrBXcPSvbXK8qSsXKkVIRHEo5cVktvmyrVoJaoOHTBPq+CMBhsqasRmmXFZP0/HVf7p3Nb5TZbgo6S+GOD9CriR4FTLE5AZyrw+6wy59+Oa7W+njnxZZkwI+FqVbXewBgO3/aW16pz8FaYI/1Ku6ACrkukNNcSuXSiMJ9k3up/9ZW6f1aq+QGJPV5AzgTmW/fsun9dsq+AoNnpsuaWKv+9CWLhmBP8WQAjsMkWQh7rqUCN+lvFg3AhtWA9UdMi3nwLsokH8VtVCxaYrzMCX93SwIF24PtewZzlh5WT0cZ3P3+L6FT4O7DWKVimQp4u5iNANL+X8nL2WAWJebtL//4r9x3J+//JyQ3EHIQtKMNgNAvXFFi3G5/++ekpLgVcBXAmTkuY/bZLC6u/Oq3iWv5fR1DIzmeeV+B4gGlD3Of3ZZN1uzNtbY6LjPeuabIMfwEJP2G16zGZT2OpU+sUu8bvDF2MqBzLyvO6y7Nx4krKmtg6iSf3qtFTon5+ie0ri3yJufu5Oc+FvBlKLvjwO400+7qHq7eIwdKeGbC1yCPontTIRwAg7Yqf/O1m9UD6BAE3AtW2C8i5AgZsT1yc4iVINwVQq5Oko6w7kJ9szq3+64U+dgS5Pld+Hi3mqMgWWCAnEiyEma7mdyAm1WoINCW0XefLRbbEbjr3wGccXK9gMhXialaXkycRvpeX4jdYEmo1e0WdZfiohRyPAIF5t4qHeBEEVCmXJMSJe43gGgKawycE5sFnJPHrB9ADoUorkq7jC3fTR9HczsxugFtgLQd3LoFmYf0dQBi2smNA3iwylDurB8K5VpgPAC6W50Qq49YXAXiVjBu5pJ6KG+HXl757Dd1ort7zCVjHbA9zIIGwfkFHtJOfeGoFuMHXbL7Ol/PYY+n02bg0yKhLWL2V8HWfM8c1ecWI14sxYr24KcjPdqOM4e45rymmtNbxeYdJiff7lkF6jIGJOjMaGuLgYA4IFkwPrDZwfTbPenjvnsAOO9h/x8Lqqf4S6hsE4pRGUatZiiynGOT6IBdUUR41bEHsZr0GIICOFl52qpt26iswIrJeCrAwanCzhViedhLIUhnQx+lVnRqPysGc3UCL8VjnLl0dXQhrrfKByEYs67Z2dPqnihxK0yZSI8lOPL9LWMri8BvPAlfXyYO4dirdoYUZVRxCBHuG830kzSJMxCkzVqi/7pwrBVi6BdDUSeTp/4aV9DHPhbP0UcsgQCmwzK5NEqZvohFEMAJYC6AE7cDgDM1trAZB07eZgVaHff72LbdVdWsX8uJhQFqnE5fB5UWwGnW1KJznOwSIKCYi078B3BybWXoBjRjNcF3lpHLn/26Eh6aP6wOa6v3/e2LN9ELONgs0MCYc8JafJ3+ADS0DbhpACfuxgAc46UWITVm9qmt5JXFywaAwx1Olpm7YrT8rR/wVJu10cLFNUe3hPbINIsN46Dt8ErWceAzNNtdqI8qcWsk+l7l7NHlz/61fAA4+8fLt65p1UqRyTudye/8l50WgrTu3+XEtxJ1dpFAZeZ0QqcS/kWwTD28XasnClPdJqNDHQEiFpzV9u60kePrWCvqMMeY7q1kbflUrGSiAVOvLaBdAEQIiHNgdRiX/lw0v6kQiKxF77OAQIsXSxMFDxwsJ8hU3EFbxT6rmBWr2BJ6LDOb9LHfrHZZ4WzzrzwlxgRwFx7IdVSpAbgjy+K3vwoCDawR6OBuOpNgY4La9vCV5azCo/iPPbhTCh8IIMwpKuDg5NkEtOaeAjfp54OzajTwYqSlIatDZ+1TAoWj6L24ZZ8lRYPYFIGq2g80aqMAe8DmuJghQdFRVO5ZAugyV/qr5zOyWgfi+snexvzkeK7+3KRPVxu45w8o66/2sbYnF8hpbQUigDPgWR+a49xpkniW9Sb0FrjJ7X7f45rmNQr6eAFwShaQKzm13K4u/Y93rBiAjTimZxk7lek6MsP4bWuWrcdwkw2TPftaE97ZF2jX/2IavSxMfAdkvkxyRYtKc9iixYIgHdB4Px6zRVs+ey+ZGUpQujU33hmp7/zBA8B5513wbhvAwsFFJVDP0RAEzuKygxmbQGfV8Wp+8mwNj2AnAK3U91pMbkrw1IXxaeRZzRC8ntPiNZIILoGoVs6Sv9WpyRMAZ7PnroGdCaE2ocQ2u+d9+I5gA8LKkpZ+kOiutrwuaPW6AABAAElEQVRGwVKaLB9chWcTUyQeBHChAIDA/FNCDh12kMiZRCG7h3Ig/IBJfSoIsx0yeDbulZb3aF/pR4dEg+lL4+lMXIysA88etfT5juQQh6OfmOGJZKCLxYD7poKLO7hJXYdauqLI0Gnjz6nud0ePkxfm0Z1fyk1VOXwyRoET4O18Ymi44VjcADX9WApHXbnOK/+skeF7ymryu7VfD/lT2tXbI2h6XVu1v70Osq34BXgfm15eBcQvYrW188l47UCTi1OmYlvZLcZWrn1eoDiO7OJ5B1+NgRP8PmSO7u5xdsq2HD4A/nwWL+Yy91ylBgm9ki5atADVbapbqA1ltxwYAM5uOfaBXW/FXTE452KOjpuAsGY56G4Rwo/AI1wIdyu7bsHZKyvqLKsAHFvgrWxrNZtntDOMEpCaHR7OyJKoy7VicnZUUkek9cSlk58nvn6PPjaAY9u+WJRY0s5eKqsZIW8FBxQ4l+z545vZmmtVl50iAQLTY6tXkRK6WavwDBgSQNp4GfpZw8JDfXf8ZHbN5dWsbwcQ+xEhXf0VOmzdBRKY4ZVFSeNi4TCWWu6jxHTNsgierx1FLFc1Dii+d1HSLm2jUFlubJt+dPvH8POnSl7Yc7/Mncguv/Nxn167WYsCfBVLU+vnGn75pwOcdWMxl6T+er0L+l57ZmtngZuN7fS3th5oaZZL49yOTOOF9fFhjlvgpm4Lq4z1NEMclCMiKu4pLrOzl64XCOIqfEej5a05U7SUW/Z0zRkVAv7Ps7ljZi6W88x7PBCUX2DwrZ/4cVYwAJyPs99XqSZMykTsoMQImh7kaeVAmRIihBDTNRcKQGLXlfv2OvHUx/y9fPZVrYKZ7ikVwIrvnaCzdZX1wYrO38zTFVAd5e65TVc4XLPlzKCAuD34rbXRFnjXWwnWanqV4vfnQ4Gb0OIdbx25ceHaZwGXSd+f2A/ghvmaZUZG3Dvn/1KNZ+3QZ+VODH2AEAXgwMH7P/6jrCa2G7PUsIDZul0nFFdwa2JwxjzcL05MjgMWnOOn46KKwnqSvC4FmtMPNZ6qf2LFUAK86gT0uCZYRNBkl9dkXe3Ct//XGOHqeBo3h3iYBmSSObiqbruWusXANaxgduE8CsiRhRkgY2Gbnknwe7Z5S8tw6dMvKucPl5V+AM6syl1nDgGR6vRsfajeu+kb2Z65g+0WU6+X4Gt9XeM/f2vfTgrLn740n/BTUQeXE3flk/sNGLASdL6aJ9qlVJszjvSNe8wfCtZYk4sIaO7X2sX0LDutjMX2/dh9UjXt/p/eHu/mq00FFlXnMmYe37teYH1JPFnaym3Vs5rLxu35Fj3HwvvZWAErlil9gG9cbXhw76dvKn6KZRMNZT3bfTMP5A7jhfwTxH36QnKNxSVl7ISAAjkF9G59N7r19f8tV6m5TuZCe/oKCLdTj1VL7iTuVPeGEQfS3qNc6QBwjnLv7UPbKz4gytUhiQShFanVxZR4gggKyQMJbYrKJHNNBfpFsO61tGdGQWdCAjfcL/zsXCtSq3NPjUZ/L2Dz5N4nEXq3Spn055d7ZizMCDA7QiruIUJaYOv5q59GAX1V4KmUTITi+1u4qAg8yvN6FM3LKJkHEeg/lMC3ipuPgH4YgYdfeGMbfEvuOF3CjsB/+MsPlffDfSw4wCnLHN5euvHl6HxyrzTXYoLXrXzzzIMotQsuYAXAaedKsdBFeKc9ryKcFc8uxZZxx+UpIFnfTgXQHkSh1CvIOUCC8uM6445tbiSu0WwHT8yDcQRoP09qBK417gIJ7fDLuGdtkhfmUtIXXLopYPhSmyvpl1oo1CIgcyRJDwuAGpuhmdvrUXLizCXnzIv0w7n0s76wO9Hr4S/fV78Cqq/q6JIxCHwDM3qcWs3FzFfpBRR1qJOSBNBufZNYmuTVEufWFiot1UOYXfl7uC3bwsAxIUtpx93RvR/+VuNHAsKKzwnP1AncyI0FiJhXctW8bUGHhRW3qzqf3g/AjIvG37bcL4YOWaD1IRctwIkuY1ufVBB0ADTa9CdXKFlw/5dv0se/FO/NoWVuuPekGPsAvUWHfgJ+ydxmtUqyyNAIoI1WpjJufs4i5VLN9wJv4YPDTx2t8SDjRpZsoBT4ycx6Tyh8f5pxMBLl/aFvaMk2HGhCL+6RDQCn79hp8SFr2zgJFK6Ftmrc24SqZ0ZpWEFavUu1/iI5QwgowbR9W+iTABtul6dROGcChAR1itmgIGU8XYlArl0WWcH03UOObqgVXiw4hAiF1ib/Nox4Jz83601T9qfCi6vVVGcCCea2cmW2XswuJKt8dD1N4Pe5ZGqWLA6YKF7JaXIv8SIR/JRCrWjTNfr0XMz5l21PBnDiOmJxOMiib1knlJPnolyjhFiSrKCTuq2+p7wq0DyKt1xUsTKVohor6bpoH/9poCa7uGZ+LiWJRwKFtYnFj0K0CvbC85d5AYnRQynOa8tBoumPc7HesLBd/OTz0cXsNCprTRQTK4yx3NyAyf4bC5ZjTEQaUdr6kLL1PP2lHyWzfBlLHWudfrNdu1ludgbGjRnWG0CqrK75rN+t8MVfsQg5Y6rNb0HN0kkcD4i+FvAZF0/6QHvNp7J+pp1lLQyAnppyFpxg6ywYAmLQAPw5EJTb0XUlH1gN3rK0sd+Airbjr+Si6i9LFH6Ff0CVTRDPKh7n6/A3Ad6RB81SG5dt+gF/8baAUCy/AJldSehT8Aewa+97k11vSW7djvfGe4tTezQ6nf63gJwf991SaH6QJIzGyumcMn8uQEh29s4Tp7w/TmzYo7s/lty0IWEom3NgADib8+Wj+dY5M9MBLAVcHMEQoSeA2EniCgE5c7xt6bbK5qoqC08AytsVyv1Yrd6vfv7bes6JKAbC2gqb0qkVTd6tqB0MOC2mI21t1gcCyhkzVpKtrTOxFDB3V7K41EOot11Ub9fSw7ibstIHp84tVh6Sl0//GF6cDMCLNSFCHc0UjhUfQWeVx7pGCdRukwhDAh6gAGzEtFAWl5IRm0JmKeM2OeiiT40PMIobgYXAi/IWgyMQWaZuAh0IQHPtnso4o+wOogAgVr1BgU1RGxtpo0VvjP5lwcDDctOEn8aMtnMbAhA9qPh8QE1LwHklfSONQ6yYaTOay8WQxuPzheufF3B5HOWksJBQvGJJ9BFlffw0ywmrSdqWvlTEtrUDMLdXWOblyVgxWIMoclvwT5y5XYDe+GhusfZ3t7jasWNTgUSa6BLLshDwy1X4yHxOPQXCAo6eZJvSStycxptSwClzkYWRDHi1mJw1owC0iezBdeFb/KOdrJjXFv9QQfE1ljOOxaMIxC2ZVPOgnVJvPAGGwDILljEmCJ/10vl4+K6Pej+dDH/lIHKMi3EHlL6bYreaeMYLoTegORZWuw0tXizoXuazkSkD+NTD7K7KmHyRoOM2O1oMG9rJOhjz5XM7sMbWtIOZQu+GTfvw1AHg7AMTj3IVtZKOsDbhCHTCjsJZOtaS+/UVINDQwI9YhLiwImj2XiiF3J06xIeIvTBZKQ1Kzlk3VotW04uZ3ItRTFwHSq1ccx+log2Uke9mozBPJ1CauVtdkquVcKtr3/9ZX2BsKn72tJd1gHUKv+/n0MCmICX/ssqOGy8KcerYT0U3JV2aeiz+KAWKi7VB5ly5VwCcBvoO1npT/ZP2Gx/Glb4okJP+AFYX540Zq9eAm8RUcdPMAjhRbKxR+vQgCoVfbpUo6IrzqTETK+CYZ8ZijZB8MJaMqbmTcxX8fCZggMvzYtxSl537FoujIxcKLNb1aXP+76AfeJAoD2BSWD7siAE4xE5ULFAUmUWD3ESUbLPcxOIVfsynTqB9u4Jf3DTutQB4FHfZ4/xdLtu42ywQAGMAxTMcJ1H5ieLevJSx5V4ukppD4XvlXxHEHgDGkqUebr3ZZC0+FjBo8YAvYrv019zJZtnZrp27+d2c5VI17hvAbG5xbjEWMJsPzAUWGWB/BagP/WFZSvpNLwaY6UOK3z/4ZOOEBUTPKA1YGINk2zspaV/Fn4Wf+pq10PzAV8Sgr43ZuDiTg8x8n575pdo7nWzh5pdr8cg8E7coXknfNVnwTqh6Lx/6jnr43fDCuSd9YBjkdUhbJgTTrQnsO5OrBG2bNfmcbDSZDH6zCjN5rIS4E5iZa/eH1eAWxcqC0jkV5asYnMzi4g7qeal7f1cS4gHGeTfOXSkBsBgTu5WZ52m75xFWCnNpP7SOgD2b2AnZcG0rFpDJ/1vp26M0G3+aMnKfUjwN/6zI/X42Wz0nt5BTYsdC82TBw1ai7DJJSwBHEIkfUNzz9MG9+Jaz4o5iYOInAEx6K17PnjrWgis9C08r3iSrv7OXbqRfr7R+yff6E//ViednL2eXQvpr1unVdo6F/50XrU35N+1DV1kiKILwpPLJjC9ofMjumfTtZkDP+PEbJVjboAntk203kbb6bjq/1XPHvKhg7vSJeylJgqqvPj3DKpZpWtbZSatVi6fJs8R/xOJjJ9aFa5+Ozl/7VV55j/vPziw8du1kIfzx39is5+dv5VTGTSWwowRy326KvqVQksSp5pV2EebHYjlAG5rNp1NnLlZbgWrPKDpWx8Vunji+dtxn+rvG4ZUbO6ikKUPjCa9rHFLmXqlH4CuweDZ1scrYOdWB+Hrl6P7Mu9BmHHK5crc2JZtdQLHCsSgAETVmKNxcW0Ah1iz9UCVK+UUOITWX/A5IkS+uK55OUOT3GrtR6mcy5rXv5bO4cV48zjtA1RJDmvf4ay6b+22c2LF3NuPc/GvWNRYAbQNstJOMojzNBbJRn83ORjYWgDhWMUvaOZtdZcZrHy9lGdtjP+KpvEIsfLCK8WLR093nlXSUyzbgjVVDAHLtKsxcaUAn/RBeCnT3rv36FP8s2iqIP+BTn5IH5a5FXz0j1p3wm6whYyrupeaBXF2Zq2nLdkWfmPMFJCMLyQ1jST/hH4Dlb3PEuXuulxleXBeXux2I07OZk3me/ESL81yBTSZ6tvYCxvjTwRogrR/QqN3GHVBunJJhH3sZz6yPgw0GMuF3LisyhTAUw2FiEXDOPjIoTVLflbDOoDqbVY84Bvda3RAeJ6MU5ME4fzWxDRm4W00AbgZmSOe6QOpWkjUIA5AALCZZK939KNpLGZoA59KuG1/9MQLzkzIr56F1vgz/O5eByeL6/BNd5CwY2VavjS7/6jf5/UzRyQfMjSBYVGBrW1014dsVPp4yrVeAbASPFQYae7n4yRepY+tt3iZ5Hh4enBudj/Ch8F6kfxwRYQVp1YvfVqQmu3gK90xFQBBkJjxaCBX9wUVAOBFWVoQEGf4rBTgCSoHOmbi67DDSbkJnspRgVGeErR0zL5//awGMfo1zeoyT2bkGTouP/ce8s8bog5Npz8WbX8UKFdN+aFCMq0v57lTGkueWEiHNx4WyxX91AoYUEMC2kL6wM2bheVbnWb0CfA0ENTccIcrsXnyIlcHY8gxjU3sKFOrviSL49FyU97Uv/xAan6XfshsjxUGLnlnneaXeXZfxY4xF9DVlk35GU+jvCwaKS59Q3n087fpZuQGviufpb/2vf3ZiBfEs85ZiLxAQfpcyTD0z4c3pjBV9CGgYR/oFQK0xu6GhfQzoL/NE3xoD5g0rCncDa07xJPRyFc1lzFdfh0/GNWUtdoblUuFiZD0ynrVrslQ9BTymagyjV4zVi7hsGhh+3hYEsXhYwJlX4lUuf5bg+8ge48SYeZUxAgSwBpwPgOvt1B5g1HPKCpfryUvAp9xYsfa0jQEPM05iMUyMV8my8KiN6cnW7uxzjXmgamaqydTrCcaN7AA0ZVbuspc8qGBicUJlKZsAOOF7gYcuH/wdwKDt5FQL0L88OikeLTwFjMgKVjd8kLoC4NAv5k7NIwuAzKHtCjlEVlpYGM/GgnigWkBnTLGkqlNptJLVkbt5pjaTy57PWm2skKP6oRdzRT8aV+LCtBEgY6l78iBB8wBOAG0D2TdKj/V7P9b37XvtA+KM1b7Vc4ZXDRI7UVgImkVgpga/AUZpE8QEsnsM8isZOC+jDCkqwsTghZKBHiBgK4BjVc1dANSUJYKizmcrbQKe8Jw7kdXUfhQKJEKJ4LJrRjFRmJUVgqiUVnKhNCuLFWxW1bVTKv7vWF/qutDbgMXz4lMLmnTC8KX83SwXdWH+KRARIECnUVT83GIZerl444sSkP3vje+lXCgYQj91W11p88sohIVSunnP382n3pSAa4HQdvyAraLNXIuf4hLK8hGBkciBUkxheLWzg9u2YqdoKaMbY16stUyb8IdCuJD2i1Oyqu2FMCco8YLCM54mC2XpNwAKaMajrnA9mwDVFjSoe7JQKJ4L9FKqthUvxtXEtVGugwI4AUwZR+gq8BB+ADcl9DIm3T9HIYUGqzh1dgU8+SzjBC2s+RWDEmGJkrmMzRMRnuaHevda2thqK+purZoat5VSOQFo11xbz4PdP68BJ3WZvxYjQNS2JfOlFI2xV4oRsGnK0P0UO16qtwAFMF5dvb6/V5+T+tyDr+jDvws3WFZiVSmA+nQsawBsVkdJM9vcp7BZT+q6uGIoKuPnZKxvxkHPJ9SfhbfqyD8BADfyzDNlYeLOqPOlat63tAushQV+M6a0icwB4NDuVZbbzLu2AGtZp43X6r/87vnmFeVaVpPMb4B4/lkWIVm0UajkKisO4GT+7K3oR7Igr7FcJbMWY7WsXW5xvQnKBsKM/3oBOJGnZcHJOC8wEaBR1jjzELiLhaPijzIn8RGoqEVSeIge9ANQ6FiY/6Seoc8LFGUunD6fZKNZTG1XLLb0GZ7OAStZJFiINHk0k37K4jIyqsqY9wXwAzhZWVmYAa02Blhrn67KDfdYkBiX7RVrbfqjxVrdqfiusuBk3ABu5H+T8e1xH+u/HxXAMdAIH1KKcICA20Ruit7fEqFRoH3F6x7frVxaGZ1YOJ/rW74ISstkamZfbq3NhR4lRkBYbdduhYANk9HALrNxBq3JlAreegxWG8rl5pkBcqkT2IDsPd/qgQDSdnS5vre7ASMriASqhkfodG8J/vFkJ0Txpt+jwcXTCA6tp6xNvslVhxgbgmKzsq6essrEd17WhrbDqrlcrFLa9u+awOOVZVkl9FOEmNUwi4znAEklmCPsVnI2Fz5nKV5AACileJxNReFacRFqaJgspczynfpYhYwF/OilBDmQmL4ljCfpMLZqhW98BRysBCwCQbbgKq7VBgrHc/s4W1eHfklgB+zkey4CQgvoWTwT83zGUO0MyTjCc3X43XgqPuRzCfHwp5d19Y+/NH5rbOYZbYtylFp+q7rS53uK24my0U9239QqNIq9bTfOcR/qTl8Zg9wFdsEQwmtt29sccH/xPPUDGEByzakxnVu/tfFvLBhPLILlJgi/8cbYwUfK8k1lrf25Kn1RfZc2HV8hSyJzUodxZoFT10axep55xlWqUIRzr16WAlx6ebEADtdDXcNSmPE0WVafmef47fhUc/WimyXAnNEPGSwZ+8ZPwFtexp3+LatZ7jXWgZ0sW2o+LMViQmmKdWltbS55yhVPXmXsGX/mUi3QAjrMEy/XcG2rcy9llabcXP2Zepq80bbZ0WL4WHNg4VxZu1osThZvAE7+M+/1Vc0r8yIvf5vnXtyk1cf5rj/L3MFjIAYNBfQDmtRRciW8mqMTgNttSvV1+KtuPNbn2uhebSmrGf7k99WS50/n75VcgzbXubesM/qhZHe7Gg36eu3d57bpgtwFii2e0UxGac/HXtYk4EfAifJjm6iZ8Ab1iTNrCaAMOt8TAlwYJkv+qc8Gm8FOaJcZ0Mo519TAzWBy31aTugZbUDtl2AcggFNWiFLQ/MTrhddeu6IUeya6Z1mVoKU/U519YpQQIIQmJhqTKtMn8/KrKAkBa2gt4Y/WtFU70T1ZCOqcmlgAgjKw4kVfL77Tjp0UPJxybwkgq7EAg/QTYdv5bgLrq7o2faQPfK7+yIQuQTSmC02Ehe8o/wYwY3onX8b3tv5ePw0cdjqFrKm4seIjJ/jwsRd8rPvG7Zzko2u0pdpIYJUia3EO/f4Ct2nX6jjrP2x4147iBfryLO04fiqrcgJde7AZWAtB5QoynsZ9VRaTDfVt/LPGSUCv9lSAYupVWp/r76bwN973pr+X03+AcZ2NFXDDzcjd6MBWcQaeyeLJKlpjdIbrZULgv6nyrX4bjweKooBjxjBlstPSAbF3O9PamGpjvsbTTiuauG71wNyMPQuK44JygfMiVX95FtnRlNByrplbzlg/KRdOwHD4WPO0rtGvWysrbZ6aaq4z9+BBzRlzyXxJG2pclLvQM9sCbtyYco9kFNXzltOGDp777x38AdMzy5EpqXP5xFKNRYuZSVmmnTVuJ3ix94/GNstwi98yB5bFmYWXtdjJHNgYWIvW6keyZDwuaj7igd/y/WTxXcm9zJ250NTqBe5yf66lMwA7PN6ucDNNRV6Rk/pAP5qn2pHKauyTR68V7cwLuPZMc2R5fL9x0MtaP6Kj9WmNETImMtu1pVuKpliXN8jqXs/H9L5esn/glJuIXrspZVJ3TwbuXkoJh2RAtbI8yFKTyANMFBMzkw0w22kxoYERr92UNZ7uDMRsVfdm7d/q2p1/3yx10TA7vyVXEjJW4WijnE6Mzu34fnRUcF+EjD4ASvZaSsDqy10curqbZ2lfjZPRzsfJZP0FZIGtsRD2DtyIHeBi7HFUgl4rpiO8KRAcUCVI3wqXMF/t+8nKd/F5lee5Zy59ZvHyrsoqLaF15ljG3S7H3l7aXSBsdbztbv56Hhm3W7m4l3bu5p5VPhbwMgd2J7d3+ixzbC9yb7P6uywMHtpxWaNT7N4a4N1xBbnwbWTMbp5zFK89mFFzFDkxtHngwMCBXXGAe7fFQTSXBitbOxLhbsUEODbiaTICc79MZZXJjM4lZvehWBCgf7+sl7tq+HDxwIGBAx8FBwaA81F080DkwIH954BdPwI+7e56tRCwk9iFF0lUdj/HRjhawoGVjjyQXXousTaCPY/HeiPAWjAms7pV61AGDgwcGDhwEBwYAM5BcHWoc+DAR8CBOp/IURoPbtWuGrs/ZNV1MKKzl4AdR2iIF+AulYZA5l1baSvYNe6b/YvX+AgYPpA4cGDgwK44MACcXbFruHjgwMCBzgHWGyeG3/3x73X6uTPDnBfkqA35XGrnWeJygJnKsZRMwLIry+vSArHXB7r3eof3gQMDBwYO7AcHBoCzH1wc6hg48BFyQE6Sx0mhf/e7v5bF5uHtnyrnSw8+tivENlapFCRru/zpr0eXk/hRDI5dX5MBlh8h+waSBw4MHDhgDgwA54AZPFQ/cOBD5cBsEptxN1Vm8OwaAlokIyzgkr/lcZGhWkbly8kuLJOr7eHyKdVOtVwzlIEDAwcGDhwUBwaAc1CcHeodOPCBc2AmCehkxuaKkndG8DCrDoADwLRg4nakiTT+Z5Ip+8SpHB2RrfeD9eYDHxwDeQMH3gMODADnPeiEoQkDB44iB6Tud5SEhGJy2rDmONKiJUmbqizQzj3qW8Jlv5UkcSgDBwYODBw4DA4MAOcwuDw8Y+DAB8iBShKYrd6y8soG6wiKOt2ZBYeLKsHFjg1oO6aSDTa7qYYycGDgwMCBw+LAAHAOi9PDcwYOfGAckIW4Ut0ngd/JszlOw5Ea46zGTl9ox0eM08oH3LzNieEfGOsGcgYODBw4BA4MAOcQmDw8YuDAh8gB4GawynyIPTvQNHDgw+DA9ieIfRh0DlQMHBg4MHBg4MDAgYEDHxEHBoDzEXX2QOrAgYEDAwcGDgwc+Fg4MACcj6WnBzoHDgwcGDgwcGDgwEfEgQHgfESdPZA6cGDgwMCBgQMDBz4WDgwA52Pp6YHOgQMDBwYODBwYOPARcWAAOB9RZw+kDhwYODBwYODAwIGPhQMDwPlYenqgc+DAwIGBAwMHBg58RBwYAM5H1NkDqQMHBg4MHBg4MHDgY+HAAHA+lp4e6Bw4MHBg4MDAgYEDHxEHBoDzEXX2QOrAgYEDAwcGDgwc+Fg4MBzV8LH09AdO59Li4mjx5fN6LS2+HC0tLNTZSDPHj49m507mMMgTo+nZE3k/XqddfwjsWM7ZT0tLCzngcmm0uPAiNM+PlhYb3cvLy6PRSl4HWKZyivix6ZmcJj4TvuLxyfB4rk4Xnzo2Uwdu7sfjV0LL0tJiHeS5GBoXX76o10roW1leOXg6HUkxEzrzmpk9mcNDT45m5k7kmIpj45PT326duHp+V87xQuer9GEbw+icH+nnuuYg+7MOSD1WdDpjzKnvvU/rdHi/h963KY2G9FeKcbu0YJ7mZb7m5aDWyWve5llb3hs6FON0ZnY2fYrOE9Wf09OzbcwWL9p1W9Yz/HAkODAAnCPRTUMjt+MA4Tj/7NHo2aP7o5dPH4/mnz8u4XkqJ1yfPJfX2QujE6fPB+zMjRwE+SGU5eUAHAp//vnoxdNHo+ePH4QHj6MoFkavAAIg5wDLzEzAzNzxKPxTo9PnL4XHl3J6+JnRKDyemcrJ4WNl8rZNoPReRREuhM7Wx/dC673Q+Wr06tVSlOLB0lkALjTOOTE9Y+nUudAaZb8ShTg9HcX/tgS6PzR2Ol++eDp6+fxJ9efzx/drHOvrg6VzqoDp3Mmc/p4T4k+eOV+nwx8LjccAWYel7gOdBWBGrT/15ctnT2rszj97mHH8osZsu2YfHrZlFVM1Tk+cPhuZcLZkw8lQNzUXgBdap/Zp3G75+OGHQ+PAAHAOjdWH96ASEARm/iM4KbqN3622ZnW1MjVekWaiT2WlVtLM5/0Qa6tPO7APFDph+fT+rdHTB3dHzx7eHS28eDY6d+WT0bmsDilbq9KVlXP7IqgPjJAtKl4V+pT9q6zyY7VZiCJ8/vThaP7Jw6L32UOK/0EsAFbEseREKR5kmR6v8inE+UtXRmcuPhudDNA5EZBz4tS5WAMAgHaaeG/HduNplc7coE9fBawtzs+PXkQBovNp+vXp/Tvp49vj35cyxg+YztCBRsr/9IWrBbRYzI4DAyfOZPXfTlWfCgjoZcd0pj9XrTYBcS+ePhg9D53PH90bPXuQ18PbZcV5FSvOgdKZOQ/EHD99Lsr/bADrxdGZS9fD45excKDzVFk6yprDctUJ9f4GGdH6s4E3ligWqVeL6c8AcnP0Weh8/ujB6MWTe6OXma/Lrw7Y8lhtnQqwOddA3LkLGbdXR4sXXtaYLatVLHT7ZZ2bZNPw+fA5MACcw+f5gT+RUFnOytaqbzmKbjEKj9l7eTnfRcisruxznRUL0/uxY7MR1MebiyECvU6KjuvhqBQreStfCvDRnR9Hj+/8XFYcPOBGmT1xOgLtHLx3dEsaj87nsVIBMk8e3Bo9vvtLXqE1CmM+AG9h/mnre5YN7psDLOWeYuqPmf/k2XNlITsdZXHh+s3RhaufjU7ECsCiAxhAzNsp/WpqaDR+vVgvnj1qgOYJ4JpXWanGFrpy3ZRl46DpnC5wDCCjiRXn9PnLo/PXPh2dv3pzxEpYlo+MsaLxDQp/tTtCn3lofL4A3ALYntz7pZT+0wd3CuDMP4sl58XjAnLcdA0srNawrx+0G3jhevNi2TgVsMpadf5q6Lz22ejspWuND/kdcN1p0U81P58/HenHJ/d+HoPUO6H3TmiMaznjlpvKmD1YOrU6i524pebmYpU7BbReTn9eGZ29fD0Lok/zfqO5rdLfM8di8R3KkeXA0dFgR5bF76DhhCehUqvfZ7UyYt7v/m7gJ8vB+v9Y3Ax80LMRWscz2Zsyys8ZGRTYUSloKrN+AM7jOz+N7v/yTZTEwwjimaLpVJSSuJyjXtD5/MmD0b2fvxk9+PHr0d2fvh49yGth/llZbfSxjm3g5mAVv5X7VFxRwLDYJoqRcrjx63/O85dH517dLABt9d+W/OvW/Vt2BVcM5c+ScT+03fvhH6MHv3w/enjru1r5s04B7stcU0XiAdOZxpfrIpYLtMwFyFD+179qdKIKOLD6x4+dllqAxBrHVYPO29/8z+hJAOujuz8VuBNXZg7jZSsHSWfrm4qrSn/OAQDlwjk/uhE6lbkTJ0ZBslkQzSaIZed0sj5ZYL2M2/j+z98UnY9v/VgAHZhjjWSVXMl1rRwknZ6QcZu+rIVPFnUnY606Fffq5U+/qnbOncx4zcA6ljiyUUgdytHlwNHRYEeXxwfa8tXVTkCNwD2CpMUqJA4l7gtum/n4862SxDEsxjxcACfXUw6C7QrgRDifiIWD6dZkJ8Ctagi8o1Eo9cSkhP4KRA2gW4zS97msVywaBxyrsd98Wu3bVLyYvnsVWrhqHt76YXTv+79FKX4zenjnh9HjrPzF3ZRljsWKC6HAx84AxV7b7XmvDKOMpcWXgM5MjS2KXhteRUEfO5bVshU/d1XGGsC5sUzSqf+4KhZfPhs9uvX96F5A3J3v/56V/y9l4VjIOE5H1wuNndaNde7X39rmtbSYRYP3BDi/jCUCoBS8PhO6xH8BK0Aet524FVbRzUqjtbmlxEsBNw9++bb68u6Pfx8954KLqxEY6ODt2Lgvyzq0WaX78F3vg6XFZikyd16KeYplUOwRYDeVvjx3+dPggxZszCVXwG+T51d9xbvlogUof3T7h4Dx0Jo+ZcUBYF88fpixmgryUutBj9tO56uljNlYixZeTJfMWEifenazYB0PUP9kNLoU+Zh+BIbKNVcN3YTY4av3lgObz8L3trlDw17nAAFM3i9XzEkFYUZAEiaPbv9YK14Kg2KolW986oRx3WSVQvHMZLUWpXTyrMDCC2WOvvrF7/P5Ugmw1585fHPYHFjKDrFncdlY4VMQd777a7nixDI0q83yiCK020cg9Wy5Hd9u18tWNHYlsWjnWlbfS3kBHWJmuMkeBpgIfn6VIGBK//jpuKkSq0IZZrBtVW2NSfc9j1uKKwO4uffD16nv29T7tIJQgdjpvvrOLpiZ0Lkbd8nWD3/9F3R6oc8LvebOSsCmOccV6m8geip0lUsusTozxxOwm3ZtVhrv4moMkON+w6t7P/x9dA9YjZVKoK2XBwBvAOFM+IZGtB5E6XQCrAuxcqITnwFqi6HH935KW6bHi4XFuHu5qML3ANbq080aVbwbu+ACYh78HGtj+lKf4hu3nL626Oi06df+ebMq3/a7STqN28WFWMhCJ9CKzumZn/P8uRrH19I/s7HuiLNqsWRBYAPAedsuOPT7D2bGHDoZH+8D1ybtq4q/EGj64JfvRne+/fPo9nd/KVM3gblgh0IFbUZIC8okoVMI4unpuBeiiLhx+NyBIRacK5/99uNl7HtAeVOGrSGscoIySyHGnXHnh7+Ont2/0xRuhDTFMB2FP5vXyZMnR8e5jA5AIfbxplUvXyYo9kVTxgAAJcFNCHCJKbFVXHzDmcRuVHxHQPT0TBt37l+1SFCGvsi7IFRxVKxT5Z766R9R/N/lp1wTOleVfmjrdKJ5v0unk9Kn8NHpMzpfJZbNYuFh6GWFYDk9mTicC9fikmPViNt3q9LqTT0ATujsFqr7AQAsc40nDdwANnMBq/oSjT4fREGXF1eS53eal14BcvMBJD+XTHj54km5584mcB9gDbHxZGtTlP+Ggs6qN3WKpbr/07eRSX8Jjd9l4fVTAN786h0zARXHQxv60Om1OjZWr3r7D51O7/rTovDVywCdAJyVzK/m1l+KlfRRuRvPXrxWQeUzFg6hNf++fSOGGg6VAwPAOVR27//DCErbhAWX3vuxKYX7P3+XOJQfa4X4KisywkJ8DfO5HBd8z75reS0ojrQrMorfnYm2zM75fSjvngNWuAQxdwaL3L0f/1GBmUsBF0EEY2AzM7py5cro+vXro6tXr47Onz8/Onfu3KpC3E9l0RUXzjx6lNiR+1Feed29e7dezwvwRHFkXLImiodiGXSfnUhZEm/KVDQCMMaxYGJ0suIY2+icmQmASyD8hQsXRjduJM4nr7Nnz9brRCwK+0mjBnY6Kf2nT58WbXfu3Bk9ePCgXo+ftGDupQAybpwn924lvuS7UuoAjp1km5WyjAQQoVOALfDGXQMYKkDp7OxM0fXJJ5+MvPQnMHfqlNiQ/S8VIxM657NbDY23b9+uPn348GH1sYURgP0ibibAlWzhmjt94Uq6c/M2sWzhzQLLYyxVjxNX9Dh0VhqD/AbE6Dd0dTovXrxYYM73AMV+l04nkHrr1q3RL7/8Uv365MmTkddy4oC4H423CvoOrXYFnkx6CTIz2HUoR4wDA8A5Yh22sbmCEPnr26r369HPf/8/MQcz6bddNSw0k4GRJ85EiDC7ZnVo0rqfsgSUTOxI9vrtbZN6bWzn8PdeONCsFiwj89k59EjwdKw3AjOXsk1Zf82kDylESuKPf/zj6Le//e3o2rVrBXS64i8wu0+AleKnKLxTEj/88EO9/va3v5WCZNWxQqZEXiQGzOp/NvEbwM3ZS4lryH1BI68xo1w/pWCeBdhEwYbOJwEAtvq7h8uNJQOI+6d/+qfRP//zP48uX748ohQBnQ5w+vtrD9jlF+hDgxcA9/XXX4+++eabevnuyRjgLAaAvgz41GZghVuDJXSrgnfmGrrKIhdXMnBkB6D+1JeADNp+//vfj/71X/+1aEYj0NrLftGpvnI1xkr17Nmz0T/+8Y96oVV5/Hi8i0tKgsgMY0+fCrSezXbq0ehqXbfxH2PWVnrA7dnD+xUnhk6A1W/itNB06dKlovNPf/rT6Fe/+lXRjn4WSWU/6dRvXHBexuuf//znohXQYdF5GZfVQqxUXGdSTUhHcObC1WrLXLbOD+XocWAAOEevz0q5tGYLepzPCuleuS64ppi6H93+ObJSsGBWSnNn4m6Km+DCtSiYq6PTMbueyGQVqwHgVEBuJrcswMCO1ZptsLUjJA8h6Ale720Lp3qbVaH/BhdVYRXyIUGItUuBWdd347/bRZv/W3V5hv+iIClJz8k/43f1uld9zfqk3jId72C1p/5mgpYtNQq66ld3A3WptNo8WafPvWwmaDv9VUXVN96CX21ufBs3eswPgbips/OkV+49320sk22mKJpy+alWmZTkbJTA6dOnSlFQDhQ/RdEtOVbHjf+v173xWbv5m5LWPwAORcyqQnlY8bMCeC1lTHF1Wr3PpR22VANl7m19pk2tXY3OuH6ieCh6OWBq63s+UzauP336dIGZzz//fPSHP/xh9J//+Z/1bApyEuDsho7trqX4tZd1yjO0QQEEWHLQ7Bp0SjwIgJprFzInAbaMqHFfr/GflYBLxKLElvenAXEsI65XPIM17osvvig6//3f/73AK3AzCXDq4n36p9PBUnXmTJL8pb8ADP3ImgMQACVAWVlx7t8KiGv5Y2rur5G32iJ0CsQWa8NFJbWBz+TSVG4CYlgb9SdgDsh99dVXRf8kwFmtcB8+6MsOcNBYczH1GsvGbvV35hUXq3xElXPJ+I017vS4f/ahGUMVh8iBAeAcIrP371FAQFP8FB/Byr9tZVWm7ggR272tsC5c+9Xo8s2vRpc++aKSeNklNZtdER2AVDI1kzrAZiWxBbZqyl0i+ZVdEh3MEMBtF1bLqdOSsAELASHakv9qV0WUkR0zcoaUSywrWm4xAYRvKl3JrT4nio1ykz/DUQSe04FSqz915hm2t8vfs11Rb62cs4LkJlhKDIC/fV5JcjG7xSRsm3Gcg10/2i2WosDIJhLcA4GmCMdqc3J41BECUeKA1GSbI0lTZ+ILknfDjrW+y2YyMdym7Vd/6mrHUAQwxHzOhE4Aa/eJgBtg5rPPPqtV8O9+97vRr3/961LGFNVkLMNmAG3TZ27zpX6afHGpeJYVcK32016AoJRiuTai5J5mJ19AgVgwfVpp8uNu6qX63rUB2ZRouVwFflb/LIdnc0Xnb37zmwJxLBtffvnlqjJkqeplP+lsfWvcRSWHbnT6DsBBa3+VtaJcOG3XonFgfojH0ceTbeK604cvnjwqt89yAJI6jTBWVUqfwu8vAACIY706CDrxjeL3EgMDWPVxA/AAOOh8/jwLoIy5hexuA1i0386+rQr60QnAkUnmWgZtgFNblKBJf/7Lv/xLjV0AHe3a4NV51t+3es5uvsdnYA6tnudvtAI2xqzfWCCNXeN0PsDzeWIayUILoqEcPQ4MAOfo9Vm1uAGPVyVEAJvb3/81k/FOFEkzdcvlILjzyme/GX36+3+rXBbTUdg9BofiVrolg/AhxPNNgR/godxU+b4UeCmr59k62hRQi/sReCm41OTn2hKwnCDBmJ8rwVvifoAAK6XKneGBW5Vc1ywsUvI/Cx2UInNxU4qEkXpsRUZbyywb/7/6o2S3K+iU4df2Y4GshC5l2oDaUsUUVN6PWLeW8zoe/tgpUoGFY15t9gy8qdVtFJz4AruaBFACIX5rSi7ulYBGO9S0d+Z447Hf3lRK8QfgsazVqj8WDc9Qh/6n8AAcCt+rA5wKOI6ypBz2U0H0trZxMqrniw/hEhPDcO9estJGEVIQ3DplrcCX51HmUXaVqyd8KctYFMtaaduma0ylT8R7+Kxv0EoJeQYLVVeIVvvobGPizeB57Tm7+zRJJ8uKuB9WDcqQ9UpB71IUZlkrovj1DyBXbbdpbAOwNwaNPeOkdjaiMeMkhBQtnc7/+I//KIsGgMOicRh0ohG44PYzboAbrip8AAIW59txGQVw4n40j7Yq6Dd/bXuXqgLd6cyiAyjuAOd//a//VQD95s2bq8896HHb+xVfvYxbLkhjuFt50CaAnHWcnLCgGMrR48D2muHo0fTBt7gp66wyCEtK1UojE1Gum5UoRCtkyvTClZuVafVsUq6fOne5AReKb0Kx9slOkbQyfi+lPhXBHTAQvzRhZYfWs0dWZLEiZJW6KN6ChSUCngWHwq5trbFSHJfaPgDHswEt2V4BLDt9CGvFIylv+VIqiDFC80XM9mI3XiTmpAvGOohvFeBkZ0msU1625V64/lnV2dq+/l+gCDCQD4j/n9ClWChPNBBclLDvta2Bsliv0ubaQZEdZcCaGJK+7Re/CDuC0CqveJ/VrPcXT7KyzZbYimuKkucKa1anpMAPaDqVPtEvgjP1h0DUtk1/810jQAz+Ug54pJ2TgpYyAjDE33BrcGEQ2L0cBLjpdXvXj5SVd+2gGLWhx/7UOA2fWtvH52OFHnzJcIl1bK0215blK/1R7xTKeEyqn/KlFL08o7vf1mo4uE/4qA3o4o7zfC4rbg0ga3E8B/RPzYe0HT0rx0LkeDr11unTNj4yd1gmc50CCOGl/sPH3p+eyXpzGAWdnu9df7JY+ds4Q6fC2ll0llV1a6VfcyTjthYReden6kUjmtSNzh4Urz8957CK5+lLVirv+tN3LDgKuWBxVUA7c29VTh5WA4fn7AsHBoCzL2w83EpKcUe5ildwqCQgsPA8mWyjVBUullNnEwtw/VeVfpziZl0hYPLP5o197ft2HeAh4M4uCNtYH97+PqZbgYdRWF0ZRXhFUqfutgoFFiQHky/jyq9+N7pSpuyVgJ4cbjedYL0I81batmAr2ra9/dsK1HRgZiUnDAjhNisAlfpr5Z92VuKxWHFaMOfK6HTAwmZ0USbt+IZ7AYPJ53H3x4Ch47XCZslZyCoNIOQGA8wAGe67y59+OVq4+WVo/LxS8leCugjmXmReLXAT4GT7q+ysdl0AZ1Z9ZdWiAEZcD43nttWedLBfQNOlZEy9/NmvU921CtasvumVT7wTqhRmDwKfBDcuoywoCnEwBPRhKgjPN54ofsqPEgZCKMTu4pAYTx9ot1frx3weAxd1rJZ+bb2vRwWeo04KyAvdh1m6YkZrdxVR0p3O3pYCv+P2NxrX0+G61qdjXhS4iTUv9OGh+nr96NxYf3/OQb73/sRj40kbfNbG3ZQG5GL1ydyvLMXhS+9HvEOfsWLMoLkDqN08422u9Tz09TGlHT4DPEqB8wBWlljyYdMx+zYNGO49FA4crqQ4FJI+/IcAOCYes3+dV5N3yfyiWYt4MSmCAM/HuuH8GMCiWyA2cud1wbVekNkJ0fKv/DC6m+y5d3/8W1kprMKXE3tTSisAp63KKbRmyanstRGOZR1Je2YDSAAUIIJCV1zLwiLYUvKv24kjuvX1f1dgqpUfcEWu5rIJABOXRTLIClyVs+fMxeuja1+8KGBSlU78Q0hVAGgCBV8+5zpqYEYCM8HV5UYqgNMCX+2AORYAxN2Qp4ZnYomiWM/EtTRRgDtZXp/lkEDg5ue//u/R4/s/j604cSHl3joqYSr9UToudaXNx0O7fCkCucsyFCAqtT+erKw00LeuP9J+yqGUBOvAuH97UzYDOOvu7xce0LtneXVlQWH1FX+1I7Tr4wI5BXS4O/HkdcVfPPP9Jr9RupSRurviPyCSNq3W872UDkA6wOnftxvRNflq307+W/wIDwr0hSeKOjYCnM3rn6xp/z/rM20xrgAbL3z393o6t382Opv1sQUo+1sd6kRbHyt9vLwrgNPb0gGO9inGKdnl1RYWm43Z7fkwXPFuOTAAnHfL/709PcLi1Su5NFo8TA+W7dYCitk2TorZDgAWlb2WbtmQy8ShewwSzLYVmxKBJSjZCqeUfiwxFVAY8MX8DqDIviursq3qXFgnklNCnV2h2akgK6/zhiQB4/MuAJDrHR1R8TbHQ0MEDyHZFSBhPCPW5zT6th7GhJNEbO53LQtNU7hNAFfgbixh3G0rARMCqeU1eRyX1lxOxMbD5cvO7lor4izalu2cB5Wda8CN1PZA3bkrrEBZfeclhqm58hJHNHYzcWPVNls5YQChT74s11i5skJTIbq1R237qSulAhTbXj1cMHBg4MBGDpg7w/zZyJUP4++tNcOHQd8HSQUFbWcNANF2bLRdNW3HRlabAE4sJmJUuEYo970WO36AkxMCZFPUK/5EMDHXTXM92EL6vBJ5ORdJPBCQoH3S7j+6DVi0s67OJQuqQOda5wZ82Pp8NwDn1rf/E0tOglRjFbHT6JTTjON6OpOt7WeytR1gQzeLUQsWTvbRVHI8IGRqYkfORjrb9XHdJWaHJUtdFWgdHqmPdQqo8my5ZljCKnHb/du5/nSBOnVMFgBHRuG7SbHvXXzPsewOOZWzu7jLbBV22jTgVTE6ict5+vD2+DTsh+UqqwDuCFbuQzxpfZT4qMkHrX4ubq3+1T90cGNl7PWuhfSgKHrPDO9v4kAfJ/39Tdce5G/9+ZPvB/m8oe7D58AAcA6f52/9xDL/xnQK3Ij2Z/FgUmUFqPOI4l9mTait4rUtee/dDAzIgry8fDkulnaKMgJYhWwFL4AToPIyMUC2pfdYHwF62uV7uy4ACbFCvqug02Xv0tUnm2sy9LLysEQBEywzgMjFTz7P4X7JWJsXcOKICb/L2SPmSCzM6WQa1Uam5M0KsIcXx7M9/uzl66OLN7INNu2stgdmAYHNbTZd7Xn+0FbYBA8nvuZZXGesVXZDcXfVbrI8Xz4PeVrEJAForFYn4xKsE4kTW3P6AlB2Nc+YbeApoM1BhYATS45A56mAH8Dx4vWbcZW9qGuPzTio8c07qyZp7IK5gxt/v6vS29Lf31U7jupzO982vh9VerZq90b6+t9bXX9Q3/fnbvZ+UM8c6j18Duxd8x1+W4cndg7EdFHBpwLgojDlbwA0Vsa7owroxA0kjwt31XbbkXu1m73LB1NupdQleBaoUMpqkGc0t1FiXbLbCrgBJlgnKH1nzgAFlDowBsBwZy3ks1T1LCGAz3xOyBZnAqgAZXL3XPviD/UCQE7EPSY+xrNa8F/akTqBugI4AXGbARwWLXl/zmc32aWApUs3f50A4l/XuVvaCiwBbXZ84ZGdVY+z5b5AmyBq/I3bynO1GxBxphfABtiw+qALv08mQ/SlT78Yffq7fwsgTDB1niu3jqDihSuJ6Qn2cKIyCxfLEZeWbNMtR8yTZnVLPQlS2Kwbhu8GDgwcGDgwcGCXHBgAzi4Z9l5cTuHGYgEULFL0+UzxtwBHYRxxV0SBc3tsm39mG4JmY6Vx7gyFXQAjz1asfCaLgF0nR9v6zDIjaFgpIFYAx+nSbRvt4orMrw0kADisJXYlOdfGzihWDaeZf/q7fy/QcyzAp8XtqFHQatqQl5b0remsQxsLEHYycTznEjsE3Fz9/Hejq5/9LoHE2Zad/8QNcRGhTdtYZYCz5gJ0qjLrGEAHUHIJZst5QFm3SHFtVQKz1GX798UkU/z0t/9W9bNw4RH6vQAhxw+U5ShtX0hiPADHNn91llUp9wxl4MDAgYEDAwf2hwMDwNkfPr6bWsaKfvLhFPea2fXt4zIo/AoonnjIKsAAMmKNqL/zewGrWEJeO6xz3M5+HSuQ+Jx52VwT8wIQaTfrj6BeO428lxWk6hNjsnPXTW8qPpRVKQDJ1vkK/o1bqAclo60yIQsKjoUIiFoDbg1E9bqa5aglIZTIze4yoKiCsFP/icQCae/xxA5pa/ENwFlOrE+sWOJ5gCnuPi46gc91TEbq4WYs8FcgtT9xeB84MHBg4MDAgbfhwABw3oZ7H+u9ASwVlyLoN2DFZ0qaRancUCw1b1DWFL4ztFZ3XOXvqQTpikk5ySUVqwswAogU4OC6eceludpa3BNrE1AWIuPuSqwTN1ft0HKGT6ZUgA2wN2lRq8Bv1wUIyV20wv0leR+3XSxcAA6wOJSBAwMHBg4MHNgfDgwAZ3/4+B7WwoHTX5q33qW00wZ3q4vrSwEH3NhFVYHN4lLGypk1ohIO1pbruHbi0tmqVKCw6xOnAxQ56oHVA6gBcFg62plN78/wbBYcAKcBuQ5IHBPRgrltC0+gcnjTC951nuVDuQuBOEHSvlcHQOjVgOIAcDrvhveBAwMHBg68LQfeHw3ytpQM9x8MB1hpYqkot1LAi+BgO6PaUQfJH1PWDEHEAI7Myu3wT6cHb1UKLESpuwcQapaLWD0CEMTbsHawgrxPBVgB6rr1pgCevx3ON/ts9CTbyu/mPDCHCfbSAA6QOaqMx3Ln4A8XV4ubkizRixUs4CbPGMrAgYEDAwcGDuwPBwaAsz98/GBrKXBTO4gcPvcgivxWyx2Tc6kcpCd41rZqil9cCuVtG7St1FuVBpiABYreid5R7hPxMm3n1xpQ2Kqew/y+WXDspOJOilsJuMnrWP6eShyRPDd3v8/JxPncy6T168mDnMp895eycgF27i9wwxomEDlApwG9fvfwPnBg4MDAgYEDb8OBAeC8Dffe5b3iPAQA5zVp7ehukdrqTHFGgVbQcawjeykAjN0+z5Oszs6ox7FCyD7cDpd8VBYYz1hOXhtnYVVMScAOpb11iesmoKbd19wy1cbErQgKriDd9yDu5rX2x5qFr9oOjMjiDKAtLcxUksAnSX4orqaXSXsMd5xzsfSPPrPLyrlY6K3g7HIhvl9Wq07H8D5wYODAwIGjyIEB4BzFXmPtOJacM3HnyHVTShLQKSUpADgupZy7JD5GxmPButN7BDjPc7TAvR++rjOXniSHiyMM6qwmCj7Kema2nRwu43HfEs3Ss5zfF6LUP/RSYCdgDrAra1ZASy+TFhwuKf0kBke/LZ9YqhPWxRvZPVYB1dWH/e7hfeDAwIGBAwMH3oYDA8B5G+69q3uz0Ldbp065jrJsO3cmXDriOqJQBfBSvGUx2GNbWW7Elvz4l/83lps7leCO9eJEtkNLAHg8R0FUMr4kt+unRx8L6GKxeDq6tcenHp3bmiWnARxuunZQ5ybtDxh0oOCxbBcX/A38SA7YAE4sOZWQcaIPN6li+GrgwMCBgQMDB3bOgQHg7JxX782VXBpW/HM5OFIel56tmJvHKdbiO2QLfpmzlVxjC7Y8Lzst4kEEFQsA5op6mviRpw9uJUD2adUtl8u5K58mId+v6swluepUWQAAQABJREFU2XpZJvoWcW6cx/d+2vJx3WVmB1LLb5N21zEMLcaldhWljveudLcg91k+BzmG97GiZfeXs6fOXb2ZrMmf7LjZcwGFF298lnuvVJJDdQ1l4MDAgYEDAwf2hwMDwNkfPh5qLc41Yr2p7LfyxeSzrL0KiwJwIthVsG+3EOymgWJj2rEEScaXLMMOwGTJYXUApk6duzK6kszAjiWQwVduF22QtE+ciXeHcm5VOkCbmTkxdq8lId6i7efieJrVSRveq1JuwVhg4hoEGKemWkLDmQDHuQA+52Vd//KPo+tf/XHHzRaDU3l/YgnTl3g4lIEDAwcGDgwc2B8ODABnf/h4qLU0gJBzm5I4joVmJoc0OpohJpdx/M1CAQ2nenMlzeWsJcCnxehs31QWHEADWJnPEQgvEmTsoEh5aih0WYYvXP9idOM3f4rlIUn5HLKZGJ8KPM51T7PTam7u5JYPAsYApcp1k3f0FDBLvFA7IT2noyeuZbLNrD69TMa2TH4X/HVgZc3qlOMvwmvZmtGMjuKJIyZyVMMnv/nXsu6stbY3qX8z0UigqepiyQKadueiwoeNr/60w34/rHZs1vcHTevkMw+Kzo319r8PmrbDrr/TtfH9sNvheRvb4O+hfFgcGADOEexPipBSdSxAvWJBKBeR3UsBJmJvnuWspwe/fFfXATin4kaqPDNlfdigSClKSQH9n8+SzjlKoHZExd3F5bRaCpw4VNPxB07lZj3a3Q6tdpL26YrdmZvL0QkBCwt5xuLLWJ2yvZzV6GWsQEDWVCwmfi+X0Goj8mFSGE2An8lL9vMzGovniaGZBSprB1QS+4VXLSdQ2ivpYYAZ0FO8nuTLGN+0ZhejGxAqy1sHP3tr8SCY98a34a6BAwMHPmwODADnCPav1b7YG1YFAAeAYUVheUnwTYBBctbEevPg1vf1+5mL1wqsiHmZmorynUhGB9W0lYxdUXCD7duJvwmwadu+W74W1wEZApbtmCoXWSw6Aop9ZzfRTgsLyGxiduqU8BPNTeX+xZxP9fzp/Tp8U7AugHVsZiUAKs8dTYKy1uZq0x4zNO+0rf06NM7kkE5Ws27JYsXBq5fPY3kqQDY/BoPtBHeHna6VBmIakAyvi122jPu+v9auXv9p699b33V+rL/rsP/qbTns5w7PGzgwcGDgwGYcGADOZlx5z79jwbHrZibvDng8feFKgn4/iWvodoEC4ETumql70zkE0m6nc7E+5LDJgKDZAIrp6XbSNcACWLR8NHEJBSD5zCrBGkF5l5so2EYpBZZjFZydVIdl5hTsmbmF1Jct4tHY5dJKYPPCi+dlAWp3vf4voCU2SGCutnFVAWuCi+djwXn64E7y7fw8enjhagEhoIKlqAGaUVlJtBFKmM42dff3bMDaeBBlKmCmtsSzmoWnx08GWIafCwGUr5LNGL+fZAv9/V++rZgkp6oDQuXaCm2KttnC37fT+02/zMQS1t1e7coxBfm9u8HKlVVgaPxb3hwLMT8/P3ryJG7EnE6+hCeHWDqg0Y7FuBe1xcvn1g+dmjFACz1o3rqMr9twgbrQ9lLW6ORaeld06jvPRp8Xuhudkw3uNLyBzlU+tGvUUakdxnxEY6fz9fonn7W/nyfbgc5OKzq1b7dFnFq5zvOuqF9daNOXXsbLicikvdS/2/ZMXj/Zl7093rWvlc3zjE3WMXx+/zkwAJz3v49eb+FY8VEWLDjnr34SBfu7KI/pysXy4vGDAJBkCX51d3Q/QIhCdXSCgOCymrC8RGG73o4rgIU7qFwsEdwAiC3gAmCBKdYL7xLbuY4yB0Du/vD3ZkE6nq3PUb4yGwMnXiwaWxUAS2wQpW4HFsDAIgS0vAhAenz3p9HtuIIArpPnLxUQ4hYCcAjJ2o4dEGWX1+lYp85evFrtQqdrDqKU1anaMJU2XwiovDR69ujiaCW8lr2ZS/DOd39N+5ZHLGbaZPs8Ae9e33NfLVOOsbDJZszCczbX2kXFxTgdt6N+6QXf7awqYFq/ma6UYqORQH748OHo559/Hl2+fLkURr/3MN67wqIInz9/Pnr0KOPi8eNSWn6rsVPjx+nqLSi7lF6+e62sXmesrQcHlBFFqO6nTxPEHroPs9SYGyt87QAm0asdq4o5Ta55kj6reCruyU3oxJMGZlvclf7sfFSf+p89S2bs0HnhwoW1+g+JYAoeeNOWDkDW0wmk9j5a30+TTSw6I0fs3ix6wxe8UhfeoU9/egE4a8BispaD+2zMoq+3xSLBZ7Qr+lCOMa547d84Jg+uZUPN+8mBAeDsJzcPsa4SpnHbnMgOpnPXbrbEenHxPMuWbgCH0nX4JWX6PH8/vP3D6MyFKN7LV8vCUFu0M3Gd6r2Qwx9ZXbiIlrK9/HhO877y2W8LhBDAhFUJ4gCOVwuvyoX0+G4Azvd/H506f7ES1gEoEgE+uXc7RzkE4KSurUolKMz1c7GCuN+7++u4h+fzo0d5HqGv/eevfprt158WCGrWpJUCT2J1ALLLN+ebdSfXN4Cz1VPf7nu7pwAN7QQUT8X6dPLsxQKSaezoRXaa3Vn+S0DPnQRgfz66dOPzgK+rLQg58TraJq5p6WUUxzirMQuPzMeAjf7UJ5OllAQ+5brpCNpaDU9cQBgDFQDOzZs3SzlO/HzgH/VRXwlT+triRUn7DRajGJrib0HZPufL19rWrmvX1o0TV6hLnZQQ5U9JHmbxfArRczvAQS/+rwKcInZtMbAGAta3FJ2scmvJOdcsG51ONHY6i4/rqzjQv9CDrg5u0Luezjy++u/1PpxsGPrLygyYZ5HlHrTgoXcAR38COOfOnTt0gANQoVE/4nW3gqJVafOxueInFx2TNA6f338OrJeo7397hxaGA5OrCYGvp7KDh6tp/umTclHZov08AODFk7ipIljEstjhRMkuvHxawcFW1CZxuafyfbl8RjFDR/gcXwngyOpFbM/pC5eT2+XTgI3Ho5cBLYCQ+uTGUffJs+cLZFHSFWxLeWclpD39KALCbbKU8IulYjrfn7l0bXT189/m5+WAAxagexH+xwpsOfeq2p6g42bBabQ7C0p8kOfbns3So86DLJ7Vg6kFbNsxhXfcVp4NSOaC4oF2cxN6F3DMhUeoNyuO+Jt27pT7Wts7iFxPQX8mBSHmSlLF43HpvVpicWsr7Lt3746+/vrr0aVLl+p1/PjxWhFbFQvOVofS39c/Yfd/NTqaJc2Kl4K6f//+6B//+Mfohx9+GN25c6cUBkU5MydmKbFWaTOXpLgrK3rKHR5YK+EtGuNqrGvSdgHszU3aLAr37t0b/f3vfx+dPHlyhMYzZ5JgMtfNCXafiHU6KDpZyh48eFBt+PHHH0faQzFSlGLSgFUWu+OZM+Zkcyl2S8capX1encgiwjzFjwX8yPjAs0k6/Y228+eTRiDvB0GnlnmOF4V/+/bt0a1bt0b/8z//U/2JZv0M4Bmv3LISVKLVmNyq6E99fioWWO8WBqmgkoGqCz+/++670X/913+tAmLgZyYg36v3Y3/f6jnbfW+89uKz/vL65Zdf6mXufP/999UeYEfbFP1pt+ipc5dD8+nIyjXLaq9veH//OTAAnPe/j97YQsKUwGFOraDcKDVuq0e3fhw9PPZ9uawoYieAc4s8jyulVtQRVoRHfWY9YKHIpPYSONwE2dkCIBdijWB9EOPzZOWXAkMAjq3jJaRrV1GLo9FYu6EIbHVR8MfGPvhOiMDa2h0VQXbu0o3RYvLHEJb3fvqavaiAFOUmWSF32PS9dhwFs3HloYmwqUSHETyLEcqE8/TsRqXZn7ZP73iVqoCcU2cvxXL062pzDyTG18oBlOBoLrr5AMpapeNz2t13VaEbbylw/aS0FT3LxnqQ1vtnppR/FOjpM+U2nM/2fWDV6hqgIJStgr0oh4sXL5Z7AwDAM+VtFUVVkn+6ksBzwIaioPD/+te/lsKiICn+6pO0e+7UqWozJWesiDnauCLWNuMETwCiCuTOu7K00iwI6HQdegCc06dPl+Kn/E/lGb0cBJ2UMRoBuD//+c9Fp/bgP97PBnRpM4XI3Qqo6Yc0uL164/Ju991x/Rjrn2tnci3aAWLzFGDFS0oYLfrw6tWrBegOgk5NQ4OXfgMigVV0fvvttwXqurXqWNJRoJPV1cIGnVsV8kj835nE0VWcXeSU8S0R6dJyAzjAheLZ+IVmANZrv8btJMBRPxDHSvPNN98UrX/729/W0ekaheyycDyTBZ7EphvHbF00/PPec2AAOO99F725gdw9BCTFwELAkkKRWClSMvPPHpZLh/upTsAOaHBdL8dyv1WkCT11LEooYKVW3FG+LDhnEsC8eONXuTx1Z6UpmPfF0wexINg5xKLztFZn7p9L3Ix2UOzutXYCXErg573OW4rQthIkMLSbq4cicJ3vbVF/+vjuaCHuqflYg8TyvEpcjuL5VXeeQTkQtnZYFfCp+uIzr6DjpnAW00ZKs1uS1P9aybPr/gjYCsROu2ejQEvJ5l5uI4qmFGfeATerby4jNOMla9XsnZOjJ3HNscgAZ/PP8LsHLKbtoVVfuYdl5bjt5lF2+slvDQytM2vUM8tqNB2wGJpPWFGGX1nrlyvRitcKm2Ki6Fk1tPPatWv1AgLQttr+14jf/RfGFCXgBdxYhVOEFONPP/1U7fGbvhe/wIV6Oqt4PEN7BYvj40TRPvTjvzEE+FGgCn6KEUMnRYt3FD0leOVKEk7mdfbs2dY/ub76qe58u38oxq74WVUofS8KEZ1Aj2scT8I6oc3mitiyzUBcbw1APBdLXEvweK6ul2tqKfWYnw9Sr+fqWzSilftE/3r1sl90qo/C9zzP+ctf/jL67//+71WLHAvdq2wsUADtZtW9Usq/AM76rqzr/MOCoy/Fl6HVZ4sxLlkH1KoXYAQSWaaAVu0wZvVnpYZIPW9L5yTAUb8x5JlAJCuV/tSOx6F9IfLCYsR8JF/MtdMBaGTBYMFZ7doj9WEAOEequ7ZqbAMNJiIhSylaKdqlNB/XEpBQQMEqMcJzEuAQuKXYo3wAGy9uI7uygA6r0uVrccVktUbBnr18veqsc64ScAy0ABCuLYATQdYsRu307Ka8Z6Ow3HsjzwqQijLrgqs/A3Dw31xW+g7rXMixEI6GkPBPcC6NOT2T2AWCE8AJENGeS59+WXUTQGcS88KKVVatPI/LzHESF67frN8Av0ndqg0UrhXa2ViSrn7x+2qD7eB4Qjhrc5nXJ1hfyjg0U94Xrv0q7Zqr6wRycwU23syPAQ5VPwY4YyBZyi3tszp05IV+Kz6Fho2lrD8jQd9nq0/EV6GhwGXxpgVuAhtWwYAAdxUrTl8Jo7Pze2P9u/17EuCw4LBkcGl4PgX5KgAoHRy+JoDceMk4unjjixqLxuRWpYAcxZJ+PXvp+ujyp78ZPbqb0+sDILkkFzNuo5nKhUIxcZsIwvUC7HrZLzonAQ5ljD4vFip/+904ns3rZMDb2cyZi598XuMMqN6qGKfGnLF4ivv36mcFFp89uFtuTofjog1fWVEoY/1J6R8EndrZAY7nctewVqFTf+pvIF+bgU7yhWwQX2YeblXMkb4AWHNzJ5A3bnM7JRdzGLD68RGoAjwASADHa78AzmT7JgGOuDVA1dgFVutQ4sx7rnAWVnSSJ3aomp81PicrGz4fCQ4MAOdIdNObGkl5Radk5WF1RTFTEhUncuPz5jYpgJNdRwE4XE0sDr1QOjNZPZXLJOCitj9H4bdYggCcCGSCyiqc4qkkfAEOTs6myAkiAKC2UI/dEA3gPK1ns5oUkAhAOhdwVAGzuUd7FavAir8oy5MjDz6J8hbH4/64OtJmK9sGcAKmxgCngSkr/YCyKFIAyc4lLiyKFXBYWpwvd1IzqV8oQVXMGhOvbehfyYoacPMQlgbCrJ4TenwPwEyWsiSl/axQwFAByRdpb8Aklxq3maMurFZ7UR8wNxPhyXRvxU9wFh0EKJ7oyHUlfWtFme8bwLlRQFUs1JP7tytO6VUsakvhD0FN8X4T0ztl6GVVfJAWHJYjz/TqQanLWe1zF+KZfjl3+dMRF6fxOB0XxyT/J0kVdzU1JX2AMRCAc/OrshYC6FyhS6xGATkUv+dSxFxylD4g18vrPOy/7O59EuBQvp1OgAOty3G1zIZO55CJRzkXIHzpkwC5jEHzZavSFDcra7OOXrj+WcZKXF2ZT2LQADkWMMrYcyjhrvQPykXVAY7n9Z1waGbVAXDmEks1mzFqkYI+c4tlw3dbFXMIH4xrAMc9LxIjaHG1mLlNDj158rTAnGd1Ort17qAATh+nwJVA52cBdejHd1ZS7kNj1SLvTOTd6cTg+N48GsrR48AAcI5en61r8aRAZ0KOxi3lQri8iuAFRCjbilWx4o8yJLx7oXitzoAUCtgKxt99l1VT9s21wvpC0QI2fVt5BwOlwANWPJeSW8zOLDE/vaiPYvccq1jtrldWelZ7BFoLTDybui9UuxdyPwsOBQ7g1HVWkywhwELa43OBlBzWefxUtmUH4Ij3OJ02OttqLlvY56IAtQv4m+SXz9oV+9LopBV5hBgLEuDTgFvim05fCD/Xpkndr+3ZwYYOYIey8lqM9Wvx5aW0P/k0BAKzOhSr2xleFPzscXxOWwJ0tBsg2xzchHP1nPZOmRC4+o/rDpASy7TwvJ3/9SKK14uCsiIVu8H0Xzwe87r3xdu8U3j91ZUFpZ/GFN/KlZaV/qmAmwuxnp2/9mkBFiZ/vJ7k/2o7ik5gjqvyVFbOLTFlxWEF5La8SxnDAXZofBn+opO1CrgRaNzLpvX3H3fxbo50VxxF32nNKEk7k2gz4+lUUgUAtyxUUjVY8QsCN3+2Km1sNZcs64BgdcBNv9p5aFejOTsPJOd7wAp9+hNg7WW/6FSf51Dy3tH5Mjv9uN6M76IzixsK/8K1z2pXY7kc05/Gbzq+N2ndewMEMnpPhUehMyAXjenq7MTkwrXDM/Ewnc4AjrmMVzR2YK7Cg6ATjQVq0JzxbBMAOqWsuJAdqedDJ+Cpb83rNm4HgLOug4/IH2uS+4g0eGjm9hwQl7KSSRvpUsKYIJo9EZAwVk5jrVsVyUtCwQIPDUCIBwFAxhOa8kl9UfkRAm1nzuzxFhAp0NV1BH6Z3gOWCAPKgWWDsuuFwGPlAYQIrY2CqwR/fktFVV+BgbSZtalbnOq+1LPWznFb076plda+vnLsrjigCfDzXJ/XCeS0A0BR79xI7NB0WZjyRf5vzykLUwT9VqXxqcVhqIflYvlE8t3YKZW2d173+jpI05Ytgc26hzUF0tyPsjon11FW/OrnIpAzaPmuOJUopXJZtUBKyvkgVsH6tr8oRC8YDh/LjeFMrih82+QvffbrUoqnsvIHLnt71pE3+Uf4xyLCPaAuq3x06Y9nD24lyP1OaBdD1sAHRQVsFcCarGefPqu7P6vozHP1G3BtpV90fvLl6FKsTVyVckdRlJJCblmMrfzINdzjz2oM4Wv6tO0kvB/g+jggI6MncVwrK8B669ct632LHzpg7YCOlcU47e4aQPXKZ78pOi+FXi7WFtf2ZjrJoeXlxEwFOFzO/T0dgjg+STHt8pTuIaQXyHsZfmsDQLlRPrwFeau3orPTyJUKxJlP3IUWNhcDbLipr+V17urNWH+zuEk/FVhLvw3l6HFgADhHr8+2b3GU8/QMSKJ7rbJIym1uq/m7+SQmgB3vQOjFd5W6tqhsnRDY5Jnrft/Qnvym/nrGdm3erK35jnKpwMeNzdvs+vHjywoTIQeYbBpT8KY2qyO/E8Yzx7Jqr5X7JnRPkvqGtkxetvGztnHvEcTATQeU3IEUBaUE4BDibRX+sqo4CEVB6a8r474DTigzcVGf/vZfayV89tLVypOET+vA5boK1v7Qf8AN5V+WjcRqoM0AthOwXKwb6DwIGrXoNTrzXSn+WN9OFpD7fHTjt3+Ka+rLcmVwVVGY25bwwnjrAbg+A8NizVggWTUWsxtPP+PB0lJoz3eHR2csTHG/GXPiblgzrv/6n6L4/xgQxyV8Pn20Zk3akt5arExlTGQnUt13tsYo6y4ZUjsB44LUv4BHCC1wo76DoHVdf6YPPGM6cg2dpzNuz8d6c+2LP4w++8N/1uKMPLEwGsrR5cAAcI5u361veSmQ9lXp0HW/5pvXv1x3xa7+mHjW1vft7pmvC7Td3b/Wjp3f99ozd0TXxJM2vX7nz1+rafNPm7WPOd0KmindypIQ5jJg8pdAkPJgvaIsGzDYvO63+5Zy6C5D8VcCtduOIG40AOe8FXAyPrMCsPC1kps2KRvpbNcfK+XKtSG4nFKV9VkQN1eOoPlmJdvbMQKbNGOTr8Z0AsChkbLjBj3FBRcr0+Wi87MCcJQkcLORlo2Vrv1OubbrgQYgAlNZDcS6PUtW8JaAM3TG1QoAofdgSlP2xlOjM26iAOlT2cou7ubSTf35WYEbuywrVcOmY3+tdWt0GicBfel68X1ABLczIGyMPIlVbmkh/Zk+Za0roM50te2KbO1ZO/+URVSsShmQq67tAjcB0wC1PtCmCvpPf++Ezp0/e7jyXXBgADjvguvDMwcO7JEDlChl35RtyzNy6dOvKr/R82RTFgReGaETxyEW6kAK5Zb/52JtESQtIF38QmV4jmWD8pJDpK2AxaPk4t2UsfLk8mGpYkUQxPssdNpF9uLJ/crO7eyycs1NbMffzWO2vVaz05YCcKGT9UwOpMreHasEGtGMB6wwhfq2rbRfAFSwirYA8qmpm9Wv57NDSeZxQM67/EqykgM5r2LNOpASGrmhuRnFSnk50gV9q/SO8/aUlXUVsO6sNcAOkMNlLWmoc9oAnUZjEpKiM33aNhU46PeAgFy1IzzPmBLk361RrT8zfs+kb0M3S2QDnx2Y74zO4ar3jwMDwHn/+mRo0cCBLTnAuiGHzvEoCwDgTAI4ARqK8OlD29QTv5HVcMt7dDAKsVbnURbVDooi1hsZa5uyz04+MV8JjK3YEpTk2p2WyZW/+q2wW8K1K6PzUfQA3NNYN57bcTQOdp/crbbT5+zourRbe8TcnDhj51voHIO3Fny+91T+nYc4g0bPULf+1H+sceisY09kD088kuD1gyjaYhfbsZwRB0wC0PqSpdCORPE2lQ5iD+6aSTprY8CFxB4FOAkk7+krniZ/FIsVK6RA5AbkNrhB94HwojMxgrXT8hwaAbicz5edk+aSGMHmJt/eErcPzRmqOAQODADnEJg8PGLgwP5zoK2KKR+gxy4wSRspKMqwLBsH5NKI2l+1bAgetpOttrwnNmUt+HTnoOaNvKF8s+JuO+CsvmNpWKXTal/c0cEAuRBZAIdyLzqzsj8eGrnd+m7A3YC37enkIgovxzQL2LdrkaVqNR/UGyvZ24/6szYSJP6H9UIcVItnW+vPVbC6t0es3TWmrejMtwUoQierkZ2ZYsqaK+4AAE7RGfCS+VLZxMfAsiyN4fvOgv7XSBk+vf8cGADO+99HQwsHDmzgAIDRYhsqXmWFJSGJB7PithNHOvwemLvhxn38syl/z+dG8l4xKP7WuCiyty6pQy12JVGw3HIUsPw6AlRDZP4/qHiN3vpGi/gUbdAWdNbOmv2iE8fwK//PzAXAhU4ggxullH3ibw6VzoPqT30ZHhads80lBlwAN2cujGOpDrM/N9JZY9aIG8qHwoEB4HwoPTnQ8VFwoBThKqUUY/vDSvhDK2u0hs7anJRg3w+NyNCzRqfPobBCP9KfH9gGntfpHPfmB0bnBzhEjyxJQxTVke26oeEDBwYODBwYODBwYODAVhwYAM5WnBm+HzgwcGDgwMCBgQMDB44sBwaAc2S7bmj4wIGBAwMHBg4MHBg4sBUHBoCzFWeG7wcODBwYODBwYODAwIEjy4EB4BzZrhsaPnBg4MDAgYEDAwcGDmzFgQHgbMWZ4fuBAwMHBg4MHBg4MHDgyHJgADhHtuuGhg8cGDgwcGDgwMCBgQNbcWAAOFtxZvh+4MDAgYEDAwcGDgwcOLIcGADOke26oeEDBwYODBwYODBwYODAVhzYXfrTcWp0acO3em31oOH7gQMDBwYODBwYODBwYODARg5shic2XrOXv3cHcOoJ7ZybVznkbjGn+758/rTOv3E2jFOEhzJwYODAwIGBAwMHBg4MHNgpB+afPx4tzD+vg2VhiXaW3k7v3vq63QOclRz8lsPfnFZcACdH3GsQwOOE3aEMHBg4MHBg4MDAgYEDAwd2yoGFGEoWA3BeLf7/7J3nd6M7kt6hLFGZyqlbHW+andnZXdvHPv6r/cFf/NU+Xp+d3Z2ZvWE6qruVE5Vz8vMrEBJbLUqURCoWZnipJl/iBR7grXpQVShworwIjg4MLke5FMExMxLkRmRmd3sjbK4shJX5SZ2A2xjq9Kqu81PTyjEoXocj4Ag4Ao6AI/BYENjd2gjrS/NhWwaTvd3tcCCSU45ySYIDudnTfavCxvJ8WKitCztb66Fa7zV6PcQTjcsBstfhCDgCjoAj4Ag4AmcjsL+7E9Zzs2FVr+21lbAvklOOcimCI8eYWW8ODw5FcBZlxdkKqwtToaq6OlRV6VVdVY42eR2OgCPgCDgCjoAj8EgQODw4CHs7W+IUst7ITXWwhyHl+qUowYGw1MoqU9/QaNaZqqpIXoi/Oao6MjMSjdpXo8RuMOqoOMG5/pB4DY6AI+AIOAKOwCNCQMaTw4M9GVAO4qYl8YxU4B7pZVwjfVHCe1GCU11TE+pEbjKZFpGcBrmfavLVKfiH/x8ehAMadYivjAbwtROcPEj+5gg4Ao6AI+AIOAIlIBC3iccNTHiK7KXfGbGRh6gaL1HyFBnZKI1rFCU4NSI0jY0iOC2toaExo0Di+lBTUytuUxjdrH+J6FAKP7UP/D+OgCPwOBGQgEJGIRXiG/+NAinKprgie5zgeK8dAUegGALH8iEvL2q1calOu7ONfxDn+xXJKVbLyedFCU5DY1Po6O4Nh9oWvrsTA366e/pksZHlRjE4TmlOQPS/HAFHICKwbzsst8OOZMaeAgf3SSchf7rF6Inj4PLOtLSFZi2cqj1mz6eNI+AInINAR1dP6BQP6RsYCf2Dw5IdLcq3F4nOOT87/qo4wWlqCllV3JRpNi5Tr23guYGhgABDaGFS8uIIOAKOwIkoOLLF0NrKUlhfXQmbG+tha2Mj7Ci/BQSH1VdzW3vo6RsMPf2DBW5vx9ARcAQcgW8RyHb1hc6e3tDV028yI9PcKotOncmTb6/+9pOiBIdKqrXKasxkbOdUrcxEWd1oX9vEWZE5wfkWTP/EEXiMCJzIgqOwub4eFuemwsLctPnPzaKjLZ811bUiNCI4WoH1aiX27OUPSgzqebMe43zxPjsCpSLQ0dkV2rNdoa0jG5pb2ywemFCZUkvRKwnuqa6uMSHVolUX/25t75CLSrlwypSEp9RG+nWOgCNwdxGIBIe4m6OwupyzTKTra6uSHznls9gx0lNbW2u7MelFu4TVyPNXJqzubq+8ZY6AI3DbCDQ2NcuLlAkNTRlzb8NJLlOKEhyCAqOPXKuu1vbQJNOQbRFP4cTuoboMzn6tI/BgETgmOJINubkZuadWw/xszI+1J3f2prKTYgEmWJDSplUZBKdRmxe8OAKOgCNQDAF2TsFDLhtcnOorSnCw2KTC6suLI+AIOAJnIXBMcGTBIYjY3NvahYkM4TusvrY40oYFPiO/FpsYGhXn58URcAQcgUohUF2pir1eR8ARcAQcAUfAEXAEbgsBJzi3hbzf1xFwBBwBR8ARcAQqhoATnIpB6xU7Ao6AI+AIOAKOwG0h4ATntpD3+zoCjoAj4Ag4Ao5AxRBwglMxaL1iR8ARcAQcAUfAEbgtBJzg3Bbyfl9HwBFwBBwBR8ARqBgCTnAqBq1X7Ag4Ao6AI+AIOAK3hYATnNtC3u/rCDgCjoAj4Ag4AhVDwAlOxaD1ih0BR8ARcAQcAUfgthBwgnNbyPt9HQFHwBFwBBwBR6BiCDjBqRi0XrEj4Ag4Ao6AI+AI3BYCTnBuC3m/ryPgCDgCjoAj4AhUDAEnOBWD1it2BBwBR8ARcAQcgdtCwAnObSHv93UEHAFHwBFwBByBiiHgBKdi0HrFjoAj4Ag4Ao6AI3BbCDjBuS3k/b6OgCPgCDgCjoAjUDEEnOBUDFqv2BFwBBwBR8ARcARuCwEnOLeFvN/XEXAEHAFHwBFwBCqGgBOcikHrFTsCjoAj4Ag4Ao7AbSHgBOe2kPf7OgKOgCPgCDgCjkDFEHCCUzFovWJHwBFwBBwBR8ARuC0EnODcFvJ+X0fAEXAEHAFHwBGoGAJOcCoGrVfsCDgCjoAj4Ag4AreFQO1t3djv6wg4AncPgaOjo3B4eBiOjngdHb/OaynXhRCv3dvdCXt7e+HgYD8cHhyEo0N9Z/+P31P3/v5e2N3ZCdXVl19fVVVV2+/Sb6uqqgIvL46AI+AInEbACc5pRPzfjsAjRgCyciBicngIQTk8JjvnQVJIcHZEXCAwRnCMKEF+TsqRPjvY3w97O9siKpcnJtU1NaG2pi6E2lojNk5uTrD1vxwBR+BrBJzgfI2H/8sReNQIYGHBCrO7sxV2d3dFRLDI7J6LSSQ4ukTkaHlxPqytLIftzQ2rBytOsu5AbqhzfXUlLM7PhPqGxnPrTV9GEhMtNQ2NDaEp0xIa9aqpqdYt3YKTcPJ3R8AR+BoBJzhf4+H/cgQeNQJYX9aWc2FpcS4s5xb0yoXVpcVzMUkEh/fNjbUwNzMZ5vVaXlwM29tb9lvIzb7cVqvLS+Hju1/M+lJXJ0tMCQWCU1NbJ6NNbejs7g2DI6Nh4Mkz8aa6UFV3eTdXCbf0SxwBR+ABIOAE5wEMonfBESgXAvuKn1ldyYXpiS9h6stYmBofCzMTn8+t/oTgBLP2YL3Z2lgP21tbYWd3235r8TgiQKsiT2Nvfgu5uRlZYGrOrTd9SdwN1h5eI89fhbq6+tA9MGQkCZdVqfWk+vzdEXAEHgcCTnAexzh7Lx2BkhDAWgKhgDQQi7O+thoWZmcsYJh/E3x8uiSCw+cpiHh/jxie/XBwiIsqFqw4O9vbZhnaXF8tMci4KtTK0tPWkQ3tnVnVH+sjyJh2egxOQtffHQFH4DQCTnBOI+L/dgQeMQI1cgO1tLaH7r6BsCL3VKa52cgOlp0dBQYfyIV1XjmUleZIJIQA5bQTq/B6CAoxPlh0Ltz8BNnS/xqrMoq7yYQutamrZyC0tHWYNQcSlnZTFd7D/3YEHAFHAASc4Pg8cAQcgWMEIA3NrW0iDjVhcW7WAnpxA0FWYvBxdDkd/+CSf1gszuFu2L8gcJlqkzWprr4+NDRlQnfvgIhXf2hpF8Gpb3DrzSWx98sdgceGgBOcxzbi3l9H4BwEsIjUiTzIECOXUFfo7R8Ow6Mvwtz0lMXX7Mr6Yl+eU0e5vqpVrE1DY5O1o6u3P/QMDFuQcSbTnCc/l99mXq62eT2OgCNw9xFwgnP3x8hb6AjcGALEtWAxwWrTBsEZHA4bisMhd83q8qLF5BTG3FSyYRAtrEkdXV1yTfWFPgUWd/X0hia5zbw4Ao6AI3ARAk5wLkLIv3cEHhECWHB41WpbdmsbsTiDYVe7oVZXlsLs9KRt84bskMiv0qVRbikCi3v6B809lRXJaW3Plpw/p9Lt8/odAUfgbiPgBOduj4+3zhG4NQTYlo2b6kABxvPa1p3t/iJrzkrYym8Dr6wlp0rBxO2hf/hpePLstQU9N7e0mvvMt4Xf2pTwGzsC9woBJzj3ari8sY7AzSFQr/iXzmy35Z2ZnRq3+JdlJf07VMDx9tZmOLIsxZVoT8xOjAVpAILz/LVZcXBXNTQ06IYee1MJ1L1OR+ChIeAE56GNqPfHESgTAmQO1jYqtjMFgnwHR55FYqMIZI5biMcwlOlm+WrYpt7Q0GTBxbikevqGQrdcVGwNr61rsN1d5b2j1+YIOAIPFQEnOA91ZL1fjsA1ESAWB8KBqwqy8URZhEnct725GeamJrRtXGdUsd2qjIXA4rbOzvwOLpGb3r7Qke2xwGJ3TZURaK/KEXgECDjBeQSD7F10BK6CQAo4hlhAcPg3mYohN5wjtS3LTrnjcMhvQ9bivsERuaW0a0q5bzrkJvMjGa4ygv4bR+BxI+AE53GPv/feESgJgbhlu11btnuMdPSKgJCnZmN9LewoHue6BQJDckGyKLNr6umL70PvwGDIKLCY7/xIhusi7L93BB4fAk5wHt+Ye48dgUsjgJsKC05nV3fo7ukX+Riyc6Gw6JSL4HCIZnNrq5ILDoXRl9o5pXcITnJNOcm59LD5DxyBR42AE5xHPfzeeUfgYgQgFrikCDom2LdLcTEDI6Px5HBy5OiEcFxVHMNwlWKnhdc32rlX7XJHdfcO2vbw9o6uQC4ciJUXR8ARcAQui4ATnMsi5tc7Ao8QgWQ9wZLT2a2AY+Wm4Wyq9ZWVkJufCfsk/9MJ4medNn4RXLigWtrabKdWnzInZ5WtuE0J/hozLXaS+EW/9+8dAUfAETgLASc4Z6HinzkCjsA3CEBy6pWHhuMSqqqrwqbib2YVcGy5abSZ6nD/4EqbqiA45Ljp6R+Q62vELEQEGuOywrrjxRFwBByBqyDgBOcqqPlvHIFHhECy3tDlmpo6i4shNw4ne/fqAMxFZTleUQLA1aVc2NneKhkZiA1HQjS3yHqjXVoDyrODBac1T25qalw8lQymX+gIOALfIOAS5BtI/ANHwBEohgABvw2NiosR+eiElAw9DWs6p4rPyY9zGYJTW1uvPIIZ2xZOQr/hJy9C39ATOwOrkFQVa4t/7gg4Ao7AeQg4wTkPHf/OEXAEvkIAIlPT1KTg3yadTdUb+odGtFV8XRmONxSLM6sMx8sl58apVeByprkltGfjgZqDT2TBkUWI08LdNfUV7P4PR8ARuAIC7uC+Amj+E0fAEQhmyWlXXpyB4RHb+dSmgzmJpSEQuZTC4ZkcwzD09LlcVP12uCbnX5E92Ysj4Ag4AtdFwCXJdRH03zsCjxSBBg7jVF6co4PDsDA7HTpEcNZXloXGqu2wOjfLsWJ4yHFDUr8huaaI52lWkr+GRvLt1DxSRL3bjoAjUE4EnOCUE02vyxF4RAiQ3biltUPnUVXZUQ7dfYNyV63acQ6bG+tnnjZObE2NAoux0rR1dNpxDAPDT5QhuVfxOM22c+oRQehddQQcgQoi4ASnguB61Y7AQ0aAeBy2jTe1tNguKE4b39nZDrs6hHN5cf7M08YhNsTdNOnFCeW9/cOBYx9a2zvdNfWQJ4v3zRG4BQSc4NwC6H5LR+AhIADBqa5uVE6carPgDG1uiOBsheXcnJ0fFfa+7SXWG8gN7izibvoGh0RwhkO9MhmTLdmLI+AIOALlQsAJTrmQ9HocgUeGAO4mXnaEg+JnootqLcxNj4d2EZg17aja29lRluPIdLiW3VckChx88txODCcwmeMYyHnDkQxc48URcAQcgXIg4ASnHCh6HY7AI0aALd0EDENO2C4+PTlo2YiDuMqago4hOFh5eDXp+IUeHaL5/PWP2n2lnDftHZbsj9/61vBHPIm8645ABRBwglMBUL1KR+AxIJCsLVhecDs1yBKzvb0denRYZnffgA7j3Au72zthSwHHXGPxN/mdU09ffmcWH3ZOYQHy4gg4Ao5AuRFwyVJuRL0+R+ARIgDZgcSYC0qnjT95/p0l/NsV4dnaXI+BxQpG7h2QdadnwJIEtojcsBPLiyPgCDgClUDACU4lUPU6HYFHhkCy5pAbJ6vg4afPd3Rsw2ZYWpgPS9pRxS6pjq4uc0+R86ZTWZAbm5p1Wnj9I0PKu+sIOAI3hYATnJtC2u/jCDxQBBK54b2uvl4Bxlnlxgl2AOfc9KTF4XT394ce5cnp02nh7UoOSMyOnxb+QCeEd8sRuCMIOMG5IwPhzXAEHgICcRt4a6iuqrFjGPqHnyqr8W7oGRgygtOvwOI2WXN8x9RDGG3vgyNwtxFwgnO3x8db5wjcKwQIGM40tx7vllpaXLDMxhyiye4pgo9btHMqHsfgW8Lv1eB6Yx2Be4bArRGcg4MDE3yHh4eC7KjkE4jvGb7eXEfgUSFQeP5Ug3LedCtbMdvDO7NdoU2uK3LesB18d3fHt4U/qpnhnX3oCLBowTJbaJ1N7uvb6vutERyIzd7ebjhQjozDw0Rw5Lj34gg4AvcagURyapW1ONvTZ0c5NCr4mADkmrracKRnf3try/Lm3OuOeuMdAUfAEIDIYL2NmwZqbPEC0bntUlaCkwQbneLvk9dhnsQcmnDj8x1lON3VuTX7WslBdpIl57YB8fs7Ao5A+RDgrCpeqZDZmJcXR8AReDgIxA0G8VmH5KTM5NV2nAsZymOWcq5LL3rP35UsZSU4NBSiAoHZE3HZzZMY8mBsbWwoHwYv/c2ZNcqPwTUEIHK9E5xKDrPX7Qg4Ao6AI+AIVAYBIzg6S662riHUaUHT0NAoi22jxeOxY5IDdrHg1uvFTkusuzeR4LOsBCcRFUzQJPhaX1sNGzqPZilHLowFy4exnP+bHBmJ4IjhEIVTGeS9VkfAEXAEHAFHwBGoKAIQlpqaOmU0bwrNLW2hubUtZLv6QlaJP7NdvaG1o9OOZuG4ltAYXVoVbZAqvzLBgcykEq02iqmRNQbrzLZeK8u5sJJbCCsiNjkl+iLZV25xTp/x92J0TykGZ39vP1/NSX2pXn93BBwBR8ARcAQcgbuPQHWNjmNRoHF9Q5PyXLWI5LSGXPd86F5aCMtdC6E9m9WrO7RBdNr06uiwTOanrTnldFtdmeAkuCE6+/v7Iiq7YX11JczPToaFmamwODcbcgszITc/J0vOStjAmqMzaSA/vPgNO6mODg+sKqc3CVF/dwQcAUfAEXAE7hcCEJNqxdoQX7uzs2UenNWVlZCbmzZrTltH3EnZrUznvUob0Tc0bESH8+iqm5u/is0pV8+vTXBoCKcF7yhgeG1lKUyPfw5j738LMxOfw9zUhDo3a98Rj3NwsHcceIxbiuLExmDw/zgCjoAj4Ag4AvcWgZNwYQKJ1Q0LKJZVR4HGtYrPaevImvWmf+hp2JSxI1QdiRMcamdlvbm1CreXlwuEKxMcSA0uKYjL4txUWJidDrOTE2Fy4mOY+vxR1pt5uaMWw8b6qraCR2sNDK9BAUgcsEea9jp1mhd5MirRuXKB5PU4Ao6AI+AIOAKOwCkEiJ+VleLo6DB6cqTrSf+yK27Abkm8NHCFg4N98/DABbBqENaysbEaBobmw8DwkjKdD8rK0x5a2nQAr7gBXCG9Tt3xUv+8FsEh3ga31PjY+/Dx7a9hUsRmSXE2uflZ2zVlO6XU2RSvA4sjy2lrW5v56DIKNmrKZPL75+uM5Fyq9X6xI+AIOAKOgCPgCNwKAmwoss1FIjJb2li0vbkVNrVTen11NayJG2AAsXx3Ijg721tm7CCcZWN9LcxNj9thvOvaiMTu6r6hEdthlbaYQ3CuWy5FcKwj+Q5tb23aYXpLIjNfPr4L7375S5j89EGsbE3kZt0YGlYZshuS3ItAomYFHnXqoD1e7QowahVba1GkdV193F6GKcuLI+AIOAKOgCPgCNx9BCA4WGMOZZkhxnZjfV3ERjunF3OhUdvE1/XvTRlC2DV9KBIEydne2gjLS4vWORJ+RgJ0IE9OlR3CC2eox8uj7eSpXJXsXIrgYG6igbzmpuWOEqGZkNVmfOxtWFQwMcxtb2/P2kRK9qZMc2gRqemA1ChVe7arK3Rku/XqCs3aF4/1hutgbGwxuwuZDxOg/u4IOAKOgCPgCDgCxRHA6JEsOMThbosbbCrnHSlieOUWFsLiwpwsNQthVTG6K3pBauyoJvEJPEDE60ZLEImAj0Lv4EjIdveGTr2uG7pyKYJzqB1PWG7WVpYVb/NFbqlfwvtf/2rbwJe1DZyOpbBhkvp06uyZrp7e8OT58/Bk9GXoHxwK7Z1d9jnZTWFoFoOjyOvrdqT4EPg3joAj4Ag4Ao6AI1BuBCA3FN5J+cLRS5wzt7UVyc701LiMIJ/C5JexMDUxHg7EIQgslu/K3FW4p8iHt7EWvT5Yg9hhjcEDrkC5Dje4kODEDkSWxtEK5LaZ1e6oyc9j1ujp8S9muWHrN+SmSRYZrDK9OjW4f2goDMqvNvIMgvPCPmtRIFFzW6t1AJdUanxK5Ww98v84Ao6AI+AIOAKOwJ1GoJDgWD48CIwFGivYWGQnIy8NnCCjbeB4bDBqzM9My0WlPHl6cS3xOJCapma8OQppUbJAMh93Kjkg2ZDrlBW5vsBddRlALiQ4VMZhmNF6s6HGTYaPb34NX8beWL6bde2SImjoUAyO9MxYbHpEbkaePg0jIjUjT5+ZualL5iaCi7mmXlHSRmwUoxMjpS/TZL/WEXAEHAFHwBFwBO4KAujxar2OiKNlB1Q+9jbb3WNemlYZNtra20OHrDITsuZ8HvtoAchYewhrgUOsKi6HevDutClGt7OrR1acbGhRYsCKEhy2gLHNi11Tc0ri9/Htz2Hqyyf51WZtG3jc8l6thkFw+sLoyxfhxasf7DX64pWxsEalb7btX4yIOuHFEXAEHAFHwBFwBB4GAqR7QbMTJJzOSCBYuEMZjHu1DbxTMbgk+eNsKnZXLczOyDCCSyoSnBURHPLj4J7qELnp7h0IZEduVCxv0P+vUopacApNT9x0Q9mI56aVpVhZCdkGvr66pGDjbesQwcSYlPoGhsKzl6/Cdz/+PgwNj4aeXnVGpim2h3sQ8VWGx3/jCDgCjoAj4AjcTQQu2t2Ep6Zau6OOsMq0d1iILrumyHTMb4nLmZ7UdnEd33So2Bzy5xDjOzPxRa6tZgW9HNq5Vq3tnXm7SMyPUyoaRQlOqgCiw7Zvjl6Ym5oMi0rot6zzpYiQ3tvbsUay/RvLzbDcUs9ffRe+F8HBJcV5FLikjNkpkNiLI+AIOAKOgCPgCDwOBBIBYqc0KWFwNUXSUx1a9W/idbc2STmzFHdjKRbHdlZpExOWHfLm9Q0+0XcKTJY5JdVXKnpFCU6y4FjGQQUBLc7NKLh43Kw3bPfa0W4qCg1vFTNjh9STZy/C02cv9XphB22lDMWlNsavcwQcAUfgPARSZlTbsSG3OUGKyCgEHy92ZeIqx4+fCrLMAiAlJPUnWz7iV/YbPOb8NsUDuvsccMDMcpyAFX8fY2ZqJmJ2HEPpmMUJ5f89jUAkJFXiCVUWZGyBxnpGyX3XLqsMO69nZDiZU+Ax8Ti4rkg3gyEFw8rgyKgIz7Id9xQP5dTJB3peSy3nEhyEAixqXSajecXekHkQcsNnCARcTxy90Ns/GJ6//l7Wm+/NclObT7VcaiP8OkfAEXAESkGAOMCUW4NkYcs6DmZTK0BWhuzQ6O0bDE+ePg/Do6PH1VmCMe0AxaXObg1ybSDbLAGpgiLtyJh8YrHLCM/jGzzAP4i53N0h5X7czguxhPBUCy9W4GCN7IdMenEELoMAvKFZ1hs4xMDgsAwjz20nFcc7LerF3COnjmi1JRNeVEjMkvLs8Rte1dUnCQAvuu8FBEfnSCjCmcyEczolnO3h+Mf4DOsMQcMWe9M/oIDi7+zV2dltAoPvvTgCjoAjUE4E4opvIox9eBvGlWj0y6cxkZycxfo1Kd7vu5/+ztzihQTnQIqZ5GKkj9+R0ubQ34P9A9v8gKWHDRAZmb8RvF4iAokUkpmWPCWsrPeFmZFBZaYn7pJdM05wfMZcFgGes5bWVts+3qekfiOjbFZas/icVSX+29tQjI4WI5x1yVbynMgNJIfFBwHHl3lMixIcs94oGGg3f+w5cTdLenFmBFvGGxszdtRCV0+PtoX36zVoW8SblOAPlu8rocsO+/nXRxNxNBUz8GsS1ghs2O7FJZrvzfepsbH8Q/n3uHqNCReJfk8rtFTnbYzjsTlcjUim8rxTwZqFgZJ2Wdvy5srbaGfCqNh76gfvlt1TD689yMV+cPw5faOPMQEmY1KjnQW1ZPyWckkWBz5L/uz007uIQ2pbOd6xwJASHlmEWXvi82et+maVMb01ZLS6I00FJu7Csq/nBRJE0rH1tTVbHaK0OdiP7avt2obK7xpEdB7KcTH23CT3EmDgZsqDYgb+/PNz/BwVAqa/ITQol3mFJoAZ85bPLPs8SVy1y6U/DNqOmIc+505B4/+8AgKFc8T0jHQNRKWzs1PhLcMynKyYTpuVp2iHTMfiGLihNzXvlpfEPZQNGVLdnu0+dpcW1lmsSecQnANjUNsy/27pJuya2pCA5pgGTJUk4Ons7paP7Im2c/XJn9ZhjAx2VsqNizXIPy+OAKSTF6uqzx/faxX7xszzxX+R95crir1aypLVKtv26hsbtMptspUu54Exds1i1McmZylOxvC2xxEhzUoymcdTP1NsF8qdv2+7nald37zTfhSLxgzz68f3b2Rx+PDNZac/oD+sjiEwNl4aN3YUoFzYldjW1ml5IkigxfOGu4ByZ3E43cHr/BtMLRsqpxbvHVsXdpnX5k7Zs2ek8Ba4WRCcb3/92dLGr0ueIde6+/oku6Smh3XIn3DkOJlLLQ8Lb3LH/rZnR/MuxtHEFPiQHNv2avNL5Dm/yDmr6dtaQc9rG+9HyZjFOa2gpWC2FC/BThhiLkdGn9lZQ2z/9eIIXBWBJu2+7tYGpQ1tWiIMhg1LmzrPkt1U+5q/8I3V5UUtaObtyCdi7pjblFLk3TkE59CEB0czwN5xTeGqQrhwAw7SyuqMKYQDQqJNAUMwLC+VQyApfMbjkw44/Zf/+781+Mvn3pBJAAlgZZrR+NiW/hadEabVLi+28u/tDjBbzERYo0NR75IFjvmGS5T3VFgBkHbAJrjmYikTPf32pt+TosG3/OaXv4Y//+n/XdiEROCIKzFiowyfWBl4kUuCOBOz3Ii0Mm6PbVGB0o7BxpCcGCdiCcN2GyzoOO64OIGZWBLyd7397ecwqczrZFFlF+jw01FlWH8meXaoBGTdYaRgjp38+v7+xdwDJ54dtuAaLsgDvZAH9tzo/ayCiwDrzdi7N5Zqf2pC4QmS/11K3Ia1i7r6FHvpxRG4DgJkOsZAwikJXz59tJCXOi1W7PmW3IfgkB8ntzgb+taH9XkkOKXK/KIEhzMl2L5FBDOnf7JaQrBQEK6sHttlXiLAGDMvUdGl3vQ6gDzm3yZlicLHPbWgrfsEWZ5fZA3QeGHBqbOgQK10zSLQZCS1vSMrpRlPeO+W4Mp292klmz1eqZmVJC8Uz79P+b6Nq04JZ7H1WeVeIsp+XXmYUmlp7TBy3aEsl7gVYhLJuxc/wTqDMUMZEDS3spwzRZv6Ueyd58iC+EXieNgZLyw3CAMsbax4SMvQo0RYZA3vUwxcY1OjrKpNdm2xeh/r50nRH5MhjQWHAkZSpJWiTOFYRrnuoRT6xuJnZVmWdy2IyGWGsmADCLGTWG5tHvX22mLhdL9N1ogcRcwIVchjJjeVra5t0RH1wenf+r8dgfMQKOQJWJ+J421t67AFd7NczXALNjJZHI4WMGws2NSCBGMLrmW+Y/c2uumicg7B2Tdig+WGc6ZIpcyk50hzKkapdEg5ImBJwcwq0kuFEZD8ZQyIQ8DMnpufDwsyHZ9XCv3tWD5YuR2/pECx6hCZjul5RCvaYR2tMTTyVIkanx7711Md592nnN8dC1eZKacnJ8Ivf/03IzrpHv0634x0BJS2ow5zL+BiuJslxk2hIFb1LM3J7H9RMYKji6IlJ44XFiteBHWSGRRyN/zkWXj5/Q82nvwbyxtkyMvXCNh8whKo54bFAQqaODb+5rPTLtCvf30//0X/copTmhz/ZAshXExr2gHblGkxV2f/wLAtSDu7OdDwWzWQMGORAUYQHerkHQXDShpS6MURuC8pJPsAAEAASURBVA4CEO5M5sj0Dx4FXFRwi618GhqeUVyjxIFFgsMmgf2SyA3t+nZm51vLQ0+wD76x7e1NW03jw7AzJsSeWDkTpMeuKRgYwtfLzSBgY6PV2JqsGhDQVBgDXEzxPSpEqUl9HVemCKTdXQkmja0JdgkuyE4tLFqCj5UebJlJBWHgPJCYt6D+KwJbyMDTvcv5HoVrTFFAAOnHt3+TS+798S0I2G2UtYJzTVDosP67XlAKWEQLxwscY24Hxo3xqtN7jUgsvSHWBDKrlYzIERZVxoWYnpa5NllNWy0Wi6DjlpY2u75BVhyexVQqPU7pPnf9PS7IZHEWid9QnA24WAyh/mZxhnUMd+BDwou5sirrDRbQiS+fwvTEuHaizJnMbtOZgFit2BxSjKQgF7AIcjhyu+TA1mbcHYu1F1cp6fZT7NddH39v391FAF3F8xnjC1tCs57FQos8BJvgdvLuxZ18koG4XWtKI9dFWQmVYA5C4cHc04PAxGdiW/Aj5nO9MBc9JOFwd6fD+S0zwimhzWq+LR+zweTBRcL4YfLb0WTZVJAycQi8MGVDmBjneSVXYkKxSqNUV9fKDdInt1W3BRaef/dyf4uCPzRSsCxBjXBOhQPcMLkzL5NPNn13n955jhgriBruXhQHrgMIHm46xoodQwSVRz90zCCO8lrXZ2AyKeVFtnD9wpQX9fmz+PUsaMw0KdbmhWG6LDchc31ne8csYQQWcz4OsWjIsYdSeHZ4tpk7kOolubKZL4QaINu7tHDl+/za55tuQ/qwECI/nj5/aa4uXFxklmWV3a9jeXplvffiCFwXAeRV4hUNck9hpU7PYlrsWhyZ5jTzms9KLUWfaJQeDwDCgHceitgQdnZAcPTS6pkXK08eBC+3hwBjw2p0QO6b4SdPtbtNr+EnZtE5kklvX+NHYCUvBB2rOn5D4kbMf1uKs5qb2TfSw5jj7iD+g4kFo2bnxE0Wm9gKjMRUyXbVQoLTo5gTCA7zEkJmwZM32bgy3YtnKJvtDkMar6EnozZmfdqVckBAqHBnXHAtkANi4stn6ytjA8Gh74tyOTZoRxzPaktbq8b76fHDz9h6iQjg0ye7OmQd7CDFBwdHkl3agSYTeb02TLBpAivaQyl2rk9+MbOqLbjE6i3Kpc32W00SkwOsiIspC47ZwWUdNyHINSULIjoAjFA+4NWk4HcvjsB1EEBO8YLgIA/RNSzY0rMYCU7cScv8Y+HHZ8Xm7em2FH2iEbAIA8zjvFNxagiEhtUnwgFXBo1zgXoa2pv9N/gzMSA57HIYGFKGyNGXNmkgKShBVnPkCGEnBG4dgsOnlbxxZnJcOyYgQbLerO+aUp0aHw+NDRkTZFzffdCnMT7Zkm0TTBMtbYNOky69Hy8N8xOYbc8WU5Lq0L8LSTG/i+yc3XscxrZt5IYEbcSvoNBT2ZUlim2suE7JYovrJ5HsGCMWs61+VT/s3x4MyEN8QFJbeS8sYEk9x3lo9DeuPvtc35WrVKMoFDiM5YadiBDTIaUmRzmBBdYbdk2BP88YWGzIPQfJsZfI37LOcEHh5HRYHS5GcOLftXJ1VVV9u0PmGGfDI2GhdzqVhyH1E/xiHNDZ/T/BL+5qMgGUsMyPb41IGPVE7IW77ht/l0zMqlv/Jwjexs7e4zyjHeUokHWCsGt0MjG40hb9RySePEOKcZKbr/YcGVY4P6I1lPlTgB3zyvBLO/riXEn4JTxP9yfN9zQfOVmZiuL9qDH2/wSXNCfj+2ls+B1jwLOOtYVAat7NcqvnZXc3ZnPm2bLvNX+YR3HgY5uZZ+DFeCRFQ52xrfQvjlPMyVR8Y8lXmOUxT2NvdVlHDbTj5yrVneQMeBU+w4X9pf70snggtfHknlFhWj809+zz/PU2/moPfdZHVgrxjTlaThbrp8essA3+9/URSPjGsSbeEAIdZcb1az8nBodJkYLLjt0A+QmH36zwZQ9ymYRROTr1WOuA9WLeI7cAvnPcFazwGUsebAKJ93b3tAOpxxJ1seJ///YXgwuikAQff3OUvUSecg8omFWBx8wFJh4KC7lgQkp1IkyJEzlUllNWh0mAJKFSZb+J29QJREcwmuDR54WF66mLWBME8qYEL9YmBDGfFxb+zeoT4YxSZ0cZD8jxnMwT70LhGOuPZxfxe1MECF7+RuDlhR33QfGllSoxLtFPHNubHsjC9lz1bwQ5mBDrgNmfnQQdcpkYdlLArYqVaMvvdqHN9HNNuahIcmfWKxFSO6hOLjw+jztltkVqcRufCOnC9hkOGkvGzOKwVK9ZwXRRWsSAG2NtMUH5/tPW0885dUUc43jsyu2DrDCMVAeLnwa1hT7Sfnvp3tGCEseUa3mBt40fAg4rgV7lKrSTvuLyI4Mx85S+0j+7p4hFlRZsxK8VKzYm+vKkDxE3/m2ElAmkOiGE9AdFWSfsatT39NzwLKRi44AlCTxok+FzcowElInnj//Hscjjkiev1Trbx+iP7oWmTs8kYQXJtWmLA/2bvtsc183TmOGq4jlnTvF9bDOkBqu8jl8wzGJANm0kizEEzAir5taRnjH6Whyx2NPYz9g/5hx9NXmh+iGZ/C/VaTgx9nkZwb+LFetH/vmNcmvbxgE41Bl7BvAuMAdNVul+sR/KncSCHcxog4rdF1w1Xizaq/QbqycibNf4f+4nAkWliE0gPYDsnkKI8W8TRAg+TQAmjllvJBSYIAhAL7eIgJ5IBDbBk8227U7BgYrrIHiLkh5m/sZCsrkxotemLHG1cgEtWVZYroFcQBzmFI+zJoIxMKwsk1KeWPEorOwoRmQ0L6gLZbsv4oQFyAQ2Qh8lgkDMKxFzBUjgHEmRSIyYECokINTHb6mPlSfWC+7L3wj/wsK/seoQbLyxsRZI740sYsWJcm+Q3DIlXaAkC+tHwCHUeVl79V7o5kpbaWuV+qDhqMHmPTegzkIceR6uU6gPXDDLYlEjCNaSzeUrjRirjeovygo33TxxFMIoYQMRBGsygYIZ19Eu0jZUV0cBXthG6qTfEETbTSQsqI9+UQ+/jYqfQyvlvsn3X0217wr7b5iqbSgs7ktsF/Fb9Avlx0nBpm/0t+2+sXuhYOKOHNoVLUTCQfMCEzXzQzcyEpzafV2cITOMOXE33Duu+Pd1T80X4W9KVjKssG+n/47/jiScusAsvTOHUP5YvYlbg8CjpI0soERRmLUiJICYL2k+2pZrPTtWl+o1wihMj44Yi0iWkLdgY1ZzvVdV8bIBibXpHrSP35LzZ0vPNdZadp1YYCb1CgO7hueM69R+nnNLjS9MaBtkj2toP/SJNvH7OF4iJ+ofCxQjn+oWli+uT+PD36mkv3nnfuCFnGCBFcl5JJk8d0akdW/TKdZPkWJVRL3MpVTSffg3/WG+prnHQofA6eq85ZV8X+n3kYRr3qsNkD8IkeGhOihRnxFyAa6QbYjVt8924f3th/6f8iEg3PV/w58/vkX/arcqSnCuVp3/6j4ggNCACCCOSHDGtuuRhXm5qiaMUNh2PITeVpVZSAhSJKeGkSURJoQjqe/x60OC2M1FSm1TmPrOVmoSagigqLjIxIsSj9sA2zu6FLjcI0tSlykCBCZKgm3UxNuQdXZ68oslZXv/5m9S5qtfwYpy/zL20QQwVg7b6SEy15W3TFnQaF+v3Zu2QM7WVpQpU4nLFuZnzOoRA67jeScIcAReKpBEMj0TaEkCS3aRkC8oBQKn627i3SwnkresqiFBWHSW5Y5Kgh8FQtvBD8UB8TOiUKBsaCcEBLJocT0iSexO22DrpT4jzsnq0JihIOpR/JofHH9A3h3whXiRH4nYjLTiNeUiZUrKgvHPHy1LM/EeZhWRUuY32a5eC5y2+K/1VSNBuBa3NrdMh9APyADpCsAbnImVsaMTNA4QQBTQdQpjPaUEfyQSI+aM/oIT98LKSRv7BwdDrwJnT1sNwJdr7WgUzXXmKK9kXaQulLdZL2WdYC6jsBmvDrkeCfYniJxAfXYgGTHSOEHOFxRbRYwV44DSxe2KkgZXlHIkf/G8J54flDZ1MQ7t7VmNTUtM5SBwIK30c3L8s8XXfdF4jI990LiMWRZtxp/C/RmvWeWW+uUv/2bPNxZEMGZhNKKDSkdGn2shU2XtW9AzY8+l+kwb2W3JThfSgxCEXLhrz25g/4mYYV2EgC9pvnIwqmGvcTfMjHRh/dKZYFhaRGyIlcL6nMm05sclBt9DfGgf8yQV5jvtATuSnn4eey85tBbq8vgzf5ADBO3jlgdvTqem7ywE+D1jhiLleWdXJq7iLgs477V+gTffebm/CJzMmPvbB2/5JRFghYb5lhVYVkKXbNRkKUVAInRPdijFQNcVE+pLtlpDeW2srVvsDocdIgAXpDAhOwho6kCImnVEFh0THhLOKEvbMSSlR1Dt071XRnoQbvjAEeqQqBnFBL1/+1t499vPAXJDojIITWGhrZ8lvLk3ghGLC8qUrLTDEs7cO9OSMeVCWxDutPHj+7+pzt9kludMqHVbwbKqNzcYBCe/bIgZn/V7WVT6pPQI/CVgG2WMELypwooRJcd6BpyiG6vdUjQwhhSsE5AT8GO1TX8aG6Oro7CdYGDkUZa5L1IGnz68s/TnxPSw+jXXgcaLeyLYmyTYTZlqfmSlLNiFhPUORQOBwgUDcURxkG/l3d9+sSzNszofCrcUgbuQBpQgyoaklIt6keyQHWAoJlZqYEqdEDcLktdcfPHqBxvXlkOdONwsi5K+v06BxE1OfA7/8e//YkkjUdjMceLUCMp/8izGqnWJWIlKHt8KcoOFgTmN9WxmesISNXIGFscXYD2kLyjaAxETlGbER4ReJKBfSVB7DYNRw5X5ROoNC/RfnA9j799qHN6ayxEiAJZm4dA4YmVijMGHOK0WXJgimjEg/alOYR4JPUckeJSVTDhibWGMYz//FD7oWBDaDOaR0MWA4mQ9OTiYtHH/PPbRlDvPKfmV+B5SwH0nvoxZGyFDjCvtxoWa1ev5dz/YPCEb9NclWpOYi+zS5IgS6mFTA9mkIdhgZpYl4XWoftIHYqSQEW3sJmxHRjyxGELIIgsrnoOvCU7sL/dAXvzrP/8fzbE5yRuOoWnUvFOWagWWk8wwl5s3ksX853pkSiKSPPJNwhbS1jc4FEafv9IYvLLsupBdJzhfj+59+5cTnPs2Yldsb6F5lb9NschVxNZyhMDq0JLOApkx4cD3nMCMaRnBC6FIwawIGyw8nA3CFmWE1tysjrPPLZgiQHAhJBHU+/u7JwJfQqwjyyo2a1aDutp6E2hYR1olSFDStiLTKh8Lxez0lAlFFDeKo7BwDz5DMae+8DekDWvDRv+a3R8FhRJG8LN6JCMyih1rDofGssLknigwSNGh3ALEU+AyYkWHoGd7LUqZdpAkjbTiZsGQGbtQ4Ba2r6x/ayz4H4IewU27WNEWjmehFcf6ISwpZprXGOI6JG5nanJcK/yx8EF5hT68fSNSumDYoACTBYd6wRHXDWSuQwSnu7vX6iKmRF9bfqRWtYf6GWvIwpzGi3qxGNBOFAN5WDjzifugbCGZuEMZK1bS5Pmpkh2RYGsIDnhjKSHXFm1gGzLtYTcf74V9vgzGKDMIOG2b0Onji5q7kGZcNMxxrBAEeEMWwZISiU10Z3Ca8eTEJ5399s6snCh8CBvzCmvUruY69UBKGCfGB0sHZGZHgb1YobJ5DHGR0HcsGpB55iMkYIu69AJP5jeERa2wtoClWU7IfSRSBWEzd4xwayXJKhZQXc9ch4TMz01rPCZNka/q2eVZYXwptDOOtSwguh/zGwtORlvpeR7YEs5Chbh6iOv0BJavT0ZSIAbsqlpV/pwWWU43Xn1vdab/WL16Tmg7eE/bfPtki5EvWpDwTDMfNs3qhdssxuYYIZZ7CGLdKnnAWWs8nwRfM9/MMlvVLZkVCR/zgHuxeEE+IYPIlTWptoJVo+YfcxIsITU5zT/mP3OPOUnaCZNTstwy5tyXLOHIOLCifuYBx6SQ7yfNvavOv4SPv988Ak5wbh7zO3VHhDEZJFmZIbQgMKzQzQKjh91M2lI6yzrwjJVWW0eMX0F4IGgRBAgVVqeHrXlrggQcvzPriU6jR5hgFkYoIbgwlSCUEeDDT56bAkPIsvUUNxZKFasJ7i+EEoIVK0sqKD/cNVhaLC5BCoT285uOri6txk6SkCHQEbgWe4Gg17+JT6mpJcFbi/qJkI3BlCSTok+0E+Kzn4vxL1h8+B1t4zgLTPnmqmmq/OOTFK4pD7UhKaiEhaA0AQxhja6jkx0IuxLgWEpQehya+O5vv5r1Zl6ElJU9pM2sX1gB9HvqQLGbgtX48jvcjljWDg/JbL5p7opnL16bUjhuQ8EfKAwULQWlQp2rmj9xPsQEkriiIAJGLsFZBATFzb1if4KlZn/5/Y/qG0nAmvOksvJ4p66AMwoe5ZksGVhczC2r/kCOsNYwJ9pE0M2VaPhBShQ4q/4Ry2FBv0ZIYhwMQfR8htsLQkSBwBEPxDPEcwd+9nxBenjGeG6EPZ8xxraDUN8RFAsJbRHxMRLMsyySiPsIokgbmD8Ql0iadvNzRLv3ROJb9dxzPaSZZxgLDpZQnkMUPWN3mcJvcFFCKsZltXn35tfw8c1vhqORODBTm+in7ZpTsDKuMPqbnk/m2uYqCxSIYCRrWPReHP1g7YEs8syfVSLp0dxTnyHTTCbGkPp5MaZgDWZYy6qVGgNc+A7SyTOBPOQzxhP3dFsHBJKxvLm5d1bf/LOrIeCjdjXcHsyvEBYc1dChuBjiWVAmCAHJCBNyPOyYlYm5YWWVBAWfs+LkOtwnEBaLP5AAJucO3/MixiC3M2+rdoJQcUdh3aEgzFGwrAq5Lyt/iAtuM1xDCHcEIcL9NMFBSBLTAOkiPgHhzLlo/JY6EFQUIzh5soUlA2XBd5A47p0K98J1QTr7jXX567ekcHeUKVor4Jkpgim1kpSli2MsDrUar9OKEyVxUwVFRV8sQFZ9OF1YXdoKF2XL8lsFUkGfiD3iJPP/+Pc/2eGJFmip/kJm2ztlWVMcCvOAcWRMICbLuTjue1JWWLWwVKxI+aDYIYa4Ss4qtNOsbliNtIrHMtEkZQMZxdUC5iiMJqVnh3yhFLGgbayTa0sxOqofCw+rfcwI2S6duSWLAeeoJbfcWfct92dGcGRZAbf3b36RheCtWQm2RdjBA4zZjchcw3XIM9OgOYE1ByKCdQIykrDGmkkgMnOQ7/mcvlMg7JAM3DSJyEL+VnKQ+5zNR8gln0FusJbyTBDfMzAUXaf8nmcQ0gJePGtsh9/TfY6OZJHV3IFE0CbGGncQqQm4lnlM21u0i69TMT7UxXij5C9TeO6Zb6Se+PjuTfjtr38OP//5X+MCQ3MR+QCBatN9uCf95llkXkGKIBnbvNS3Jf07ksvPemaJFdQCDCKXwaJ38twWti+Sa8VDiUTiaofkxdglXGCae5p3hrXuDaHHYssYsADa3+J3xPXsGL6QINxcuzs6UFTPlhOcQqTvz99OcO7PWFWkpQg8lH0UOPmgTgkiiAwFhUcSQJQOApKC0CA3C8npEAqWv0Ofs6JFiETXBRacHZ1EPCYhFncnsJI0K4AsIouyIiDchpT3BcFNO4hbQJChJCRTLNaEpHcI9MIjDjAd4yrCrcDWapIQEgCMcLa4EdseH4MDaVO0MHWGQcVb7Nm94mcIu2QywHqDMkHQzk5NmZDOLcZYIhQwVqTc4ryZ/+kPZLASJVlsqBscwR/lRMwQbhUUCBjyGatfMIzKkSBUBDmKLpI78MaVgntgSsGn89r6vyICRwAxihlr1MDIE4vBQkGDB+M+L6sFMRfEmSxKyYMJL6wEWF+evnhl5IQVPu07XegDL+5DQCyk01bDnVJsCt5OJn/wzi0s2vjyNy4CiCzuG97nacPinFmQCHYmV02lC5gTfIr7BnL+RXFmnz9+NGUL/swnFC3zrn9oWHNqWEQDghjxi9aZeCAgAdvVykXUI+LNcRoW+5bHnnk6KOzBgrFsFAEkyBYLGooaIrW0sGAWiPmZWY3HpFkd4tjvRRIqnIgp4Xc8w01yM0G6iJeCnMTFBAH0IjqQKmGKosZCA6klkd8zuZn4HeSI54qFBYQNkhotOJEsn4c7pCy69OJOPwJ+CXDmmIjUPuqENAwolo3YJ+YfgdjMX67BMsZcw/2H6y72M5KPWf2b+CdwP5Lc4ZggrTfOLCdzT1Zd3Y+Fj2V1l4zgd3V6NsCAe2LdWdaLd55t8FnVeOzt6aBSnjORPGLTmBOFz+WZN/YP7yQCTnDu5LDcXKMQsMSSmOlXDz9mb8hGsgKkvDQWr2BCr0YrvSYjJo0SiNJjEoS85BpRPSSYQ+ChKFkZQT5QuNwnJ4URXRXyjUvRImggLmllifJMhAsCwU4rfOZfCs6hAhmu61U242cvv7cA1i5ZVIjlaWzMmBCDgKH0uSdKG8EYFJDJyg+ljuke5UufpbNVqiTcooWCWB0CnFmNRssR+TXiNlfaSoApwZ67exVMUw9BUKtQfGYpQ/CuLkmpzZsSgGwyLmBOP8ADhYESNWuClAYCGTM8x298fPc3s4jgauNzVu9Yv548ex6ev/4hvHz9vVlWiLvBuoCCmZ4aF+4fAMfILZ9DPDD9oxAgfFjcEum1C0/9ByX67OV34fnL16FdK3dzf2hsGBdgpx5IF/Ein8bYFUdclXIfaRXN/FmS1dBidzRv9CMjcKduUfZ/GubqqwVPa6fZ5OdPFoeC6wXsiBPqyxMbgpOfikzgHkVRY52CGDDHeUfpQy6wqhDnxg4fxsrmpVxSfM6hl8w/SHjMPxPjgMxSk1e8uMb25UYFe9oATmb1kgUM4ok1kxdzPe0+w2JBX+gH+Ylw93Af5jyEiPGHqP7+j//JcIXM0Af6x/PC73gWSylmddqXC1OEmvgf2juu+Dzcy3yHG69XlqIBBZCPvnwVRuXipO+0BcIItlhKidn57T/+bPON4HfIM3OdA4WnFF9jpEjPMPPqogKBfPbqtc1x+ppV/B9WYtyGyDuIPxai6YkJa++6doImVx7WN/DF0gyGYO7lfiLgBOd+jlvZWo1gY/UWBXS0wCAA+BxBjJBB2PLw8zdCDyHIKhDzNtdGUpTyf0SCg2XHdoKoHgQsZIFVJKt0lDYrJOpjVUzsBWQnU6vYFrk/qL+7r09WgiETPgimwsK/iTMYlYAeGBy2lTS/OV0QTLhdUCyQnk5t1T3Yf2FCNQnX9BtW7AhaXrQLZcIuLQQ0yp0X30EYCH6lL9cttI8X9zDLgYQpuOlD+xycossmnh1GHAMk0QiOrsUiEOOWcJPkX8LP6pNyteBftffTh/cmzImpoW7OEyJeCUXzw09/H373h783TJgHkAuUMeQS9yDjhXJBaeOShHAQNAwRRHFBYosVVs6M0e//8T+bZYE6sTIlmwBKhpQA45+7rJ6c7eAj/kI5WlQvCpI+L+XmzcV1cHCxYivWllI/T6QSjBd1b7aXo3gFm5HOFhGJISnql9//JGKo2BCRbOYV2DGHmfPMHwhafOmZkVJlnFDmGT0PkBmCg3sHBmzcbYEhF5ER7vzYY9Vcylu3CLoGJ5495gv1Mha0EaLZJTJAuyFIXT28tM0502IxVMwXI6MLMVCb5xwrH2ST4yt+9/f/cCZxrFWgvxGcNFjnAMjchdCxCMIdynyb1NEizDcChSHUWLteiEi//vHvwusffidCdhLbgqsSCyWWH/rEb5EJmxtYnYSDiB5jwG9odyIdYFGsYC0iYJr+MZ/ZMg65pE/INjYcMK+bhBPkamL8k7WB2Kjd3SrJvC3NSXImxXw9xe7jn99tBJzg3O3xuQOtyytgKeEkTowUSVDKzGPCgqy5CGE+p0CMUL56s1VTzAWSNdLANQgmFMGxADlHUF0XgBj8qVo002mjCTiEnLXvRHqbiR7lq0azuiRmhBVxrQQd9objNkvw0vbzhGupbUYpRKvQlJRek7n6sFqYm0KY7MhNEfOvrMgK81ZC+IuU1bIJf/oR3STKYSRXA1v9CRanUC/kiJgGlAwvSCrCGiWM8GfbOwcmYvnCshUFP9mLdTq56iE3DCtfLGkoxBgUe6LIsMAxbFiRipWEKRYviCtKHkwT6hCkzmwMVscKQn8ILD+SokSJMz/IYUL7UfgQt0oX+gkhQFET8IqCZayx+kEOOuQKxY1DfEanrAJgA6Zp7vMOYWHOgE1tLUSURUS0Ysbr9K2eHeo90qnIMcA7j6PmH/iAXaZFxF7/YIwg6PyWMaSABX9DprA4lGM+WsVX+A+YMdeWZOFjPqcdTFQFqWtT+/u1BZvz8cyKB9nLY8bzxvzLNHNkSYcRa8g3feO1pwUQ9UF0OUsLIlTKPABvFkItLe226YD4L4glGHJPLLzMyeQqi+Nyhc77T+40Ak5w7vTw3H7jTAibqT0vRCVwjRwovgBBDotBYPCipL95P5IwiYJLuS1kVsY0jiCxYEv5tln9Y7GopHAmDuJIcRDc1/oiphPbGAVdQpiU+k26FgVM0DUCkb9NWakvCFV2XKF0eSdO4roFJY4Fi3gX6t/cWLOVJX/T1m3FPq0uY1WSwsWVo+uwfNEX2oXViniGF9/9JAUSCQ59o14sbtTHitgIjlb8ELP6enbCdZi7gKBsXBvEj6RxqzliZ1CLdS2b7bF7QExYpe8oS67VreR+kADagFuwWDGLhVbNtJOdZ8RAYFFLJd4Hi8R+nky1h6ZcxjDe1kXMjy1ZJxLBqeQ8SW3CgkXfSAgJ1pBMxqNBChmSgXsEgjOkY05wg1jMk8imADQM9XRIece5jxKnzYatxsyCdnlulGG6+ki/geDoxjw5kByus6J3CBX44AYkfslcrlxj8y5a+CIJiDFatPG2Cpgxj4lr4R1CgoWTvkMKsbz0yhU3qIBoCA5Eg/6lOZcINnMRd3Pf4LAsvsoXJLcac58dmIvzSjXQM2d1MxcvmgvMPayFpI1g7jF23DdiLJeg/s3n5BdiTtrYJAAZF7283H8EnODc/zG8Vg+SUE3C5vjdxG6smoc9PfB8H1c7staYjI6CgO8RsraalFk6WSEI0kNuR1J0IsT5HgGd6r1WJ4r8OPYNxfP1BZCTk/aqzWoLnxEvEdutVTX/I1Cz4Md8F4VreZQJ5I6VL3ia207Kobl5Mo9j3oKjnD0big8gORqKA3yxsKA0SLJGHMgzuYEgK+l0Z1b1BExCDnAbWGyBLE+MD+PQqhgL3Ivx0NUWW00nhLDkoLSxPljaABEUFAAJBMGCMcN8jyJD6UJyzLWSKih4p66TAPZ4MG8KgOYy7pMCYY0EyWJBnbjluBfHxPA3u/iwpNyEEodUcT92gEEObeu62gpZwcoGdli2CHJHaaKcwTSV4/lSZAPS8ffpB3q3ucfzk38e6KfNNd6T3VRzOP2WuZte8drbVcZgFoPgsd5s2NxjDkYLVq1lw+7q0YG9wow5xXxhbqQCtgI4WntF5riOeLO5mUbDBnccRAeXJa5u63PCJVVy6j3Ovbg7zYKZNU6F8xTixeeQHshQlGmnKvF/3nsEnODc+yG83Q6cEIWTreEIPFblBMLG4xFI8JYzRYuCvO0SkxjGOIkY9Mw5ObhESFCo09QVZ0LQIaZ3BDV9rERhtw67RagfFwz3xJpi99Mt2VqMYse9hPIzctLUYbEFz168NHJDoDDWBGI6sLTwW4gTv4GIQEwgT4wFigGlw+q1tbXDLFUo6MKCEsXlon1v1hYICcHjuFkokeDEFPkENRPDUKg4Cuu66G/6w/1pD2SBwFhTOCg8FeYRCpPgaHNR3cDcidjpLCdIlXAzzER0wQGi1yCLlSWAk3Wg9hS5uai/xb5nPkLm6C/zL7rn4t8QrIX56bxrhgVBech1sbZc5XMwY56mIF3mCFvUazSXmDuMKa4g3J1YRYuRCeYDVhesZJD49CyAixF1PSvgZNbTU4uWq7Tbf/PwEXCC8/DHuKI9RKGiBNjZsSUhx5lUrLh2tgjWi0c/kAkW8zUuF6697QJZQImYUJa7BSsBwpnt8BAOy6EhBQcxsN0wF6wWr9of2oEpnnasyYpjyc+kFI7pFNjmrUsoBpQrZvzR5y/DH//zfwujst4QuEtyQ7a/oiDoF+QScgbJgRgQIM1nBHyiXLCSUA/meXZhFRYIDsocy0zcaca2Wla4ccXN+FE31g1W0+Bz1cIqO7YnZmiG5NBPW9GrUrPgyHJlLiqRtZuYO/QHYohljXFBWUdMwEPthIwptoMzk/ic13UL8wAiw3MTX8xFzuuK73NyT2LBo/9Gfq97wzL/3iyGmhO0GVJ4vCiwuRQtXwQaQ1q+csWdagfzgdi3RHCw/lGYBzybkBxwAoNy4H7q9v7PB4iAE5wHOKiX6VISmLx/9cqrWdw0KDtbyUs5cg2K3xSn3mMQbAxkxVdO3IcRHH3HdWwbXZCAZseMJXaTML+pQltNKUgx7EjJb+bdPLggUNBkzzUlIsFpisUsHlthXIcyLimoEfIBYbAVYwUajSJHWbK7w5Sm/kbBs6MLJYtAx/QPrrYqlsWHvTyceoyywK3Dipc4jbQqjn2O8U0WLwThMetNtERhIWAn2Dslr2Pbt42tTPRnlY/vfrPdV0mxJAVLW1Ld18EmEQSI2fFLcywprzR+EAD+volCHzl1utB6F9sZA+oheihiXlcpWDsMP81HEkoyB9eVkG5N8xELHqSKlAVxPkaSOjX+yXaugUMag6vcu1K/oV3Mh7ggiMdCpPECO+Ymcx3L4HmFa8EVl1Fh4HbECysr8W/JoqqFwA3NifPa7N/dbQTOn3F3u+3euhtAAOGEv5rMvfyNUIHc2GniUpBkLZ2eHDcCgzuBoxgQ0uamkjBCQVuwq0gFQYMIw5sqtJX7IRTXtMU75neZMBcUPn6CSROZQHham0UIcKeh/LHmGMGpkCDFBE9ith7l9Onr79fW+AHb4cS2WHaNQESmdcI7K2P6gnKkjcThUIwIfGNBiKSOPps1R+/8LilGgmY/j300BQJJgljU5K0zp8eF+49ryy4kljEFS8NUJMASoOmdfz+kAmEDO3BGsZa7f9TN84NVanpiPD472h7PDiSeKYJzIQrH81HXkwuK+ZDwV6PuFORGCoUXbS+ca3Fj/fWbavULB+azxfiJ5F/fbnb9dnkNdx8BJzh3f4wq2kIE+HkvFKAF5Mk8D8FB2BC8SpbX6akvtn2Zg+4mvnyREsTdIqtHPt6Da8lEfKSU6KZwRSJMOX+jlMvbxaSUeMe8vS2FsSIFwplCnMc0I9IwJ+WN0ogkICoz2osbJ1on4mrRPquQQiH+hO3Rwzo5eVQJ8TjjqU/BwuTn4FRoMsxiRaKtKNu0td4EvXZEmbAvGL+EIrE9jEEiOGCfMEF5TiqrMUHCjGu0TpytLiB4JFyz4Oa8sjdSpXuCSyWxSX256XdwAuuIcXkITsKevkACwBOCTZZkTmGfEtEh5w7zkXtzwnZ8bnh2oosGUgTed7HQLmK8wMxSKNBOGl6mAum0uDnN47uKQZm66tWUGQEnOGUG9L5VZwJdggOlniwYx0JKncFUTPAqsQcoVM5qwq3z4e2vRhY4M4jty8Te4F5hGyjvaYdCjAPZMvcQ6diJxUGIV7oQjInAZTcMp51PfPlo7X3/5jez5mBVou/kXiHfSIz9kKVK/V1SkrPcouKGtHKGEBBXUIkCWcB0j4uJLfTEKZCjhvuxewayyMGYBGhCdI6EP5YUcuVMiKTg1iKmwSwxkMYSiSP3hazyOo/gYGHSkVFyG9SaYkG5ECh6srtK231FgL2cjwDzDCUNfmRvnlQ+I051H3v3Voks35klkXkGlrgdcVmyY4u5AQnFsoP1kWct7a46/47+rSPgCICAE5xHPg8QuvEAQGI1sFrkrRn5FVitlBvClgBQzM/kBlmUSR2i8Jc//Yu5nXBNIXhRuFgkIDmcDdWm3RAbMsVjjs8tLNiqjniDShOcqFBw6exJocwrpuZDeP/2N2vzhzd/s1Umih1iwe6jASUha9eZNbSfDLBcX/1BJ0ETmCsFT9xKJYrFN0mJQa4IriRFPsnOIDcoNiwoZHWF+OASwr2EIlxazIUp+1xkQ3k++gdlaYCslNhIIzZcL4Uat8Of/cu6OmIi1D4RXDXJCCFttESIpoSVJ0jt93I+AraIEKnn+VnUc/Dp47vwXpabcR0DMf5pTPNsJwYwC+eYZ2fQsiNDetlZxjlie5rLBL+zNqjKP5vn3/Uhfnv2PH2IPfU+lQcBl07lwfHe1gLZwFKA2ZzARhSouZjyVhbO12FFSVIsBDQr0CnF3JDCfkLnzUBscGPxfWdXl7LqPrNzosgVAtkhnmRRJAPrApYRrq10iavcuDMFCw4HfnLg5MzEhB2/kNHuISwlJBUj7f6T56+Uyr1H/eSoiFattPfN0kTbcQ1gJalEgWRZUKV2Kdl2aREuFFqrSGdNtc7pUgr5rNLudypOh+SCFhuinWnkBJlWqnmSJ3ImF1adoM1QiWx8ZaGByNB+1Ymi5RqsBP1KppZRgHKy5JTaP0hgjBkaMOsXJPGqxYio2gTJLnzxOQUCSHD76bwpV71fKb+LY8LxI+wkgzTGYFbadNxGPRsWS6bx43pe5xV+B0lmLnFw7JTcj5/HdICnLDK4etlGTdJA3JNDclcO6gDaHsVksR09JcfE6kOAs2Gm+u5SsUNFNa/SbrtCPE7jhhwohlm61tx0slbyHFNsjopo84zwXHhxBEpFwGdLqUg90OsQvOwqIqgW6woBrQQ4mgBXn9mxgxuHQzNRuBAcYljMfaN4AsgP3/coOdfL734I3//0e0siR34USA9bjRHwWH6wVCCsKl1Mocg9xU4kXGKY93GjcQwA37WrL5xTw1k8I6PPdfrycxGerNpab+2dm50yshN3jkUrR6XbfFy/FACCvKn5SFu5lfRM5+gMDA+blQ0LDjts2AFmhwWKUELCCAI+aj0yN6JogSlC2k6eFixBuDpS8Ceuw2GR0N//wz/ZFnO2l0NiSy20LW355V64XpgzVynJbUPbUsxQVG5RsUEyGpvkvhMR4743MXcg4Mx5MjSDC/eEbjFvcNEe6NBLXrhzIadcX6jQz8IBly+LByyZPGfkWYLYsBWd56xNhJMzu378/d/bs9PT22+WHIgdbcjZWVw6RgSyeng+mTrr/pX+zKx8itEjn5GNk2ESn/O42IjuYqxQXAumZ2EGwQErdrFZDJQwZ47hKsWKzMKEsanUgqPSOHn9N4+AE5ybx/xO3REyg+DF0kHgKfE15pLJr6IhKC0SwORNseyiWnViPWAHEnE7dXWdJoyHRp7oML0fwk9/+EeRnXhiNwpA616LH8G8jvA7S7CVGxCUke1WkWUDgjM9Oan4hUlZqcjDI4UiNxDk5qc//FGnoj9TkO9Ti2NJK8vPclFBzuIqvvIWp9P9r8+TEtxV3cKSgwrZjQaZoW8QHArnImERYNwgMbG98TR4lCPkxgiO3m11rDHF4kJ///hP/1XWgqdSGOSgKd0Kg0WDpH8omY1ViLESOF6V4JhCywegG8lhxxdboaMFx+KT1LYmkWhOOr+JucOcRaFiSbP5qn5SUNSQLyNjIjcoYEoppIvf4G6E5POcLc7Fc5Ww6FAnzxfZqP/xv/x3sywy7ihzsKbPWExZSMT+30GCo7mHnIAUMt8gMWmsbN6pj7bJQJjZ/MljagAW/of5IKwsyF9kCAJMYeHRbFZkzQPdJ9Vd+FP/2xE4CwEnOGeh8gA/Q9CkgpJkpYQwYUv07IxO1pW7ieBVksLVSABhbanTqgwlijuHrLWYyAl2xZ21RyCs6uEzFIHF6WilTSxJo14Ifl62CpUAZKVbbOWW2lWud/pK21AeBOymLKisuilYN7AKcNgjgpMAatwEqZjlxlahUcHcpEC1e8k1U60+gCnbyLG4sFWYE5DBG2UBWbMzk5RfaFoKkCAZxoGAZIhOGg/IC6SG3WGMO9iQ9M+Uq+qpbeHMo9bU9QuVR+E82qnbsjE9/vEl/zASKiVv46OcPyRcxN3G59yHuUMyQiyE9Ocm3Js2N+QaskNGhR2Exwiz5g5to61YXrB6Modsnuua06UQJ/u9+sRiIgatxwSMxIhxHXFuPDNYFjl/yjI6a8xSgegx7syNOD/uFslhvuG6ZB7xLNFeCDBzjrGE3EHCOVetWQH9meqYJDH1j3dwYF6S84ndZKR14Nmlv8gi6ib+i7kM5lxvWBRW4n87AqcQcIJzCpDH8E+sGAgPcsAQhDs1Pm4xASS3M4IjAoBAwUWCgoXg8G8UTIwliNlKwcr87/q8phYCg8leyjkJ4tsCU1yOVPG24pZiQqnQbrbfUuKp4vEMJVLJ3z1BGRUZ1hXwR0lw2GZL63vDGbfGziHnQS1brpzxzx+N3HBqO9YAVtHE1xjZlMKB5GAZSbFV5uKSRY1YHEhRm/LhCISScUjK+4QyX22gIdlkvMY6RaZe3rEGJeuIETYpNSxuKH2Id6ULyppYLO4JgTErpIghVgXaRhuxxEAuZY4Q8fo6E/Tp9oFVItu4aOib5djRO8QHYsp5XNFyJJeUkZm7RWBO9+n0v5lvWDzZzUfMEP9GBtgzqD5DxrFc4d7mWWtgLAsqMYyEExhDhDjeZUnnTuHWM4Ijqw3yh5e5ubUAOFTqCS+OwEUIOMG5CKH78j2CVC+EZowViOZ0rDQoIlNK+WtYvbMCxTVFpuFp5V0haBjFhwBGsbYRV6MDGQlyheigLFndmo9c10AeUpHMUskLZd3MFJ/uRYntiUGkSZDZF9f4T+wn8RDkC4nZXaOyoNK8pSJvreB72xkmHE6uMX1+rNCtXVyfbxPXoZRSe3m/qVJIthDmBBKjdAmUbuMsH1nVLBmcLG3E3szPzYU2Wd+4bmBohIG26yEExEExbqyu2RFGDA94rEqJzM5MGcHB9dGpAFdW3MnKVthX67vqRFnhpuHfokKmlA0n/btY4fsT/GNgLnMToPkVJJs5B1lY14od8kDcFONqik3EjF1izD928d2IBUdYYzWye4rggD0lWiIglYqjkaVzUYsByAj4cQ2YqNG6EpzivAcr+puS9oFFnLPM20i2qbsKMPRbq4MawCfNR6vj1FzkgisU2pNejE0aH9oVH+H4DIN9uq6U2xgp1Bxjdx1zzUiIFg4sKAiOZ4yxyrD7skExNKQZgNCle0LYwRcL3spyzsj8qizLZsHRvMS6ym5H4gCxEEULjg7Ejc0tpYl+zSNFwAnOAxp4yAk7otbXWGUu2a4l28ItoYsww62EhYZg2wUCHSVwSNKH64OU8RABBA9BpL0Dg+HZy9faQj1sgovP8X9zBk9cpcXAVIT3BveTkmL1BWlqVII6zO5YdZJZH9M+VhQE52UKO2mS4k1Cl3osMFqrwlYpQKwAHISIoEZY2rv6m1bFBD/Wy8XB70j8h+VqWTu6yNQLEcANx+6iQyUlNOuWMKRfCF1TyJdpcBmvRZATf3AopYF1plvBp30aF5QAJyvTRlyMUwr67tU4gT9HUlDqZVlgHNsUPI0ViL5BHlgl5+bnlYPljSlR5gzf2Q4ylJN+x30hPIdSTly/p4NIt/PHBxAfE0lTxhQQbShWGHtW7rPT02GvS2MvhdSo+yXyyBEexJeMfx4LM9MTav+yzU8sGowLCrND2/dJO8C8uwmCA95YwdhhR+A5GEL4IS48O1ghPmubd01drSw665rPh5o/XQrojru9UrA0uPAspiMXmHvoY5uTcr3xLEFymGM7jKPGlKzg9JWC8oYccA3PDvVd9tlhHLmfjWeeDfBs0BbmAsQDV9CBxkQmF7sO0hafhdKTHNIXXGuQQjBrFx6QFWTPtt7ZPfll7L2IIPmU5BbVQgnrIZhxv7WVVbOKTSg3EGkR5mZmbC7TdwgRdfZr3vcPDBnhpU+FBNEA8/84Amcg4ATnDFDu60cmLKVUEFyry+x4mrfVVFqpETsDkWE1NSFBQn6NmKhvyuJqcDEhPFAsbFl9/uo7206M6Rmhh6AnT0yjVraYoSkIS5L8reh+q1JQkCfb7SBFgbJAyZmg06GWXMvhkZcpZlmQoEZI0w+EPEqXPqI82Y6OsG7YbtDuC5n/RdIgRWb2V39wcxD8iJsGxWqZjaWsc/otGYKxfNBGVqEoezBEmaPMIsHRPfW/2yj0mfaDAcqjWxY1iCc4cK6XEZy8qwSyinUBdxxjyKqXcSMfUba722KnVuRaQekuLswacWO3CnESrNg7sz0iQt32G3M3arwhxNubirnS8RtGqnQvMGTbOtej9MGsWAFXrB3sSuNadgQdCt9IQA/0+Yxl8x17/8ZINvOHsWXeEGtBHAzkAaUft7QXOjaK3fV6n6OsuS+WT+YGGIIluBnB0bPzSXOFdoKFxTdpemC5IPM0VgdiTnjWsEzRJ+ZsnINNGpsYDM64HokbVolwUC8WC0gehcNQmY+7nASv7woXByWTHBEk5o+dBK/3ZBlkAUDbGRssZpBKYoHIicSiBILLYgFizzwrpdgc1RwiOJr5xoKBBVZMObFvz+kXne9G24mrIvaNOQBm3Iv5yCKL/EBk2WbhwfPNNdGK2Rn6ROD7RHDYcQbRTf0ppX1+zeNFwAnOAxl7hAeCFaWPgEShoPhZLaUdIAi0TREcVlSs+mf1WtMBf6y2EIYpidugdkQNPx1VTpvntk05xSKwcodQoHCwAiSXFQqQLMW4usb0HcINRYGiIj6Ebdrs9mGHVkkCWsKS/9Em6mH1DmnalVDm2AVWxSRMm5RrBjKDMoIApIJSYteXCVPltcEK0L6Y1b1xi8RAUbbqcqgmRI3YDu4B+SE+AiFLnAX/RsiW1OZ08zK+I8TjttqY4ZbtwwPK2wOObDPe0woZ8sj4ssMKQotlh3FstlV1q1l9RkZfWD8YJ5LKoYTZZm6xUiKBWB06st15gtMa7yllZyt9neLMPRhTMGHFDfFraIhKGHyKFeYau9eYNyh7tkiz7ZtjCFC05FH6/PG9zrv6ZKTbiKbmKzFfWAF6dDZXR2d3aNZ4kmyQ+VDpApHn+cGNghVnYGjIgorBd39Rliw9Y2BHv5lfzD/mPqS/sbFZhERzVNdwJtta3g2MIkc5Y7XgWWJ8mKN2iKqwZzwhex9kTUWxb2ys2iJjG4Kj+TqhhICQV/p/qDlRSoEEJJKLGy0tSHhWeAYYy2nl43n728/WXwgOzytpCbrkloY8lzr3zUqkdhGHY7mlnoza7yFIED3ux/PGM52ChMmRlQgOcwSCExdck2YFpo9mFRJpItcTlmTmf7OwA4dIcErDohS8/JqHiYATnAcyrihhXBRVk1W2up+R0ECIYpWB7CBsEFooLVaEmKaJxWClhhJtbGsy5Tk4NKwcMa/MPUUyuDb5vlMgJaSBz1ZXcibkEaDcd1MCmm3gb3/9RfUumxCy/CpSVig2SBc7tFgtsuo9EVBng4/w4hqUDUKuSxaIbHdPdMuIgKAEZibGzfyNYCQrLD76FIhIbptnda9s9Q+5GVCf4opQh26qDRA9SBcEkPZBlOq0ksQCRDZn4loWFOjIShdT+G0SHHDg/sSFoPDX1hTgamRS51QJd8jJ1uaRyMOSkYkuKSjM+ShSSOHg0BNTwliBIDbERWzJKrPNmIkk7UtRJwWNlcTiJzRnoosqHjoZ5008ANK2MEuRMQ9QbMytYmVVc+zL2EdTzrbNV+3BMoHVCFK2LKsf98a9Ccnmc+ofUqI7tvGTqwirEkoRYnUTq3bw5l5YFnqF98vvfxIWNSJiH/L4HViw8YFIDnMZlxXzru7YRSW3k+YNJJBx49UrayiLAjCAvHWLQCzrd1XzVUbWmZvEWEHcyaJNNmNiTXZ34qnmC7IaQapoF8SwFBy4lvglyAEEgsBefke7GH+sJL/+R7WIclyoMN4Q0R/+7g/hh9/9QRaemPCz2NgWfm7t0e+ZO/T19Y+/s7lB37E0InsI0MaSx/OErIDc2OJC7cStDYFDdmAphFgha4zY6NnleSa+DFcrbaStXhyBUhBwglMKSvfkGoSEKX8JtEgiWOmo8dJBUQ19HWRoJnYJUtxOmH6Hhp+YcHqmgx9HtAoj/wpCiJU+rh+uSQSHVSWKJ8ZmyCQv0sCqEDMzwjW6u1DOBFzGHU2sbhF6tE3G+XNRRYihQIkNwWqU1WoaAgKJo48odwQ3dbFzCzLX2z8k19qACcC+vkFzs3V0dKkfI/Y7yA3Xs6qE5LFbgwM4yRjLbjCsN7xSnSjc8ywU53agTF+iPHihRHvlotpVoDAB4WybBsJ4yCGxOHK5abs/RBCi0q3Ei5BDrHGdss5AbNc1PmBH7Aukgu3OMbt0XBGba88mzEnjGS9mDyeOs8ofEmHqHxi2+rCunVdwz2zoBHmUNy7DWH/8BdVCcoj/4R1XSq3qxz00PPJUSe/+aNvjGXuIdMLhvPuV4zvuA7Hmnihri0tTLBnuFuLWUMLMPeY6FrOad5EMRtjiw0bfmL8QGhQ5hXg28vkQS9Wl3EZYhCDYkH8w4jni5HgsXFiQmPu7uFw1bhTqM4upCArZZC4qPINgaUkDRa4gTPyM/piLCquKyM2bX3+2qmg/2/EZa4g01hyuLbWAm5FCPX8k49OMsn7NK8EmWJnLTm64BS0eLI+SLF8JM+QQrmvmGnOE54/53q8jVJ6/+l6JOF/YIgVXq7unSh0Rvw4EnODcw3mAxQXFz+rW9M8FfUjKAaGJ4ENQQlzIdIsQxL1DXcNaKZHVFwWGIObauEqP/nysAp2yiAxChH74nSl/VlxYg8xVYjRKfnbVT7wOBAjXAis7ylo+TscCW9XwJMi4T2GhvXzH55i8X0jI8e8OtYkAUE4zR0gfkxF9hwWHpHjEqLBaJkiV/tGvp8+eq/q4uwhiYGZzubtQHoaDXA1pBU48AUKUfkNuIAK4fXAvpO3yKD+uuUxJsR1YWFJhpY6FjLE0y8mpOsEhFZQH90cp4u4Y0BjwPX0AB/pFe3GNoIz5G8z4HeSEFfC23E2MIVmdeUFw4o4sWaqkOFForLb5Ha/jeBGNZ1Nz3JVFoOeQ3Je4kMCOexUrrLYTZrH+GFTLKj5ZDqmDvmek0HBxkDASq8nwk2ehW2NPe2kLJc0Lu17XQrghbxAkjtiA0EF06+q+Jl78HtLA9cT0QNnAhb/ZmQbxwN0EA0iYM/64knpFlLF67O/JJSVCZ4kVNd85Yy0S4ujKYX7xLDJnmUPMfZ4hLFKjOiUeawTj3NOrozVELrgfW9FbRCognsTaMKcta6/axnuam7QJss3YYO1Yl1sZ4sROR96ZW6fnY7R+tur5OZCreVQWo5+sDoi9xfToXtTHi7ZAaBhT8GQTATIibf2mndmNbvuM7+kX1kH6SUmY0QbGi8L8xCrHHIqZm5WQUv2Mzy0pG2KMD6SGe2HZY0xwFXPfQbliU5Zx4gHBjj5xL7uf3hlXfst3uLw4+T4Vnit23jGOkOvThTpoG9hBppATYJEKzzsyjHuk/qXv/P3+IPC1Zrk/7X6cLdVzygOH4OMBZFdNFMznwIFA0G/4nREOlImEEEIBIYXAgkR0aeVvAZ160BHshYqF2llZHW/RPHxq/0aosN14Xi9M9UnZooBa83EGbO2ElLCim54at2MecGmhgBEcLRJECNfCYgJF7UXosQJFeVAHbe3QjoplkSqEGYLaFIqEHMGNCNUhrf77ZMmhD/ye87HYvYGVhuBpyA/WDlw6WDNwP3A/Vtv0n0M3+TeCl5ifOfWNXUDsxKIuhHtUAKU+OhF/YlZQILiPUgEb2tPSpgRpUsCniV66jncEMXEh4MbKFgsbwpsdYbg2UOy6kwiQiBvKS9dRUAAIcmIYGH+sEongQE5RluxII4Ejde1JmXOiOsqEwGzmAS/4tZl/AAA77ElEQVTIWLviYTiSY0gupC6d3QVpiRYeu9U3/4Hc4GaivRaXwj3yxBJ3WTyGIR4yiuUJFwTKDDLGC+IBLjYf8rWjRPmM8WX+QWoZZ9pIrAmYQkALCxYDiEC7rsf1wu4ddkcRa8KYkMSS7fdY8VJhvvN8gDHkl/kDSZmXqygnFwuB+sTQQOwhJ7AmrBDMDdqRYnggtGCPq5BnDgtjowJ52ZrPM8f3ObkKcedhgcX6wVjzjBLkzAuMCfZmvpu7VzF0zGn6Tz8Y19Nzh38nUoAFhHnDM5RbiLFaWFyNuGkMrb3CkzEguzXjxj1ti77+xp3JoqRRGLDAYc62tgpn3bewIGfAHswGBkeMAJFqwmJsZG0lbm9TmIEb7jesj7SLsWH8IJud+XnAc89c5Z25bbJHz6Umg90SqzJzFNkRZWGfzcfUHmQFaRLqhJNZH/O/S98zj5CjLAx4prF4FmLIzi3mmVmb1C8v9xOBUqX0/ezdA2s1gp4XDzVCBlM+vurzCtfzMPOgZiSgyJjKioUVDr/F9dMjIcsKhjgUyAkPeqFSoX4jSBJe9r0EA/WgjNjmOzXxyXJXYLpntwkrHxPOEhy4GDqlGPl9JAfNtgrd13k+CFHuy/WFJfWTd2JoMrIeYGVKK0rIFEGvrGZJ4Q8e1E0Abv/gE1PCCG36YatkyJb6zO4NBB8xALzYYs1qXg0x4Q8xYhs27ULwbkkQoxTiuUR1ci2AU4/aIfIk4nBRUfMNR/pBeyCkrEpTQUlzcCXECmV03plQrJZrhHu1FG9fv+ISni2aMsGaBdkDI1NoGmvuRx94t7EX9hASI4FDuPGGTFEvK/B7eXnB4qNQeCgfrBIIfu6HBYagThQMZKC7u0/j0W1WP3ABHwhLscLvOBbixXc/Wt3MD9pr26c1TxIRYCs7c4mYF/BlXjJutJ0+8EqFMUUhQhAgdpAsrkdRNci9A1mHjBQWfkNbUJY1VXKDae5DuBgPFBu4oECjCy2vQIUZZAUlZ64l3QOrAm5NSO/87Ky5XtZWlwwD8MYCwLMFyWInEfX39PTbnGttP0mCx/157mg3eBLvBWHCbZW2mzNX+wYGpOSHjKxyThwuP1w87e2z1j3IA/M+zfXCPkNqmzIig+oXZLe2VjJDzyGxebgysaZYbJXGG4IAgaVNAyJi/BvywzMHnjwkLKSwyNB2XFmQffApLDzjkDNeXN/a0W7WXlxeEDn6CZHj2TWiKyLO+DE2vCBskEisZowv+EAUqZcXBCqV6LLDlaiFh34HIea+qfBcUac9N3IxFs4hronEVWe+aS4x51gY0e9UGDvkDXPH7l0wB9M1/n73EXCCc/fH6LiFCGAEFytLVmU8eKzYzyv2XOp3rE4ROskEbttWJfwQyChaW3nlH+bz6pOkiBYRrbi4P4Kd1VdfPi6DIF2UvyWak6JB6WIdQcAgVCAsCDdcFPqp7dTCTVasIGA4KptrWBVS74AUK8qNxHXgQb22AmzXilcCn/4k0gRmMtKYoM9KKLOiQ3CyOkTJ0QY5F0yRIeAw+/MJyoqVOQqE1TcE0QSx8IpKlJ1qFxf6TTwSRO/19z+ZFSn9iuDtNrU5HoeRlcI4v07qwlqBEgC/waFhU1K4iWzlL6KIUIYsWGI8lIJ+Q0Eh2IoX8qk+gRmYdm/2yXojK4TqoL/kXqklK7W+R2GwSucV5wmJ3KT01U5+n+pO/Tn9zpyC6BK3xTyxmBvVTzwXViarX9eYdc2wj+46iEqhMiusF4UG/mAKMTLXm8gScxts+A7SXFiYC4m4QuJwEWFtjIoVss8YZK1Phb9LfzPH6Av9PTrqU7s5woT0BJHQQwptFsmNxL3AJ+XxseR3mv/p94abrmZ8UKw8K1glN4djJme+Z5s+94BIsBDBPbWdlQVHcx4scY9RIEcQdshgsblDm2kPJADiyjgSy0XbIfFkuOZ7xhU3X5faBKFj/uOOZEHDPUkFASGKfWuy/kPMixXmD/fj/tZPYUg8nMXsabywCEVXZdxqz7hitaLPPIeQazArRi7Aje/B58noS8MLi2wqkCosZ/QFmUc9hcWsfloUYEUjHQYyA5mSCvMK8ss9uPaiuZ5+5+93CwEnOHdrPM5tjREKCQyE1JPnL0xJo+guLpgS8nkxTOHHFRFCCAKB4iMHBg9xMcVi9+B7/cEDn5GC4eGPlgkFAGslZkpMgjGSihgkTN0IbRrASnlk91k4oM3RdGLbaxGuxQq/h1ygZBCu5hqRYCY4lXqszWoX96BdCNXUH+o0waYMc7iYaiQUzc2jttJe6qBAcOz34KDf0zY+Q8gTb0SiO+6D4gEvBCaE4uICuQGxaKlCCbE7KBXaltqM9Ya2Fy157FmR2spdgt36oDYSpMm4UR99J5YhKgdwj4Xv6EO1vqOvxKugYEzJgafq4MUYJkz5TXoZpqqbcWA8IBhcd16BGEFwzD0mBYZLit9bPAmBxanN+XkIFrH+mJzurLrpF8GmkDP6D7lgHImzwLpVp3HB6lJYwAOCA4kpxCz1iftCtngeThcbd31erb5AolDEzGMsD2DHvY9zO2neRGzi3I/PFvNRpCWPF7hZv+mz7ouCpk2JbBim+WeV76OlUHMRMqLxsfvqegpzIRE7XFanSxofnhvqArOevj6RC91Pz04knTGAnDlBO61O1csz0CBMOoV1vGecI1xHH5mrjEW6x+l7k3qhCtKpZ662K5LpY8yYZyJtEF7EwPE84PmzF/MgxsGdNSbcy+a57kH/IwkbsnamdvAZ7eM9YZ6+453fMdeYGzwLw3K7FspSfgtJxTrMs1Wsn4V1+t93D4Fvn4q710ZvkRBIDxjv1Qg2vbBE3FRJ9+d+VTLzIzSk6m11X3IbtJq6TOGe8b6R4CCsrlRUT62EVFQWXyu/K9VX4o9OMIuraBTNVUuqC8EPqeR12WJ1CAeUQzkK9aV2nVUf9yGOB0KOEsHdVehGOOs3F30WFSBktzgpPl0H7cjUKuZM1q1SS2G/jnHTj3nurlNSvfb8SPmHq0+Jc5uR7sNFRjK419ee4HN/z5f0tXSUT2SUVay5kegiY3aKc15474suSKRInTMSE068Sxf91L5PBAqidpm5VFLlftGdQeBru92daZY3xBFwBBwBR8ARcAQcgasj4ATn6tj5Lx0BR8ARcAQcAUfgjiLgBOeODow3yxFwBBwBR8ARcASujoATnKtj5790BBwBR8ARcAQcgTuKQHmiDe9o57xZjsBNIZC2QfNevhKDeAsDRgv/Lt99rl8T7YqBnym0VEGnJe4+SZjxzk4WdvkUHhNA3ex4YZcPwbn8O72u33KvwRFwBB4qAk5wHurIer9uFAG2XLOdnIMWy1LyhAHFzi4U2wauz6TZy1J9uSqhXexIYYcbu1HI0ZQKO6jYwUPaADU8fXzmO8SGU8bJ8bK4EA+XTMSHLc6WSVn5e0gpwL2uuxvrzEb4h46AI/CgEHCC86CG0ztzWwiQx4QEhpwVVY6ChQJiY/lZ9Df0wCwi5ai8XHWoXclqQ24gssKSaDAV8tFATi6ytkBkIDfkg+G4gvHPY+HD298sTwp1kZOEs6kOdUTIUeg2HJzgJJT93RFwBIoh4ASnGDL+uSNwAQLJwsBlKGZO+Z6dnrjgVxd8DZnJEwfytnR1KTOvkq2RYK6BU5plLbkrxZKtiXyQeZaEiN/9+Dtlhj3JIvxMGWKzaj8WF8gaifjOLkr6ZhacfTuBemZqPLz/2y+W/I7r45lQHLegYzNkJSI5mxdHwBFwBC5CwAnORQj5947AOQgkkpObnws//+Vfw1/+9M/nXF3CVyI3tSIxuHa6lVL/pc5xehl+tOy51dWtSr52d5Q72WDt/CvFxXC6PMdRcBRCKpAbDtokBT+WHKw9xYplUpYVbENnYnEY6Mf375SZliMQgp0Hhouqf3BEZxRlv8pYW6w+/9wRcAQcASc4PgccgWsiAMlZgOD8+V/D//qf/+N6tYngkB6+vq5BJ3G/sLo6sz2WGp+YlrtUyALLiyzFpPR/9cNPSvFfEGSdt0ZhkbqogCHHEWxuRoIz9v6NnVfE7zjugYMu11dX5ALcFsEp5XiSi+7o3zsCjsBDR8AJzkMfYe/fjSHAmVAo6VRQ7LhxeFm6/HzAcPr+zPc8wcE6gusHlwwkAtdUKUThzDor9GFhewr/vsrt+D0WnoYGHeSoA1k57JADGSl26rZIDgcnQv44C8mLI+AIOAIXIeAE5yKE/HtH4IoIoLQhKnZwn2JoCLq90Aqj36SDN3HLcI4TZwKxm+q6JOKK3biRnxnBEYnjvC5cXYMjT0UW46GSYJDVqc+ZTIsFXbNry4sj4Ag4Ahch4ATnIoT8e0fgighgdYHQtLR12KnRbXrnROeLCvEqBOUSgwPJgRglK85Fv72f3yuwOr/dHHdXX/9gePHqtZ1uTn+aZMXiNHBO3oYsYhHz4gg4Ao7ARQi4pLgIIf/eEbgiApAU3Cs9UtgDCrbtHxwOvf0DF9YGMcJK0SIXVW/fYGhX/hcsGw9ZsdNfInXaO7Lh2YvXdlr60WGM58GCle3q0Q6tXov38S3iF04hv8ARcASEgBMcnwaOQIUQIO6GOJr+gYEw+vJ1ePn6+zD6/FUJd4tbxWul2JtEbIzc5DP5lvDje3cJ7ikIDlmK2zs7bdfVkFxUaYcasTlYtXD3xes8BufeDbI32BG4BQSc4NwC6H7Lx4EAijklwMOSw26oHrmdSi1VUvim0LFuWBBulSl9EuId6LW7uxN2tmJyQb6vqmaLeV1ozDRZxl8+S9fu7e6GPQXt8juIAy/qjsRB5EFkirZidUqF31MS0eBvtnMT/MtrT1mbqZO/bZu3vtPFXFZSqZe7CfLW0NCYTxhYbe1jp9TmxsZxXebq03XWmqp6y+ZMFM7G+ppdR4LFVOgPbizqTJgdyhK0J6x2hQE7sMg6fajEghz9YJmi65RQMZ8dGUwsa7TG7rwCJrHP8WiJ4/oVZA7GfGf1CMN0D9yM5n7Ue2FMVcL5vPv5d46AI3B5BE6k2eV/679wBByBCxAwJQeREHEwMnGZPDZSjtUiLfGoA24kgiPFubuzHbY2N8Pq8pJtT19cmLVdVtyjqanZ3Fo9/f1GYLhua3MjrK+tKRnhStja2pTyPbDdXvUiAS2traGlpS20ioAR41JTk7H7FFO6KG9y3ZCvZl3HKpDgcGNjVSQnnh9F3aUWI3y9ijPSrimsM3X1ddoKroSJk+NhWq+jIxEmFXZOdfX0h57ePrW3LTTgrqtpCitLS2Fy4ktYWpxXhuNIxOgL7qysApUhK5AYSN7qyopey4bFzs6WMNyx2CYSKBLETKxTh6xHYAKO5+XsoU0QHM7LgjhCxtZU94pe21tbymi9ZeTPdtCpDcRQNatdLboP98q0tuiz6lNjS61eHAFHoJwIOMEpJ5pelyNQiIARlHhWE8ouKnFZIK5RDkRwsFhAWOZmZ8KXT+/D54/vLT4HK0Rbe6cZUVpEVup0T0jNiojQ4sJcWJibtb8hKSTRy0jZdvVABnrDociEWT5k/TghVLGhhRYcyAIKPbe4cFxnbnFObZKFRMQL60ipZciOXzg04gcJODpqNBIy8flj+O3nvxoRoy7OnxpVXI5Zs2TVisHbTWEpt6i+v7OjHWgjr66e3jDy9Lldi8UEyxSWLpIHzs1OWf857wrSB1kizgkyxFEb0epTbZafi+KdjODIcsVYgPHcrOqfmQqr+huSxpEdZhVTG3BTRtLVa/epwWKkdoUQSU7CqxipTN/7uyPgCFwOASc4l8PLr3YEbhUBqXGzlmzLEgNxmZmaCGPK+ovSh6BgJTACkpuTvacqLC/lZOnImaWFRHkbsr6YawWFzvXa1YWiJ+ZlcPip4oUGzZXW0ZWVJaPOSAO5fbiXESUlNOQohanJCSMjmyIL1AlBoF57t78PjGgVkiN8TFhGcM9AVsjxg1UGYsS/ISS0HbIw9v6t1QXYWJkyza2hu6fPyELTPlam6KKi/xC86C46DMu5BbMurSwtRvecCNeWrCpYe1aWc2FL9UM+sLzQf1xk7G7r7vsky1e/ZUseIBhccVPWTpHEQuKB5YffY8HCygQW8xBHka1l3RMLDvfDdWcWJPWLOKpmYfz/2zsTr7aSM4s/mn0X+77jtt1xpyc5k///D5hzZibJpOO0G4zZd4Ek9sVzf1+psOwII4QAAV+dfv2E9JaqK6vqvvttqDe9Uqx6NWbG0isy1qM9n4NLjY715gg4ApVDwAlO5bD0KzkC944AhAHfF0xPkJd1EQ3IAAskCzYFL6nGvbq0YAQhvbtrCy8L8xmbFl6ugfmHBZyIpHopP5PTq8muzstmZ5Op6dciPu1JrdQSiAM+NjtbW8nS4lzy6eN8sjj3IVmYnzMVJPizXJi/CT5DXNf8fUQgeI3/S2y49GD+wdcHBaNTZrHsWMhODJk613uWyVjK1Me534zIcW5HKpVXZqZMCYmZjHO5TLIhgrOg/gSCdZFs65p7IjM7m+vmo5OV0gWpgXRACjErmYIlEgYBwWyIWa+rp0fErif5UfW06Cf3RBGL4esajA0DxSaztyfT4Eby/h9/S/759/8VyVnRPXIiZzkjVahc4AYxwsTI2FDvuFefougIeR8Zm0xevfmD3Ruljc8gqd4cAUegcgg4wakcln4lR+BBEEBRCSTnwBbzLRECVuUGFePE1INvDEoGi+yBFvicnHEDqaFqN06xcgzWQs/nMRQb4oMTLst4qrNbZp5JW5i5z8nhkcxbUlVEJObe/xpIzsc5GysKiOXp0b3r5eAsTmMOvJiFUGYwXZ3pXjQUpabmJgudR62BAMQNZQoyxHn4szAm+kmL76GO0E/6TYNs7IlsbInMmDO1xoaycirHa8Z9eMDYc3Yc54QNJ+PggwQGnAfp2tnuTNpVzJNCnuThGR2bsntATiCPYA5hwzS4JYVpaTFUPP/n//3VzF98hn9UVH0gT/GekEDGAvGDlKZ3dqx/LcrMjJIDFpjhCs1ihaqRdcT/5wg4ArdGwAnOrSHzExyB6kPASM/pWViMtdASct2sauT45FDaAL8aFmoIAuabPSk7KA6QhBMpO/ilbMlPpV2mlMzMK4s2gtzkMllblHH8XZQpaGXpk0hExhZjFI+hkVEjBDj+YnJiMd831WhXqs+m+QlhuqFBcHC2HR2fVp2tqWTq1RsryUCeH0gGpKDcBoGLxA8TEmNDKeof6gjqSV6tgcQd43gtNWfPzEq7RhaJ3AIjHIWNhNBnKTmoYuAGyYKgYD6bV52s3//1a7Ky+Mn8bSAjkCNMUB3K44OzMkVIIXhcF+dmsMCUBabgD6lZk4M0JjpUHnyHmkRyvDkCjkDlEHCCUzks/UqOwKMhQPTS5zPMIorwyRMcyArRQZ2KUoJAEEJ+cnqcrGphxhzCwoyaASFA9eG8ZpVDYJE/F1FJThNzoCVKC3+TTx/nk2Wdyz24Hr4ks29+Sn58804Oy21Jq/xkWMBxtmXDNwjyhBMuTacZgUId+vnPf0mGR8ZFjkaU3C+V4DwNQSm7YXbTNVBKMEehhvS3D1lixa7uXlNICJ9HBcpK9YHEQFwO5WxM1NOJyAilISAjkeBAboguq60lcu1Exx6aejP32/vk17/9NZj0NDbMS+3y4xlQMkd8mUbGJ0NldSlnjB3suBfXhiSldS+Uo76BAZWg6BeJUli/yCEkx5sj4AhUDgEnOJXD0q/kCHyFAOQBXxmcc3nyx5kVYlCskcPmB1QWEQ9MF2woEJCQuBU7r/A9VAyUm5SUFSqRs+CisvB3VEggM6gHsBR8bDDTQG7I43Koi6HOsJhDFtjv76dtUd9VKDYLNGSgVU6/KDGoD8Oj48n41IwRiBb5/6AQsVjjuIw6ROTWhsiOmXh0TRZ6fFtQO/AXQrXALHSKCUef37VRx4uoJaLDRkU2Rqem5Tw8ZGY0CAtEhignHK8hGSgrmMQu9fpM+DFmxmjmMJERTE+oUubzJMWHaDRMVGxB9ZF6QzJHKVkzr98aHkPDY4Y75AklCTMeuO+LWHGvbHbf3icKbHNtxZIbWiQbBO8W3/ddsfLzHYHnjkDx2fa5j9rH5wg8AAI4s5rpR4t8PU60MiFFc823t7eIGx3DIjw4OKoFc0QLJ4TndqYbQpMHRWz+8MufzZHVcq+IkNSKWOAwy0INkcIcg48I5IYQasgY5hsWeEgPZAmzDJFHEBQca0+kfrAAU/SS4pfUyuqXvwob98VxmDHX1zUYAQph3L8HAqNrn2vjntwLpYV7QN5QW37Qe7y+a2sRYSKZ4qQIHqHlZJAeEMExgqf7cN+oWPFdLEhlokUTF/3HZ+hcShT95H2IEEkFITdsODGDG07VkDWKg45OTCVv3/2ichJSZaQYtSrXDbmBULTwy8EPCgw3RGAhWZiviGqD+Hb39ysSLWv3gwDyPXlzBByBuyPgBOfuGPoVHIGiCLBYZrUQ1m5KKRG5IUfK5vpK0WNRHohowtSjVVWmkU5TRRSkbOQEYlFKg2QMDI1osf0PU3HI7WLRQPnzURR0A7sUizZRWLTgECuCI1ITFnZZqER2SCYIAUKFin4qKC89EByFPPexydTCwsyGozDqDFFJG2vLVkeLPnB9yMWFTGnmdCtseO+K4OizShCcEHrer7HPJjM/vklmX//0Vf2vmOQQoocvDUoZDSLDxtj53uirJS3MExwICvl+0sr/g/oDduQRglChko3KLPX67c+WLBF8IKqxgcv+vqLZdC7KEDmEOJ9/G/jl9G9vmaLDvWmVwCHe2/eOwEtGwAnOS/72fez3igALOOaOzL5KJuhpnuRyOPcWayggVB4nPBmTCudxPotuOY1F8rqF0j7ToouKo/9de/m44GN2imoGB7Ngo4iwYRLjOvFe7DGz4Zdiyox9XnAPjYdxcT32ea51bR/K+uBq7AX3vboQuASVJPb56qNrXtBXiCGKVDDnndp4yV9D7Sz8nMhzA6lh3N8qMLxnGZblb7O5tmZOz2ALgbRoLyK/9BpCBbbeHAFHoDIIOMGpDI5+FUfg3xBgwYqhzSSwq0vL3CRSUKyhcvDk35XtMZ8W1BLzW6krwy8lv8DbAl5kjWeBh5iwmH5vkY9EBDNLIDh5xQUCI3MaG6a1wuvAl+w9vcA0A9kJ5SZCR1jY7booOCIO5RK4YhjG9xgTJKPY2OJnoV/fJ3jxeig65OdBvaE0BSoX10ctIgKsUwQHUyAEh3w335IUfJ74nGro+OugsoEB3zGEyULbZbICj0t9L4TMe3MEHIG7I1B8tr37df0KjoAjIARsQY0LrpGK4qHQYcENhR6DIlI+fFf35L7avm7hPRbhQmLy9THhr3idH7iO3orXsgR+psAEFSaSFPtcBAYHZRZwyw1Dfhi9FxvH2L2/IUbx87vuY58L94XXtD7m+xCPKfy82GsckAktx1yHkoOiBSIoM5AclDfInEVxQdxEbPFjig0fHgvbl+ITCRDHElGFqkfIOv5PXzD7gle8hu8dAUfg9gg4wbk9Zn6GI1ASAqg1PLGzYXqiojgFLYs1fHCIJsLUgT8HUUjRBFTs+Id4DyWGPpHTBYUJYoLKQHQUPikoD6ZQybzCWDmemlanVpeKsGpMLyEkmsUbQlEr1YfEgJhsIAcUw6z2ZvW/NI4wXrIhh3pbUY2C8DBWoqQoGGrESXWmYstm9oSXIqdEZszHSQSIc1GGCKMnwzR+SZeQwwIyGM/3vSPgCJSHgBOc8nDzsxyBGxGAoEBu+pWaf2h42Ooc8bpYgxxg8sHMMTQ8bgQgEJwvC2Wx8+7zPVQJ+tMqgoOjshEYERULtY4ER75CLNoKPP+KABEVRPkCFnAIQVy4GROKByYbiA5/V3uD1Jk5SWOG0EWCo0Hlc+9IidF4yZ9Tr0KaoX1RziCDOBSj1oAV16NxHdQe3osYuXYT0PP/OwKVQCD+GitxLb+GI+AIFCCAWcKKOUq1IeKIBHCoM8VaMBkF59yUsuE2qqQBZitzWJXy8RgNcwpKEsno2juWjJBQqgDSklGoNBFhiwtziiRSPhuZX8h/gxLBQk94+eLCR8sWTEQS5KheRInEee3yWyHjL8oQpK7am6ktIiUWQq+xfBYpQZGCsOCXg4M4PkoZ+ecwzm8bpCin3De5/X3lz1k3k1Q4BsWGCDb2OFzrD1dwvoXP/3YEykbACU7Z0PmJjsD3EYC0oIBAElLKlUK+GDLdFmvBH4S8NzpH5qBgEtJi+Ujkhj7Wq74UpR7o98rigko/tCY/7CqPi0xU6fMdlW0IpIeFn4rfhIdjdqEQ5Y62JREcEulhwmnF/KbPu5RVmbBqtta21qROJp1qbxAcVBdUluBsHRylcTjmPUK+ydw899u/TMX6djwcQyJFcMKMhR8P37c3R8ARuF8EnODcL75+9ReMAApMg8hKq3LbEEpMYUUy3j6VRl6eThGcU+XwIRsy2YuJCCKqyqLCVMkbxSGrelX4FmGOu7g4s7w55M4hJH5PSg4OtZQj4Bq9KkdAYjzKM6D6gNH9xIpXFmUUG8gbJiUID4oLPjUhw/GulLbgvF0qcUH1iS2E0z+eKTL2w/eOwHNDwAnOc/tGfTyOQIUQgMxgRurSok524OHRUTPLkAEY8oIvDpFFRDXzHuHPLP5h4VdYvM7vFpmpG6iXeY4aTRPJlLILk+enWL6YCnX7Xi5jpTRExlDlCCmDyFABvKm51ZSoFtXhgsja57fswYyKjkJ+wcTMkq7u3BJBP9wRKI6AE5ziuPi7jsCLR4AFt0VmpFo5zuJDRHFMIolQMqx0g0xVeyI4hDkHVYNaWPlEf3JQJtNvZ4dMUlKvpn98a5mFR0YnrEinqRYs5No4t6qbukl5C/xrYlJDiAx5i1LdvVb3irpcYITf1W0bFdl7IDj5SLRSVaDb3sePdwReGgJOcF7aN+7jdQRKRICFFkUBMmKJ/UR4UHUwN6Hs1MpfiEWeaCjzT1HuF4633DCUMBCxwRxF1XGUm6npV7aQU9XbyAJqiFq18xvITJ1IHuZGTEuQGLAhhB7fI6qAj4xPWYLGOoW9h6xBJYKsw1JdPVa/CoJDfSsnOKVj50c6At9DwAnO99DxzxyBF4wAEVE4FB8oyV06vW2OtNRRwlzTqwKRkJchFfbs7R+yqCL8U4j6apTvTkM+vLytoyNpb0+Z7w0+OPjdUHj0KS3iEJzGRnL3tBl5C6HtkL86S9yH8zQKzphIDmY6I4Z58lbKPx8IYbtwCuap4hmYS7mOH+MIOAJfI+AE52s8/C9HwBHII2CJ6CA4yuFCOPSGHIfZt8mZGNViavbH5PVP76TOvLEzUGIwUUEAMG/hpEz+nLhH/TCVAtPUE2ooNsFZXLl7REZiaDt5glC0WuV/g0o1NjFpUXMQldv44mD+InquHPPWE4LRu+oIPDgCTnAeHHK/4UtCIPqmhH0oYVDq+I0GPCIZuDgPtbQIh86x5esmQVSaZWZC4bm4CGNCtYiqDGOFHJ1p4aZ9Vp4XWhwKiz8mqqr3vbFeq7aWCJs5W0ux2lHlb1QaGlma8UnKqUo8jtXkB4LYsZFDKOKRv4zt4pjDvwfhAisswK7wWH/tCDgCd0PACc7d8POzHYEbEbDFTGHGIaFbWOxvPEkHcGTNIy6A5yIwOBCTpI5cL+RvYSHH9wRlhqR/JPTb3dkyxQLiEgp5Qs0oyxAqjqPgkAsIf5Wm5s+melh9KxhPZD2lAPJIx6A6odJ09/YlHWurNvaQ6O/Qosd2tjdN2QILGma6Oqk7nzW2qOR8RWz0b4G/uQYbJj/UoLo6DxV/pK/Yb/tMEXCC80y/WB/W4yMQFrGQII7cMYRVQxhuasGAo8VRCyRKh/lmGHkIn9x0fqU+v5Q6QxFI+kw2Xvxx2Pi7/qDBIql2traUwVgJAGXGwek4Luj0IZhqlMFYBIfszJYQUL4mhFe3yjk5jsuonBb80qlfpUZY2nUgapCzXmV0pno4ZirGeaLkfZn9PSN4JDfc3Fj7olYxfsMkRFVZ4VG9R8JAcMVfiaSBKGA4MIeCnV8isIqpP6X11o9yBByBiIATnIiE7x2BCiOAmQazzvbmhi3qqBoHucyNd6mpwYejxhbSVFeXLaohgudhs/5SCJPyC+3tnbbAt8jJFvMMpReyKjuwtrxkZpktLewsyPiSoEbEFtQcmaNQQFBw5IyL787Q8JhtONYShk6252pu+NmQxLBvYDjpHRyyMTDms7Nzix7DL2leWYwhtOSzQemB0DU0KCO1xgY2VkxTag0E8fT0WJmNVfIBdU6tU8cSKk4SSFO2RJ68OQKOwN0RcIJzdwz9Co5AUQQInYbgbG2u2+dkveVJ/6aGuQLlhuzHI2OTUjqkIGgtjDlmbjq/Up9jmmmS2sLiDkEhmR2mqbO8qkM2Y8aDCYr2rerA3/pPpEdVyRVKjkrBQv723S9a3C+T/vNhkR8qllc3wcGp2KKcRN761wdFcPqSTn03kLxMRmUrRHDwM9qVfw4Ejoiq7p4+kbc2y/7M93auEHor6yCzHua+ExUptZw6IjPUKINE9Q8OInsltYDmzRFwBO6MgBOcO0PoF3AEiiNwKR8WSADmDFNztLBRm+mmFqOQ+pQ4DgWAbMAoJ42qDYVZ56EaJpaQ96bJnGw7pLjgS4PTMea2UCn8zMxX1qe4LudtTcHHRKUNtPjTb0gbBSrJm4OZh4ZCRJg1x0ZFwz6oov/Rb8xq7PsUEj82MW3OxRurq+pljcZ/YH8fi7Qwvqycjrf1PbeqdlezSGEt3z8O2RojFdYPRXRRwSB84EBdrrOzk/z48+BV0fi9K47AU0XACc5T/ea831WPAIs2T+qoFacnp6bmpEtQK+oUgdOgjSimPhW6PJL/S2vbmZGAhx60mZ60QLdogU+pUCbmF0xR+JBA3CArwcQU1Br6l7e8WIFJiJBV4cbfRCoG5Gh1ZdlCrYk2wjzT1dtj/ijVSnAYJ31FcRnQ93H69sQIz6e5DyIozabgMEZMT5igdre3Td2BHPJdQozEg+z8QOQuLRcQqhCYogZFvx5TwSJRfOgv2+/nCDwzBJzgPLMv1IdTPQgEghOUjlxNVmvcl1Dqa3sp8wRqDRvROONT06aQYBbieo/RWHQxVZFxt6d3L7kU8YK41KsSeJv8c1BgsEXZ4qwORqJydCi1IptLDg4UgSXVgrBqCM7a8lJyrL/bVaBzbGLKTF42tsiMHmOQ37kn30P9D+Tw+Ww1uVrkII261tTUklyqzyhu+ypZsZ8+T47xsZHp6kxkzhyLpV5BcELoeKOpcJjkyCVEuD3JDzFFomRxH3D05gg4ApVB4LsEhx8cDoL2w9P9mLiYiJBbLTU7sitRAXovTmqV6ZZfxRF4WghguhmbnE7++Oe/3K3jWuDw+eDpf1BZgvulGEAgyAxsUUf6HD8Yy56rApgk28O3h98krUNRPsOjY7ZgojxE0hE7ZaqLVIcOVQkfHB61+lBE9sRGUU0qftOIEFpfW9G2nCxIrVhbWbLQcLITd0p5wGTVKdJDZFFQKMLiHOeCjBb6/fRukt7dSTZ0nY3VlXxU1kFSoxqd5NbBrENUEedDBNo7UsmocPz5T/9pZj36gf/P2OSMZU6GXBB1REP9mZx5ZWTrXA6/KET9Q8P2PeDsy3cC+SjWwKVbUVGzr9+aEhX7PD45lQyPTRjx4F70KWLI3vyNxOfoMKYqIsCIrtoXVhmFiaO2GcmRosO8CLZcAzJDNJmZpaR6gSH+SEP6rgYGRszPie+G68b7cRdvjsCLQEDcgucb+x3yukKDLv7r18UhNeYLoMnWfuT8+HRXC2/UExzE5lx7/AwuJcHHCaJC/fLLOAJPBgEWJJ7CWSz5fdyp6Vr83thSXb3J6PikSEvKTCH8HjGTYBLqNIIyZsQm+LCE+zarRtS4yADv4ZzM8YWNRZSkdd0qEnk2fmr3wQckNlSV/sER+zO9u50szH9IPrz/h6kua8tLNvFMTs8kEyIWmGtwqu3StWhxYY5zAcRme2vdiA3jgdCc6j3MOZjfyKlzqlDrC2Fmc41IHfWrqK79OU8OuG6jCBlj6u0bFNkR2RNZoEHEXr99pyivDpuPuA5ki34xhk7hBrEo1vAv6ldU1E9//FPSI6dgm111IEUvIYiRINVq/itsOEU31DTaWEdVHR0zU1ZEJ0sSROULCgTnyMYIuaFPtboXpLSQ4LTIP4fvt7unx1Sw5lYpOPqu9PWruYpTiLm/dgTKReB6gqNf2g+aUMnIyZ7Ji4mLpxIiAs7kJBcjA1zBKRd+P++pIxAXdRa6ialZIw93HRMPFxAR8ssQbsy1WSBRU3mfkPG2Dt1F6yDmjh4pCJFU1Nc3auEelHNrcIoNqsCXHkE0ooMv0VrkdxkYCoSGoyAEHR1dIhgXlsRu6dPH5P0//i/ZVbQUWXw7ZFpBfXj1+g9mXqJEAX45tIhF7Avh8Sg3kC0ijZYXPuqau+Zgi08S6g3OtpAZzoXkoEBNCsdWkbB4HRQtSFinNvLnRNKCeWdq9o2RkjAHXQozqSMymxH5BYlg/irWwIW+v7p4JyVl7OoQyB8kidB4sjXTp8IWItzCvAj2kCycrSFrKGknx8oZhJlK47OHwTzBMQVH301TE2YqhY+rn/g1NauPsfRD4X38tSPwEhCIv3H2bKZ6aj6I798Vg69/vQVXCxEUDTYZGsnRhICEQzQIyb/wCbBNCcx4r1IdKuiCv3QEngwCqCr4qFRisWKxZ2NRJHqHBTGSGwAJi25T0qoJAbNVixZivbSGwoBp5rpSAXZdKSWKX8rfI9RSCmfz/yAVs2Dv7+1ZpuL99I4t4DzQQJBi2YKOzlTewfjL2YWv6Fswt8nRNv+QxP1tLOov42CeQbmAcPDa1CmpOHwWx0SdppaWNsMCTCAZNLAhwgyiECdI/IIojNnY3GRKD/0t1ugHBAiCggIUG0QSx2FMSdzrW4IYj2NvRFR7+56EG32GYPHwh8mQ6DHUbZyyGTN9AQ9MbOaTo+t/q7AVXt9fOwIvAYFIbHjYwU8PXgGnoOlnejU/mKsMb9yifYfgyLFOTxyNcn6LBIeOIC2f1ZzaE8qZ5GXrjKRYHOq8OQIvFQFUlVS3yEWHOWhUAIaQ5p9FEaJALhUWZf3cbXG0xVJEhUX+QqaY2DiGhRbTSrHF2UzPOs9MLfIJgawUmtUwH2UgNviU7OM4m072dnfNz+VCfi7cl3N6RCwwZ0EIQr9iD5iQwiTE/fElYh6hP1GZ0gtLaMcizzEkB2TPRr4c+o+yFBvXAwOIjR2fvz6OucxNFxeMPzA8CEPIqAxmXPtrE13hNSE4+NQUjt/6wb0gXvQpf694XuGeYynHUK89BIaIMjPXi9jE+ZA5k/5/2YJfVMSCa3hzBF4qAvHBBOUGx3wIjpmtxSlo9tvnd1iw8R7zYCntWoLDD5anKeRl9pipaEwG5+c1mvCOFB2RU6KrPXsSCpNMKbf0YxyB54FA+KGFsbAos4WUd/c7Prsvi6rdprgJ5roecC4kRS69klD+/Sg+O1LuHnuYwYdET1JXioQeYlAm+DwtUxPKBeYu5geuy4bqgnmLCWtvZ0dJDjeUyXndClLyMMRE1ajoI1QSSAznck8IDIv+bXCEILGV0+gr5IitnMb5tLgPmJZzJT/HEXi5CARf3jNLr0BkJXnDSLVAEBON3xXzjGVy12/V1F/mC80VpbQiU1w4jSeuJtm7iWpoki9AXW2YSKxgYKJwSEUL8HSHnZ0Mp115O3wpN/VjHAFHoDoRMAVEpAETDaaxELJeL8KiyEkt6jjRrq0sJb/+/X9Ug2nUHIxxDMa8BEmxJzERGZ7C1leXE3x4lrWtLi9ZMjyyGqP8kA2YKCaKWKLyMJFFslCdyHivHAFHoNIIYJaith3pI7Jy0s8pGSrJMqndR6sVqcHsa0KL9uQHqxUXKXWuuJbg8CSF/N2uaA2e0mBONMvtIPWITlE9d1NPZzgZ0lFvjoAj8LQRYOIwJQpHWJEcTDioHPjd0SA4kBWeqvb0+x8ZnTBZmQci/Et4IiOzLyrP4sJcMv/hX8mn+TkLFUfx5Zo4ABMC36N5A3NXMFUV95V52mh67x0BR+B7CODXd3RwqPQT+4pCJBIx5MzifRpzCkILIoqZpDUfMT/dmeDwNIYsRNgpT1mEZ/IavxvIjGXslAS9rsmOqI2DXM4mOkJT/Wnse1+pf+YIVC8CSL/41ZgjcXefcsKMJ1PbW1ZiYmd706TjQxGVNWUjZg7Yl3/O2vKifvP4/dSZgsP7p4qQok7Vxvq65oasTUo4BHdpm5p9Zfl3hkWOcFT+1remetHxnjkCjkAlEcAStLuzpXliNTwEwSPEMaKTcYgYTSnfVq8EF+Wl0hxTqnmKfl6r4ATbFxOd2JNiUkm2hUx0eKDKuLKPEeJJngwk7JGJSUtDz8RWL1JEB0plWJUEy6/lCDgCd0MAPxh+0zjXEmFEMrvjo2NTXsjpsqc8NkjIOCOTxA+ig3MtkU445pLZF/v5uSRmJi/mCXxviOxigzCR5+b1T79YUcoOmauYazRh+Jxxt6/Oz3YEnhwCzCUQnDWZs0klwcPTGXmy8k7GKL4dSpXRqQcjBBYIzm24xbUEB5KCDI3XIOoNWUPbtWFjZ+KCZWWUnlzTUrIjP5w9hZLmMv1JS3sIl4ydiPsnh7x32BF4gQjE3z1mI/LMoLLgdyf+YcSFwpHkebE5ALu5NlqI8gqOf+QhtQKbOpYJycK5ZY5C6R2fmU2mZn7URs4gRTFJLUIt9uYIOAIvAwECGOARuLvkZJba2lyzRKK7sghZIVpzMNaco/kDs5TVq+uROVsCC2rvbTjFtQSHi3Cxz/WfzdG4V+nE8blBvcmpWi5ZOpnoatXBTclLH+d+Mxl6eGTcnBNdxXkZ/1h9lM8RAdSUkGeG0g3YwZtbmy3jb1rmKhwBsZXjCBhKtsgpj/ApNZs3RI7qRFrw3Ql5ZZSvRgSnW5NU38BQMqjEgvj18TnOyd4cAUfg5SDAnEERYlTgzY01SwC6+FF+eppbEE5sDtGcg19fu5JudiuDea9qv2FF4oHpNu3ao0M+CUIha5I22cmpapzNpJMDkZstEZqzY/nhKGadsPGNtbWk/fcPmrBCki0yhKL+WCAlM6U3R8AReDIIhCckJcKTzRsS0tnVlfQODCQTk7OaA/blXKz8ONRdInOvJilyV1hpBc0FVpZASfYwW2Ez5xr483R0disRYsrM3BahReCCntDIgePNEXAEXg4CiCTMHabeiOAsfVpIIDj48eLjy5zAvEO2b+YNSqn06MGooYGUEtdSlqIAXns0k1yY6BLZzqlPMyT7WFYsa9MmKfJhUNwOFrYnX5zlxQWRGjEusSzSqqdUjI9cFyTuiteK1yvaE3/TEXAEHh2Bwt9ozDPT9JnfMdFP+m0f9iYpkRyIDv41/P7PzkJhyc9SdWNwAscbyRGRQWZuaWszkxT1mPDvQX4uvNejD9w74Ag4AveGAA9AKDck88uk96TcrJp6s6TyLZvra3pgSpt1CPMV6i512lLyu+mRcoMPDg9LlopC88Zt2rUEJ16ESQjbV6+K1/G0trW+knQo7wXJv46PciGSQllPUag5logrOjM4PGZOhMhMPKkx8fmEFlH1vSPwtBDgyQmXPEzPtSo1QK0oQjnJbG5lCTQBYFNH+SWMEykZglSv3z+lCVB0Qzi4iM3TGrr31hFwBO6IAD43pJZBpVlfXUnmf3+vFBLvk4W53825GD5Bg8S0KqhpQPXhRlVgd0A8gr9DZPbtyA3Xu5HgcBA3IOkXns2rStrVqZo7ZBw815Pb8aWS9IjgYJPHfoZDYVNLE26GOqdReXRSSY0mOyZGb46AI/A0EWCCYYsh5DxpldL0zKPmlKYUrPwYR+C5IsB8QWACkZfrq0vJh/e/Jn//7/8SudlSgFLaHpZ4iEIIIWq7X8Rm5vU7EZ1x4x/l+updS3AK1RZuKpdBs6X3DQ0nk6/emgPQxkrd1VMcTscwNOQmwkwJGYf0pJUnIyXFhwq9RE1gxsJpMUrUTnye6z9pH9dzQaBwLohjKvZe/Mz3joAj8LIQiA887NngAyHi+tD8bYi2XF9btuzmiwvzlt08raipAwklKMAovu1yhWklCejoWDIkYjOoDTGFh6py55trCU7h1xMioijs1yZT1WgyJVMV4eHnUmxQb8wjWoTmRAxtc201OVZsOwPal61tR57RI2OT2iYscykKD1tka4X38deOgCPgCDgCjoAj8PQQiOTG6kvJ5EQuLNSZXfntbm2sJ58+/q5tznJnUeJpT2oOfrzk18KUjbWnV8FMw6OTZqLCTNUslxcITrntRoIDc4rsCa/mbiX/wknwXMm7DnL7VnE4q6rDGdnYyF5KdAU1JVBzDnMH9jke0wwEiYrEXqRqJwU8tnns8pAl+y/o2eWOxc9zBBwBR8ARcAQcgQdCIFiq86qNOADKjfnnRsFDUVKYpNaWlwLBmZ+X6LFhys2RkvoFX70GCwHv6RtIRsankmFt/UOjSUq16hBCLBFomeO5keAUXpcbURMCi/rx0aTlwcChcGVx3kgK0VSEjTNI6s6Qqv3k9NiS9+yoZlWXOtyl6CqirFCDQpQVak6w77u5qhBtf+0IOAKOgCPgCFQvAlG1Yd2nXh1h3ogbOZKAKkce6g1r//bWll5vWfUDBI9YuxIe0CkXFqKlJpThfHL2bTIkiw8RVPCCYD0q34fvlgRH0RMK94SY0GBf5LiQxCNTlYpl5TI2SDqPenNyrBDy9LYqjkueUkVy6s709PdbCnhUnDZtlH/AZ4coC9iaN0fAEXAEHAFHwBGofgRiRuJL+dHgT0Pphex+xohMWmVdcCqmykFG/ABeQHJQTFiEjdMovwC5GVHE1MTMm2Tmzc/295Ubyx2Dk27FKGBTbDgJt3WkzIkIBcfKmxNBpfh14tkzGhBJALHBHR0qEZiYXU4OxzkRoMPDnAa7l7SJ2FidKw3QwkllqqJQpzdHwBFwBBwBR8ARqH4EIDhiK0ZacEE5Rr1RKDhrvEVXk/VcG59ZsJLW+CaJHYgkTU0tydD4pIWDj07Mqk7dpFxgBkz4gFfcVb0BvbIZBYoLCkydOkxmQphYn8o5rC59TFYUSp4Rc6ME+uFF1ryqrUCnBp+2cDHtzQdHqdx1HQYeyJOnba/+f9LeQ0fAEXAEHAFHILHiuiTBg+iQFwtRg+K6CByUcuI1yg1+vHVkJ25UdmJFVJOduFfZiYfHpkVwphUxNWGmKixCkdxUAt+yCQ5OwmxtilknESAez4Pa8NG5uCDhl6qOS7aC0eGTc3GpCsN5R2P5JF+16MDMG4Wvrw7wF46AI+AIOAKOgCNQdQgEJ2NK0cW8WHH/dVcRMOALJAGmLt3Y1CuZpF4noxMzMk9Ni+wM2/pfCdWm8M5lE5yrixgzUw0q0it395rchKmpX5mPd+UtvadEPvjmkMHwRGQHJyQSAl6KBF1K2oL9hca+fGeiq/74C0fAEXAEHAFHwBF4MAQgOGQxZwmPQUP41FKqqUmkBneUdpVcoLYUys2AoqQGlO+mu2dA5qoWIzf3IXDcmeDQKaSnGqVY5jWDwgMaYpPe3rZMhTvb6/KkXjOzFUTnUIQH2QqFB+9rWmCATnAe7F+k38gRcAQcAUfAEagIAp/lZiIOgI8uJVryFh6S/Kak2HT3KIJaZKabSGr93aEEfvAE/HAaVLcO5eY+WtkEp5BtYTOLG4ytU0pOV7cG1bdrDseb671ibl1GdrKZvSQnGxUqTvCqDjUovig59zFMv6Yj4Ag4Ao6AI+AI3BcCRFWj3kBuTLkRF8BpuKdv0CKjArkZsIR+hIe3tLUG1UcdKuQTlexf2QSnWCeCgoOjcI05HcPm8JZuplinQsEwVR0RSqYcOTghQXLYpN/IETuaqopd2d9zBBwBR8ARcAQcgapEQMYXoqvr6hQ4pMzDRnBUv7KlvcOCkdq0x1cXH10+I0jpvkhNIT73QnCQqmBy+OW0X3Yl3f1D8rlRqfRTxcGfHFlVcso7xI3CnDEuvrBz/toRcAQcAUfAEXAEqhwBuac0yFXFTFMyOQWC05zUylyFyQryE8LEcWUJ6WYewue24gSHTmusRW1qVqOC2hNnIjuqRH6qmlam4MhB6TMOx94cAUfAEXAEHAFH4GkhgC+uKTj43wSiUy/CA6lBqbkvH5ubQKoowbnpZsGEVRcYnAZucfEXLTpN5qmraKqbruKfOwKOgCPgCDgCjkD1ICASU4syo5x2WtvjnjX/IUxR1+HwoAQHFvdYTO46APx9R8ARcAQcAUfAEXh+CNxPbNbzw8lH5Ag4Ao6AI+AIOAJPCAEnOE/oy/KuOgKOgCPgCDgCjkBpCDjBKQ0nP8oRcAQcAUfAEXAEnhACTnCe0JflXXUEHAFHwBFwBByB0hBwglMaTn6UI+AIOAKOgCPgCDwhBJzgPKEvy7vqCDgCjoAj4Ag4AqUh8P9/7he3EOqfCgAAAABJRU5ErkJggg==;" vertex="1" parent="eDpDhIR4D00s_7X7voQF-185">
          <mxGeometry x="1" y="35.489999999999995" width="167" height="173.47" as="geometry" />
        </mxCell>
        <mxCell id="eDpDhIR4D00s_7X7voQF-188" value="Purchase Order Processing&lt;span lang=&quot;zh-CN&quot;&gt;&amp;nbsp;&lt;/span&gt;System" style="text;html=1;align=center;verticalAlign=middle;resizable=0;points=[];autosize=1;strokeColor=none;fillColor=none;strokeWidth=1;fontSize=16;" vertex="1" parent="eDpDhIR4D00s_7X7voQF-185">
          <mxGeometry x="-55" y="13.489999999999995" width="280" height="30" as="geometry" />
        </mxCell>
        <mxCell id="eDpDhIR4D00s_7X7voQF-189" value="&lt;font style=&quot;font-size: 12px;&quot;&gt;Component&lt;/font&gt;" style="rounded=1;whiteSpace=wrap;html=1;fillStyle=auto;strokeWidth=1;fontSize=17;" vertex="1" parent="eDpDhIR4D00s_7X7voQF-185">
          <mxGeometry x="86" y="59" width="75" height="20" as="geometry" />
        </mxCell>
        <mxCell id="eDpDhIR4D00s_7X7voQF-190" value="&lt;font style=&quot;font-size: 12px;&quot;&gt;Component&lt;/font&gt;" style="rounded=1;whiteSpace=wrap;html=1;fillStyle=auto;strokeWidth=1;fontSize=17;" vertex="1" parent="eDpDhIR4D00s_7X7voQF-185">
          <mxGeometry x="8" y="59" width="75" height="20" as="geometry" />
        </mxCell>
        <mxCell id="eDpDhIR4D00s_7X7voQF-191" value="Data Replication Engine" style="rounded=1;whiteSpace=wrap;html=1;fillStyle=auto;strokeWidth=1;fontSize=12;fillColor=#D0E2F0;strokeColor=none;" vertex="1" parent="eDpDhIR4D00s_7X7voQF-185">
          <mxGeometry x="5" y="168" width="157" height="36" as="geometry" />
        </mxCell>
        <mxCell id="eDpDhIR4D00s_7X7voQF-192" value="" style="rounded=1;whiteSpace=wrap;html=1;fillStyle=auto;strokeWidth=1;fontSize=17;strokeColor=none;" vertex="1" parent="eDpDhIR4D00s_7X7voQF-185">
          <mxGeometry x="122" y="127" width="10" height="10" as="geometry" />
        </mxCell>
        <mxCell id="eDpDhIR4D00s_7X7voQF-223" value="database" style="shape=cylinder3;whiteSpace=wrap;html=1;boundedLbl=1;backgroundOutline=1;size=15;fillStyle=auto;strokeWidth=1;fontSize=12;fillColor=#D0E2F0;" vertex="1" parent="1">
          <mxGeometry x="970" y="570" width="60" height="80" as="geometry" />
        </mxCell>
        <mxCell id="eDpDhIR4D00s_7X7voQF-231" style="edgeStyle=orthogonalEdgeStyle;rounded=0;orthogonalLoop=1;jettySize=auto;html=1;entryX=0;entryY=0;entryDx=99;entryDy=5;entryPerimeter=0;dashed=1;fontSize=12;" edge="1" parent="1" source="eDpDhIR4D00s_7X7voQF-232" target="eDpDhIR4D00s_7X7voQF-235">
          <mxGeometry relative="1" as="geometry" />
        </mxCell>
        <mxCell id="eDpDhIR4D00s_7X7voQF-232" value="Purchase Order Data Pump" style="shape=image;verticalLabelPosition=bottom;labelBackgroundColor=default;verticalAlign=top;aspect=fixed;imageAspect=0;image=data:image/png,iVBORw0KGgoAAAANSUhEUgAAAMwAAABwCAYAAABSKp/8AAAMPmlDQ1BJQ0MgUHJvZmlsZQAASImVVwdYU8kWnluSkEBooUsJvQkiNYCUEFoA6UWwEZIAocQYCCp2ZFHBtaBiARu6KqLYAbEjioVFsfcFERVlXSzYlTcpoOu+8r2Tb+7988+Z/5w5d24ZANROcUSiHFQdgFxhvjg2JIA+LjmFTnoKEIABHfgjcbh5ImZ0dASANnT+u727Cb2hXXOQav2z/7+aBo+fxwUAiYY4jZfHzYX4EAB4FVckzgeAKOXNp+WLpBg2oCWGCUK8SIoz5LhKitPkeJ/MJz6WBXELAEoqHI44AwDVK5CnF3AzoIZqP8ROQp5ACIAaHWLf3NwpPIhTIbaBPiKIpfqMtB90Mv6mmTasyeFkDGP5XGSmFCjIE+VwZvyf5fjflpsjGYphBZtKpjg0VjpnWLfb2VPCpVgF4j5hWmQUxJoQfxDwZP4Qo5RMSWiC3B815OaxYM3gVQaoE48TGA6xIcTBwpzICAWfli4IZkMMVwg6XZDPjodYD+JF/LygOIXPZvGUWEUstD5dzGIq+PMcsSyuNNZDSXYCU6H/OpPPVuhjqoWZ8UkQUyC2KBAkRkKsCrFjXnZcuMJnTGEmK3LIRyyJleZvAXEsXxgSINfHCtLFwbEK/9LcvKH5YpszBexIBT6QnxkfKq8P1sLlyPKHc8Gu8IXMhCEdft64iKG58PiBQfK5Y8/4woQ4hc4HUX5ArHwsThHlRCv8cTN+ToiUN4PYNa8gTjEWT8yHC1Kuj6eL8qPj5XnihVmcsGh5PvhyEAFYIBDQgQS2NDAFZAFBe19DH/wn7wkGHCAGGYAPHBTM0IgkWY8QHuNAIfgTIj7IGx4XIOvlgwLIfx1m5UcHkC7rLZCNyAZPIM4F4SAH/pfIRgmHoyWCx5AR/CM6BzYuzDcHNmn/v+eH2O8MEzIRCkYyFJGuNuRJDCIGEkOJwURb3AD3xb3xCHj0h80ZZ+CeQ/P47k94QuggPCLcIHQS7kwWFIl/ynIs6IT6wYpapP1YC9wKarrhAbgPVIfKuA5uABxwVxiHifvByG6QZSnyllaF/pP232bww9VQ+JGdyChZl+xPtvl5pKqdqtuwirTWP9ZHnmvacL1Zwz0/x2f9UH0ePIf/7Iktwg5irdhp7AJ2DGsAdOwk1oi1YceleHh1PZatrqFosbJ8sqGO4B/xhq6stJJ5TrVOvU5f5H35/OnSZzRgTRHNEAsyMvPpTPhG4NPZQq7jSLqzk7MLANL3i/zx9SZG9t5AdNq+cwv+AMDn5ODg4NHvXNhJAPZ7wNv/yHfOhgFfHcoAnD/ClYgL5BwuPRDgU0IN3mn6wBiYAxs4H2fgDryBPwgCYSAKxINkMAlmnwnXuRhMA7PAfFACysBysBqsB5vAVrAT7AEHQAM4Bk6Dc+ASuAJugHtw9fSAF6AfvAOfEQQhIVSEhugjJoglYo84IwzEFwlCIpBYJBlJRTIQISJBZiELkDKkHFmPbEFqkP3IEeQ0cgHpQO4gXUgv8hr5hGKoCqqFGqFW6CiUgTLRcDQenYhmoFPRQrQYXYquRavR3Wg9ehq9hN5AO9EX6AAGMGVMBzPFHDAGxsKisBQsHRNjc7BSrAKrxuqwJnidr2GdWB/2ESfiNJyOO8AVHIon4Fx8Kj4HX4Kvx3fi9XgLfg3vwvvxbwQqwZBgT/AisAnjCBmEaYQSQgVhO+Ew4Sy8l3oI74hEog7RmugB78VkYhZxJnEJcQNxL/EUsYPYTRwgkUj6JHuSDymKxCHlk0pI60i7SSdJV0k9pA9KykomSs5KwUopSkKlIqUKpV1KJ5SuKj1V+kxWJ1uSvchRZB55BnkZeRu5iXyZ3EP+TNGgWFN8KPGULMp8ylpKHeUs5T7ljbKyspmyp3KMskB5nvJa5X3K55W7lD+qaKrYqbBUJqhIVJaq7FA5pXJH5Q2VSrWi+lNTqPnUpdQa6hnqQ+oHVZqqoypblac6V7VStV71qupLNbKapRpTbZJaoVqF2kG1y2p96mR1K3WWOkd9jnql+hH1W+oDGjSN0RpRGrkaSzR2aVzQeKZJ0rTSDNLkaRZrbtU8o9lNw2jmNBaNS1tA20Y7S+vRImpZa7G1srTKtPZotWv1a2tqu2onak/XrtQ+rt2pg+lY6bB1cnSW6RzQuanzSddIl6nL112sW6d7Vfe93gg9fz2+XqneXr0bep/06fpB+tn6K/Qb9B8Y4AZ2BjEG0ww2Gpw16BuhNcJ7BHdE6YgDI+4aooZ2hrGGMw23GrYZDhgZG4UYiYzWGZ0x6jPWMfY3zjJeZXzCuNeEZuJrIjBZZXLS5Dldm86k59DX0lvo/aaGpqGmEtMtpu2mn82szRLMisz2mj0wp5gzzNPNV5k3m/dbmFiMtZhlUWtx15JsybDMtFxj2Wr53sraKslqoVWD1TNrPWu2daF1rfV9G6qNn81Um2qb67ZEW4Zttu0G2yt2qJ2bXaZdpd1le9Te3V5gv8G+YyRhpOdI4cjqkbccVByYDgUOtQ5djjqOEY5Fjg2OL0dZjEoZtWJU66hvTm5OOU7bnO6N1hwdNrpodNPo1852zlznSufrLlSXYJe5Lo0ur1ztXfmuG11vu9HcxrotdGt2++ru4S52r3Pv9bDwSPWo8rjF0GJEM5YwznsSPAM853oe8/zo5e6V73XA6y9vB+9s713ez8ZYj+GP2Tam28fMh+OzxafTl+6b6rvZt9PP1I/jV+33yN/cn+e/3f8p05aZxdzNfBngFCAOOBzwnuXFms06FYgFhgSWBrYHaQYlBK0PehhsFpwRXBvcH+IWMjPkVCghNDx0RegtthGby65h94d5hM0OawlXCY8LXx/+KMIuQhzRNBYdGzZ25dj7kZaRwsiGKBDFjloZ9SDaOnpq9NEYYkx0TGXMk9jRsbNiW+NocZPjdsW9iw+IXxZ/L8EmQZLQnKiWOCGxJvF9UmBSeVLnuFHjZo+7lGyQLEhuTCGlJKZsTxkYHzR+9fieCW4TSibcnGg9cfrEC5MMJuVMOj5ZbTJn8sFUQmpS6q7UL5woTjVnII2dVpXWz2Vx13Bf8Px5q3i9fB9+Of9puk96efqzDJ+MlRm9mX6ZFZl9ApZgveBVVmjWpqz32VHZO7IHc5Jy9uYq5abmHhFqCrOFLVOMp0yf0iGyF5WIOqd6TV09tV8cLt6eh+RNzGvM14If8m0SG8kvkq4C34LKgg/TEqcdnK4xXTi9bYbdjMUznhYGF/42E5/Jndk8y3TW/Flds5mzt8xB5qTNaZ5rPrd4bs+8kHk751PmZ8//vcipqLzo7YKkBU3FRsXzirt/CfmltkS1RFxya6H3wk2L8EWCRe2LXRavW/ytlFd6scyprKLsyxLukou/jv517a+DS9OXti9zX7ZxOXG5cPnNFX4rdpZrlBeWd68cu7J+FX1V6aq3qyevvlDhWrFpDWWNZE3n2oi1jess1i1f92V95voblQGVe6sMqxZXvd/A23B1o//Guk1Gm8o2fdos2Hx7S8iW+mqr6oqtxK0FW59sS9zW+hvjt5rtBtvLtn/dIdzRuTN2Z0uNR03NLsNdy2rRWklt7+4Ju6/sCdzTWOdQt2Wvzt6yfWCfZN/z/an7bx4IP9B8kHGw7pDloarDtMOl9Uj9jPr+hsyGzsbkxo4jYUeam7ybDh91PLrjmOmxyuPax5edoJwoPjF4svDkwCnRqb7TGae7myc33zsz7sz1lpiW9rPhZ8+fCz53ppXZevK8z/ljF7wuHLnIuNhwyf1SfZtb2+Hf3X4/3O7eXn/Z43LjFc8rTR1jOk5c9bt6+lrgtXPX2dcv3Yi80XEz4ebtWxNudd7m3X52J+fOq7sFdz/fm3efcL/0gfqDioeGD6v/sP1jb6d75/GuwK62R3GP7nVzu188znv8paf4CfVJxVOTpzXPnJ8d6w3uvfJ8/POeF6IXn/tK/tT4s+qlzctDf/n/1dY/rr/nlfjV4Oslb/Tf7Hjr+rZ5IHrg4bvcd5/fl37Q/7DzI+Nj66ekT08/T/tC+rL2q+3Xpm/h3+4P5g4OijhijuxTAIMNTU8H4PUOAKjJANDg/owyXr7/kxki37PKEPhPWL5HlJk7AHXw+z2mD37d3AJg3za4/YL6ahMAiKYCEO8JUBeX4Ta0V5PtK6VGhPuAzZFf03LTwL8x+Z7zh7x/PgOpqiv4+fwvzpJ8P5CR8cwAAABsZVhJZk1NACoAAAAIAAQBGgAFAAAAAQAAAD4BGwAFAAAAAQAAAEYBKAADAAAAAQACAACHaQAEAAAAAQAAAE4AAAAAAAAAkAAAAAEAAACQAAAAAQACoAIABAAAAAEAAADMoAMABAAAAAEAAABwAAAAAKLOsIkAAAAJcEhZcwAAFiUAABYlAUlSJPAAAAmOSURBVHgB7Z1dSFVrHofbH27zIy3LKfM41fEoOcxE3dSgyRBkNockZoigLqKriaK7A1ETwYCXQRFddBdU0IUXQVQQ1sjpA6JAmsnCCLJPGkutLCn1mB6N/K2/e3Sv/bHc7rP3c2561rvej7Wetf/nfV3rXe/yjYz+N4v/MDCDBqb6Cfp8vhk8qsmb9k+eTCoGMDCZAQJmMiukYWAKA8Ep0knGQNIMvHz5Um01NzeL169fL16yZIl4JoEeZibt0/ZvzgAB85u7ZBzwTBpgSDaT9mn7q4Hh4WGZaGtrm5Srq6uVXl9fLy4sLBQnA+hhkmGZNtLGAAGTNpeSE0mGAYZkybBMG3EZ+Pz5s8q1tLSI7969K96wYYO4pqZGHAqFxF4CPYyXNqkr7Q0QMGl/iTlBLw0wJPPSJnVNmwE73+zt27dqp6mpSXznzh3xpk2bxFVVVWK/P7E+IrHSOgwAA5lhgIDJjOvMWXpkgCGZRyKpZmYM2IeeHR0dOogTJ06IV6xYIW5oaBCXlJSIowV6mGhNkQ8DowYIGH4GGIjBgM+LNy5bW1vV5JUrV8RfvnwRAxiYysDg4KB2vXnzRmyHW0pMEPLz81VDbW2t2L5KYPMowzeghwk3wjYGIhggYCLIYRcGwg14cpesvb1d9T558kQMYCDVDPT19emQrl+/Li4uLhbbOWlK/Ab0MOFG2MZABAMETAQ57MJAuAFP7pL19vaqXjskm467HGoISBsDXV1dOpeLFy+K7d0zJcYBwaDzl8eqVatUg51vtnDhQqVHWg+NHkaaAAy4GyBg3B2RAwMy4MmQTLUBGIjDwLNnz1Tq6NGjYvvGpRKjhPLycuW0Q6/Kykql26GaEl2AHsZFELsxYA0QMNYGjAEXA87tA5eM7MZAKhooKirSYW3cuFG8evVqcU5OjjhRoIdJ1CDlM8oAAZNRl5uTTdQAQ7JEDVI+KQays7PVjp2WX1dXp3S7bGykh48qEAfQw8QhjSKZa4CAydxrz5nHYYAhWRzSKDJ9Buy6YStXrlRD9uFjaWmp0m1+JU4j0MNMo1yqTj8DBEz6XVPOaBoNMJdsGuVSdXQG3r17p4ydnZ3iiooKcTzzvlTYQ6CH8VAmVaW/AQIm/a8xZ+ihAYZkHsqkqvQ3QA+T/teYM/TQAAHjoUyqSn8DBEz6X2PO0EMDBIyHMqkq/Q0QMOl/jTlDDw14Mpfs/fv3OqQzZ86IL1y4IP748aMYwEAyDdgFMbZv366m7SfLo30wSg8jfQAG3A0QMO6OyIEBGYj7weWrV69Uyc6dO8UtLS1iPqgkFUCKGMjNzdWR7N69W9zY2CiOtGgGPYw0ARhwNxBTD9Pf368aba/S1NSk9FnZeeKiP/4ozlmwVAxgIBEDoVBAxbfW/F68oqxQPDAwILYLnJ8/f17p9uUzu+Lmnj17lCcc6GHCjbCNgQgGCJgIctiFgXADMQ3JLl26pPJbt24Vfx50vpb83YaflF70Q7XY5yM2JQNIyMCPa51h2L/+VqW6sgKT/8bsouYHDhxQ/uPHj4uXLl0qvnr1qnjZsmXiMZi8hQlZ2MAABsYNEDDjJvgXA1EYiGlqzOnTp1Xlp0+fxHkVteJ53/9ZzDBMKoAEDeTNcVa+3FGzRLVNNQxThlGwz1X27dunXc3NzeKHDx+K7Z8ee/fuVfoY0MNM0MEGBiIbIGAi+2EvBiYYcB2SPX/+XAVu374tnuV3Hh797k9/Vbo/4Fql8gIYiNZARVmBspYvdB6OKzFKWLx4sXJu3rxZ3N7eLraz7Hft2qX0rKwshmSyAWAgCgMMyaKQRBYMjBtwHT89fvx4PO+s169fiwNzisU588rEAAamw8CaivmqNuj3iROB+vp6FT9y5Ij46dOn4q6uLvHYcI4eRjoADLgbIGDcHZEDAzIQHL87UFXlzMnR3lF48eKFNu30/uz5zpAsOHuO8gAYmA4DlYvyPa+2pKREdc6f7wz57DCsp6dHeQoKChiSyQaAgSgMMCSLQhJZMDBugIAZN8G/GIjCQPDs2bNfsx08eFDZZ8+eLbZrjilxFALmVWR/MGR3wRjwxEDAvN8yLzfLkzptJfn5zt9FeXnO7AH7gSf7Ls3Q0BB/w1iBMAbcDDAkczPEfgwYA8FDhw593QyFGFYZL2AKGPAHnCf6QcNeHZpdHtayXU/P8tiaZvQwXtmnnowwQMBkxGXmJL0yEHQbitnXO22jw784i/qNDA9pl8/vOp9TeQEMRDLwi1mN6GO/8xuLVCaWffaLEpbtHTPLY7FCDxOLYfJmvAECJuN/AgiIxYDr+Km0tFT1BQLOa8lDn94qfai/T5yVO1cMYMArA896nFWKqn9wJkomUr+dWGkfVi5atEjVzp078fdMDyM1AAbcDRAw7o7IgQEZcB2S2e8DFhc778C87u5UJYN9zmucDMmkBfDQQGuH8x3VbWu8eSX+xo0bOkK7MGVZmVO//c2PZaaHkTIAA+4GCBh3R+TAgAy4Dsnscv/Lly9Xwc6ffxZ3tzvftcwtLlc6aytLBZCggf92vFMNr3qdh+aLC51XUZQhAnz48EF7z507J7awbt06bYY/uKeHkRoAA+4GCBh3R+TAgAy4DsnsXLMdO3ao4M2bN8XvH/5bXFRZK55T8gcxgIFEDPR0Ow8uL/7nf6rqH3+Z+IUw7TAwMjKirVOnTolbW1vFdtUYu+ayMnwDephwI2xjIIIBAiaCHHZhINxATB+F7e3tVXnbbV27dk3pgXnfiUvWbBfnFDkPg3w+n9IBDMRqoKAgR0X++Xfnzu33xc5CFvZNycuXLyv/4cOHxfb3vH//fqU3NjaK7fzJsUR6GKkBMOBugIBxd0QODMhATEMylRqFBw8eaHPbtm3itrY2sc9+jSyYrXQAA14ZyA05N3pDQef///bOmH2bcnh4WE03NDSIT548KbZ3zJT4DZwWwvewjQEM/J+BuHsYW9OjR4+0eezYMbG9GdDd3a10AAPJNGBX6d+yZYuatt+vXLBggdIjAT1MJDvsw0CYAQImTAibGIhkwJMhmW3A3v+2C5kPDAzYbDAGkmbAzjguLCxUu35/7P1F7CXUHICBzDNAwGTeNeeMEzDg+ZAsgWOhKAZS3gA9TMpfIg4wlQwQMKl0NTiWlDdAwKT8JeIAU8kAAZNKV4NjSXkDBEzKXyIOMJUMOFM9U+moOJaYDPT3O8sO3bp1S2Xt/L21a9cq3c6tUmIY3Lt3Tyn3798X19XVicNXhdSONAZ6mDS+uJya9wZ+Bb7M3ZULb6gvAAAAAElFTkSuQmCC;" vertex="1" parent="1">
          <mxGeometry x="649" y="565.75" width="54.64" height="30" as="geometry" />
        </mxCell>
        <mxCell id="eDpDhIR4D00s_7X7voQF-233" style="edgeStyle=orthogonalEdgeStyle;rounded=0;orthogonalLoop=1;jettySize=auto;html=1;entryX=1;entryY=0.5;entryDx=0;entryDy=0;dashed=1;fontSize=12;exitX=0.991;exitY=0.785;exitDx=0;exitDy=0;exitPerimeter=0;" edge="1" parent="1" source="eDpDhIR4D00s_7X7voQF-235" target="eDpDhIR4D00s_7X7voQF-237">
          <mxGeometry relative="1" as="geometry" />
        </mxCell>
        <mxCell id="eDpDhIR4D00s_7X7voQF-234" style="edgeStyle=orthogonalEdgeStyle;rounded=0;orthogonalLoop=1;jettySize=auto;html=1;entryX=0;entryY=0.5;entryDx=0;entryDy=0;entryPerimeter=0;fontSize=12;" edge="1" parent="1" source="eDpDhIR4D00s_7X7voQF-235" target="eDpDhIR4D00s_7X7voQF-223">
          <mxGeometry relative="1" as="geometry" />
        </mxCell>
        <mxCell id="eDpDhIR4D00s_7X7voQF-235" value="Purchase Data Writer" style="shape=cube;whiteSpace=wrap;html=1;boundedLbl=1;backgroundOutline=1;darkOpacity=0.05;darkOpacity2=0.1;fillStyle=auto;strokeWidth=1;fontSize=12;fillColor=#D0E2F0;size=10;flipH=1;" vertex="1" parent="1">
          <mxGeometry x="770" y="575.75" width="104" height="68.5" as="geometry" />
        </mxCell>
        <mxCell id="eDpDhIR4D00s_7X7voQF-236" style="edgeStyle=orthogonalEdgeStyle;rounded=0;orthogonalLoop=1;jettySize=auto;html=1;entryX=1;entryY=0.5;entryDx=0;entryDy=0;dashed=1;fontSize=12;" edge="1" parent="1" source="eDpDhIR4D00s_7X7voQF-237" target="eDpDhIR4D00s_7X7voQF-192">
          <mxGeometry relative="1" as="geometry" />
        </mxCell>
        <mxCell id="eDpDhIR4D00s_7X7voQF-237" value="" style="shape=image;verticalLabelPosition=bottom;labelBackgroundColor=default;verticalAlign=top;aspect=fixed;imageAspect=0;image=data:image/png,iVBORw0KGgoAAAANSUhEUgAAAMwAAABwCAYAAABSKp/8AAAMPmlDQ1BJQ0MgUHJvZmlsZQAASImVVwdYU8kWnluSkEBooUsJvQkiNYCUEFoA6UWwEZIAocQYCCp2ZFHBtaBiARu6KqLYAbEjioVFsfcFERVlXSzYlTcpoOu+8r2Tb+7988+Z/5w5d24ZANROcUSiHFQdgFxhvjg2JIA+LjmFTnoKEIABHfgjcbh5ImZ0dASANnT+u727Cb2hXXOQav2z/7+aBo+fxwUAiYY4jZfHzYX4EAB4FVckzgeAKOXNp+WLpBg2oCWGCUK8SIoz5LhKitPkeJ/MJz6WBXELAEoqHI44AwDVK5CnF3AzoIZqP8ROQp5ACIAaHWLf3NwpPIhTIbaBPiKIpfqMtB90Mv6mmTasyeFkDGP5XGSmFCjIE+VwZvyf5fjflpsjGYphBZtKpjg0VjpnWLfb2VPCpVgF4j5hWmQUxJoQfxDwZP4Qo5RMSWiC3B815OaxYM3gVQaoE48TGA6xIcTBwpzICAWfli4IZkMMVwg6XZDPjodYD+JF/LygOIXPZvGUWEUstD5dzGIq+PMcsSyuNNZDSXYCU6H/OpPPVuhjqoWZ8UkQUyC2KBAkRkKsCrFjXnZcuMJnTGEmK3LIRyyJleZvAXEsXxgSINfHCtLFwbEK/9LcvKH5YpszBexIBT6QnxkfKq8P1sLlyPKHc8Gu8IXMhCEdft64iKG58PiBQfK5Y8/4woQ4hc4HUX5ArHwsThHlRCv8cTN+ToiUN4PYNa8gTjEWT8yHC1Kuj6eL8qPj5XnihVmcsGh5PvhyEAFYIBDQgQS2NDAFZAFBe19DH/wn7wkGHCAGGYAPHBTM0IgkWY8QHuNAIfgTIj7IGx4XIOvlgwLIfx1m5UcHkC7rLZCNyAZPIM4F4SAH/pfIRgmHoyWCx5AR/CM6BzYuzDcHNmn/v+eH2O8MEzIRCkYyFJGuNuRJDCIGEkOJwURb3AD3xb3xCHj0h80ZZ+CeQ/P47k94QuggPCLcIHQS7kwWFIl/ynIs6IT6wYpapP1YC9wKarrhAbgPVIfKuA5uABxwVxiHifvByG6QZSnyllaF/pP232bww9VQ+JGdyChZl+xPtvl5pKqdqtuwirTWP9ZHnmvacL1Zwz0/x2f9UH0ePIf/7Iktwg5irdhp7AJ2DGsAdOwk1oi1YceleHh1PZatrqFosbJ8sqGO4B/xhq6stJJ5TrVOvU5f5H35/OnSZzRgTRHNEAsyMvPpTPhG4NPZQq7jSLqzk7MLANL3i/zx9SZG9t5AdNq+cwv+AMDn5ODg4NHvXNhJAPZ7wNv/yHfOhgFfHcoAnD/ClYgL5BwuPRDgU0IN3mn6wBiYAxs4H2fgDryBPwgCYSAKxINkMAlmnwnXuRhMA7PAfFACysBysBqsB5vAVrAT7AEHQAM4Bk6Dc+ASuAJugHtw9fSAF6AfvAOfEQQhIVSEhugjJoglYo84IwzEFwlCIpBYJBlJRTIQISJBZiELkDKkHFmPbEFqkP3IEeQ0cgHpQO4gXUgv8hr5hGKoCqqFGqFW6CiUgTLRcDQenYhmoFPRQrQYXYquRavR3Wg9ehq9hN5AO9EX6AAGMGVMBzPFHDAGxsKisBQsHRNjc7BSrAKrxuqwJnidr2GdWB/2ESfiNJyOO8AVHIon4Fx8Kj4HX4Kvx3fi9XgLfg3vwvvxbwQqwZBgT/AisAnjCBmEaYQSQgVhO+Ew4Sy8l3oI74hEog7RmugB78VkYhZxJnEJcQNxL/EUsYPYTRwgkUj6JHuSDymKxCHlk0pI60i7SSdJV0k9pA9KykomSs5KwUopSkKlIqUKpV1KJ5SuKj1V+kxWJ1uSvchRZB55BnkZeRu5iXyZ3EP+TNGgWFN8KPGULMp8ylpKHeUs5T7ljbKyspmyp3KMskB5nvJa5X3K55W7lD+qaKrYqbBUJqhIVJaq7FA5pXJH5Q2VSrWi+lNTqPnUpdQa6hnqQ+oHVZqqoypblac6V7VStV71qupLNbKapRpTbZJaoVqF2kG1y2p96mR1K3WWOkd9jnql+hH1W+oDGjSN0RpRGrkaSzR2aVzQeKZJ0rTSDNLkaRZrbtU8o9lNw2jmNBaNS1tA20Y7S+vRImpZa7G1srTKtPZotWv1a2tqu2onak/XrtQ+rt2pg+lY6bB1cnSW6RzQuanzSddIl6nL112sW6d7Vfe93gg9fz2+XqneXr0bep/06fpB+tn6K/Qb9B8Y4AZ2BjEG0ww2Gpw16BuhNcJ7BHdE6YgDI+4aooZ2hrGGMw23GrYZDhgZG4UYiYzWGZ0x6jPWMfY3zjJeZXzCuNeEZuJrIjBZZXLS5Dldm86k59DX0lvo/aaGpqGmEtMtpu2mn82szRLMisz2mj0wp5gzzNPNV5k3m/dbmFiMtZhlUWtx15JsybDMtFxj2Wr53sraKslqoVWD1TNrPWu2daF1rfV9G6qNn81Um2qb67ZEW4Zttu0G2yt2qJ2bXaZdpd1le9Te3V5gv8G+YyRhpOdI4cjqkbccVByYDgUOtQ5djjqOEY5Fjg2OL0dZjEoZtWJU66hvTm5OOU7bnO6N1hwdNrpodNPo1852zlznSufrLlSXYJe5Lo0ur1ztXfmuG11vu9HcxrotdGt2++ru4S52r3Pv9bDwSPWo8rjF0GJEM5YwznsSPAM853oe8/zo5e6V73XA6y9vB+9s713ez8ZYj+GP2Tam28fMh+OzxafTl+6b6rvZt9PP1I/jV+33yN/cn+e/3f8p05aZxdzNfBngFCAOOBzwnuXFms06FYgFhgSWBrYHaQYlBK0PehhsFpwRXBvcH+IWMjPkVCghNDx0RegtthGby65h94d5hM0OawlXCY8LXx/+KMIuQhzRNBYdGzZ25dj7kZaRwsiGKBDFjloZ9SDaOnpq9NEYYkx0TGXMk9jRsbNiW+NocZPjdsW9iw+IXxZ/L8EmQZLQnKiWOCGxJvF9UmBSeVLnuFHjZo+7lGyQLEhuTCGlJKZsTxkYHzR+9fieCW4TSibcnGg9cfrEC5MMJuVMOj5ZbTJn8sFUQmpS6q7UL5woTjVnII2dVpXWz2Vx13Bf8Px5q3i9fB9+Of9puk96efqzDJ+MlRm9mX6ZFZl9ApZgveBVVmjWpqz32VHZO7IHc5Jy9uYq5abmHhFqCrOFLVOMp0yf0iGyF5WIOqd6TV09tV8cLt6eh+RNzGvM14If8m0SG8kvkq4C34LKgg/TEqcdnK4xXTi9bYbdjMUznhYGF/42E5/Jndk8y3TW/Flds5mzt8xB5qTNaZ5rPrd4bs+8kHk751PmZ8//vcipqLzo7YKkBU3FRsXzirt/CfmltkS1RFxya6H3wk2L8EWCRe2LXRavW/ytlFd6scyprKLsyxLukou/jv517a+DS9OXti9zX7ZxOXG5cPnNFX4rdpZrlBeWd68cu7J+FX1V6aq3qyevvlDhWrFpDWWNZE3n2oi1jess1i1f92V95voblQGVe6sMqxZXvd/A23B1o//Guk1Gm8o2fdos2Hx7S8iW+mqr6oqtxK0FW59sS9zW+hvjt5rtBtvLtn/dIdzRuTN2Z0uNR03NLsNdy2rRWklt7+4Ju6/sCdzTWOdQt2Wvzt6yfWCfZN/z/an7bx4IP9B8kHGw7pDloarDtMOl9Uj9jPr+hsyGzsbkxo4jYUeam7ybDh91PLrjmOmxyuPax5edoJwoPjF4svDkwCnRqb7TGae7myc33zsz7sz1lpiW9rPhZ8+fCz53ppXZevK8z/ljF7wuHLnIuNhwyf1SfZtb2+Hf3X4/3O7eXn/Z43LjFc8rTR1jOk5c9bt6+lrgtXPX2dcv3Yi80XEz4ebtWxNudd7m3X52J+fOq7sFdz/fm3efcL/0gfqDioeGD6v/sP1jb6d75/GuwK62R3GP7nVzu188znv8paf4CfVJxVOTpzXPnJ8d6w3uvfJ8/POeF6IXn/tK/tT4s+qlzctDf/n/1dY/rr/nlfjV4Oslb/Tf7Hjr+rZ5IHrg4bvcd5/fl37Q/7DzI+Nj66ekT08/T/tC+rL2q+3Xpm/h3+4P5g4OijhijuxTAIMNTU8H4PUOAKjJANDg/owyXr7/kxki37PKEPhPWL5HlJk7AHXw+z2mD37d3AJg3za4/YL6ahMAiKYCEO8JUBeX4Ta0V5PtK6VGhPuAzZFf03LTwL8x+Z7zh7x/PgOpqiv4+fwvzpJ8P5CR8cwAAABsZVhJZk1NACoAAAAIAAQBGgAFAAAAAQAAAD4BGwAFAAAAAQAAAEYBKAADAAAAAQACAACHaQAEAAAAAQAAAE4AAAAAAAAAkAAAAAEAAACQAAAAAQACoAIABAAAAAEAAADMoAMABAAAAAEAAABwAAAAAKLOsIkAAAAJcEhZcwAAFiUAABYlAUlSJPAAAAmOSURBVHgB7Z1dSFVrHofbH27zIy3LKfM41fEoOcxE3dSgyRBkNockZoigLqKriaK7A1ETwYCXQRFddBdU0IUXQVQQ1sjpA6JAmsnCCLJPGkutLCn1mB6N/K2/e3Sv/bHc7rP3c2561rvej7Wetf/nfV3rXe/yjYz+N4v/MDCDBqb6Cfp8vhk8qsmb9k+eTCoGMDCZAQJmMiukYWAKA8Ep0knGQNIMvHz5Um01NzeL169fL16yZIl4JoEeZibt0/ZvzgAB85u7ZBzwTBpgSDaT9mn7q4Hh4WGZaGtrm5Srq6uVXl9fLy4sLBQnA+hhkmGZNtLGAAGTNpeSE0mGAYZkybBMG3EZ+Pz5s8q1tLSI7969K96wYYO4pqZGHAqFxF4CPYyXNqkr7Q0QMGl/iTlBLw0wJPPSJnVNmwE73+zt27dqp6mpSXznzh3xpk2bxFVVVWK/P7E+IrHSOgwAA5lhgIDJjOvMWXpkgCGZRyKpZmYM2IeeHR0dOogTJ06IV6xYIW5oaBCXlJSIowV6mGhNkQ8DowYIGH4GGIjBgM+LNy5bW1vV5JUrV8RfvnwRAxiYysDg4KB2vXnzRmyHW0pMEPLz81VDbW2t2L5KYPMowzeghwk3wjYGIhggYCLIYRcGwg14cpesvb1d9T558kQMYCDVDPT19emQrl+/Li4uLhbbOWlK/Ab0MOFG2MZABAMETAQ57MJAuAFP7pL19vaqXjskm467HGoISBsDXV1dOpeLFy+K7d0zJcYBwaDzl8eqVatUg51vtnDhQqVHWg+NHkaaAAy4GyBg3B2RAwMy4MmQTLUBGIjDwLNnz1Tq6NGjYvvGpRKjhPLycuW0Q6/Kykql26GaEl2AHsZFELsxYA0QMNYGjAEXA87tA5eM7MZAKhooKirSYW3cuFG8evVqcU5OjjhRoIdJ1CDlM8oAAZNRl5uTTdQAQ7JEDVI+KQays7PVjp2WX1dXp3S7bGykh48qEAfQw8QhjSKZa4CAydxrz5nHYYAhWRzSKDJ9Buy6YStXrlRD9uFjaWmp0m1+JU4j0MNMo1yqTj8DBEz6XVPOaBoNMJdsGuVSdXQG3r17p4ydnZ3iiooKcTzzvlTYQ6CH8VAmVaW/AQIm/a8xZ+ihAYZkHsqkqvQ3QA+T/teYM/TQAAHjoUyqSn8DBEz6X2PO0EMDBIyHMqkq/Q0QMOl/jTlDDw14Mpfs/fv3OqQzZ86IL1y4IP748aMYwEAyDdgFMbZv366m7SfLo30wSg8jfQAG3A0QMO6OyIEBGYj7weWrV69Uyc6dO8UtLS1iPqgkFUCKGMjNzdWR7N69W9zY2CiOtGgGPYw0ARhwNxBTD9Pf368aba/S1NSk9FnZeeKiP/4ozlmwVAxgIBEDoVBAxbfW/F68oqxQPDAwILYLnJ8/f17p9uUzu+Lmnj17lCcc6GHCjbCNgQgGCJgIctiFgXADMQ3JLl26pPJbt24Vfx50vpb83YaflF70Q7XY5yM2JQNIyMCPa51h2L/+VqW6sgKT/8bsouYHDhxQ/uPHj4uXLl0qvnr1qnjZsmXiMZi8hQlZ2MAABsYNEDDjJvgXA1EYiGlqzOnTp1Xlp0+fxHkVteJ53/9ZzDBMKoAEDeTNcVa+3FGzRLVNNQxThlGwz1X27dunXc3NzeKHDx+K7Z8ee/fuVfoY0MNM0MEGBiIbIGAi+2EvBiYYcB2SPX/+XAVu374tnuV3Hh797k9/Vbo/4Fql8gIYiNZARVmBspYvdB6OKzFKWLx4sXJu3rxZ3N7eLraz7Hft2qX0rKwshmSyAWAgCgMMyaKQRBYMjBtwHT89fvx4PO+s169fiwNzisU588rEAAamw8CaivmqNuj3iROB+vp6FT9y5Ij46dOn4q6uLvHYcI4eRjoADLgbIGDcHZEDAzIQHL87UFXlzMnR3lF48eKFNu30/uz5zpAsOHuO8gAYmA4DlYvyPa+2pKREdc6f7wz57DCsp6dHeQoKChiSyQaAgSgMMCSLQhJZMDBugIAZN8G/GIjCQPDs2bNfsx08eFDZZ8+eLbZrjilxFALmVWR/MGR3wRjwxEDAvN8yLzfLkzptJfn5zt9FeXnO7AH7gSf7Ls3Q0BB/w1iBMAbcDDAkczPEfgwYA8FDhw593QyFGFYZL2AKGPAHnCf6QcNeHZpdHtayXU/P8tiaZvQwXtmnnowwQMBkxGXmJL0yEHQbitnXO22jw784i/qNDA9pl8/vOp9TeQEMRDLwi1mN6GO/8xuLVCaWffaLEpbtHTPLY7FCDxOLYfJmvAECJuN/AgiIxYDr+Km0tFT1BQLOa8lDn94qfai/T5yVO1cMYMArA896nFWKqn9wJkomUr+dWGkfVi5atEjVzp078fdMDyM1AAbcDRAw7o7IgQEZcB2S2e8DFhc778C87u5UJYN9zmucDMmkBfDQQGuH8x3VbWu8eSX+xo0bOkK7MGVZmVO//c2PZaaHkTIAA+4GCBh3R+TAgAy4Dsnscv/Lly9Xwc6ffxZ3tzvftcwtLlc6aytLBZCggf92vFMNr3qdh+aLC51XUZQhAnz48EF7z507J7awbt06bYY/uKeHkRoAA+4GCBh3R+TAgAy4DsnsXLMdO3ao4M2bN8XvH/5bXFRZK55T8gcxgIFEDPR0Ow8uL/7nf6rqH3+Z+IUw7TAwMjKirVOnTolbW1vFdtUYu+ayMnwDephwI2xjIIIBAiaCHHZhINxATB+F7e3tVXnbbV27dk3pgXnfiUvWbBfnFDkPg3w+n9IBDMRqoKAgR0X++Xfnzu33xc5CFvZNycuXLyv/4cOHxfb3vH//fqU3NjaK7fzJsUR6GKkBMOBugIBxd0QODMhATEMylRqFBw8eaHPbtm3itrY2sc9+jSyYrXQAA14ZyA05N3pDQef///bOmH2bcnh4WE03NDSIT548KbZ3zJT4DZwWwvewjQEM/J+BuHsYW9OjR4+0eezYMbG9GdDd3a10AAPJNGBX6d+yZYuatt+vXLBggdIjAT1MJDvsw0CYAQImTAibGIhkwJMhmW3A3v+2C5kPDAzYbDAGkmbAzjguLCxUu35/7P1F7CXUHICBzDNAwGTeNeeMEzDg+ZAsgWOhKAZS3gA9TMpfIg4wlQwQMKl0NTiWlDdAwKT8JeIAU8kAAZNKV4NjSXkDBEzKXyIOMJUMOFM9U+moOJaYDPT3O8sO3bp1S2Xt/L21a9cq3c6tUmIY3Lt3Tyn3798X19XVicNXhdSONAZ6mDS+uJya9wZ+Bb7M3ZULb6gvAAAAAElFTkSuQmCC;flipH=1;" vertex="1" parent="1">
          <mxGeometry x="649" y="614.25" width="54.64" height="30" as="geometry" />
        </mxCell>
        <mxCell id="eDpDhIR4D00s_7X7voQF-253" style="edgeStyle=orthogonalEdgeStyle;rounded=0;orthogonalLoop=1;jettySize=auto;html=1;entryX=0;entryY=0.5;entryDx=0;entryDy=0;dashed=1;fontSize=12;" edge="1" parent="1" source="eDpDhIR4D00s_7X7voQF-189" target="eDpDhIR4D00s_7X7voQF-232">
          <mxGeometry relative="1" as="geometry" />
        </mxCell>
      </root>
    </mxGraphModel>
  </diagram>
</mxfile>
